<?xml version="1.0" encoding="utf-8" standalone="no"?>
<!DOCTYPE svg PUBLIC "-//W3C//DTD SVG 1.1//EN"
  "http://www.w3.org/Graphics/SVG/1.1/DTD/svg11.dtd">
<svg xmlns:xlink="http://www.w3.org/1999/xlink" width="22.08pt" height="22.08pt" viewBox="0 0 22.08 22.08" xmlns="http://www.w3.org/2000/svg" version="1.1">
 <metadata>
  <rdf:RDF xmlns:dc="http://purl.org/dc/elements/1.1/" xmlns:cc="http://creativecommons.org/ns#" xmlns:rdf="http://www.w3.org/1999/02/22-rdf-syntax-ns#">
   <cc:Work>
    <dc:type rdf:resource="http://purl.org/dc/dcmitype/StillImage"/>
    <dc:date>2025-10-07T21:53:35.577976</dc:date>
    <dc:format>image/svg+xml</dc:format>
    <dc:creator>
     <cc:Agent>
      <dc:title>Matplotlib v3.6.3, https://matplotlib.org/</dc:title>
     </cc:Agent>
    </dc:creator>
   </cc:Work>
  </rdf:RDF>
 </metadata>
 <defs>
  <style type="text/css">*{stroke-linejoin: round; stroke-linecap: butt}</style>
 </defs>
 <g id="figure_1">
  <g id="patch_1">
   <path d="M 0 22.08 
L 22.08 22.08 
L 22.08 0 
L 0 0 
z
" style="fill: #ffffff"/>
  </g>
  <g id="axes_1">
   <g id="patch_2">
    <path d="M 8.8896 14.88 
L 13.1904 14.88 
Q 14.88 14.88 14.88 13.1904 
L 14.88 8.8896 
Q 14.88 7.2 13.1904 7.2 
L 8.8896 7.2 
Q 7.2 7.2 7.2 8.8896 
L 7.2 13.1904 
Q 7.2 14.88 8.8896 14.88 
z
" clip-path="url(#pf0d73312ad)" style="fill: #ffc107"/>
   </g>
   <g id="patch_3">
    <path d="M 7.53792 14.88 
L 8.39808 14.88 
Q 8.736 14.88 8.736 14.54208 
L 8.736 13.68192 
Q 8.736 13.344 8.39808 13.344 
L 7.53792 13.344 
Q 7.2 13.344 7.2 13.68192 
L 7.2 14.54208 
Q 7.2 14.88 7.53792 14.88 
z
" clip-path="url(#pf0d73312ad)" style="fill: #ffc107; opacity: 0.07"/>
   </g>
   <g id="patch_4">
    <path d="M 7.565505 14.88 
L 8.495882 14.88 
Q 8.861388 14.88 8.861388 14.514495 
L 8.861388 13.584118 
Q 8.861388 13.218612 8.495882 13.218612 
L 7.565505 13.218612 
Q 7.2 13.218612 7.2 13.584118 
L 7.2 14.514495 
Q 7.2 14.88 7.565505 14.88 
z
" clip-path="url(#pf0d73312ad)" style="fill: #ffc007; opacity: 0.07"/>
   </g>
   <g id="patch_5">
    <path d="M 7.593091 14.88 
L 8.593685 14.88 
Q 8.986776 14.88 8.986776 14.486909 
L 8.986776 13.486315 
Q 8.986776 13.093224 8.593685 13.093224 
L 7.593091 13.093224 
Q 7.2 13.093224 7.2 13.486315 
L 7.2 14.486909 
Q 7.2 14.88 7.593091 14.88 
z
" clip-path="url(#pf0d73312ad)" style="fill: #ffbf07; opacity: 0.07"/>
   </g>
   <g id="patch_6">
    <path d="M 7.620676 14.88 
L 8.691487 14.88 
Q 9.112163 14.88 9.112163 14.459324 
L 9.112163 13.388513 
Q 9.112163 12.967837 8.691487 12.967837 
L 7.620676 12.967837 
Q 7.2 12.967837 7.2 13.388513 
L 7.2 14.459324 
Q 7.2 14.88 7.620676 14.88 
z
" clip-path="url(#pf0d73312ad)" style="fill: #ffbe06; opacity: 0.07"/>
   </g>
   <g id="patch_7">
    <path d="M 7.648261 14.88 
L 8.78929 14.88 
Q 9.237551 14.88 9.237551 14.431739 
L 9.237551 13.29071 
Q 9.237551 12.842449 8.78929 12.842449 
L 7.648261 12.842449 
Q 7.2 12.842449 7.2 13.29071 
L 7.2 14.431739 
Q 7.2 14.88 7.648261 14.88 
z
" clip-path="url(#pf0d73312ad)" style="fill: #ffbd06; opacity: 0.07"/>
   </g>
   <g id="patch_8">
    <path d="M 7.675847 14.88 
L 8.887092 14.88 
Q 9.362939 14.88 9.362939 14.404153 
L 9.362939 13.192908 
Q 9.362939 12.717061 8.887092 12.717061 
L 7.675847 12.717061 
Q 7.2 12.717061 7.2 13.192908 
L 7.2 14.404153 
Q 7.2 14.88 7.675847 14.88 
z
" clip-path="url(#pf0d73312ad)" style="fill: #ffbd06; opacity: 0.07"/>
   </g>
   <g id="patch_9">
    <path d="M 7.703432 14.88 
L 8.984895 14.88 
Q 9.488327 14.88 9.488327 14.376568 
L 9.488327 13.095105 
Q 9.488327 12.591673 8.984895 12.591673 
L 7.703432 12.591673 
Q 7.2 12.591673 7.2 13.095105 
L 7.2 14.376568 
Q 7.2 14.88 7.703432 14.88 
z
" clip-path="url(#pf0d73312ad)" style="fill: #ffbc06; opacity: 0.07"/>
   </g>
   <g id="patch_10">
    <path d="M 7.731017 14.88 
L 9.082697 14.88 
Q 9.613714 14.88 9.613714 14.348983 
L 9.613714 12.997303 
Q 9.613714 12.466286 9.082697 12.466286 
L 7.731017 12.466286 
Q 7.2 12.466286 7.2 12.997303 
L 7.2 14.348983 
Q 7.2 14.88 7.731017 14.88 
z
" clip-path="url(#pf0d73312ad)" style="fill: #ffbb06; opacity: 0.07"/>
   </g>
   <g id="patch_11">
    <path d="M 7.758602 14.88 
L 9.1805 14.88 
Q 9.739102 14.88 9.739102 14.321398 
L 9.739102 12.8995 
Q 9.739102 12.340898 9.1805 12.340898 
L 7.758602 12.340898 
Q 7.2 12.340898 7.2 12.8995 
L 7.2 14.321398 
Q 7.2 14.88 7.758602 14.88 
z
" clip-path="url(#pf0d73312ad)" style="fill: #ffba06; opacity: 0.07"/>
   </g>
   <g id="patch_12">
    <path d="M 7.786188 14.88 
L 9.278302 14.88 
Q 9.86449 14.88 9.86449 14.293812 
L 9.86449 12.801698 
Q 9.86449 12.21551 9.278302 12.21551 
L 7.786188 12.21551 
Q 7.2 12.21551 7.2 12.801698 
L 7.2 14.293812 
Q 7.2 14.88 7.786188 14.88 
z
" clip-path="url(#pf0d73312ad)" style="fill: #ffb906; opacity: 0.07"/>
   </g>
   <g id="patch_13">
    <path d="M 7.813773 14.88 
L 9.376104 14.88 
Q 9.989878 14.88 9.989878 14.266227 
L 9.989878 12.703896 
Q 9.989878 12.090122 9.376104 12.090122 
L 7.813773 12.090122 
Q 7.2 12.090122 7.2 12.703896 
L 7.2 14.266227 
Q 7.2 14.88 7.813773 14.88 
z
" clip-path="url(#pf0d73312ad)" style="fill: #ffb805; opacity: 0.07"/>
   </g>
   <g id="patch_14">
    <path d="M 7.841358 14.88 
L 9.473907 14.88 
Q 10.115265 14.88 10.115265 14.238642 
L 10.115265 12.606093 
Q 10.115265 11.964735 9.473907 11.964735 
L 7.841358 11.964735 
Q 7.2 11.964735 7.2 12.606093 
L 7.2 14.238642 
Q 7.2 14.88 7.841358 14.88 
z
" clip-path="url(#pf0d73312ad)" style="fill: #ffb805; opacity: 0.07"/>
   </g>
   <g id="patch_15">
    <path d="M 7.868944 14.88 
L 9.571709 14.88 
Q 10.240653 14.88 10.240653 14.211056 
L 10.240653 12.508291 
Q 10.240653 11.839347 9.571709 11.839347 
L 7.868944 11.839347 
Q 7.2 11.839347 7.2 12.508291 
L 7.2 14.211056 
Q 7.2 14.88 7.868944 14.88 
z
" clip-path="url(#pf0d73312ad)" style="fill: #ffb705; opacity: 0.07"/>
   </g>
   <g id="patch_16">
    <path d="M 7.896529 14.88 
L 9.669512 14.88 
Q 10.366041 14.88 10.366041 14.183471 
L 10.366041 12.410488 
Q 10.366041 11.713959 9.669512 11.713959 
L 7.896529 11.713959 
Q 7.2 11.713959 7.2 12.410488 
L 7.2 14.183471 
Q 7.2 14.88 7.896529 14.88 
z
" clip-path="url(#pf0d73312ad)" style="fill: #ffb605; opacity: 0.07"/>
   </g>
   <g id="patch_17">
    <path d="M 7.924114 14.88 
L 9.767314 14.88 
Q 10.491429 14.88 10.491429 14.155886 
L 10.491429 12.312686 
Q 10.491429 11.588571 9.767314 11.588571 
L 7.924114 11.588571 
Q 7.2 11.588571 7.2 12.312686 
L 7.2 14.155886 
Q 7.2 14.88 7.924114 14.88 
z
" clip-path="url(#pf0d73312ad)" style="fill: #ffb505; opacity: 0.07"/>
   </g>
   <g id="patch_18">
    <path d="M 7.9517 14.88 
L 9.865117 14.88 
Q 10.616816 14.88 10.616816 14.1283 
L 10.616816 12.214883 
Q 10.616816 11.463184 9.865117 11.463184 
L 7.9517 11.463184 
Q 7.2 11.463184 7.2 12.214883 
L 7.2 14.1283 
Q 7.2 14.88 7.9517 14.88 
z
" clip-path="url(#pf0d73312ad)" style="fill: #ffb405; opacity: 0.07"/>
   </g>
   <g id="patch_19">
    <path d="M 7.979285 14.88 
L 9.962919 14.88 
Q 10.742204 14.88 10.742204 14.100715 
L 10.742204 12.117081 
Q 10.742204 11.337796 9.962919 11.337796 
L 7.979285 11.337796 
Q 7.2 11.337796 7.2 12.117081 
L 7.2 14.100715 
Q 7.2 14.88 7.979285 14.88 
z
" clip-path="url(#pf0d73312ad)" style="fill: #ffb305; opacity: 0.07"/>
   </g>
   <g id="patch_20">
    <path d="M 8.00687 14.88 
L 10.060722 14.88 
Q 10.867592 14.88 10.867592 14.07313 
L 10.867592 12.019278 
Q 10.867592 11.212408 10.060722 11.212408 
L 8.00687 11.212408 
Q 7.2 11.212408 7.2 12.019278 
L 7.2 14.07313 
Q 7.2 14.88 8.00687 14.88 
z
" clip-path="url(#pf0d73312ad)" style="fill: #ffb304; opacity: 0.07"/>
   </g>
   <g id="patch_21">
    <path d="M 8.034456 14.88 
L 10.158524 14.88 
Q 10.99298 14.88 10.99298 14.045544 
L 10.99298 11.921476 
Q 10.99298 11.08702 10.158524 11.08702 
L 8.034456 11.08702 
Q 7.2 11.08702 7.2 11.921476 
L 7.2 14.045544 
Q 7.2 14.88 8.034456 14.88 
z
" clip-path="url(#pf0d73312ad)" style="fill: #ffb204; opacity: 0.07"/>
   </g>
   <g id="patch_22">
    <path d="M 8.062041 14.88 
L 10.256327 14.88 
Q 11.118367 14.88 11.118367 14.017959 
L 11.118367 11.823673 
Q 11.118367 10.961633 10.256327 10.961633 
L 8.062041 10.961633 
Q 7.2 10.961633 7.2 11.823673 
L 7.2 14.017959 
Q 7.2 14.88 8.062041 14.88 
z
" clip-path="url(#pf0d73312ad)" style="fill: #ffb104; opacity: 0.07"/>
   </g>
   <g id="patch_23">
    <path d="M 8.089626 14.88 
L 10.354129 14.88 
Q 11.243755 14.88 11.243755 13.990374 
L 11.243755 11.725871 
Q 11.243755 10.836245 10.354129 10.836245 
L 8.089626 10.836245 
Q 7.2 10.836245 7.2 11.725871 
L 7.2 13.990374 
Q 7.2 14.88 8.089626 14.88 
z
" clip-path="url(#pf0d73312ad)" style="fill: #ffb004; opacity: 0.07"/>
   </g>
   <g id="patch_24">
    <path d="M 8.117211 14.88 
L 10.451931 14.88 
Q 11.369143 14.88 11.369143 13.962789 
L 11.369143 11.628069 
Q 11.369143 10.710857 10.451931 10.710857 
L 8.117211 10.710857 
Q 7.2 10.710857 7.2 11.628069 
L 7.2 13.962789 
Q 7.2 14.88 8.117211 14.88 
z
" clip-path="url(#pf0d73312ad)" style="fill: #ffaf04; opacity: 0.07"/>
   </g>
   <g id="patch_25">
    <path d="M 8.144797 14.88 
L 10.549734 14.88 
Q 11.494531 14.88 11.494531 13.935203 
L 11.494531 11.530266 
Q 11.494531 10.585469 10.549734 10.585469 
L 8.144797 10.585469 
Q 7.2 10.585469 7.2 11.530266 
L 7.2 13.935203 
Q 7.2 14.88 8.144797 14.88 
z
" clip-path="url(#pf0d73312ad)" style="fill: #ffae04; opacity: 0.07"/>
   </g>
   <g id="patch_26">
    <path d="M 8.172382 14.88 
L 10.647536 14.88 
Q 11.619918 14.88 11.619918 13.907618 
L 11.619918 11.432464 
Q 11.619918 10.460082 10.647536 10.460082 
L 8.172382 10.460082 
Q 7.2 10.460082 7.2 11.432464 
L 7.2 13.907618 
Q 7.2 14.88 8.172382 14.88 
z
" clip-path="url(#pf0d73312ad)" style="fill: #ffae04; opacity: 0.07"/>
   </g>
   <g id="patch_27">
    <path d="M 8.199967 14.88 
L 10.745339 14.88 
Q 11.745306 14.88 11.745306 13.880033 
L 11.745306 11.334661 
Q 11.745306 10.334694 10.745339 10.334694 
L 8.199967 10.334694 
Q 7.2 10.334694 7.2 11.334661 
L 7.2 13.880033 
Q 7.2 14.88 8.199967 14.88 
z
" clip-path="url(#pf0d73312ad)" style="fill: #ffad04; opacity: 0.07"/>
   </g>
   <g id="patch_28">
    <path d="M 8.227553 14.88 
L 10.843141 14.88 
Q 11.870694 14.88 11.870694 13.852447 
L 11.870694 11.236859 
Q 11.870694 10.209306 10.843141 10.209306 
L 8.227553 10.209306 
Q 7.2 10.209306 7.2 11.236859 
L 7.2 13.852447 
Q 7.2 14.88 8.227553 14.88 
z
" clip-path="url(#pf0d73312ad)" style="fill: #ffac03; opacity: 0.07"/>
   </g>
   <g id="patch_29">
    <path d="M 8.255138 14.88 
L 10.940944 14.88 
Q 11.996082 14.88 11.996082 13.824862 
L 11.996082 11.139056 
Q 11.996082 10.083918 10.940944 10.083918 
L 8.255138 10.083918 
Q 7.2 10.083918 7.2 11.139056 
L 7.2 13.824862 
Q 7.2 14.88 8.255138 14.88 
z
" clip-path="url(#pf0d73312ad)" style="fill: #ffab03; opacity: 0.07"/>
   </g>
   <g id="patch_30">
    <path d="M 8.282723 14.88 
L 11.038746 14.88 
Q 12.121469 14.88 12.121469 13.797277 
L 12.121469 11.041254 
Q 12.121469 9.958531 11.038746 9.958531 
L 8.282723 9.958531 
Q 7.2 9.958531 7.2 11.041254 
L 7.2 13.797277 
Q 7.2 14.88 8.282723 14.88 
z
" clip-path="url(#pf0d73312ad)" style="fill: #ffaa03; opacity: 0.07"/>
   </g>
   <g id="patch_31">
    <path d="M 8.310309 14.88 
L 11.136549 14.88 
Q 12.246857 14.88 12.246857 13.769691 
L 12.246857 10.943451 
Q 12.246857 9.833143 11.136549 9.833143 
L 8.310309 9.833143 
Q 7.2 9.833143 7.2 10.943451 
L 7.2 13.769691 
Q 7.2 14.88 8.310309 14.88 
z
" clip-path="url(#pf0d73312ad)" style="fill: #ffa903; opacity: 0.07"/>
   </g>
   <g id="patch_32">
    <path d="M 8.337894 14.88 
L 11.234351 14.88 
Q 12.372245 14.88 12.372245 13.742106 
L 12.372245 10.845649 
Q 12.372245 9.707755 11.234351 9.707755 
L 8.337894 9.707755 
Q 7.2 9.707755 7.2 10.845649 
L 7.2 13.742106 
Q 7.2 14.88 8.337894 14.88 
z
" clip-path="url(#pf0d73312ad)" style="fill: #ffa903; opacity: 0.07"/>
   </g>
   <g id="patch_33">
    <path d="M 8.365479 14.88 
L 11.332153 14.88 
Q 12.497633 14.88 12.497633 13.714521 
L 12.497633 10.747847 
Q 12.497633 9.582367 11.332153 9.582367 
L 8.365479 9.582367 
Q 7.2 9.582367 7.2 10.747847 
L 7.2 13.714521 
Q 7.2 14.88 8.365479 14.88 
z
" clip-path="url(#pf0d73312ad)" style="fill: #ffa803; opacity: 0.07"/>
   </g>
   <g id="patch_34">
    <path d="M 8.393064 14.88 
L 11.429956 14.88 
Q 12.62302 14.88 12.62302 13.686936 
L 12.62302 10.650044 
Q 12.62302 9.45698 11.429956 9.45698 
L 8.393064 9.45698 
Q 7.2 9.45698 7.2 10.650044 
L 7.2 13.686936 
Q 7.2 14.88 8.393064 14.88 
z
" clip-path="url(#pf0d73312ad)" style="fill: #ffa703; opacity: 0.07"/>
   </g>
   <g id="patch_35">
    <path d="M 8.42065 14.88 
L 11.527758 14.88 
Q 12.748408 14.88 12.748408 13.65935 
L 12.748408 10.552242 
Q 12.748408 9.331592 11.527758 9.331592 
L 8.42065 9.331592 
Q 7.2 9.331592 7.2 10.552242 
L 7.2 13.65935 
Q 7.2 14.88 8.42065 14.88 
z
" clip-path="url(#pf0d73312ad)" style="fill: #ffa602; opacity: 0.07"/>
   </g>
   <g id="patch_36">
    <path d="M 8.448235 14.88 
L 11.625561 14.88 
Q 12.873796 14.88 12.873796 13.631765 
L 12.873796 10.454439 
Q 12.873796 9.206204 11.625561 9.206204 
L 8.448235 9.206204 
Q 7.2 9.206204 7.2 10.454439 
L 7.2 13.631765 
Q 7.2 14.88 8.448235 14.88 
z
" clip-path="url(#pf0d73312ad)" style="fill: #ffa502; opacity: 0.07"/>
   </g>
   <g id="patch_37">
    <path d="M 8.47582 14.88 
L 11.723363 14.88 
Q 12.999184 14.88 12.999184 13.60418 
L 12.999184 10.356637 
Q 12.999184 9.080816 11.723363 9.080816 
L 8.47582 9.080816 
Q 7.2 9.080816 7.2 10.356637 
L 7.2 13.60418 
Q 7.2 14.88 8.47582 14.88 
z
" clip-path="url(#pf0d73312ad)" style="fill: #ffa402; opacity: 0.07"/>
   </g>
   <g id="patch_38">
    <path d="M 8.503406 14.88 
L 11.821166 14.88 
Q 13.124571 14.88 13.124571 13.576594 
L 13.124571 10.258834 
Q 13.124571 8.955429 11.821166 8.955429 
L 8.503406 8.955429 
Q 7.2 8.955429 7.2 10.258834 
L 7.2 13.576594 
Q 7.2 14.88 8.503406 14.88 
z
" clip-path="url(#pf0d73312ad)" style="fill: #ffa402; opacity: 0.07"/>
   </g>
   <g id="patch_39">
    <path d="M 8.530991 14.88 
L 11.918968 14.88 
Q 13.249959 14.88 13.249959 13.549009 
L 13.249959 10.161032 
Q 13.249959 8.830041 11.918968 8.830041 
L 8.530991 8.830041 
Q 7.2 8.830041 7.2 10.161032 
L 7.2 13.549009 
Q 7.2 14.88 8.530991 14.88 
z
" clip-path="url(#pf0d73312ad)" style="fill: #ffa302; opacity: 0.07"/>
   </g>
   <g id="patch_40">
    <path d="M 8.558576 14.88 
L 12.016771 14.88 
Q 13.375347 14.88 13.375347 13.521424 
L 13.375347 10.063229 
Q 13.375347 8.704653 12.016771 8.704653 
L 8.558576 8.704653 
Q 7.2 8.704653 7.2 10.063229 
L 7.2 13.521424 
Q 7.2 14.88 8.558576 14.88 
z
" clip-path="url(#pf0d73312ad)" style="fill: #ffa202; opacity: 0.07"/>
   </g>
   <g id="patch_41">
    <path d="M 8.586162 14.88 
L 12.114573 14.88 
Q 13.500735 14.88 13.500735 13.493838 
L 13.500735 9.965427 
Q 13.500735 8.579265 12.114573 8.579265 
L 8.586162 8.579265 
Q 7.2 8.579265 7.2 9.965427 
L 7.2 13.493838 
Q 7.2 14.88 8.586162 14.88 
z
" clip-path="url(#pf0d73312ad)" style="fill: #ffa102; opacity: 0.07"/>
   </g>
   <g id="patch_42">
    <path d="M 8.613747 14.88 
L 12.212376 14.88 
Q 13.626122 14.88 13.626122 13.466253 
L 13.626122 9.867624 
Q 13.626122 8.453878 12.212376 8.453878 
L 8.613747 8.453878 
Q 7.2 8.453878 7.2 9.867624 
L 7.2 13.466253 
Q 7.2 14.88 8.613747 14.88 
z
" clip-path="url(#pf0d73312ad)" style="fill: #ffa001; opacity: 0.07"/>
   </g>
   <g id="patch_43">
    <path d="M 8.641332 14.88 
L 12.310178 14.88 
Q 13.75151 14.88 13.75151 13.438668 
L 13.75151 9.769822 
Q 13.75151 8.32849 12.310178 8.32849 
L 8.641332 8.32849 
Q 7.2 8.32849 7.2 9.769822 
L 7.2 13.438668 
Q 7.2 14.88 8.641332 14.88 
z
" clip-path="url(#pf0d73312ad)" style="fill: #ff9f01; opacity: 0.07"/>
   </g>
   <g id="patch_44">
    <path d="M 8.668918 14.88 
L 12.40798 14.88 
Q 13.876898 14.88 13.876898 13.411082 
L 13.876898 9.67202 
Q 13.876898 8.203102 12.40798 8.203102 
L 8.668918 8.203102 
Q 7.2 8.203102 7.2 9.67202 
L 7.2 13.411082 
Q 7.2 14.88 8.668918 14.88 
z
" clip-path="url(#pf0d73312ad)" style="fill: #ff9f01; opacity: 0.07"/>
   </g>
   <g id="patch_45">
    <path d="M 8.696503 14.88 
L 12.505783 14.88 
Q 14.002286 14.88 14.002286 13.383497 
L 14.002286 9.574217 
Q 14.002286 8.077714 12.505783 8.077714 
L 8.696503 8.077714 
Q 7.2 8.077714 7.2 9.574217 
L 7.2 13.383497 
Q 7.2 14.88 8.696503 14.88 
z
" clip-path="url(#pf0d73312ad)" style="fill: #ff9e01; opacity: 0.07"/>
   </g>
   <g id="patch_46">
    <path d="M 8.724088 14.88 
L 12.603585 14.88 
Q 14.127673 14.88 14.127673 13.355912 
L 14.127673 9.476415 
Q 14.127673 7.952327 12.603585 7.952327 
L 8.724088 7.952327 
Q 7.2 7.952327 7.2 9.476415 
L 7.2 13.355912 
Q 7.2 14.88 8.724088 14.88 
z
" clip-path="url(#pf0d73312ad)" style="fill: #ff9d01; opacity: 0.07"/>
   </g>
   <g id="patch_47">
    <path d="M 8.751673 14.88 
L 12.701388 14.88 
Q 14.253061 14.88 14.253061 13.328327 
L 14.253061 9.378612 
Q 14.253061 7.826939 12.701388 7.826939 
L 8.751673 7.826939 
Q 7.2 7.826939 7.2 9.378612 
L 7.2 13.328327 
Q 7.2 14.88 8.751673 14.88 
z
" clip-path="url(#pf0d73312ad)" style="fill: #ff9c01; opacity: 0.07"/>
   </g>
   <g id="patch_48">
    <path d="M 8.779259 14.88 
L 12.79919 14.88 
Q 14.378449 14.88 14.378449 13.300741 
L 14.378449 9.28081 
Q 14.378449 7.701551 12.79919 7.701551 
L 8.779259 7.701551 
Q 7.2 7.701551 7.2 9.28081 
L 7.2 13.300741 
Q 7.2 14.88 8.779259 14.88 
z
" clip-path="url(#pf0d73312ad)" style="fill: #ff9b01; opacity: 0.07"/>
   </g>
   <g id="patch_49">
    <path d="M 8.806844 14.88 
L 12.896993 14.88 
Q 14.503837 14.88 14.503837 13.273156 
L 14.503837 9.183007 
Q 14.503837 7.576163 12.896993 7.576163 
L 8.806844 7.576163 
Q 7.2 7.576163 7.2 9.183007 
L 7.2 13.273156 
Q 7.2 14.88 8.806844 14.88 
z
" clip-path="url(#pf0d73312ad)" style="fill: #ff9a00; opacity: 0.07"/>
   </g>
   <g id="patch_50">
    <path d="M 8.834429 14.88 
L 12.994795 14.88 
Q 14.629224 14.88 14.629224 13.245571 
L 14.629224 9.085205 
Q 14.629224 7.450776 12.994795 7.450776 
L 8.834429 7.450776 
Q 7.2 7.450776 7.2 9.085205 
L 7.2 13.245571 
Q 7.2 14.88 8.834429 14.88 
z
" clip-path="url(#pf0d73312ad)" style="fill: #ff9a00; opacity: 0.07"/>
   </g>
   <g id="patch_51">
    <path d="M 8.862015 14.88 
L 13.092598 14.88 
Q 14.754612 14.88 14.754612 13.217985 
L 14.754612 8.987402 
Q 14.754612 7.325388 13.092598 7.325388 
L 8.862015 7.325388 
Q 7.2 7.325388 7.2 8.987402 
L 7.2 13.217985 
Q 7.2 14.88 8.862015 14.88 
z
" clip-path="url(#pf0d73312ad)" style="fill: #ff9900; opacity: 0.07"/>
   </g>
   <g id="patch_52">
    <path d="M 8.8896 14.88 
L 13.1904 14.88 
Q 14.88 14.88 14.88 13.1904 
L 14.88 8.8896 
Q 14.88 7.2 13.1904 7.2 
L 8.8896 7.2 
Q 7.2 7.2 7.2 8.8896 
L 7.2 13.1904 
Q 7.2 14.88 8.8896 14.88 
z
" clip-path="url(#pf0d73312ad)" style="fill: #ff9800; opacity: 0.07"/>
   </g>
   <g id="patch_53">
    <path d="M 12.643584 9.562368 
L 12.623841 9.813224 
L 12.565099 10.057903 
L 12.468804 10.29038 
L 12.337327 10.504931 
L 12.173905 10.696273 
L 11.982563 10.859695 
L 11.768012 10.991172 
L 11.535535 11.087467 
L 11.290856 11.146209 
L 11.04 11.165952 
L 10.789144 11.146209 
L 10.544465 11.087467 
L 10.311988 10.991172 
L 10.097437 10.859695 
L 9.906095 10.696273 
L 9.742673 10.504931 
L 9.611196 10.29038 
L 9.514901 10.057903 
L 9.456159 9.813224 
L 9.436416 9.562368 
L 12.643584 11.165952 
L 11.04 12.413184 
L 9.436416 11.165952 
L 9.436416 9.562368 
L 12.643584 9.562368 
" clip-path="url(#pf0d73312ad)" style="fill: #ffffff"/>
   </g>
   <g id="patch_54">
    <path d="M 10.238208 10.8096 
C 10.379966 10.8096 10.515938 10.753279 10.616176 10.65304 
C 10.716415 10.552802 10.772736 10.41683 10.772736 10.275072 
C 10.772736 10.133314 10.716415 9.997342 10.616176 9.897104 
C 10.515938 9.796865 10.379966 9.740544 10.238208 9.740544 
C 10.09645 9.740544 9.960478 9.796865 9.86024 9.897104 
C 9.760001 9.997342 9.70368 10.133314 9.70368 10.275072 
C 9.70368 10.41683 9.760001 10.552802 9.86024 10.65304 
C 9.960478 10.753279 10.09645 10.8096 10.238208 10.8096 
z
" clip-path="url(#pf0d73312ad)" style="fill: #ffffff"/>
   </g>
   <g id="patch_55">
    <path d="M 11.841792 10.8096 
C 11.98355 10.8096 12.119522 10.753279 12.21976 10.65304 
C 12.319999 10.552802 12.37632 10.41683 12.37632 10.275072 
C 12.37632 10.133314 12.319999 9.997342 12.21976 9.897104 
C 12.119522 9.796865 11.98355 9.740544 11.841792 9.740544 
C 11.700034 9.740544 11.564062 9.796865 11.463824 9.897104 
C 11.363585 9.997342 11.307264 10.133314 11.307264 10.275072 
C 11.307264 10.41683 11.363585 10.552802 11.463824 10.65304 
C 11.564062 10.753279 11.700034 10.8096 11.841792 10.8096 
z
" clip-path="url(#pf0d73312ad)" style="fill: #ffffff"/>
   </g>
  </g>
 </g>
 <defs>
  <clipPath id="pf0d73312ad">
   <rect x="7.2" y="7.2" width="7.68" height="7.68"/>
  </clipPath>
 </defs>
</svg>
