<?xml version="1.0" encoding="utf-8" standalone="no"?>
<!DOCTYPE svg PUBLIC "-//W3C//DTD SVG 1.1//EN"
  "http://www.w3.org/Graphics/SVG/1.1/DTD/svg11.dtd">
<svg xmlns:xlink="http://www.w3.org/1999/xlink" width="29.76pt" height="29.76pt" viewBox="0 0 29.76 29.76" xmlns="http://www.w3.org/2000/svg" version="1.1">
 <metadata>
  <rdf:RDF xmlns:dc="http://purl.org/dc/elements/1.1/" xmlns:cc="http://creativecommons.org/ns#" xmlns:rdf="http://www.w3.org/1999/02/22-rdf-syntax-ns#">
   <cc:Work>
    <dc:type rdf:resource="http://purl.org/dc/dcmitype/StillImage"/>
    <dc:date>2025-10-07T21:53:35.233247</dc:date>
    <dc:format>image/svg+xml</dc:format>
    <dc:creator>
     <cc:Agent>
      <dc:title>Matplotlib v3.6.3, https://matplotlib.org/</dc:title>
     </cc:Agent>
    </dc:creator>
   </cc:Work>
  </rdf:RDF>
 </metadata>
 <defs>
  <style type="text/css">*{stroke-linejoin: round; stroke-linecap: butt}</style>
 </defs>
 <g id="figure_1">
  <g id="patch_1">
   <path d="M -0 29.76 
L 29.76 29.76 
L 29.76 -0 
L -0 -0 
z
" style="fill: #ffffff"/>
  </g>
  <g id="axes_1">
   <g id="patch_2">
    <path d="M 10.5792 22.56 
L 19.1808 22.56 
Q 22.56 22.56 22.56 19.1808 
L 22.56 10.5792 
Q 22.56 7.2 19.1808 7.2 
L 10.5792 7.2 
Q 7.2 7.2 7.2 10.5792 
L 7.2 19.1808 
Q 7.2 22.56 10.5792 22.56 
z
" clip-path="url(#pad03ded017)" style="fill: #ffc107"/>
   </g>
   <g id="patch_3">
    <path d="M 7.87584 22.56 
L 9.59616 22.56 
Q 10.272 22.56 10.272 21.88416 
L 10.272 20.16384 
Q 10.272 19.488 9.59616 19.488 
L 7.87584 19.488 
Q 7.2 19.488 7.2 20.16384 
L 7.2 21.88416 
Q 7.2 22.56 7.87584 22.56 
z
" clip-path="url(#pad03ded017)" style="fill: #ffc107; opacity: 0.07"/>
   </g>
   <g id="patch_4">
    <path d="M 7.931011 22.56 
L 9.791765 22.56 
Q 10.522776 22.56 10.522776 21.828989 
L 10.522776 19.968235 
Q 10.522776 19.237224 9.791765 19.237224 
L 7.931011 19.237224 
Q 7.2 19.237224 7.2 19.968235 
L 7.2 21.828989 
Q 7.2 22.56 7.931011 22.56 
z
" clip-path="url(#pad03ded017)" style="fill: #ffc007; opacity: 0.07"/>
   </g>
   <g id="patch_5">
    <path d="M 7.986181 22.56 
L 9.98737 22.56 
Q 10.773551 22.56 10.773551 21.773819 
L 10.773551 19.77263 
Q 10.773551 18.986449 9.98737 18.986449 
L 7.986181 18.986449 
Q 7.2 18.986449 7.2 19.77263 
L 7.2 21.773819 
Q 7.2 22.56 7.986181 22.56 
z
" clip-path="url(#pad03ded017)" style="fill: #ffbf07; opacity: 0.07"/>
   </g>
   <g id="patch_6">
    <path d="M 8.041352 22.56 
L 10.182975 22.56 
Q 11.024327 22.56 11.024327 21.718648 
L 11.024327 19.577025 
Q 11.024327 18.735673 10.182975 18.735673 
L 8.041352 18.735673 
Q 7.2 18.735673 7.2 19.577025 
L 7.2 21.718648 
Q 7.2 22.56 8.041352 22.56 
z
" clip-path="url(#pad03ded017)" style="fill: #ffbe06; opacity: 0.07"/>
   </g>
   <g id="patch_7">
    <path d="M 8.096522 22.56 
L 10.37858 22.56 
Q 11.275102 22.56 11.275102 21.663478 
L 11.275102 19.38142 
Q 11.275102 18.484898 10.37858 18.484898 
L 8.096522 18.484898 
Q 7.2 18.484898 7.2 19.38142 
L 7.2 21.663478 
Q 7.2 22.56 8.096522 22.56 
z
" clip-path="url(#pad03ded017)" style="fill: #ffbd06; opacity: 0.07"/>
   </g>
   <g id="patch_8">
    <path d="M 8.151693 22.56 
L 10.574184 22.56 
Q 11.525878 22.56 11.525878 21.608307 
L 11.525878 19.185816 
Q 11.525878 18.234122 10.574184 18.234122 
L 8.151693 18.234122 
Q 7.2 18.234122 7.2 19.185816 
L 7.2 21.608307 
Q 7.2 22.56 8.151693 22.56 
z
" clip-path="url(#pad03ded017)" style="fill: #ffbd06; opacity: 0.07"/>
   </g>
   <g id="patch_9">
    <path d="M 8.206864 22.56 
L 10.769789 22.56 
Q 11.776653 22.56 11.776653 21.553136 
L 11.776653 18.990211 
Q 11.776653 17.983347 10.769789 17.983347 
L 8.206864 17.983347 
Q 7.2 17.983347 7.2 18.990211 
L 7.2 21.553136 
Q 7.2 22.56 8.206864 22.56 
z
" clip-path="url(#pad03ded017)" style="fill: #ffbc06; opacity: 0.07"/>
   </g>
   <g id="patch_10">
    <path d="M 8.262034 22.56 
L 10.965394 22.56 
Q 12.027429 22.56 12.027429 21.497966 
L 12.027429 18.794606 
Q 12.027429 17.732571 10.965394 17.732571 
L 8.262034 17.732571 
Q 7.2 17.732571 7.2 18.794606 
L 7.2 21.497966 
Q 7.2 22.56 8.262034 22.56 
z
" clip-path="url(#pad03ded017)" style="fill: #ffbb06; opacity: 0.07"/>
   </g>
   <g id="patch_11">
    <path d="M 8.317205 22.56 
L 11.160999 22.56 
Q 12.278204 22.56 12.278204 21.442795 
L 12.278204 18.599001 
Q 12.278204 17.481796 11.160999 17.481796 
L 8.317205 17.481796 
Q 7.2 17.481796 7.2 18.599001 
L 7.2 21.442795 
Q 7.2 22.56 8.317205 22.56 
z
" clip-path="url(#pad03ded017)" style="fill: #ffba06; opacity: 0.07"/>
   </g>
   <g id="patch_12">
    <path d="M 8.372376 22.56 
L 11.356604 22.56 
Q 12.52898 22.56 12.52898 21.387624 
L 12.52898 18.403396 
Q 12.52898 17.23102 11.356604 17.23102 
L 8.372376 17.23102 
Q 7.2 17.23102 7.2 18.403396 
L 7.2 21.387624 
Q 7.2 22.56 8.372376 22.56 
z
" clip-path="url(#pad03ded017)" style="fill: #ffb906; opacity: 0.07"/>
   </g>
   <g id="patch_13">
    <path d="M 8.427546 22.56 
L 11.552209 22.56 
Q 12.779755 22.56 12.779755 21.332454 
L 12.779755 18.207791 
Q 12.779755 16.980245 11.552209 16.980245 
L 8.427546 16.980245 
Q 7.2 16.980245 7.2 18.207791 
L 7.2 21.332454 
Q 7.2 22.56 8.427546 22.56 
z
" clip-path="url(#pad03ded017)" style="fill: #ffb805; opacity: 0.07"/>
   </g>
   <g id="patch_14">
    <path d="M 8.482717 22.56 
L 11.747814 22.56 
Q 13.030531 22.56 13.030531 21.277283 
L 13.030531 18.012186 
Q 13.030531 16.729469 11.747814 16.729469 
L 8.482717 16.729469 
Q 7.2 16.729469 7.2 18.012186 
L 7.2 21.277283 
Q 7.2 22.56 8.482717 22.56 
z
" clip-path="url(#pad03ded017)" style="fill: #ffb805; opacity: 0.07"/>
   </g>
   <g id="patch_15">
    <path d="M 8.537887 22.56 
L 11.943419 22.56 
Q 13.281306 22.56 13.281306 21.222113 
L 13.281306 17.816581 
Q 13.281306 16.478694 11.943419 16.478694 
L 8.537887 16.478694 
Q 7.2 16.478694 7.2 17.816581 
L 7.2 21.222113 
Q 7.2 22.56 8.537887 22.56 
z
" clip-path="url(#pad03ded017)" style="fill: #ffb705; opacity: 0.07"/>
   </g>
   <g id="patch_16">
    <path d="M 8.593058 22.56 
L 12.139024 22.56 
Q 13.532082 22.56 13.532082 21.166942 
L 13.532082 17.620976 
Q 13.532082 16.227918 12.139024 16.227918 
L 8.593058 16.227918 
Q 7.2 16.227918 7.2 17.620976 
L 7.2 21.166942 
Q 7.2 22.56 8.593058 22.56 
z
" clip-path="url(#pad03ded017)" style="fill: #ffb605; opacity: 0.07"/>
   </g>
   <g id="patch_17">
    <path d="M 8.648229 22.56 
L 12.334629 22.56 
Q 13.782857 22.56 13.782857 21.111771 
L 13.782857 17.425371 
Q 13.782857 15.977143 12.334629 15.977143 
L 8.648229 15.977143 
Q 7.2 15.977143 7.2 17.425371 
L 7.2 21.111771 
Q 7.2 22.56 8.648229 22.56 
z
" clip-path="url(#pad03ded017)" style="fill: #ffb505; opacity: 0.07"/>
   </g>
   <g id="patch_18">
    <path d="M 8.703399 22.56 
L 12.530233 22.56 
Q 14.033633 22.56 14.033633 21.056601 
L 14.033633 17.229767 
Q 14.033633 15.726367 12.530233 15.726367 
L 8.703399 15.726367 
Q 7.2 15.726367 7.2 17.229767 
L 7.2 21.056601 
Q 7.2 22.56 8.703399 22.56 
z
" clip-path="url(#pad03ded017)" style="fill: #ffb405; opacity: 0.07"/>
   </g>
   <g id="patch_19">
    <path d="M 8.75857 22.56 
L 12.725838 22.56 
Q 14.284408 22.56 14.284408 21.00143 
L 14.284408 17.034162 
Q 14.284408 15.475592 12.725838 15.475592 
L 8.75857 15.475592 
Q 7.2 15.475592 7.2 17.034162 
L 7.2 21.00143 
Q 7.2 22.56 8.75857 22.56 
z
" clip-path="url(#pad03ded017)" style="fill: #ffb305; opacity: 0.07"/>
   </g>
   <g id="patch_20">
    <path d="M 8.81374 22.56 
L 12.921443 22.56 
Q 14.535184 22.56 14.535184 20.94626 
L 14.535184 16.838557 
Q 14.535184 15.224816 12.921443 15.224816 
L 8.81374 15.224816 
Q 7.2 15.224816 7.2 16.838557 
L 7.2 20.94626 
Q 7.2 22.56 8.81374 22.56 
z
" clip-path="url(#pad03ded017)" style="fill: #ffb304; opacity: 0.07"/>
   </g>
   <g id="patch_21">
    <path d="M 8.868911 22.56 
L 13.117048 22.56 
Q 14.785959 22.56 14.785959 20.891089 
L 14.785959 16.642952 
Q 14.785959 14.974041 13.117048 14.974041 
L 8.868911 14.974041 
Q 7.2 14.974041 7.2 16.642952 
L 7.2 20.891089 
Q 7.2 22.56 8.868911 22.56 
z
" clip-path="url(#pad03ded017)" style="fill: #ffb204; opacity: 0.07"/>
   </g>
   <g id="patch_22">
    <path d="M 8.924082 22.56 
L 13.312653 22.56 
Q 15.036735 22.56 15.036735 20.835918 
L 15.036735 16.447347 
Q 15.036735 14.723265 13.312653 14.723265 
L 8.924082 14.723265 
Q 7.2 14.723265 7.2 16.447347 
L 7.2 20.835918 
Q 7.2 22.56 8.924082 22.56 
z
" clip-path="url(#pad03ded017)" style="fill: #ffb104; opacity: 0.07"/>
   </g>
   <g id="patch_23">
    <path d="M 8.979252 22.56 
L 13.508258 22.56 
Q 15.28751 22.56 15.28751 20.780748 
L 15.28751 16.251742 
Q 15.28751 14.47249 13.508258 14.47249 
L 8.979252 14.47249 
Q 7.2 14.47249 7.2 16.251742 
L 7.2 20.780748 
Q 7.2 22.56 8.979252 22.56 
z
" clip-path="url(#pad03ded017)" style="fill: #ffb004; opacity: 0.07"/>
   </g>
   <g id="patch_24">
    <path d="M 9.034423 22.56 
L 13.703863 22.56 
Q 15.538286 22.56 15.538286 20.725577 
L 15.538286 16.056137 
Q 15.538286 14.221714 13.703863 14.221714 
L 9.034423 14.221714 
Q 7.2 14.221714 7.2 16.056137 
L 7.2 20.725577 
Q 7.2 22.56 9.034423 22.56 
z
" clip-path="url(#pad03ded017)" style="fill: #ffaf04; opacity: 0.07"/>
   </g>
   <g id="patch_25">
    <path d="M 9.089593 22.56 
L 13.899468 22.56 
Q 15.789061 22.56 15.789061 20.670407 
L 15.789061 15.860532 
Q 15.789061 13.970939 13.899468 13.970939 
L 9.089593 13.970939 
Q 7.2 13.970939 7.2 15.860532 
L 7.2 20.670407 
Q 7.2 22.56 9.089593 22.56 
z
" clip-path="url(#pad03ded017)" style="fill: #ffae04; opacity: 0.07"/>
   </g>
   <g id="patch_26">
    <path d="M 9.144764 22.56 
L 14.095073 22.56 
Q 16.039837 22.56 16.039837 20.615236 
L 16.039837 15.664927 
Q 16.039837 13.720163 14.095073 13.720163 
L 9.144764 13.720163 
Q 7.2 13.720163 7.2 15.664927 
L 7.2 20.615236 
Q 7.2 22.56 9.144764 22.56 
z
" clip-path="url(#pad03ded017)" style="fill: #ffae04; opacity: 0.07"/>
   </g>
   <g id="patch_27">
    <path d="M 9.199935 22.56 
L 14.290678 22.56 
Q 16.290612 22.56 16.290612 20.560065 
L 16.290612 15.469322 
Q 16.290612 13.469388 14.290678 13.469388 
L 9.199935 13.469388 
Q 7.2 13.469388 7.2 15.469322 
L 7.2 20.560065 
Q 7.2 22.56 9.199935 22.56 
z
" clip-path="url(#pad03ded017)" style="fill: #ffad04; opacity: 0.07"/>
   </g>
   <g id="patch_28">
    <path d="M 9.255105 22.56 
L 14.486282 22.56 
Q 16.541388 22.56 16.541388 20.504895 
L 16.541388 15.273718 
Q 16.541388 13.218612 14.486282 13.218612 
L 9.255105 13.218612 
Q 7.2 13.218612 7.2 15.273718 
L 7.2 20.504895 
Q 7.2 22.56 9.255105 22.56 
z
" clip-path="url(#pad03ded017)" style="fill: #ffac03; opacity: 0.07"/>
   </g>
   <g id="patch_29">
    <path d="M 9.310276 22.56 
L 14.681887 22.56 
Q 16.792163 22.56 16.792163 20.449724 
L 16.792163 15.078113 
Q 16.792163 12.967837 14.681887 12.967837 
L 9.310276 12.967837 
Q 7.2 12.967837 7.2 15.078113 
L 7.2 20.449724 
Q 7.2 22.56 9.310276 22.56 
z
" clip-path="url(#pad03ded017)" style="fill: #ffab03; opacity: 0.07"/>
   </g>
   <g id="patch_30">
    <path d="M 9.365447 22.56 
L 14.877492 22.56 
Q 17.042939 22.56 17.042939 20.394553 
L 17.042939 14.882508 
Q 17.042939 12.717061 14.877492 12.717061 
L 9.365447 12.717061 
Q 7.2 12.717061 7.2 14.882508 
L 7.2 20.394553 
Q 7.2 22.56 9.365447 22.56 
z
" clip-path="url(#pad03ded017)" style="fill: #ffaa03; opacity: 0.07"/>
   </g>
   <g id="patch_31">
    <path d="M 9.420617 22.56 
L 15.073097 22.56 
Q 17.293714 22.56 17.293714 20.339383 
L 17.293714 14.686903 
Q 17.293714 12.466286 15.073097 12.466286 
L 9.420617 12.466286 
Q 7.2 12.466286 7.2 14.686903 
L 7.2 20.339383 
Q 7.2 22.56 9.420617 22.56 
z
" clip-path="url(#pad03ded017)" style="fill: #ffa903; opacity: 0.07"/>
   </g>
   <g id="patch_32">
    <path d="M 9.475788 22.56 
L 15.268702 22.56 
Q 17.54449 22.56 17.54449 20.284212 
L 17.54449 14.491298 
Q 17.54449 12.21551 15.268702 12.21551 
L 9.475788 12.21551 
Q 7.2 12.21551 7.2 14.491298 
L 7.2 20.284212 
Q 7.2 22.56 9.475788 22.56 
z
" clip-path="url(#pad03ded017)" style="fill: #ffa903; opacity: 0.07"/>
   </g>
   <g id="patch_33">
    <path d="M 9.530958 22.56 
L 15.464307 22.56 
Q 17.795265 22.56 17.795265 20.229042 
L 17.795265 14.295693 
Q 17.795265 11.964735 15.464307 11.964735 
L 9.530958 11.964735 
Q 7.2 11.964735 7.2 14.295693 
L 7.2 20.229042 
Q 7.2 22.56 9.530958 22.56 
z
" clip-path="url(#pad03ded017)" style="fill: #ffa803; opacity: 0.07"/>
   </g>
   <g id="patch_34">
    <path d="M 9.586129 22.56 
L 15.659912 22.56 
Q 18.046041 22.56 18.046041 20.173871 
L 18.046041 14.100088 
Q 18.046041 11.713959 15.659912 11.713959 
L 9.586129 11.713959 
Q 7.2 11.713959 7.2 14.100088 
L 7.2 20.173871 
Q 7.2 22.56 9.586129 22.56 
z
" clip-path="url(#pad03ded017)" style="fill: #ffa703; opacity: 0.07"/>
   </g>
   <g id="patch_35">
    <path d="M 9.6413 22.56 
L 15.855517 22.56 
Q 18.296816 22.56 18.296816 20.1187 
L 18.296816 13.904483 
Q 18.296816 11.463184 15.855517 11.463184 
L 9.6413 11.463184 
Q 7.2 11.463184 7.2 13.904483 
L 7.2 20.1187 
Q 7.2 22.56 9.6413 22.56 
z
" clip-path="url(#pad03ded017)" style="fill: #ffa602; opacity: 0.07"/>
   </g>
   <g id="patch_36">
    <path d="M 9.69647 22.56 
L 16.051122 22.56 
Q 18.547592 22.56 18.547592 20.06353 
L 18.547592 13.708878 
Q 18.547592 11.212408 16.051122 11.212408 
L 9.69647 11.212408 
Q 7.2 11.212408 7.2 13.708878 
L 7.2 20.06353 
Q 7.2 22.56 9.69647 22.56 
z
" clip-path="url(#pad03ded017)" style="fill: #ffa502; opacity: 0.07"/>
   </g>
   <g id="patch_37">
    <path d="M 9.751641 22.56 
L 16.246727 22.56 
Q 18.798367 22.56 18.798367 20.008359 
L 18.798367 13.513273 
Q 18.798367 10.961633 16.246727 10.961633 
L 9.751641 10.961633 
Q 7.2 10.961633 7.2 13.513273 
L 7.2 20.008359 
Q 7.2 22.56 9.751641 22.56 
z
" clip-path="url(#pad03ded017)" style="fill: #ffa402; opacity: 0.07"/>
   </g>
   <g id="patch_38">
    <path d="M 9.806811 22.56 
L 16.442331 22.56 
Q 19.049143 22.56 19.049143 19.953189 
L 19.049143 13.317669 
Q 19.049143 10.710857 16.442331 10.710857 
L 9.806811 10.710857 
Q 7.2 10.710857 7.2 13.317669 
L 7.2 19.953189 
Q 7.2 22.56 9.806811 22.56 
z
" clip-path="url(#pad03ded017)" style="fill: #ffa402; opacity: 0.07"/>
   </g>
   <g id="patch_39">
    <path d="M 9.861982 22.56 
L 16.637936 22.56 
Q 19.299918 22.56 19.299918 19.898018 
L 19.299918 13.122064 
Q 19.299918 10.460082 16.637936 10.460082 
L 9.861982 10.460082 
Q 7.2 10.460082 7.2 13.122064 
L 7.2 19.898018 
Q 7.2 22.56 9.861982 22.56 
z
" clip-path="url(#pad03ded017)" style="fill: #ffa302; opacity: 0.07"/>
   </g>
   <g id="patch_40">
    <path d="M 9.917153 22.56 
L 16.833541 22.56 
Q 19.550694 22.56 19.550694 19.842847 
L 19.550694 12.926459 
Q 19.550694 10.209306 16.833541 10.209306 
L 9.917153 10.209306 
Q 7.2 10.209306 7.2 12.926459 
L 7.2 19.842847 
Q 7.2 22.56 9.917153 22.56 
z
" clip-path="url(#pad03ded017)" style="fill: #ffa202; opacity: 0.07"/>
   </g>
   <g id="patch_41">
    <path d="M 9.972323 22.56 
L 17.029146 22.56 
Q 19.801469 22.56 19.801469 19.787677 
L 19.801469 12.730854 
Q 19.801469 9.958531 17.029146 9.958531 
L 9.972323 9.958531 
Q 7.2 9.958531 7.2 12.730854 
L 7.2 19.787677 
Q 7.2 22.56 9.972323 22.56 
z
" clip-path="url(#pad03ded017)" style="fill: #ffa102; opacity: 0.07"/>
   </g>
   <g id="patch_42">
    <path d="M 10.027494 22.56 
L 17.224751 22.56 
Q 20.052245 22.56 20.052245 19.732506 
L 20.052245 12.535249 
Q 20.052245 9.707755 17.224751 9.707755 
L 10.027494 9.707755 
Q 7.2 9.707755 7.2 12.535249 
L 7.2 19.732506 
Q 7.2 22.56 10.027494 22.56 
z
" clip-path="url(#pad03ded017)" style="fill: #ffa001; opacity: 0.07"/>
   </g>
   <g id="patch_43">
    <path d="M 10.082664 22.56 
L 17.420356 22.56 
Q 20.30302 22.56 20.30302 19.677336 
L 20.30302 12.339644 
Q 20.30302 9.45698 17.420356 9.45698 
L 10.082664 9.45698 
Q 7.2 9.45698 7.2 12.339644 
L 7.2 19.677336 
Q 7.2 22.56 10.082664 22.56 
z
" clip-path="url(#pad03ded017)" style="fill: #ff9f01; opacity: 0.07"/>
   </g>
   <g id="patch_44">
    <path d="M 10.137835 22.56 
L 17.615961 22.56 
Q 20.553796 22.56 20.553796 19.622165 
L 20.553796 12.144039 
Q 20.553796 9.206204 17.615961 9.206204 
L 10.137835 9.206204 
Q 7.2 9.206204 7.2 12.144039 
L 7.2 19.622165 
Q 7.2 22.56 10.137835 22.56 
z
" clip-path="url(#pad03ded017)" style="fill: #ff9f01; opacity: 0.07"/>
   </g>
   <g id="patch_45">
    <path d="M 10.193006 22.56 
L 17.811566 22.56 
Q 20.804571 22.56 20.804571 19.566994 
L 20.804571 11.948434 
Q 20.804571 8.955429 17.811566 8.955429 
L 10.193006 8.955429 
Q 7.2 8.955429 7.2 11.948434 
L 7.2 19.566994 
Q 7.2 22.56 10.193006 22.56 
z
" clip-path="url(#pad03ded017)" style="fill: #ff9e01; opacity: 0.07"/>
   </g>
   <g id="patch_46">
    <path d="M 10.248176 22.56 
L 18.007171 22.56 
Q 21.055347 22.56 21.055347 19.511824 
L 21.055347 11.752829 
Q 21.055347 8.704653 18.007171 8.704653 
L 10.248176 8.704653 
Q 7.2 8.704653 7.2 11.752829 
L 7.2 19.511824 
Q 7.2 22.56 10.248176 22.56 
z
" clip-path="url(#pad03ded017)" style="fill: #ff9d01; opacity: 0.07"/>
   </g>
   <g id="patch_47">
    <path d="M 10.303347 22.56 
L 18.202776 22.56 
Q 21.306122 22.56 21.306122 19.456653 
L 21.306122 11.557224 
Q 21.306122 8.453878 18.202776 8.453878 
L 10.303347 8.453878 
Q 7.2 8.453878 7.2 11.557224 
L 7.2 19.456653 
Q 7.2 22.56 10.303347 22.56 
z
" clip-path="url(#pad03ded017)" style="fill: #ff9c01; opacity: 0.07"/>
   </g>
   <g id="patch_48">
    <path d="M 10.358518 22.56 
L 18.39838 22.56 
Q 21.556898 22.56 21.556898 19.401482 
L 21.556898 11.36162 
Q 21.556898 8.203102 18.39838 8.203102 
L 10.358518 8.203102 
Q 7.2 8.203102 7.2 11.36162 
L 7.2 19.401482 
Q 7.2 22.56 10.358518 22.56 
z
" clip-path="url(#pad03ded017)" style="fill: #ff9b01; opacity: 0.07"/>
   </g>
   <g id="patch_49">
    <path d="M 10.413688 22.56 
L 18.593985 22.56 
Q 21.807673 22.56 21.807673 19.346312 
L 21.807673 11.166015 
Q 21.807673 7.952327 18.593985 7.952327 
L 10.413688 7.952327 
Q 7.2 7.952327 7.2 11.166015 
L 7.2 19.346312 
Q 7.2 22.56 10.413688 22.56 
z
" clip-path="url(#pad03ded017)" style="fill: #ff9a00; opacity: 0.07"/>
   </g>
   <g id="patch_50">
    <path d="M 10.468859 22.56 
L 18.78959 22.56 
Q 22.058449 22.56 22.058449 19.291141 
L 22.058449 10.97041 
Q 22.058449 7.701551 18.78959 7.701551 
L 10.468859 7.701551 
Q 7.2 7.701551 7.2 10.97041 
L 7.2 19.291141 
Q 7.2 22.56 10.468859 22.56 
z
" clip-path="url(#pad03ded017)" style="fill: #ff9a00; opacity: 0.07"/>
   </g>
   <g id="patch_51">
    <path d="M 10.524029 22.56 
L 18.985195 22.56 
Q 22.309224 22.56 22.309224 19.235971 
L 22.309224 10.774805 
Q 22.309224 7.450776 18.985195 7.450776 
L 10.524029 7.450776 
Q 7.2 7.450776 7.2 10.774805 
L 7.2 19.235971 
Q 7.2 22.56 10.524029 22.56 
z
" clip-path="url(#pad03ded017)" style="fill: #ff9900; opacity: 0.07"/>
   </g>
   <g id="patch_52">
    <path d="M 10.5792 22.56 
L 19.1808 22.56 
Q 22.56 22.56 22.56 19.1808 
L 22.56 10.5792 
Q 22.56 7.2 19.1808 7.2 
L 10.5792 7.2 
Q 7.2 7.2 7.2 10.5792 
L 7.2 19.1808 
Q 7.2 22.56 10.5792 22.56 
z
" clip-path="url(#pad03ded017)" style="fill: #ff9800; opacity: 0.07"/>
   </g>
   <g id="patch_53">
    <path d="M 18.087168 11.924736 
L 18.047682 12.426448 
L 17.930198 12.915805 
L 17.737608 13.38076 
L 17.474653 13.809862 
L 17.14781 14.192546 
L 16.765126 14.519389 
L 16.336024 14.782344 
L 15.871069 14.974934 
L 15.381712 15.092418 
L 14.88 15.131904 
L 14.378288 15.092418 
L 13.888931 14.974934 
L 13.423976 14.782344 
L 12.994874 14.519389 
L 12.61219 14.192546 
L 12.285347 13.809862 
L 12.022392 13.38076 
L 11.829802 12.915805 
L 11.712318 12.426448 
L 11.672832 11.924736 
L 18.087168 15.131904 
L 14.88 17.626368 
L 11.672832 15.131904 
L 11.672832 11.924736 
L 18.087168 11.924736 
" clip-path="url(#pad03ded017)" style="fill: #ffffff"/>
   </g>
   <g id="patch_54">
    <path d="M 13.276416 14.4192 
C 13.559933 14.4192 13.831876 14.306558 14.032353 14.106081 
C 14.23283 13.905604 14.345472 13.633661 14.345472 13.350144 
C 14.345472 13.066627 14.23283 12.794684 14.032353 12.594207 
C 13.831876 12.39373 13.559933 12.281088 13.276416 12.281088 
C 12.992899 12.281088 12.720956 12.39373 12.520479 12.594207 
C 12.320002 12.794684 12.20736 13.066627 12.20736 13.350144 
C 12.20736 13.633661 12.320002 13.905604 12.520479 14.106081 
C 12.720956 14.306558 12.992899 14.4192 13.276416 14.4192 
z
" clip-path="url(#pad03ded017)" style="fill: #ffffff"/>
   </g>
   <g id="patch_55">
    <path d="M 16.483584 14.4192 
C 16.767101 14.4192 17.039044 14.306558 17.239521 14.106081 
C 17.439998 13.905604 17.55264 13.633661 17.55264 13.350144 
C 17.55264 13.066627 17.439998 12.794684 17.239521 12.594207 
C 17.039044 12.39373 16.767101 12.281088 16.483584 12.281088 
C 16.200067 12.281088 15.928124 12.39373 15.727647 12.594207 
C 15.52717 12.794684 15.414528 13.066627 15.414528 13.350144 
C 15.414528 13.633661 15.52717 13.905604 15.727647 14.106081 
C 15.928124 14.306558 16.200067 14.4192 16.483584 14.4192 
z
" clip-path="url(#pad03ded017)" style="fill: #ffffff"/>
   </g>
  </g>
 </g>
 <defs>
  <clipPath id="pad03ded017">
   <rect x="7.2" y="7.2" width="15.36" height="15.36"/>
  </clipPath>
 </defs>
</svg>
