<?xml version="1.0" encoding="utf-8" standalone="no"?>
<!DOCTYPE svg PUBLIC "-//W3C//DTD SVG 1.1//EN"
  "http://www.w3.org/Graphics/SVG/1.1/DTD/svg11.dtd">
<svg xmlns:xlink="http://www.w3.org/1999/xlink" width="134.4pt" height="134.4pt" viewBox="0 0 134.4 134.4" xmlns="http://www.w3.org/2000/svg" version="1.1">
 <metadata>
  <rdf:RDF xmlns:dc="http://purl.org/dc/elements/1.1/" xmlns:cc="http://creativecommons.org/ns#" xmlns:rdf="http://www.w3.org/1999/02/22-rdf-syntax-ns#">
   <cc:Work>
    <dc:type rdf:resource="http://purl.org/dc/dcmitype/StillImage"/>
    <dc:date>2025-10-07T21:53:34.838377</dc:date>
    <dc:format>image/svg+xml</dc:format>
    <dc:creator>
     <cc:Agent>
      <dc:title>Matplotlib v3.6.3, https://matplotlib.org/</dc:title>
     </cc:Agent>
    </dc:creator>
   </cc:Work>
  </rdf:RDF>
 </metadata>
 <defs>
  <style type="text/css">*{stroke-linejoin: round; stroke-linecap: butt}</style>
 </defs>
 <g id="figure_1">
  <g id="patch_1">
   <path d="M 0 134.4 
L 134.4 134.4 
L 134.4 0 
L 0 0 
z
" style="fill: #ffffff"/>
  </g>
  <g id="axes_1">
   <g id="patch_2">
    <path d="M 33.6 127.2 
L 100.8 127.2 
Q 127.2 127.2 127.2 100.8 
L 127.2 33.6 
Q 127.2 7.2 100.8 7.2 
L 33.6 7.2 
Q 7.2 7.2 7.2 33.6 
L 7.2 100.8 
Q 7.2 127.2 33.6 127.2 
z
" clip-path="url(#p849dde383a)" style="fill: #ffc107"/>
   </g>
   <g id="patch_3">
    <path d="M 12.48 127.2 
L 25.92 127.2 
Q 31.2 127.2 31.2 121.92 
L 31.2 108.48 
Q 31.2 103.2 25.92 103.2 
L 12.48 103.2 
Q 7.2 103.2 7.2 108.48 
L 7.2 121.92 
Q 7.2 127.2 12.48 127.2 
z
" clip-path="url(#p849dde383a)" style="fill: #ffc107; opacity: 0.07"/>
   </g>
   <g id="patch_4">
    <path d="M 12.91102 127.2 
L 27.448163 127.2 
Q 33.159184 127.2 33.159184 121.48898 
L 33.159184 106.951837 
Q 33.159184 101.240816 27.448163 101.240816 
L 12.91102 101.240816 
Q 7.2 101.240816 7.2 106.951837 
L 7.2 121.48898 
Q 7.2 127.2 12.91102 127.2 
z
" clip-path="url(#p849dde383a)" style="fill: #ffc007; opacity: 0.07"/>
   </g>
   <g id="patch_5">
    <path d="M 13.342041 127.2 
L 28.976327 127.2 
Q 35.118367 127.2 35.118367 121.057959 
L 35.118367 105.423673 
Q 35.118367 99.281633 28.976327 99.281633 
L 13.342041 99.281633 
Q 7.2 99.281633 7.2 105.423673 
L 7.2 121.057959 
Q 7.2 127.2 13.342041 127.2 
z
" clip-path="url(#p849dde383a)" style="fill: #ffbf07; opacity: 0.07"/>
   </g>
   <g id="patch_6">
    <path d="M 13.773061 127.2 
L 30.50449 127.2 
Q 37.077551 127.2 37.077551 120.626939 
L 37.077551 103.89551 
Q 37.077551 97.322449 30.50449 97.322449 
L 13.773061 97.322449 
Q 7.2 97.322449 7.2 103.89551 
L 7.2 120.626939 
Q 7.2 127.2 13.773061 127.2 
z
" clip-path="url(#p849dde383a)" style="fill: #ffbe06; opacity: 0.07"/>
   </g>
   <g id="patch_7">
    <path d="M 14.204082 127.2 
L 32.032653 127.2 
Q 39.036735 127.2 39.036735 120.195918 
L 39.036735 102.367347 
Q 39.036735 95.363265 32.032653 95.363265 
L 14.204082 95.363265 
Q 7.2 95.363265 7.2 102.367347 
L 7.2 120.195918 
Q 7.2 127.2 14.204082 127.2 
z
" clip-path="url(#p849dde383a)" style="fill: #ffbd06; opacity: 0.07"/>
   </g>
   <g id="patch_8">
    <path d="M 14.635102 127.2 
L 33.560816 127.2 
Q 40.995918 127.2 40.995918 119.764898 
L 40.995918 100.839184 
Q 40.995918 93.404082 33.560816 93.404082 
L 14.635102 93.404082 
Q 7.2 93.404082 7.2 100.839184 
L 7.2 119.764898 
Q 7.2 127.2 14.635102 127.2 
z
" clip-path="url(#p849dde383a)" style="fill: #ffbd06; opacity: 0.07"/>
   </g>
   <g id="patch_9">
    <path d="M 15.066122 127.2 
L 35.08898 127.2 
Q 42.955102 127.2 42.955102 119.333878 
L 42.955102 99.31102 
Q 42.955102 91.444898 35.08898 91.444898 
L 15.066122 91.444898 
Q 7.2 91.444898 7.2 99.31102 
L 7.2 119.333878 
Q 7.2 127.2 15.066122 127.2 
z
" clip-path="url(#p849dde383a)" style="fill: #ffbc06; opacity: 0.07"/>
   </g>
   <g id="patch_10">
    <path d="M 15.497143 127.2 
L 36.617143 127.2 
Q 44.914286 127.2 44.914286 118.902857 
L 44.914286 97.782857 
Q 44.914286 89.485714 36.617143 89.485714 
L 15.497143 89.485714 
Q 7.2 89.485714 7.2 97.782857 
L 7.2 118.902857 
Q 7.2 127.2 15.497143 127.2 
z
" clip-path="url(#p849dde383a)" style="fill: #ffbb06; opacity: 0.07"/>
   </g>
   <g id="patch_11">
    <path d="M 15.928163 127.2 
L 38.145306 127.2 
Q 46.873469 127.2 46.873469 118.471837 
L 46.873469 96.254694 
Q 46.873469 87.526531 38.145306 87.526531 
L 15.928163 87.526531 
Q 7.2 87.526531 7.2 96.254694 
L 7.2 118.471837 
Q 7.2 127.2 15.928163 127.2 
z
" clip-path="url(#p849dde383a)" style="fill: #ffba06; opacity: 0.07"/>
   </g>
   <g id="patch_12">
    <path d="M 16.359184 127.2 
L 39.673469 127.2 
Q 48.832653 127.2 48.832653 118.040816 
L 48.832653 94.726531 
Q 48.832653 85.567347 39.673469 85.567347 
L 16.359184 85.567347 
Q 7.2 85.567347 7.2 94.726531 
L 7.2 118.040816 
Q 7.2 127.2 16.359184 127.2 
z
" clip-path="url(#p849dde383a)" style="fill: #ffb906; opacity: 0.07"/>
   </g>
   <g id="patch_13">
    <path d="M 16.790204 127.2 
L 41.201633 127.2 
Q 50.791837 127.2 50.791837 117.609796 
L 50.791837 93.198367 
Q 50.791837 83.608163 41.201633 83.608163 
L 16.790204 83.608163 
Q 7.2 83.608163 7.2 93.198367 
L 7.2 117.609796 
Q 7.2 127.2 16.790204 127.2 
z
" clip-path="url(#p849dde383a)" style="fill: #ffb805; opacity: 0.07"/>
   </g>
   <g id="patch_14">
    <path d="M 17.221224 127.2 
L 42.729796 127.2 
Q 52.75102 127.2 52.75102 117.178776 
L 52.75102 91.670204 
Q 52.75102 81.64898 42.729796 81.64898 
L 17.221224 81.64898 
Q 7.2 81.64898 7.2 91.670204 
L 7.2 117.178776 
Q 7.2 127.2 17.221224 127.2 
z
" clip-path="url(#p849dde383a)" style="fill: #ffb805; opacity: 0.07"/>
   </g>
   <g id="patch_15">
    <path d="M 17.652245 127.2 
L 44.257959 127.2 
Q 54.710204 127.2 54.710204 116.747755 
L 54.710204 90.142041 
Q 54.710204 79.689796 44.257959 79.689796 
L 17.652245 79.689796 
Q 7.2 79.689796 7.2 90.142041 
L 7.2 116.747755 
Q 7.2 127.2 17.652245 127.2 
z
" clip-path="url(#p849dde383a)" style="fill: #ffb705; opacity: 0.07"/>
   </g>
   <g id="patch_16">
    <path d="M 18.083265 127.2 
L 45.786122 127.2 
Q 56.669388 127.2 56.669388 116.316735 
L 56.669388 88.613878 
Q 56.669388 77.730612 45.786122 77.730612 
L 18.083265 77.730612 
Q 7.2 77.730612 7.2 88.613878 
L 7.2 116.316735 
Q 7.2 127.2 18.083265 127.2 
z
" clip-path="url(#p849dde383a)" style="fill: #ffb605; opacity: 0.07"/>
   </g>
   <g id="patch_17">
    <path d="M 18.514286 127.2 
L 47.314286 127.2 
Q 58.628571 127.2 58.628571 115.885714 
L 58.628571 87.085714 
Q 58.628571 75.771429 47.314286 75.771429 
L 18.514286 75.771429 
Q 7.2 75.771429 7.2 87.085714 
L 7.2 115.885714 
Q 7.2 127.2 18.514286 127.2 
z
" clip-path="url(#p849dde383a)" style="fill: #ffb505; opacity: 0.07"/>
   </g>
   <g id="patch_18">
    <path d="M 18.945306 127.2 
L 48.842449 127.2 
Q 60.587755 127.2 60.587755 115.454694 
L 60.587755 85.557551 
Q 60.587755 73.812245 48.842449 73.812245 
L 18.945306 73.812245 
Q 7.2 73.812245 7.2 85.557551 
L 7.2 115.454694 
Q 7.2 127.2 18.945306 127.2 
z
" clip-path="url(#p849dde383a)" style="fill: #ffb405; opacity: 0.07"/>
   </g>
   <g id="patch_19">
    <path d="M 19.376327 127.2 
L 50.370612 127.2 
Q 62.546939 127.2 62.546939 115.023673 
L 62.546939 84.029388 
Q 62.546939 71.853061 50.370612 71.853061 
L 19.376327 71.853061 
Q 7.2 71.853061 7.2 84.029388 
L 7.2 115.023673 
Q 7.2 127.2 19.376327 127.2 
z
" clip-path="url(#p849dde383a)" style="fill: #ffb305; opacity: 0.07"/>
   </g>
   <g id="patch_20">
    <path d="M 19.807347 127.2 
L 51.898776 127.2 
Q 64.506122 127.2 64.506122 114.592653 
L 64.506122 82.501224 
Q 64.506122 69.893878 51.898776 69.893878 
L 19.807347 69.893878 
Q 7.2 69.893878 7.2 82.501224 
L 7.2 114.592653 
Q 7.2 127.2 19.807347 127.2 
z
" clip-path="url(#p849dde383a)" style="fill: #ffb304; opacity: 0.07"/>
   </g>
   <g id="patch_21">
    <path d="M 20.238367 127.2 
L 53.426939 127.2 
Q 66.465306 127.2 66.465306 114.161633 
L 66.465306 80.973061 
Q 66.465306 67.934694 53.426939 67.934694 
L 20.238367 67.934694 
Q 7.2 67.934694 7.2 80.973061 
L 7.2 114.161633 
Q 7.2 127.2 20.238367 127.2 
z
" clip-path="url(#p849dde383a)" style="fill: #ffb204; opacity: 0.07"/>
   </g>
   <g id="patch_22">
    <path d="M 20.669388 127.2 
L 54.955102 127.2 
Q 68.42449 127.2 68.42449 113.730612 
L 68.42449 79.444898 
Q 68.42449 65.97551 54.955102 65.97551 
L 20.669388 65.97551 
Q 7.2 65.97551 7.2 79.444898 
L 7.2 113.730612 
Q 7.2 127.2 20.669388 127.2 
z
" clip-path="url(#p849dde383a)" style="fill: #ffb104; opacity: 0.07"/>
   </g>
   <g id="patch_23">
    <path d="M 21.100408 127.2 
L 56.483265 127.2 
Q 70.383673 127.2 70.383673 113.299592 
L 70.383673 77.916735 
Q 70.383673 64.016327 56.483265 64.016327 
L 21.100408 64.016327 
Q 7.2 64.016327 7.2 77.916735 
L 7.2 113.299592 
Q 7.2 127.2 21.100408 127.2 
z
" clip-path="url(#p849dde383a)" style="fill: #ffb004; opacity: 0.07"/>
   </g>
   <g id="patch_24">
    <path d="M 21.531429 127.2 
L 58.011429 127.2 
Q 72.342857 127.2 72.342857 112.868571 
L 72.342857 76.388571 
Q 72.342857 62.057143 58.011429 62.057143 
L 21.531429 62.057143 
Q 7.2 62.057143 7.2 76.388571 
L 7.2 112.868571 
Q 7.2 127.2 21.531429 127.2 
z
" clip-path="url(#p849dde383a)" style="fill: #ffaf04; opacity: 0.07"/>
   </g>
   <g id="patch_25">
    <path d="M 21.962449 127.2 
L 59.539592 127.2 
Q 74.302041 127.2 74.302041 112.437551 
L 74.302041 74.860408 
Q 74.302041 60.097959 59.539592 60.097959 
L 21.962449 60.097959 
Q 7.2 60.097959 7.2 74.860408 
L 7.2 112.437551 
Q 7.2 127.2 21.962449 127.2 
z
" clip-path="url(#p849dde383a)" style="fill: #ffae04; opacity: 0.07"/>
   </g>
   <g id="patch_26">
    <path d="M 22.393469 127.2 
L 61.067755 127.2 
Q 76.261224 127.2 76.261224 112.006531 
L 76.261224 73.332245 
Q 76.261224 58.138776 61.067755 58.138776 
L 22.393469 58.138776 
Q 7.2 58.138776 7.2 73.332245 
L 7.2 112.006531 
Q 7.2 127.2 22.393469 127.2 
z
" clip-path="url(#p849dde383a)" style="fill: #ffae04; opacity: 0.07"/>
   </g>
   <g id="patch_27">
    <path d="M 22.82449 127.2 
L 62.595918 127.2 
Q 78.220408 127.2 78.220408 111.57551 
L 78.220408 71.804082 
Q 78.220408 56.179592 62.595918 56.179592 
L 22.82449 56.179592 
Q 7.2 56.179592 7.2 71.804082 
L 7.2 111.57551 
Q 7.2 127.2 22.82449 127.2 
z
" clip-path="url(#p849dde383a)" style="fill: #ffad04; opacity: 0.07"/>
   </g>
   <g id="patch_28">
    <path d="M 23.25551 127.2 
L 64.124082 127.2 
Q 80.179592 127.2 80.179592 111.14449 
L 80.179592 70.275918 
Q 80.179592 54.220408 64.124082 54.220408 
L 23.25551 54.220408 
Q 7.2 54.220408 7.2 70.275918 
L 7.2 111.14449 
Q 7.2 127.2 23.25551 127.2 
z
" clip-path="url(#p849dde383a)" style="fill: #ffac03; opacity: 0.07"/>
   </g>
   <g id="patch_29">
    <path d="M 23.686531 127.2 
L 65.652245 127.2 
Q 82.138776 127.2 82.138776 110.713469 
L 82.138776 68.747755 
Q 82.138776 52.261224 65.652245 52.261224 
L 23.686531 52.261224 
Q 7.2 52.261224 7.2 68.747755 
L 7.2 110.713469 
Q 7.2 127.2 23.686531 127.2 
z
" clip-path="url(#p849dde383a)" style="fill: #ffab03; opacity: 0.07"/>
   </g>
   <g id="patch_30">
    <path d="M 24.117551 127.2 
L 67.180408 127.2 
Q 84.097959 127.2 84.097959 110.282449 
L 84.097959 67.219592 
Q 84.097959 50.302041 67.180408 50.302041 
L 24.117551 50.302041 
Q 7.2 50.302041 7.2 67.219592 
L 7.2 110.282449 
Q 7.2 127.2 24.117551 127.2 
z
" clip-path="url(#p849dde383a)" style="fill: #ffaa03; opacity: 0.07"/>
   </g>
   <g id="patch_31">
    <path d="M 24.548571 127.2 
L 68.708571 127.2 
Q 86.057143 127.2 86.057143 109.851429 
L 86.057143 65.691429 
Q 86.057143 48.342857 68.708571 48.342857 
L 24.548571 48.342857 
Q 7.2 48.342857 7.2 65.691429 
L 7.2 109.851429 
Q 7.2 127.2 24.548571 127.2 
z
" clip-path="url(#p849dde383a)" style="fill: #ffa903; opacity: 0.07"/>
   </g>
   <g id="patch_32">
    <path d="M 24.979592 127.2 
L 70.236735 127.2 
Q 88.016327 127.2 88.016327 109.420408 
L 88.016327 64.163265 
Q 88.016327 46.383673 70.236735 46.383673 
L 24.979592 46.383673 
Q 7.2 46.383673 7.2 64.163265 
L 7.2 109.420408 
Q 7.2 127.2 24.979592 127.2 
z
" clip-path="url(#p849dde383a)" style="fill: #ffa903; opacity: 0.07"/>
   </g>
   <g id="patch_33">
    <path d="M 25.410612 127.2 
L 71.764898 127.2 
Q 89.97551 127.2 89.97551 108.989388 
L 89.97551 62.635102 
Q 89.97551 44.42449 71.764898 44.42449 
L 25.410612 44.42449 
Q 7.2 44.42449 7.2 62.635102 
L 7.2 108.989388 
Q 7.2 127.2 25.410612 127.2 
z
" clip-path="url(#p849dde383a)" style="fill: #ffa803; opacity: 0.07"/>
   </g>
   <g id="patch_34">
    <path d="M 25.841633 127.2 
L 73.293061 127.2 
Q 91.934694 127.2 91.934694 108.558367 
L 91.934694 61.106939 
Q 91.934694 42.465306 73.293061 42.465306 
L 25.841633 42.465306 
Q 7.2 42.465306 7.2 61.106939 
L 7.2 108.558367 
Q 7.2 127.2 25.841633 127.2 
z
" clip-path="url(#p849dde383a)" style="fill: #ffa703; opacity: 0.07"/>
   </g>
   <g id="patch_35">
    <path d="M 26.272653 127.2 
L 74.821224 127.2 
Q 93.893878 127.2 93.893878 108.127347 
L 93.893878 59.578776 
Q 93.893878 40.506122 74.821224 40.506122 
L 26.272653 40.506122 
Q 7.2 40.506122 7.2 59.578776 
L 7.2 108.127347 
Q 7.2 127.2 26.272653 127.2 
z
" clip-path="url(#p849dde383a)" style="fill: #ffa602; opacity: 0.07"/>
   </g>
   <g id="patch_36">
    <path d="M 26.703673 127.2 
L 76.349388 127.2 
Q 95.853061 127.2 95.853061 107.696327 
L 95.853061 58.050612 
Q 95.853061 38.546939 76.349388 38.546939 
L 26.703673 38.546939 
Q 7.2 38.546939 7.2 58.050612 
L 7.2 107.696327 
Q 7.2 127.2 26.703673 127.2 
z
" clip-path="url(#p849dde383a)" style="fill: #ffa502; opacity: 0.07"/>
   </g>
   <g id="patch_37">
    <path d="M 27.134694 127.2 
L 77.877551 127.2 
Q 97.812245 127.2 97.812245 107.265306 
L 97.812245 56.522449 
Q 97.812245 36.587755 77.877551 36.587755 
L 27.134694 36.587755 
Q 7.2 36.587755 7.2 56.522449 
L 7.2 107.265306 
Q 7.2 127.2 27.134694 127.2 
z
" clip-path="url(#p849dde383a)" style="fill: #ffa402; opacity: 0.07"/>
   </g>
   <g id="patch_38">
    <path d="M 27.565714 127.2 
L 79.405714 127.2 
Q 99.771429 127.2 99.771429 106.834286 
L 99.771429 54.994286 
Q 99.771429 34.628571 79.405714 34.628571 
L 27.565714 34.628571 
Q 7.2 34.628571 7.2 54.994286 
L 7.2 106.834286 
Q 7.2 127.2 27.565714 127.2 
z
" clip-path="url(#p849dde383a)" style="fill: #ffa402; opacity: 0.07"/>
   </g>
   <g id="patch_39">
    <path d="M 27.996735 127.2 
L 80.933878 127.2 
Q 101.730612 127.2 101.730612 106.403265 
L 101.730612 53.466122 
Q 101.730612 32.669388 80.933878 32.669388 
L 27.996735 32.669388 
Q 7.2 32.669388 7.2 53.466122 
L 7.2 106.403265 
Q 7.2 127.2 27.996735 127.2 
z
" clip-path="url(#p849dde383a)" style="fill: #ffa302; opacity: 0.07"/>
   </g>
   <g id="patch_40">
    <path d="M 28.427755 127.2 
L 82.462041 127.2 
Q 103.689796 127.2 103.689796 105.972245 
L 103.689796 51.937959 
Q 103.689796 30.710204 82.462041 30.710204 
L 28.427755 30.710204 
Q 7.2 30.710204 7.2 51.937959 
L 7.2 105.972245 
Q 7.2 127.2 28.427755 127.2 
z
" clip-path="url(#p849dde383a)" style="fill: #ffa202; opacity: 0.07"/>
   </g>
   <g id="patch_41">
    <path d="M 28.858776 127.2 
L 83.990204 127.2 
Q 105.64898 127.2 105.64898 105.541224 
L 105.64898 50.409796 
Q 105.64898 28.75102 83.990204 28.75102 
L 28.858776 28.75102 
Q 7.2 28.75102 7.2 50.409796 
L 7.2 105.541224 
Q 7.2 127.2 28.858776 127.2 
z
" clip-path="url(#p849dde383a)" style="fill: #ffa102; opacity: 0.07"/>
   </g>
   <g id="patch_42">
    <path d="M 29.289796 127.2 
L 85.518367 127.2 
Q 107.608163 127.2 107.608163 105.110204 
L 107.608163 48.881633 
Q 107.608163 26.791837 85.518367 26.791837 
L 29.289796 26.791837 
Q 7.2 26.791837 7.2 48.881633 
L 7.2 105.110204 
Q 7.2 127.2 29.289796 127.2 
z
" clip-path="url(#p849dde383a)" style="fill: #ffa001; opacity: 0.07"/>
   </g>
   <g id="patch_43">
    <path d="M 29.720816 127.2 
L 87.046531 127.2 
Q 109.567347 127.2 109.567347 104.679184 
L 109.567347 47.353469 
Q 109.567347 24.832653 87.046531 24.832653 
L 29.720816 24.832653 
Q 7.2 24.832653 7.2 47.353469 
L 7.2 104.679184 
Q 7.2 127.2 29.720816 127.2 
z
" clip-path="url(#p849dde383a)" style="fill: #ff9f01; opacity: 0.07"/>
   </g>
   <g id="patch_44">
    <path d="M 30.151837 127.2 
L 88.574694 127.2 
Q 111.526531 127.2 111.526531 104.248163 
L 111.526531 45.825306 
Q 111.526531 22.873469 88.574694 22.873469 
L 30.151837 22.873469 
Q 7.2 22.873469 7.2 45.825306 
L 7.2 104.248163 
Q 7.2 127.2 30.151837 127.2 
z
" clip-path="url(#p849dde383a)" style="fill: #ff9f01; opacity: 0.07"/>
   </g>
   <g id="patch_45">
    <path d="M 30.582857 127.2 
L 90.102857 127.2 
Q 113.485714 127.2 113.485714 103.817143 
L 113.485714 44.297143 
Q 113.485714 20.914286 90.102857 20.914286 
L 30.582857 20.914286 
Q 7.2 20.914286 7.2 44.297143 
L 7.2 103.817143 
Q 7.2 127.2 30.582857 127.2 
z
" clip-path="url(#p849dde383a)" style="fill: #ff9e01; opacity: 0.07"/>
   </g>
   <g id="patch_46">
    <path d="M 31.013878 127.2 
L 91.63102 127.2 
Q 115.444898 127.2 115.444898 103.386122 
L 115.444898 42.76898 
Q 115.444898 18.955102 91.63102 18.955102 
L 31.013878 18.955102 
Q 7.2 18.955102 7.2 42.76898 
L 7.2 103.386122 
Q 7.2 127.2 31.013878 127.2 
z
" clip-path="url(#p849dde383a)" style="fill: #ff9d01; opacity: 0.07"/>
   </g>
   <g id="patch_47">
    <path d="M 31.444898 127.2 
L 93.159184 127.2 
Q 117.404082 127.2 117.404082 102.955102 
L 117.404082 41.240816 
Q 117.404082 16.995918 93.159184 16.995918 
L 31.444898 16.995918 
Q 7.2 16.995918 7.2 41.240816 
L 7.2 102.955102 
Q 7.2 127.2 31.444898 127.2 
z
" clip-path="url(#p849dde383a)" style="fill: #ff9c01; opacity: 0.07"/>
   </g>
   <g id="patch_48">
    <path d="M 31.875918 127.2 
L 94.687347 127.2 
Q 119.363265 127.2 119.363265 102.524082 
L 119.363265 39.712653 
Q 119.363265 15.036735 94.687347 15.036735 
L 31.875918 15.036735 
Q 7.2 15.036735 7.2 39.712653 
L 7.2 102.524082 
Q 7.2 127.2 31.875918 127.2 
z
" clip-path="url(#p849dde383a)" style="fill: #ff9b01; opacity: 0.07"/>
   </g>
   <g id="patch_49">
    <path d="M 32.306939 127.2 
L 96.21551 127.2 
Q 121.322449 127.2 121.322449 102.093061 
L 121.322449 38.18449 
Q 121.322449 13.077551 96.21551 13.077551 
L 32.306939 13.077551 
Q 7.2 13.077551 7.2 38.18449 
L 7.2 102.093061 
Q 7.2 127.2 32.306939 127.2 
z
" clip-path="url(#p849dde383a)" style="fill: #ff9a00; opacity: 0.07"/>
   </g>
   <g id="patch_50">
    <path d="M 32.737959 127.2 
L 97.743673 127.2 
Q 123.281633 127.2 123.281633 101.662041 
L 123.281633 36.656327 
Q 123.281633 11.118367 97.743673 11.118367 
L 32.737959 11.118367 
Q 7.2 11.118367 7.2 36.656327 
L 7.2 101.662041 
Q 7.2 127.2 32.737959 127.2 
z
" clip-path="url(#p849dde383a)" style="fill: #ff9a00; opacity: 0.07"/>
   </g>
   <g id="patch_51">
    <path d="M 33.16898 127.2 
L 99.271837 127.2 
Q 125.240816 127.2 125.240816 101.23102 
L 125.240816 35.128163 
Q 125.240816 9.159184 99.271837 9.159184 
L 33.16898 9.159184 
Q 7.2 9.159184 7.2 35.128163 
L 7.2 101.23102 
Q 7.2 127.2 33.16898 127.2 
z
" clip-path="url(#p849dde383a)" style="fill: #ff9900; opacity: 0.07"/>
   </g>
   <g id="patch_52">
    <path d="M 33.6 127.2 
L 100.8 127.2 
Q 127.2 127.2 127.2 100.8 
L 127.2 33.6 
Q 127.2 7.2 100.8 7.2 
L 33.6 7.2 
Q 7.2 7.2 7.2 33.6 
L 7.2 100.8 
Q 7.2 127.2 33.6 127.2 
z
" clip-path="url(#p849dde383a)" style="fill: #ff9800; opacity: 0.07"/>
   </g>
   <g id="patch_53">
    <path d="M 92.256 44.112 
L 91.947519 48.031622 
L 91.029672 51.85473 
L 89.525059 55.487186 
L 87.47073 58.839547 
L 84.917268 61.829268 
L 81.927547 64.38273 
L 78.575186 66.437059 
L 74.94273 67.941672 
L 71.119622 68.859519 
L 67.2 69.168 
L 63.280378 68.859519 
L 59.45727 67.941672 
L 55.824814 66.437059 
L 52.472453 64.38273 
L 49.482732 61.829268 
L 46.92927 58.839547 
L 44.874941 55.487186 
L 43.370328 51.85473 
L 42.452481 48.031622 
L 42.144 44.112 
L 92.256 69.168 
L 67.2 88.656 
L 42.144 69.168 
L 42.144 44.112 
L 92.256 44.112 
" clip-path="url(#p849dde383a)" style="fill: #ffffff"/>
   </g>
   <g id="patch_54">
    <path d="M 54.672 63.6 
C 56.886976 63.6 59.011531 62.719981 60.577756 61.153756 
C 62.143981 59.587531 63.024 57.462976 63.024 55.248 
C 63.024 53.033024 62.143981 50.908469 60.577756 49.342244 
C 59.011531 47.776019 56.886976 46.896 54.672 46.896 
C 52.457024 46.896 50.332469 47.776019 48.766244 49.342244 
C 47.200019 50.908469 46.32 53.033024 46.32 55.248 
C 46.32 57.462976 47.200019 59.587531 48.766244 61.153756 
C 50.332469 62.719981 52.457024 63.6 54.672 63.6 
z
" clip-path="url(#p849dde383a)" style="fill: #ffffff"/>
   </g>
   <g id="patch_55">
    <path d="M 79.728 63.6 
C 81.942976 63.6 84.067531 62.719981 85.633756 61.153756 
C 87.199981 59.587531 88.08 57.462976 88.08 55.248 
C 88.08 53.033024 87.199981 50.908469 85.633756 49.342244 
C 84.067531 47.776019 81.942976 46.896 79.728 46.896 
C 77.513024 46.896 75.388469 47.776019 73.822244 49.342244 
C 72.256019 50.908469 71.376 53.033024 71.376 55.248 
C 71.376 57.462976 72.256019 59.587531 73.822244 61.153756 
C 75.388469 62.719981 77.513024 63.6 79.728 63.6 
z
" clip-path="url(#p849dde383a)" style="fill: #ffffff"/>
   </g>
  </g>
 </g>
 <defs>
  <clipPath id="p849dde383a">
   <rect x="7.2" y="7.2" width="120" height="120"/>
  </clipPath>
 </defs>
</svg>
