<?xml version="1.0" encoding="utf-8" standalone="no"?>
<!DOCTYPE svg PUBLIC "-//W3C//DTD SVG 1.1//EN"
  "http://www.w3.org/Graphics/SVG/1.1/DTD/svg11.dtd">
<svg xmlns:xlink="http://www.w3.org/1999/xlink" width="37.44pt" height="37.44pt" viewBox="0 0 37.44 37.44" xmlns="http://www.w3.org/2000/svg" version="1.1">
 <metadata>
  <rdf:RDF xmlns:dc="http://purl.org/dc/elements/1.1/" xmlns:cc="http://creativecommons.org/ns#" xmlns:rdf="http://www.w3.org/1999/02/22-rdf-syntax-ns#">
   <cc:Work>
    <dc:type rdf:resource="http://purl.org/dc/dcmitype/StillImage"/>
    <dc:date>2025-10-07T21:53:30.321712</dc:date>
    <dc:format>image/svg+xml</dc:format>
    <dc:creator>
     <cc:Agent>
      <dc:title>Matplotlib v3.6.3, https://matplotlib.org/</dc:title>
     </cc:Agent>
    </dc:creator>
   </cc:Work>
  </rdf:RDF>
 </metadata>
 <defs>
  <style type="text/css">*{stroke-linejoin: round; stroke-linecap: butt}</style>
 </defs>
 <g id="figure_1">
  <g id="patch_1">
   <path d="M 0 37.44 
L 37.44 37.44 
L 37.44 0 
L 0 0 
z
" style="fill: #ffffff"/>
  </g>
  <g id="axes_1">
   <g id="patch_2">
    <path d="M 12.2688 30.24 
L 25.1712 30.24 
Q 30.24 30.24 30.24 25.1712 
L 30.24 12.2688 
Q 30.24 7.2 25.1712 7.2 
L 12.2688 7.2 
Q 7.2 7.2 7.2 12.2688 
L 7.2 25.1712 
Q 7.2 30.24 12.2688 30.24 
z
" clip-path="url(#p4a08bdfe73)" style="fill: #ffc107"/>
   </g>
   <g id="patch_3">
    <path d="M 8.21376 30.24 
L 10.79424 30.24 
Q 11.808 30.24 11.808 29.22624 
L 11.808 26.64576 
Q 11.808 25.632 10.79424 25.632 
L 8.21376 25.632 
Q 7.2 25.632 7.2 26.64576 
L 7.2 29.22624 
Q 7.2 30.24 8.21376 30.24 
z
" clip-path="url(#p4a08bdfe73)" style="fill: #ffc107; opacity: 0.07"/>
   </g>
   <g id="patch_4">
    <path d="M 8.296516 30.24 
L 11.087647 30.24 
Q 12.184163 30.24 12.184163 29.143484 
L 12.184163 26.352353 
Q 12.184163 25.255837 11.087647 25.255837 
L 8.296516 25.255837 
Q 7.2 25.255837 7.2 26.352353 
L 7.2 29.143484 
Q 7.2 30.24 8.296516 30.24 
z
" clip-path="url(#p4a08bdfe73)" style="fill: #ffc007; opacity: 0.07"/>
   </g>
   <g id="patch_5">
    <path d="M 8.379272 30.24 
L 11.381055 30.24 
Q 12.560327 30.24 12.560327 29.060728 
L 12.560327 26.058945 
Q 12.560327 24.879673 11.381055 24.879673 
L 8.379272 24.879673 
Q 7.2 24.879673 7.2 26.058945 
L 7.2 29.060728 
Q 7.2 30.24 8.379272 30.24 
z
" clip-path="url(#p4a08bdfe73)" style="fill: #ffbf07; opacity: 0.07"/>
   </g>
   <g id="patch_6">
    <path d="M 8.462028 30.24 
L 11.674462 30.24 
Q 12.93649 30.24 12.93649 28.977972 
L 12.93649 25.765538 
Q 12.93649 24.50351 11.674462 24.50351 
L 8.462028 24.50351 
Q 7.2 24.50351 7.2 25.765538 
L 7.2 28.977972 
Q 7.2 30.24 8.462028 30.24 
z
" clip-path="url(#p4a08bdfe73)" style="fill: #ffbe06; opacity: 0.07"/>
   </g>
   <g id="patch_7">
    <path d="M 8.544784 30.24 
L 11.967869 30.24 
Q 13.312653 30.24 13.312653 28.895216 
L 13.312653 25.472131 
Q 13.312653 24.127347 11.967869 24.127347 
L 8.544784 24.127347 
Q 7.2 24.127347 7.2 25.472131 
L 7.2 28.895216 
Q 7.2 30.24 8.544784 30.24 
z
" clip-path="url(#p4a08bdfe73)" style="fill: #ffbd06; opacity: 0.07"/>
   </g>
   <g id="patch_8">
    <path d="M 8.62754 30.24 
L 12.261277 30.24 
Q 13.688816 30.24 13.688816 28.81246 
L 13.688816 25.178723 
Q 13.688816 23.751184 12.261277 23.751184 
L 8.62754 23.751184 
Q 7.2 23.751184 7.2 25.178723 
L 7.2 28.81246 
Q 7.2 30.24 8.62754 30.24 
z
" clip-path="url(#p4a08bdfe73)" style="fill: #ffbd06; opacity: 0.07"/>
   </g>
   <g id="patch_9">
    <path d="M 8.710296 30.24 
L 12.554684 30.24 
Q 14.06498 30.24 14.06498 28.729704 
L 14.06498 24.885316 
Q 14.06498 23.37502 12.554684 23.37502 
L 8.710296 23.37502 
Q 7.2 23.37502 7.2 24.885316 
L 7.2 28.729704 
Q 7.2 30.24 8.710296 30.24 
z
" clip-path="url(#p4a08bdfe73)" style="fill: #ffbc06; opacity: 0.07"/>
   </g>
   <g id="patch_10">
    <path d="M 8.793051 30.24 
L 12.848091 30.24 
Q 14.441143 30.24 14.441143 28.646949 
L 14.441143 24.591909 
Q 14.441143 22.998857 12.848091 22.998857 
L 8.793051 22.998857 
Q 7.2 22.998857 7.2 24.591909 
L 7.2 28.646949 
Q 7.2 30.24 8.793051 30.24 
z
" clip-path="url(#p4a08bdfe73)" style="fill: #ffbb06; opacity: 0.07"/>
   </g>
   <g id="patch_11">
    <path d="M 8.875807 30.24 
L 13.141499 30.24 
Q 14.817306 30.24 14.817306 28.564193 
L 14.817306 24.298501 
Q 14.817306 22.622694 13.141499 22.622694 
L 8.875807 22.622694 
Q 7.2 22.622694 7.2 24.298501 
L 7.2 28.564193 
Q 7.2 30.24 8.875807 30.24 
z
" clip-path="url(#p4a08bdfe73)" style="fill: #ffba06; opacity: 0.07"/>
   </g>
   <g id="patch_12">
    <path d="M 8.958563 30.24 
L 13.434906 30.24 
Q 15.193469 30.24 15.193469 28.481437 
L 15.193469 24.005094 
Q 15.193469 22.246531 13.434906 22.246531 
L 8.958563 22.246531 
Q 7.2 22.246531 7.2 24.005094 
L 7.2 28.481437 
Q 7.2 30.24 8.958563 30.24 
z
" clip-path="url(#p4a08bdfe73)" style="fill: #ffb906; opacity: 0.07"/>
   </g>
   <g id="patch_13">
    <path d="M 9.041319 30.24 
L 13.728313 30.24 
Q 15.569633 30.24 15.569633 28.398681 
L 15.569633 23.711687 
Q 15.569633 21.870367 13.728313 21.870367 
L 9.041319 21.870367 
Q 7.2 21.870367 7.2 23.711687 
L 7.2 28.398681 
Q 7.2 30.24 9.041319 30.24 
z
" clip-path="url(#p4a08bdfe73)" style="fill: #ffb805; opacity: 0.07"/>
   </g>
   <g id="patch_14">
    <path d="M 9.124075 30.24 
L 14.021721 30.24 
Q 15.945796 30.24 15.945796 28.315925 
L 15.945796 23.418279 
Q 15.945796 21.494204 14.021721 21.494204 
L 9.124075 21.494204 
Q 7.2 21.494204 7.2 23.418279 
L 7.2 28.315925 
Q 7.2 30.24 9.124075 30.24 
z
" clip-path="url(#p4a08bdfe73)" style="fill: #ffb805; opacity: 0.07"/>
   </g>
   <g id="patch_15">
    <path d="M 9.206831 30.24 
L 14.315128 30.24 
Q 16.321959 30.24 16.321959 28.233169 
L 16.321959 23.124872 
Q 16.321959 21.118041 14.315128 21.118041 
L 9.206831 21.118041 
Q 7.2 21.118041 7.2 23.124872 
L 7.2 28.233169 
Q 7.2 30.24 9.206831 30.24 
z
" clip-path="url(#p4a08bdfe73)" style="fill: #ffb705; opacity: 0.07"/>
   </g>
   <g id="patch_16">
    <path d="M 9.289587 30.24 
L 14.608536 30.24 
Q 16.698122 30.24 16.698122 28.150413 
L 16.698122 22.831464 
Q 16.698122 20.741878 14.608536 20.741878 
L 9.289587 20.741878 
Q 7.2 20.741878 7.2 22.831464 
L 7.2 28.150413 
Q 7.2 30.24 9.289587 30.24 
z
" clip-path="url(#p4a08bdfe73)" style="fill: #ffb605; opacity: 0.07"/>
   </g>
   <g id="patch_17">
    <path d="M 9.372343 30.24 
L 14.901943 30.24 
Q 17.074286 30.24 17.074286 28.067657 
L 17.074286 22.538057 
Q 17.074286 20.365714 14.901943 20.365714 
L 9.372343 20.365714 
Q 7.2 20.365714 7.2 22.538057 
L 7.2 28.067657 
Q 7.2 30.24 9.372343 30.24 
z
" clip-path="url(#p4a08bdfe73)" style="fill: #ffb505; opacity: 0.07"/>
   </g>
   <g id="patch_18">
    <path d="M 9.455099 30.24 
L 15.19535 30.24 
Q 17.450449 30.24 17.450449 27.984901 
L 17.450449 22.24465 
Q 17.450449 19.989551 15.19535 19.989551 
L 9.455099 19.989551 
Q 7.2 19.989551 7.2 22.24465 
L 7.2 27.984901 
Q 7.2 30.24 9.455099 30.24 
z
" clip-path="url(#p4a08bdfe73)" style="fill: #ffb405; opacity: 0.07"/>
   </g>
   <g id="patch_19">
    <path d="M 9.537855 30.24 
L 15.488758 30.24 
Q 17.826612 30.24 17.826612 27.902145 
L 17.826612 21.951242 
Q 17.826612 19.613388 15.488758 19.613388 
L 9.537855 19.613388 
Q 7.2 19.613388 7.2 21.951242 
L 7.2 27.902145 
Q 7.2 30.24 9.537855 30.24 
z
" clip-path="url(#p4a08bdfe73)" style="fill: #ffb305; opacity: 0.07"/>
   </g>
   <g id="patch_20">
    <path d="M 9.620611 30.24 
L 15.782165 30.24 
Q 18.202776 30.24 18.202776 27.819389 
L 18.202776 21.657835 
Q 18.202776 19.237224 15.782165 19.237224 
L 9.620611 19.237224 
Q 7.2 19.237224 7.2 21.657835 
L 7.2 27.819389 
Q 7.2 30.24 9.620611 30.24 
z
" clip-path="url(#p4a08bdfe73)" style="fill: #ffb304; opacity: 0.07"/>
   </g>
   <g id="patch_21">
    <path d="M 9.703367 30.24 
L 16.075572 30.24 
Q 18.578939 30.24 18.578939 27.736633 
L 18.578939 21.364428 
Q 18.578939 18.861061 16.075572 18.861061 
L 9.703367 18.861061 
Q 7.2 18.861061 7.2 21.364428 
L 7.2 27.736633 
Q 7.2 30.24 9.703367 30.24 
z
" clip-path="url(#p4a08bdfe73)" style="fill: #ffb204; opacity: 0.07"/>
   </g>
   <g id="patch_22">
    <path d="M 9.786122 30.24 
L 16.36898 30.24 
Q 18.955102 30.24 18.955102 27.653878 
L 18.955102 21.07102 
Q 18.955102 18.484898 16.36898 18.484898 
L 9.786122 18.484898 
Q 7.2 18.484898 7.2 21.07102 
L 7.2 27.653878 
Q 7.2 30.24 9.786122 30.24 
z
" clip-path="url(#p4a08bdfe73)" style="fill: #ffb104; opacity: 0.07"/>
   </g>
   <g id="patch_23">
    <path d="M 9.868878 30.24 
L 16.662387 30.24 
Q 19.331265 30.24 19.331265 27.571122 
L 19.331265 20.777613 
Q 19.331265 18.108735 16.662387 18.108735 
L 9.868878 18.108735 
Q 7.2 18.108735 7.2 20.777613 
L 7.2 27.571122 
Q 7.2 30.24 9.868878 30.24 
z
" clip-path="url(#p4a08bdfe73)" style="fill: #ffb004; opacity: 0.07"/>
   </g>
   <g id="patch_24">
    <path d="M 9.951634 30.24 
L 16.955794 30.24 
Q 19.707429 30.24 19.707429 27.488366 
L 19.707429 20.484206 
Q 19.707429 17.732571 16.955794 17.732571 
L 9.951634 17.732571 
Q 7.2 17.732571 7.2 20.484206 
L 7.2 27.488366 
Q 7.2 30.24 9.951634 30.24 
z
" clip-path="url(#p4a08bdfe73)" style="fill: #ffaf04; opacity: 0.07"/>
   </g>
   <g id="patch_25">
    <path d="M 10.03439 30.24 
L 17.249202 30.24 
Q 20.083592 30.24 20.083592 27.40561 
L 20.083592 20.190798 
Q 20.083592 17.356408 17.249202 17.356408 
L 10.03439 17.356408 
Q 7.2 17.356408 7.2 20.190798 
L 7.2 27.40561 
Q 7.2 30.24 10.03439 30.24 
z
" clip-path="url(#p4a08bdfe73)" style="fill: #ffae04; opacity: 0.07"/>
   </g>
   <g id="patch_26">
    <path d="M 10.117146 30.24 
L 17.542609 30.24 
Q 20.459755 30.24 20.459755 27.322854 
L 20.459755 19.897391 
Q 20.459755 16.980245 17.542609 16.980245 
L 10.117146 16.980245 
Q 7.2 16.980245 7.2 19.897391 
L 7.2 27.322854 
Q 7.2 30.24 10.117146 30.24 
z
" clip-path="url(#p4a08bdfe73)" style="fill: #ffae04; opacity: 0.07"/>
   </g>
   <g id="patch_27">
    <path d="M 10.199902 30.24 
L 17.836016 30.24 
Q 20.835918 30.24 20.835918 27.240098 
L 20.835918 19.603984 
Q 20.835918 16.604082 17.836016 16.604082 
L 10.199902 16.604082 
Q 7.2 16.604082 7.2 19.603984 
L 7.2 27.240098 
Q 7.2 30.24 10.199902 30.24 
z
" clip-path="url(#p4a08bdfe73)" style="fill: #ffad04; opacity: 0.07"/>
   </g>
   <g id="patch_28">
    <path d="M 10.282658 30.24 
L 18.129424 30.24 
Q 21.212082 30.24 21.212082 27.157342 
L 21.212082 19.310576 
Q 21.212082 16.227918 18.129424 16.227918 
L 10.282658 16.227918 
Q 7.2 16.227918 7.2 19.310576 
L 7.2 27.157342 
Q 7.2 30.24 10.282658 30.24 
z
" clip-path="url(#p4a08bdfe73)" style="fill: #ffac03; opacity: 0.07"/>
   </g>
   <g id="patch_29">
    <path d="M 10.365414 30.24 
L 18.422831 30.24 
Q 21.588245 30.24 21.588245 27.074586 
L 21.588245 19.017169 
Q 21.588245 15.851755 18.422831 15.851755 
L 10.365414 15.851755 
Q 7.2 15.851755 7.2 19.017169 
L 7.2 27.074586 
Q 7.2 30.24 10.365414 30.24 
z
" clip-path="url(#p4a08bdfe73)" style="fill: #ffab03; opacity: 0.07"/>
   </g>
   <g id="patch_30">
    <path d="M 10.44817 30.24 
L 18.716238 30.24 
Q 21.964408 30.24 21.964408 26.99183 
L 21.964408 18.723762 
Q 21.964408 15.475592 18.716238 15.475592 
L 10.44817 15.475592 
Q 7.2 15.475592 7.2 18.723762 
L 7.2 26.99183 
Q 7.2 30.24 10.44817 30.24 
z
" clip-path="url(#p4a08bdfe73)" style="fill: #ffaa03; opacity: 0.07"/>
   </g>
   <g id="patch_31">
    <path d="M 10.530926 30.24 
L 19.009646 30.24 
Q 22.340571 30.24 22.340571 26.909074 
L 22.340571 18.430354 
Q 22.340571 15.099429 19.009646 15.099429 
L 10.530926 15.099429 
Q 7.2 15.099429 7.2 18.430354 
L 7.2 26.909074 
Q 7.2 30.24 10.530926 30.24 
z
" clip-path="url(#p4a08bdfe73)" style="fill: #ffa903; opacity: 0.07"/>
   </g>
   <g id="patch_32">
    <path d="M 10.613682 30.24 
L 19.303053 30.24 
Q 22.716735 30.24 22.716735 26.826318 
L 22.716735 18.136947 
Q 22.716735 14.723265 19.303053 14.723265 
L 10.613682 14.723265 
Q 7.2 14.723265 7.2 18.136947 
L 7.2 26.826318 
Q 7.2 30.24 10.613682 30.24 
z
" clip-path="url(#p4a08bdfe73)" style="fill: #ffa903; opacity: 0.07"/>
   </g>
   <g id="patch_33">
    <path d="M 10.696438 30.24 
L 19.59646 30.24 
Q 23.092898 30.24 23.092898 26.743562 
L 23.092898 17.84354 
Q 23.092898 14.347102 19.59646 14.347102 
L 10.696438 14.347102 
Q 7.2 14.347102 7.2 17.84354 
L 7.2 26.743562 
Q 7.2 30.24 10.696438 30.24 
z
" clip-path="url(#p4a08bdfe73)" style="fill: #ffa803; opacity: 0.07"/>
   </g>
   <g id="patch_34">
    <path d="M 10.779193 30.24 
L 19.889868 30.24 
Q 23.469061 30.24 23.469061 26.660807 
L 23.469061 17.550132 
Q 23.469061 13.970939 19.889868 13.970939 
L 10.779193 13.970939 
Q 7.2 13.970939 7.2 17.550132 
L 7.2 26.660807 
Q 7.2 30.24 10.779193 30.24 
z
" clip-path="url(#p4a08bdfe73)" style="fill: #ffa703; opacity: 0.07"/>
   </g>
   <g id="patch_35">
    <path d="M 10.861949 30.24 
L 20.183275 30.24 
Q 23.845224 30.24 23.845224 26.578051 
L 23.845224 17.256725 
Q 23.845224 13.594776 20.183275 13.594776 
L 10.861949 13.594776 
Q 7.2 13.594776 7.2 17.256725 
L 7.2 26.578051 
Q 7.2 30.24 10.861949 30.24 
z
" clip-path="url(#p4a08bdfe73)" style="fill: #ffa602; opacity: 0.07"/>
   </g>
   <g id="patch_36">
    <path d="M 10.944705 30.24 
L 20.476682 30.24 
Q 24.221388 30.24 24.221388 26.495295 
L 24.221388 16.963318 
Q 24.221388 13.218612 20.476682 13.218612 
L 10.944705 13.218612 
Q 7.2 13.218612 7.2 16.963318 
L 7.2 26.495295 
Q 7.2 30.24 10.944705 30.24 
z
" clip-path="url(#p4a08bdfe73)" style="fill: #ffa502; opacity: 0.07"/>
   </g>
   <g id="patch_37">
    <path d="M 11.027461 30.24 
L 20.77009 30.24 
Q 24.597551 30.24 24.597551 26.412539 
L 24.597551 16.66991 
Q 24.597551 12.842449 20.77009 12.842449 
L 11.027461 12.842449 
Q 7.2 12.842449 7.2 16.66991 
L 7.2 26.412539 
Q 7.2 30.24 11.027461 30.24 
z
" clip-path="url(#p4a08bdfe73)" style="fill: #ffa402; opacity: 0.07"/>
   </g>
   <g id="patch_38">
    <path d="M 11.110217 30.24 
L 21.063497 30.24 
Q 24.973714 30.24 24.973714 26.329783 
L 24.973714 16.376503 
Q 24.973714 12.466286 21.063497 12.466286 
L 11.110217 12.466286 
Q 7.2 12.466286 7.2 16.376503 
L 7.2 26.329783 
Q 7.2 30.24 11.110217 30.24 
z
" clip-path="url(#p4a08bdfe73)" style="fill: #ffa402; opacity: 0.07"/>
   </g>
   <g id="patch_39">
    <path d="M 11.192973 30.24 
L 21.356904 30.24 
Q 25.349878 30.24 25.349878 26.247027 
L 25.349878 16.083096 
Q 25.349878 12.090122 21.356904 12.090122 
L 11.192973 12.090122 
Q 7.2 12.090122 7.2 16.083096 
L 7.2 26.247027 
Q 7.2 30.24 11.192973 30.24 
z
" clip-path="url(#p4a08bdfe73)" style="fill: #ffa302; opacity: 0.07"/>
   </g>
   <g id="patch_40">
    <path d="M 11.275729 30.24 
L 21.650312 30.24 
Q 25.726041 30.24 25.726041 26.164271 
L 25.726041 15.789688 
Q 25.726041 11.713959 21.650312 11.713959 
L 11.275729 11.713959 
Q 7.2 11.713959 7.2 15.789688 
L 7.2 26.164271 
Q 7.2 30.24 11.275729 30.24 
z
" clip-path="url(#p4a08bdfe73)" style="fill: #ffa202; opacity: 0.07"/>
   </g>
   <g id="patch_41">
    <path d="M 11.358485 30.24 
L 21.943719 30.24 
Q 26.102204 30.24 26.102204 26.081515 
L 26.102204 15.496281 
Q 26.102204 11.337796 21.943719 11.337796 
L 11.358485 11.337796 
Q 7.2 11.337796 7.2 15.496281 
L 7.2 26.081515 
Q 7.2 30.24 11.358485 30.24 
z
" clip-path="url(#p4a08bdfe73)" style="fill: #ffa102; opacity: 0.07"/>
   </g>
   <g id="patch_42">
    <path d="M 11.441241 30.24 
L 22.237127 30.24 
Q 26.478367 30.24 26.478367 25.998759 
L 26.478367 15.202873 
Q 26.478367 10.961633 22.237127 10.961633 
L 11.441241 10.961633 
Q 7.2 10.961633 7.2 15.202873 
L 7.2 25.998759 
Q 7.2 30.24 11.441241 30.24 
z
" clip-path="url(#p4a08bdfe73)" style="fill: #ffa001; opacity: 0.07"/>
   </g>
   <g id="patch_43">
    <path d="M 11.523997 30.24 
L 22.530534 30.24 
Q 26.854531 30.24 26.854531 25.916003 
L 26.854531 14.909466 
Q 26.854531 10.585469 22.530534 10.585469 
L 11.523997 10.585469 
Q 7.2 10.585469 7.2 14.909466 
L 7.2 25.916003 
Q 7.2 30.24 11.523997 30.24 
z
" clip-path="url(#p4a08bdfe73)" style="fill: #ff9f01; opacity: 0.07"/>
   </g>
   <g id="patch_44">
    <path d="M 11.606753 30.24 
L 22.823941 30.24 
Q 27.230694 30.24 27.230694 25.833247 
L 27.230694 14.616059 
Q 27.230694 10.209306 22.823941 10.209306 
L 11.606753 10.209306 
Q 7.2 10.209306 7.2 14.616059 
L 7.2 25.833247 
Q 7.2 30.24 11.606753 30.24 
z
" clip-path="url(#p4a08bdfe73)" style="fill: #ff9f01; opacity: 0.07"/>
   </g>
   <g id="patch_45">
    <path d="M 11.689509 30.24 
L 23.117349 30.24 
Q 27.606857 30.24 27.606857 25.750491 
L 27.606857 14.322651 
Q 27.606857 9.833143 23.117349 9.833143 
L 11.689509 9.833143 
Q 7.2 9.833143 7.2 14.322651 
L 7.2 25.750491 
Q 7.2 30.24 11.689509 30.24 
z
" clip-path="url(#p4a08bdfe73)" style="fill: #ff9e01; opacity: 0.07"/>
   </g>
   <g id="patch_46">
    <path d="M 11.772264 30.24 
L 23.410756 30.24 
Q 27.98302 30.24 27.98302 25.667736 
L 27.98302 14.029244 
Q 27.98302 9.45698 23.410756 9.45698 
L 11.772264 9.45698 
Q 7.2 9.45698 7.2 14.029244 
L 7.2 25.667736 
Q 7.2 30.24 11.772264 30.24 
z
" clip-path="url(#p4a08bdfe73)" style="fill: #ff9d01; opacity: 0.07"/>
   </g>
   <g id="patch_47">
    <path d="M 11.85502 30.24 
L 23.704163 30.24 
Q 28.359184 30.24 28.359184 25.58498 
L 28.359184 13.735837 
Q 28.359184 9.080816 23.704163 9.080816 
L 11.85502 9.080816 
Q 7.2 9.080816 7.2 13.735837 
L 7.2 25.58498 
Q 7.2 30.24 11.85502 30.24 
z
" clip-path="url(#p4a08bdfe73)" style="fill: #ff9c01; opacity: 0.07"/>
   </g>
   <g id="patch_48">
    <path d="M 11.937776 30.24 
L 23.997571 30.24 
Q 28.735347 30.24 28.735347 25.502224 
L 28.735347 13.442429 
Q 28.735347 8.704653 23.997571 8.704653 
L 11.937776 8.704653 
Q 7.2 8.704653 7.2 13.442429 
L 7.2 25.502224 
Q 7.2 30.24 11.937776 30.24 
z
" clip-path="url(#p4a08bdfe73)" style="fill: #ff9b01; opacity: 0.07"/>
   </g>
   <g id="patch_49">
    <path d="M 12.020532 30.24 
L 24.290978 30.24 
Q 29.11151 30.24 29.11151 25.419468 
L 29.11151 13.149022 
Q 29.11151 8.32849 24.290978 8.32849 
L 12.020532 8.32849 
Q 7.2 8.32849 7.2 13.149022 
L 7.2 25.419468 
Q 7.2 30.24 12.020532 30.24 
z
" clip-path="url(#p4a08bdfe73)" style="fill: #ff9a00; opacity: 0.07"/>
   </g>
   <g id="patch_50">
    <path d="M 12.103288 30.24 
L 24.584385 30.24 
Q 29.487673 30.24 29.487673 25.336712 
L 29.487673 12.855615 
Q 29.487673 7.952327 24.584385 7.952327 
L 12.103288 7.952327 
Q 7.2 7.952327 7.2 12.855615 
L 7.2 25.336712 
Q 7.2 30.24 12.103288 30.24 
z
" clip-path="url(#p4a08bdfe73)" style="fill: #ff9a00; opacity: 0.07"/>
   </g>
   <g id="patch_51">
    <path d="M 12.186044 30.24 
L 24.877793 30.24 
Q 29.863837 30.24 29.863837 25.253956 
L 29.863837 12.562207 
Q 29.863837 7.576163 24.877793 7.576163 
L 12.186044 7.576163 
Q 7.2 7.576163 7.2 12.562207 
L 7.2 25.253956 
Q 7.2 30.24 12.186044 30.24 
z
" clip-path="url(#p4a08bdfe73)" style="fill: #ff9900; opacity: 0.07"/>
   </g>
   <g id="patch_52">
    <path d="M 12.2688 30.24 
L 25.1712 30.24 
Q 30.24 30.24 30.24 25.1712 
L 30.24 12.2688 
Q 30.24 7.2 25.1712 7.2 
L 12.2688 7.2 
Q 7.2 7.2 7.2 12.2688 
L 7.2 25.1712 
Q 7.2 30.24 12.2688 30.24 
z
" clip-path="url(#p4a08bdfe73)" style="fill: #ff9800; opacity: 0.07"/>
   </g>
  </g>
 </g>
 <defs>
  <clipPath id="p4a08bdfe73">
   <rect x="7.2" y="7.2" width="23.04" height="23.04"/>
  </clipPath>
 </defs>
</svg>
