<?xml version="1.0" encoding="utf-8" standalone="no"?>
<!DOCTYPE svg PUBLIC "-//W3C//DTD SVG 1.1//EN"
  "http://www.w3.org/Graphics/SVG/1.1/DTD/svg11.dtd">
<svg xmlns:xlink="http://www.w3.org/1999/xlink" width="31.68pt" height="31.68pt" viewBox="0 0 31.68 31.68" xmlns="http://www.w3.org/2000/svg" version="1.1">
 <metadata>
  <rdf:RDF xmlns:dc="http://purl.org/dc/elements/1.1/" xmlns:cc="http://creativecommons.org/ns#" xmlns:rdf="http://www.w3.org/1999/02/22-rdf-syntax-ns#">
   <cc:Work>
    <dc:type rdf:resource="http://purl.org/dc/dcmitype/StillImage"/>
    <dc:date>2025-10-07T21:53:29.869238</dc:date>
    <dc:format>image/svg+xml</dc:format>
    <dc:creator>
     <cc:Agent>
      <dc:title>Matplotlib v3.6.3, https://matplotlib.org/</dc:title>
     </cc:Agent>
    </dc:creator>
   </cc:Work>
  </rdf:RDF>
 </metadata>
 <defs>
  <style type="text/css">*{stroke-linejoin: round; stroke-linecap: butt}</style>
 </defs>
 <g id="figure_1">
  <g id="patch_1">
   <path d="M 0 31.68 
L 31.68 31.68 
L 31.68 0 
L 0 0 
z
" style="fill: #ffffff"/>
  </g>
  <g id="axes_1">
   <g id="patch_2">
    <path d="M 11.0016 24.48 
L 20.6784 24.48 
Q 24.48 24.48 24.48 20.6784 
L 24.48 11.0016 
Q 24.48 7.2 20.6784 7.2 
L 11.0016 7.2 
Q 7.2 7.2 7.2 11.0016 
L 7.2 20.6784 
Q 7.2 24.48 11.0016 24.48 
z
" clip-path="url(#p7f8114d0d1)" style="fill: #ffc107"/>
   </g>
   <g id="patch_3">
    <path d="M 7.96032 24.48 
L 9.89568 24.48 
Q 10.656 24.48 10.656 23.71968 
L 10.656 21.78432 
Q 10.656 21.024 9.89568 21.024 
L 7.96032 21.024 
Q 7.2 21.024 7.2 21.78432 
L 7.2 23.71968 
Q 7.2 24.48 7.96032 24.48 
z
" clip-path="url(#p7f8114d0d1)" style="fill: #ffc107; opacity: 0.07"/>
   </g>
   <g id="patch_4">
    <path d="M 8.022387 24.48 
L 10.115736 24.48 
Q 10.938122 24.48 10.938122 23.657613 
L 10.938122 21.564264 
Q 10.938122 20.741878 10.115736 20.741878 
L 8.022387 20.741878 
Q 7.2 20.741878 7.2 21.564264 
L 7.2 23.657613 
Q 7.2 24.48 8.022387 24.48 
z
" clip-path="url(#p7f8114d0d1)" style="fill: #ffc007; opacity: 0.07"/>
   </g>
   <g id="patch_5">
    <path d="M 8.084454 24.48 
L 10.335791 24.48 
Q 11.220245 24.48 11.220245 23.595546 
L 11.220245 21.344209 
Q 11.220245 20.459755 10.335791 20.459755 
L 8.084454 20.459755 
Q 7.2 20.459755 7.2 21.344209 
L 7.2 23.595546 
Q 7.2 24.48 8.084454 24.48 
z
" clip-path="url(#p7f8114d0d1)" style="fill: #ffbf07; opacity: 0.07"/>
   </g>
   <g id="patch_6">
    <path d="M 8.146521 24.48 
L 10.555847 24.48 
Q 11.502367 24.48 11.502367 23.533479 
L 11.502367 21.124153 
Q 11.502367 20.177633 10.555847 20.177633 
L 8.146521 20.177633 
Q 7.2 20.177633 7.2 21.124153 
L 7.2 23.533479 
Q 7.2 24.48 8.146521 24.48 
z
" clip-path="url(#p7f8114d0d1)" style="fill: #ffbe06; opacity: 0.07"/>
   </g>
   <g id="patch_7">
    <path d="M 8.208588 24.48 
L 10.775902 24.48 
Q 11.78449 24.48 11.78449 23.471412 
L 11.78449 20.904098 
Q 11.78449 19.89551 10.775902 19.89551 
L 8.208588 19.89551 
Q 7.2 19.89551 7.2 20.904098 
L 7.2 23.471412 
Q 7.2 24.48 8.208588 24.48 
z
" clip-path="url(#p7f8114d0d1)" style="fill: #ffbd06; opacity: 0.07"/>
   </g>
   <g id="patch_8">
    <path d="M 8.270655 24.48 
L 10.995958 24.48 
Q 12.066612 24.48 12.066612 23.409345 
L 12.066612 20.684042 
Q 12.066612 19.613388 10.995958 19.613388 
L 8.270655 19.613388 
Q 7.2 19.613388 7.2 20.684042 
L 7.2 23.409345 
Q 7.2 24.48 8.270655 24.48 
z
" clip-path="url(#p7f8114d0d1)" style="fill: #ffbd06; opacity: 0.07"/>
   </g>
   <g id="patch_9">
    <path d="M 8.332722 24.48 
L 11.216013 24.48 
Q 12.348735 24.48 12.348735 23.347278 
L 12.348735 20.463987 
Q 12.348735 19.331265 11.216013 19.331265 
L 8.332722 19.331265 
Q 7.2 19.331265 7.2 20.463987 
L 7.2 23.347278 
Q 7.2 24.48 8.332722 24.48 
z
" clip-path="url(#p7f8114d0d1)" style="fill: #ffbc06; opacity: 0.07"/>
   </g>
   <g id="patch_10">
    <path d="M 8.394789 24.48 
L 11.436069 24.48 
Q 12.630857 24.48 12.630857 23.285211 
L 12.630857 20.243931 
Q 12.630857 19.049143 11.436069 19.049143 
L 8.394789 19.049143 
Q 7.2 19.049143 7.2 20.243931 
L 7.2 23.285211 
Q 7.2 24.48 8.394789 24.48 
z
" clip-path="url(#p7f8114d0d1)" style="fill: #ffbb06; opacity: 0.07"/>
   </g>
   <g id="patch_11">
    <path d="M 8.456856 24.48 
L 11.656124 24.48 
Q 12.91298 24.48 12.91298 23.223144 
L 12.91298 20.023876 
Q 12.91298 18.76702 11.656124 18.76702 
L 8.456856 18.76702 
Q 7.2 18.76702 7.2 20.023876 
L 7.2 23.223144 
Q 7.2 24.48 8.456856 24.48 
z
" clip-path="url(#p7f8114d0d1)" style="fill: #ffba06; opacity: 0.07"/>
   </g>
   <g id="patch_12">
    <path d="M 8.518922 24.48 
L 11.87618 24.48 
Q 13.195102 24.48 13.195102 23.161078 
L 13.195102 19.80382 
Q 13.195102 18.484898 11.87618 18.484898 
L 8.518922 18.484898 
Q 7.2 18.484898 7.2 19.80382 
L 7.2 23.161078 
Q 7.2 24.48 8.518922 24.48 
z
" clip-path="url(#p7f8114d0d1)" style="fill: #ffb906; opacity: 0.07"/>
   </g>
   <g id="patch_13">
    <path d="M 8.580989 24.48 
L 12.096235 24.48 
Q 13.477224 24.48 13.477224 23.099011 
L 13.477224 19.583765 
Q 13.477224 18.202776 12.096235 18.202776 
L 8.580989 18.202776 
Q 7.2 18.202776 7.2 19.583765 
L 7.2 23.099011 
Q 7.2 24.48 8.580989 24.48 
z
" clip-path="url(#p7f8114d0d1)" style="fill: #ffb805; opacity: 0.07"/>
   </g>
   <g id="patch_14">
    <path d="M 8.643056 24.48 
L 12.316291 24.48 
Q 13.759347 24.48 13.759347 23.036944 
L 13.759347 19.363709 
Q 13.759347 17.920653 12.316291 17.920653 
L 8.643056 17.920653 
Q 7.2 17.920653 7.2 19.363709 
L 7.2 23.036944 
Q 7.2 24.48 8.643056 24.48 
z
" clip-path="url(#p7f8114d0d1)" style="fill: #ffb805; opacity: 0.07"/>
   </g>
   <g id="patch_15">
    <path d="M 8.705123 24.48 
L 12.536346 24.48 
Q 14.041469 24.48 14.041469 22.974877 
L 14.041469 19.143654 
Q 14.041469 17.638531 12.536346 17.638531 
L 8.705123 17.638531 
Q 7.2 17.638531 7.2 19.143654 
L 7.2 22.974877 
Q 7.2 24.48 8.705123 24.48 
z
" clip-path="url(#p7f8114d0d1)" style="fill: #ffb705; opacity: 0.07"/>
   </g>
   <g id="patch_16">
    <path d="M 8.76719 24.48 
L 12.756402 24.48 
Q 14.323592 24.48 14.323592 22.91281 
L 14.323592 18.923598 
Q 14.323592 17.356408 12.756402 17.356408 
L 8.76719 17.356408 
Q 7.2 17.356408 7.2 18.923598 
L 7.2 22.91281 
Q 7.2 24.48 8.76719 24.48 
z
" clip-path="url(#p7f8114d0d1)" style="fill: #ffb605; opacity: 0.07"/>
   </g>
   <g id="patch_17">
    <path d="M 8.829257 24.48 
L 12.976457 24.48 
Q 14.605714 24.48 14.605714 22.850743 
L 14.605714 18.703543 
Q 14.605714 17.074286 12.976457 17.074286 
L 8.829257 17.074286 
Q 7.2 17.074286 7.2 18.703543 
L 7.2 22.850743 
Q 7.2 24.48 8.829257 24.48 
z
" clip-path="url(#p7f8114d0d1)" style="fill: #ffb505; opacity: 0.07"/>
   </g>
   <g id="patch_18">
    <path d="M 8.891324 24.48 
L 13.196513 24.48 
Q 14.887837 24.48 14.887837 22.788676 
L 14.887837 18.483487 
Q 14.887837 16.792163 13.196513 16.792163 
L 8.891324 16.792163 
Q 7.2 16.792163 7.2 18.483487 
L 7.2 22.788676 
Q 7.2 24.48 8.891324 24.48 
z
" clip-path="url(#p7f8114d0d1)" style="fill: #ffb405; opacity: 0.07"/>
   </g>
   <g id="patch_19">
    <path d="M 8.953391 24.48 
L 13.416568 24.48 
Q 15.169959 24.48 15.169959 22.726609 
L 15.169959 18.263432 
Q 15.169959 16.510041 13.416568 16.510041 
L 8.953391 16.510041 
Q 7.2 16.510041 7.2 18.263432 
L 7.2 22.726609 
Q 7.2 24.48 8.953391 24.48 
z
" clip-path="url(#p7f8114d0d1)" style="fill: #ffb305; opacity: 0.07"/>
   </g>
   <g id="patch_20">
    <path d="M 9.015458 24.48 
L 13.636624 24.48 
Q 15.452082 24.48 15.452082 22.664542 
L 15.452082 18.043376 
Q 15.452082 16.227918 13.636624 16.227918 
L 9.015458 16.227918 
Q 7.2 16.227918 7.2 18.043376 
L 7.2 22.664542 
Q 7.2 24.48 9.015458 24.48 
z
" clip-path="url(#p7f8114d0d1)" style="fill: #ffb304; opacity: 0.07"/>
   </g>
   <g id="patch_21">
    <path d="M 9.077525 24.48 
L 13.856679 24.48 
Q 15.734204 24.48 15.734204 22.602475 
L 15.734204 17.823321 
Q 15.734204 15.945796 13.856679 15.945796 
L 9.077525 15.945796 
Q 7.2 15.945796 7.2 17.823321 
L 7.2 22.602475 
Q 7.2 24.48 9.077525 24.48 
z
" clip-path="url(#p7f8114d0d1)" style="fill: #ffb204; opacity: 0.07"/>
   </g>
   <g id="patch_22">
    <path d="M 9.139592 24.48 
L 14.076735 24.48 
Q 16.016327 24.48 16.016327 22.540408 
L 16.016327 17.603265 
Q 16.016327 15.663673 14.076735 15.663673 
L 9.139592 15.663673 
Q 7.2 15.663673 7.2 17.603265 
L 7.2 22.540408 
Q 7.2 24.48 9.139592 24.48 
z
" clip-path="url(#p7f8114d0d1)" style="fill: #ffb104; opacity: 0.07"/>
   </g>
   <g id="patch_23">
    <path d="M 9.201659 24.48 
L 14.29679 24.48 
Q 16.298449 24.48 16.298449 22.478341 
L 16.298449 17.38321 
Q 16.298449 15.381551 14.29679 15.381551 
L 9.201659 15.381551 
Q 7.2 15.381551 7.2 17.38321 
L 7.2 22.478341 
Q 7.2 24.48 9.201659 24.48 
z
" clip-path="url(#p7f8114d0d1)" style="fill: #ffb004; opacity: 0.07"/>
   </g>
   <g id="patch_24">
    <path d="M 9.263726 24.48 
L 14.516846 24.48 
Q 16.580571 24.48 16.580571 22.416274 
L 16.580571 17.163154 
Q 16.580571 15.099429 14.516846 15.099429 
L 9.263726 15.099429 
Q 7.2 15.099429 7.2 17.163154 
L 7.2 22.416274 
Q 7.2 24.48 9.263726 24.48 
z
" clip-path="url(#p7f8114d0d1)" style="fill: #ffaf04; opacity: 0.07"/>
   </g>
   <g id="patch_25">
    <path d="M 9.325793 24.48 
L 14.736901 24.48 
Q 16.862694 24.48 16.862694 22.354207 
L 16.862694 16.943099 
Q 16.862694 14.817306 14.736901 14.817306 
L 9.325793 14.817306 
Q 7.2 14.817306 7.2 16.943099 
L 7.2 22.354207 
Q 7.2 24.48 9.325793 24.48 
z
" clip-path="url(#p7f8114d0d1)" style="fill: #ffae04; opacity: 0.07"/>
   </g>
   <g id="patch_26">
    <path d="M 9.38786 24.48 
L 14.956957 24.48 
Q 17.144816 24.48 17.144816 22.29214 
L 17.144816 16.723043 
Q 17.144816 14.535184 14.956957 14.535184 
L 9.38786 14.535184 
Q 7.2 14.535184 7.2 16.723043 
L 7.2 22.29214 
Q 7.2 24.48 9.38786 24.48 
z
" clip-path="url(#p7f8114d0d1)" style="fill: #ffae04; opacity: 0.07"/>
   </g>
   <g id="patch_27">
    <path d="M 9.449927 24.48 
L 15.177012 24.48 
Q 17.426939 24.48 17.426939 22.230073 
L 17.426939 16.502988 
Q 17.426939 14.253061 15.177012 14.253061 
L 9.449927 14.253061 
Q 7.2 14.253061 7.2 16.502988 
L 7.2 22.230073 
Q 7.2 24.48 9.449927 24.48 
z
" clip-path="url(#p7f8114d0d1)" style="fill: #ffad04; opacity: 0.07"/>
   </g>
   <g id="patch_28">
    <path d="M 9.511993 24.48 
L 15.397068 24.48 
Q 17.709061 24.48 17.709061 22.168007 
L 17.709061 16.282932 
Q 17.709061 13.970939 15.397068 13.970939 
L 9.511993 13.970939 
Q 7.2 13.970939 7.2 16.282932 
L 7.2 22.168007 
Q 7.2 24.48 9.511993 24.48 
z
" clip-path="url(#p7f8114d0d1)" style="fill: #ffac03; opacity: 0.07"/>
   </g>
   <g id="patch_29">
    <path d="M 9.57406 24.48 
L 15.617123 24.48 
Q 17.991184 24.48 17.991184 22.10594 
L 17.991184 16.062877 
Q 17.991184 13.688816 15.617123 13.688816 
L 9.57406 13.688816 
Q 7.2 13.688816 7.2 16.062877 
L 7.2 22.10594 
Q 7.2 24.48 9.57406 24.48 
z
" clip-path="url(#p7f8114d0d1)" style="fill: #ffab03; opacity: 0.07"/>
   </g>
   <g id="patch_30">
    <path d="M 9.636127 24.48 
L 15.837179 24.48 
Q 18.273306 24.48 18.273306 22.043873 
L 18.273306 15.842821 
Q 18.273306 13.406694 15.837179 13.406694 
L 9.636127 13.406694 
Q 7.2 13.406694 7.2 15.842821 
L 7.2 22.043873 
Q 7.2 24.48 9.636127 24.48 
z
" clip-path="url(#p7f8114d0d1)" style="fill: #ffaa03; opacity: 0.07"/>
   </g>
   <g id="patch_31">
    <path d="M 9.698194 24.48 
L 16.057234 24.48 
Q 18.555429 24.48 18.555429 21.981806 
L 18.555429 15.622766 
Q 18.555429 13.124571 16.057234 13.124571 
L 9.698194 13.124571 
Q 7.2 13.124571 7.2 15.622766 
L 7.2 21.981806 
Q 7.2 24.48 9.698194 24.48 
z
" clip-path="url(#p7f8114d0d1)" style="fill: #ffa903; opacity: 0.07"/>
   </g>
   <g id="patch_32">
    <path d="M 9.760261 24.48 
L 16.27729 24.48 
Q 18.837551 24.48 18.837551 21.919739 
L 18.837551 15.40271 
Q 18.837551 12.842449 16.27729 12.842449 
L 9.760261 12.842449 
Q 7.2 12.842449 7.2 15.40271 
L 7.2 21.919739 
Q 7.2 24.48 9.760261 24.48 
z
" clip-path="url(#p7f8114d0d1)" style="fill: #ffa903; opacity: 0.07"/>
   </g>
   <g id="patch_33">
    <path d="M 9.822328 24.48 
L 16.497345 24.48 
Q 19.119673 24.48 19.119673 21.857672 
L 19.119673 15.182655 
Q 19.119673 12.560327 16.497345 12.560327 
L 9.822328 12.560327 
Q 7.2 12.560327 7.2 15.182655 
L 7.2 21.857672 
Q 7.2 24.48 9.822328 24.48 
z
" clip-path="url(#p7f8114d0d1)" style="fill: #ffa803; opacity: 0.07"/>
   </g>
   <g id="patch_34">
    <path d="M 9.884395 24.48 
L 16.717401 24.48 
Q 19.401796 24.48 19.401796 21.795605 
L 19.401796 14.962599 
Q 19.401796 12.278204 16.717401 12.278204 
L 9.884395 12.278204 
Q 7.2 12.278204 7.2 14.962599 
L 7.2 21.795605 
Q 7.2 24.48 9.884395 24.48 
z
" clip-path="url(#p7f8114d0d1)" style="fill: #ffa703; opacity: 0.07"/>
   </g>
   <g id="patch_35">
    <path d="M 9.946462 24.48 
L 16.937456 24.48 
Q 19.683918 24.48 19.683918 21.733538 
L 19.683918 14.742544 
Q 19.683918 11.996082 16.937456 11.996082 
L 9.946462 11.996082 
Q 7.2 11.996082 7.2 14.742544 
L 7.2 21.733538 
Q 7.2 24.48 9.946462 24.48 
z
" clip-path="url(#p7f8114d0d1)" style="fill: #ffa602; opacity: 0.07"/>
   </g>
   <g id="patch_36">
    <path d="M 10.008529 24.48 
L 17.157512 24.48 
Q 19.966041 24.48 19.966041 21.671471 
L 19.966041 14.522488 
Q 19.966041 11.713959 17.157512 11.713959 
L 10.008529 11.713959 
Q 7.2 11.713959 7.2 14.522488 
L 7.2 21.671471 
Q 7.2 24.48 10.008529 24.48 
z
" clip-path="url(#p7f8114d0d1)" style="fill: #ffa502; opacity: 0.07"/>
   </g>
   <g id="patch_37">
    <path d="M 10.070596 24.48 
L 17.377567 24.48 
Q 20.248163 24.48 20.248163 21.609404 
L 20.248163 14.302433 
Q 20.248163 11.431837 17.377567 11.431837 
L 10.070596 11.431837 
Q 7.2 11.431837 7.2 14.302433 
L 7.2 21.609404 
Q 7.2 24.48 10.070596 24.48 
z
" clip-path="url(#p7f8114d0d1)" style="fill: #ffa402; opacity: 0.07"/>
   </g>
   <g id="patch_38">
    <path d="M 10.132663 24.48 
L 17.597623 24.48 
Q 20.530286 24.48 20.530286 21.547337 
L 20.530286 14.082377 
Q 20.530286 11.149714 17.597623 11.149714 
L 10.132663 11.149714 
Q 7.2 11.149714 7.2 14.082377 
L 7.2 21.547337 
Q 7.2 24.48 10.132663 24.48 
z
" clip-path="url(#p7f8114d0d1)" style="fill: #ffa402; opacity: 0.07"/>
   </g>
   <g id="patch_39">
    <path d="M 10.19473 24.48 
L 17.817678 24.48 
Q 20.812408 24.48 20.812408 21.48527 
L 20.812408 13.862322 
Q 20.812408 10.867592 17.817678 10.867592 
L 10.19473 10.867592 
Q 7.2 10.867592 7.2 13.862322 
L 7.2 21.48527 
Q 7.2 24.48 10.19473 24.48 
z
" clip-path="url(#p7f8114d0d1)" style="fill: #ffa302; opacity: 0.07"/>
   </g>
   <g id="patch_40">
    <path d="M 10.256797 24.48 
L 18.037734 24.48 
Q 21.094531 24.48 21.094531 21.423203 
L 21.094531 13.642266 
Q 21.094531 10.585469 18.037734 10.585469 
L 10.256797 10.585469 
Q 7.2 10.585469 7.2 13.642266 
L 7.2 21.423203 
Q 7.2 24.48 10.256797 24.48 
z
" clip-path="url(#p7f8114d0d1)" style="fill: #ffa202; opacity: 0.07"/>
   </g>
   <g id="patch_41">
    <path d="M 10.318864 24.48 
L 18.257789 24.48 
Q 21.376653 24.48 21.376653 21.361136 
L 21.376653 13.422211 
Q 21.376653 10.303347 18.257789 10.303347 
L 10.318864 10.303347 
Q 7.2 10.303347 7.2 13.422211 
L 7.2 21.361136 
Q 7.2 24.48 10.318864 24.48 
z
" clip-path="url(#p7f8114d0d1)" style="fill: #ffa102; opacity: 0.07"/>
   </g>
   <g id="patch_42">
    <path d="M 10.380931 24.48 
L 18.477845 24.48 
Q 21.658776 24.48 21.658776 21.299069 
L 21.658776 13.202155 
Q 21.658776 10.021224 18.477845 10.021224 
L 10.380931 10.021224 
Q 7.2 10.021224 7.2 13.202155 
L 7.2 21.299069 
Q 7.2 24.48 10.380931 24.48 
z
" clip-path="url(#p7f8114d0d1)" style="fill: #ffa001; opacity: 0.07"/>
   </g>
   <g id="patch_43">
    <path d="M 10.442998 24.48 
L 18.6979 24.48 
Q 21.940898 24.48 21.940898 21.237002 
L 21.940898 12.9821 
Q 21.940898 9.739102 18.6979 9.739102 
L 10.442998 9.739102 
Q 7.2 9.739102 7.2 12.9821 
L 7.2 21.237002 
Q 7.2 24.48 10.442998 24.48 
z
" clip-path="url(#p7f8114d0d1)" style="fill: #ff9f01; opacity: 0.07"/>
   </g>
   <g id="patch_44">
    <path d="M 10.505064 24.48 
L 18.917956 24.48 
Q 22.22302 24.48 22.22302 21.174936 
L 22.22302 12.762044 
Q 22.22302 9.45698 18.917956 9.45698 
L 10.505064 9.45698 
Q 7.2 9.45698 7.2 12.762044 
L 7.2 21.174936 
Q 7.2 24.48 10.505064 24.48 
z
" clip-path="url(#p7f8114d0d1)" style="fill: #ff9f01; opacity: 0.07"/>
   </g>
   <g id="patch_45">
    <path d="M 10.567131 24.48 
L 19.138011 24.48 
Q 22.505143 24.48 22.505143 21.112869 
L 22.505143 12.541989 
Q 22.505143 9.174857 19.138011 9.174857 
L 10.567131 9.174857 
Q 7.2 9.174857 7.2 12.541989 
L 7.2 21.112869 
Q 7.2 24.48 10.567131 24.48 
z
" clip-path="url(#p7f8114d0d1)" style="fill: #ff9e01; opacity: 0.07"/>
   </g>
   <g id="patch_46">
    <path d="M 10.629198 24.48 
L 19.358067 24.48 
Q 22.787265 24.48 22.787265 21.050802 
L 22.787265 12.321933 
Q 22.787265 8.892735 19.358067 8.892735 
L 10.629198 8.892735 
Q 7.2 8.892735 7.2 12.321933 
L 7.2 21.050802 
Q 7.2 24.48 10.629198 24.48 
z
" clip-path="url(#p7f8114d0d1)" style="fill: #ff9d01; opacity: 0.07"/>
   </g>
   <g id="patch_47">
    <path d="M 10.691265 24.48 
L 19.578122 24.48 
Q 23.069388 24.48 23.069388 20.988735 
L 23.069388 12.101878 
Q 23.069388 8.610612 19.578122 8.610612 
L 10.691265 8.610612 
Q 7.2 8.610612 7.2 12.101878 
L 7.2 20.988735 
Q 7.2 24.48 10.691265 24.48 
z
" clip-path="url(#p7f8114d0d1)" style="fill: #ff9c01; opacity: 0.07"/>
   </g>
   <g id="patch_48">
    <path d="M 10.753332 24.48 
L 19.798178 24.48 
Q 23.35151 24.48 23.35151 20.926668 
L 23.35151 11.881822 
Q 23.35151 8.32849 19.798178 8.32849 
L 10.753332 8.32849 
Q 7.2 8.32849 7.2 11.881822 
L 7.2 20.926668 
Q 7.2 24.48 10.753332 24.48 
z
" clip-path="url(#p7f8114d0d1)" style="fill: #ff9b01; opacity: 0.07"/>
   </g>
   <g id="patch_49">
    <path d="M 10.815399 24.48 
L 20.018233 24.48 
Q 23.633633 24.48 23.633633 20.864601 
L 23.633633 11.661767 
Q 23.633633 8.046367 20.018233 8.046367 
L 10.815399 8.046367 
Q 7.2 8.046367 7.2 11.661767 
L 7.2 20.864601 
Q 7.2 24.48 10.815399 24.48 
z
" clip-path="url(#p7f8114d0d1)" style="fill: #ff9a00; opacity: 0.07"/>
   </g>
   <g id="patch_50">
    <path d="M 10.877466 24.48 
L 20.238289 24.48 
Q 23.915755 24.48 23.915755 20.802534 
L 23.915755 11.441711 
Q 23.915755 7.764245 20.238289 7.764245 
L 10.877466 7.764245 
Q 7.2 7.764245 7.2 11.441711 
L 7.2 20.802534 
Q 7.2 24.48 10.877466 24.48 
z
" clip-path="url(#p7f8114d0d1)" style="fill: #ff9a00; opacity: 0.07"/>
   </g>
   <g id="patch_51">
    <path d="M 10.939533 24.48 
L 20.458344 24.48 
Q 24.197878 24.48 24.197878 20.740467 
L 24.197878 11.221656 
Q 24.197878 7.482122 20.458344 7.482122 
L 10.939533 7.482122 
Q 7.2 7.482122 7.2 11.221656 
L 7.2 20.740467 
Q 7.2 24.48 10.939533 24.48 
z
" clip-path="url(#p7f8114d0d1)" style="fill: #ff9900; opacity: 0.07"/>
   </g>
   <g id="patch_52">
    <path d="M 11.0016 24.48 
L 20.6784 24.48 
Q 24.48 24.48 24.48 20.6784 
L 24.48 11.0016 
Q 24.48 7.2 20.6784 7.2 
L 11.0016 7.2 
Q 7.2 7.2 7.2 11.0016 
L 7.2 20.6784 
Q 7.2 24.48 11.0016 24.48 
z
" clip-path="url(#p7f8114d0d1)" style="fill: #ff9800; opacity: 0.07"/>
   </g>
  </g>
 </g>
 <defs>
  <clipPath id="p7f8114d0d1">
   <rect x="7.2" y="7.2" width="17.28" height="17.28"/>
  </clipPath>
 </defs>
</svg>
