<?xml version="1.0" encoding="utf-8" standalone="no"?>
<!DOCTYPE svg PUBLIC "-//W3C//DTD SVG 1.1//EN"
  "http://www.w3.org/Graphics/SVG/1.1/DTD/svg11.dtd">
<svg xmlns:xlink="http://www.w3.org/1999/xlink" width="137.28pt" height="137.28pt" viewBox="0 0 137.28 137.28" xmlns="http://www.w3.org/2000/svg" version="1.1">
 <metadata>
  <rdf:RDF xmlns:dc="http://purl.org/dc/elements/1.1/" xmlns:cc="http://creativecommons.org/ns#" xmlns:rdf="http://www.w3.org/1999/02/22-rdf-syntax-ns#">
   <cc:Work>
    <dc:type rdf:resource="http://purl.org/dc/dcmitype/StillImage"/>
    <dc:date>2025-10-07T21:53:29.023271</dc:date>
    <dc:format>image/svg+xml</dc:format>
    <dc:creator>
     <cc:Agent>
      <dc:title>Matplotlib v3.6.3, https://matplotlib.org/</dc:title>
     </cc:Agent>
    </dc:creator>
   </cc:Work>
  </rdf:RDF>
 </metadata>
 <defs>
  <style type="text/css">*{stroke-linejoin: round; stroke-linecap: butt}</style>
 </defs>
 <g id="figure_1">
  <g id="patch_1">
   <path d="M 0 137.28 
L 137.28 137.28 
L 137.28 0 
L 0 0 
z
" style="fill: #ffffff"/>
  </g>
  <g id="axes_1">
   <g id="patch_2">
    <path d="M 34.2336 130.08 
L 103.0464 130.08 
Q 130.08 130.08 130.08 103.0464 
L 130.08 34.2336 
Q 130.08 7.2 103.0464 7.2 
L 34.2336 7.2 
Q 7.2 7.2 7.2 34.2336 
L 7.2 103.0464 
Q 7.2 130.08 34.2336 130.08 
z
" clip-path="url(#p02be6287f7)" style="fill: #ffc107"/>
   </g>
   <g id="patch_3">
    <path d="M 12.60672 130.08 
L 26.36928 130.08 
Q 31.776 130.08 31.776 124.67328 
L 31.776 110.91072 
Q 31.776 105.504 26.36928 105.504 
L 12.60672 105.504 
Q 7.2 105.504 7.2 110.91072 
L 7.2 124.67328 
Q 7.2 130.08 12.60672 130.08 
z
" clip-path="url(#p02be6287f7)" style="fill: #ffc107; opacity: 0.07"/>
   </g>
   <g id="patch_4">
    <path d="M 13.048085 130.08 
L 27.934119 130.08 
Q 33.782204 130.08 33.782204 124.231915 
L 33.782204 109.345881 
Q 33.782204 103.497796 27.934119 103.497796 
L 13.048085 103.497796 
Q 7.2 103.497796 7.2 109.345881 
L 7.2 124.231915 
Q 7.2 130.08 13.048085 130.08 
z
" clip-path="url(#p02be6287f7)" style="fill: #ffc007; opacity: 0.07"/>
   </g>
   <g id="patch_5">
    <path d="M 13.48945 130.08 
L 29.498958 130.08 
Q 35.788408 130.08 35.788408 123.79055 
L 35.788408 107.781042 
Q 35.788408 101.491592 29.498958 101.491592 
L 13.48945 101.491592 
Q 7.2 101.491592 7.2 107.781042 
L 7.2 123.79055 
Q 7.2 130.08 13.48945 130.08 
z
" clip-path="url(#p02be6287f7)" style="fill: #ffbf07; opacity: 0.07"/>
   </g>
   <g id="patch_6">
    <path d="M 13.930815 130.08 
L 31.063798 130.08 
Q 37.794612 130.08 37.794612 123.349185 
L 37.794612 106.216202 
Q 37.794612 99.485388 31.063798 99.485388 
L 13.930815 99.485388 
Q 7.2 99.485388 7.2 106.216202 
L 7.2 123.349185 
Q 7.2 130.08 13.930815 130.08 
z
" clip-path="url(#p02be6287f7)" style="fill: #ffbe06; opacity: 0.07"/>
   </g>
   <g id="patch_7">
    <path d="M 14.37218 130.08 
L 32.628637 130.08 
Q 39.800816 130.08 39.800816 122.90782 
L 39.800816 104.651363 
Q 39.800816 97.479184 32.628637 97.479184 
L 14.37218 97.479184 
Q 7.2 97.479184 7.2 104.651363 
L 7.2 122.90782 
Q 7.2 130.08 14.37218 130.08 
z
" clip-path="url(#p02be6287f7)" style="fill: #ffbd06; opacity: 0.07"/>
   </g>
   <g id="patch_8">
    <path d="M 14.813544 130.08 
L 34.193476 130.08 
Q 41.80702 130.08 41.80702 122.466456 
L 41.80702 103.086524 
Q 41.80702 95.47298 34.193476 95.47298 
L 14.813544 95.47298 
Q 7.2 95.47298 7.2 103.086524 
L 7.2 122.466456 
Q 7.2 130.08 14.813544 130.08 
z
" clip-path="url(#p02be6287f7)" style="fill: #ffbd06; opacity: 0.07"/>
   </g>
   <g id="patch_9">
    <path d="M 15.254909 130.08 
L 35.758315 130.08 
Q 43.813224 130.08 43.813224 122.025091 
L 43.813224 101.521685 
Q 43.813224 93.466776 35.758315 93.466776 
L 15.254909 93.466776 
Q 7.2 93.466776 7.2 101.521685 
L 7.2 122.025091 
Q 7.2 130.08 15.254909 130.08 
z
" clip-path="url(#p02be6287f7)" style="fill: #ffbc06; opacity: 0.07"/>
   </g>
   <g id="patch_10">
    <path d="M 15.696274 130.08 
L 37.323154 130.08 
Q 45.819429 130.08 45.819429 121.583726 
L 45.819429 99.956846 
Q 45.819429 91.460571 37.323154 91.460571 
L 15.696274 91.460571 
Q 7.2 91.460571 7.2 99.956846 
L 7.2 121.583726 
Q 7.2 130.08 15.696274 130.08 
z
" clip-path="url(#p02be6287f7)" style="fill: #ffbb06; opacity: 0.07"/>
   </g>
   <g id="patch_11">
    <path d="M 16.137639 130.08 
L 38.887993 130.08 
Q 47.825633 130.08 47.825633 121.142361 
L 47.825633 98.392007 
Q 47.825633 89.454367 38.887993 89.454367 
L 16.137639 89.454367 
Q 7.2 89.454367 7.2 98.392007 
L 7.2 121.142361 
Q 7.2 130.08 16.137639 130.08 
z
" clip-path="url(#p02be6287f7)" style="fill: #ffba06; opacity: 0.07"/>
   </g>
   <g id="patch_12">
    <path d="M 16.579004 130.08 
L 40.452833 130.08 
Q 49.831837 130.08 49.831837 120.700996 
L 49.831837 96.827167 
Q 49.831837 87.448163 40.452833 87.448163 
L 16.579004 87.448163 
Q 7.2 87.448163 7.2 96.827167 
L 7.2 120.700996 
Q 7.2 130.08 16.579004 130.08 
z
" clip-path="url(#p02be6287f7)" style="fill: #ffb906; opacity: 0.07"/>
   </g>
   <g id="patch_13">
    <path d="M 17.020369 130.08 
L 42.017672 130.08 
Q 51.838041 130.08 51.838041 120.259631 
L 51.838041 95.262328 
Q 51.838041 85.441959 42.017672 85.441959 
L 17.020369 85.441959 
Q 7.2 85.441959 7.2 95.262328 
L 7.2 120.259631 
Q 7.2 130.08 17.020369 130.08 
z
" clip-path="url(#p02be6287f7)" style="fill: #ffb805; opacity: 0.07"/>
   </g>
   <g id="patch_14">
    <path d="M 17.461734 130.08 
L 43.582511 130.08 
Q 53.844245 130.08 53.844245 119.818266 
L 53.844245 93.697489 
Q 53.844245 83.435755 43.582511 83.435755 
L 17.461734 83.435755 
Q 7.2 83.435755 7.2 93.697489 
L 7.2 119.818266 
Q 7.2 130.08 17.461734 130.08 
z
" clip-path="url(#p02be6287f7)" style="fill: #ffb805; opacity: 0.07"/>
   </g>
   <g id="patch_15">
    <path d="M 17.903099 130.08 
L 45.14735 130.08 
Q 55.850449 130.08 55.850449 119.376901 
L 55.850449 92.13265 
Q 55.850449 81.429551 45.14735 81.429551 
L 17.903099 81.429551 
Q 7.2 81.429551 7.2 92.13265 
L 7.2 119.376901 
Q 7.2 130.08 17.903099 130.08 
z
" clip-path="url(#p02be6287f7)" style="fill: #ffb705; opacity: 0.07"/>
   </g>
   <g id="patch_16">
    <path d="M 18.344464 130.08 
L 46.712189 130.08 
Q 57.856653 130.08 57.856653 118.935536 
L 57.856653 90.567811 
Q 57.856653 79.423347 46.712189 79.423347 
L 18.344464 79.423347 
Q 7.2 79.423347 7.2 90.567811 
L 7.2 118.935536 
Q 7.2 130.08 18.344464 130.08 
z
" clip-path="url(#p02be6287f7)" style="fill: #ffb605; opacity: 0.07"/>
   </g>
   <g id="patch_17">
    <path d="M 18.785829 130.08 
L 48.277029 130.08 
Q 59.862857 130.08 59.862857 118.494171 
L 59.862857 89.002971 
Q 59.862857 77.417143 48.277029 77.417143 
L 18.785829 77.417143 
Q 7.2 77.417143 7.2 89.002971 
L 7.2 118.494171 
Q 7.2 130.08 18.785829 130.08 
z
" clip-path="url(#p02be6287f7)" style="fill: #ffb505; opacity: 0.07"/>
   </g>
   <g id="patch_18">
    <path d="M 19.227193 130.08 
L 49.841868 130.08 
Q 61.869061 130.08 61.869061 118.052807 
L 61.869061 87.438132 
Q 61.869061 75.410939 49.841868 75.410939 
L 19.227193 75.410939 
Q 7.2 75.410939 7.2 87.438132 
L 7.2 118.052807 
Q 7.2 130.08 19.227193 130.08 
z
" clip-path="url(#p02be6287f7)" style="fill: #ffb405; opacity: 0.07"/>
   </g>
   <g id="patch_19">
    <path d="M 19.668558 130.08 
L 51.406707 130.08 
Q 63.875265 130.08 63.875265 117.611442 
L 63.875265 85.873293 
Q 63.875265 73.404735 51.406707 73.404735 
L 19.668558 73.404735 
Q 7.2 73.404735 7.2 85.873293 
L 7.2 117.611442 
Q 7.2 130.08 19.668558 130.08 
z
" clip-path="url(#p02be6287f7)" style="fill: #ffb305; opacity: 0.07"/>
   </g>
   <g id="patch_20">
    <path d="M 20.109923 130.08 
L 52.971546 130.08 
Q 65.881469 130.08 65.881469 117.170077 
L 65.881469 84.308454 
Q 65.881469 71.398531 52.971546 71.398531 
L 20.109923 71.398531 
Q 7.2 71.398531 7.2 84.308454 
L 7.2 117.170077 
Q 7.2 130.08 20.109923 130.08 
z
" clip-path="url(#p02be6287f7)" style="fill: #ffb304; opacity: 0.07"/>
   </g>
   <g id="patch_21">
    <path d="M 20.551288 130.08 
L 54.536385 130.08 
Q 67.887673 130.08 67.887673 116.728712 
L 67.887673 82.743615 
Q 67.887673 69.392327 54.536385 69.392327 
L 20.551288 69.392327 
Q 7.2 69.392327 7.2 82.743615 
L 7.2 116.728712 
Q 7.2 130.08 20.551288 130.08 
z
" clip-path="url(#p02be6287f7)" style="fill: #ffb204; opacity: 0.07"/>
   </g>
   <g id="patch_22">
    <path d="M 20.992653 130.08 
L 56.101224 130.08 
Q 69.893878 130.08 69.893878 116.287347 
L 69.893878 81.178776 
Q 69.893878 67.386122 56.101224 67.386122 
L 20.992653 67.386122 
Q 7.2 67.386122 7.2 81.178776 
L 7.2 116.287347 
Q 7.2 130.08 20.992653 130.08 
z
" clip-path="url(#p02be6287f7)" style="fill: #ffb104; opacity: 0.07"/>
   </g>
   <g id="patch_23">
    <path d="M 21.434018 130.08 
L 57.666064 130.08 
Q 71.900082 130.08 71.900082 115.845982 
L 71.900082 79.613936 
Q 71.900082 65.379918 57.666064 65.379918 
L 21.434018 65.379918 
Q 7.2 65.379918 7.2 79.613936 
L 7.2 115.845982 
Q 7.2 130.08 21.434018 130.08 
z
" clip-path="url(#p02be6287f7)" style="fill: #ffb004; opacity: 0.07"/>
   </g>
   <g id="patch_24">
    <path d="M 21.875383 130.08 
L 59.230903 130.08 
Q 73.906286 130.08 73.906286 115.404617 
L 73.906286 78.049097 
Q 73.906286 63.373714 59.230903 63.373714 
L 21.875383 63.373714 
Q 7.2 63.373714 7.2 78.049097 
L 7.2 115.404617 
Q 7.2 130.08 21.875383 130.08 
z
" clip-path="url(#p02be6287f7)" style="fill: #ffaf04; opacity: 0.07"/>
   </g>
   <g id="patch_25">
    <path d="M 22.316748 130.08 
L 60.795742 130.08 
Q 75.91249 130.08 75.91249 114.963252 
L 75.91249 76.484258 
Q 75.91249 61.36751 60.795742 61.36751 
L 22.316748 61.36751 
Q 7.2 61.36751 7.2 76.484258 
L 7.2 114.963252 
Q 7.2 130.08 22.316748 130.08 
z
" clip-path="url(#p02be6287f7)" style="fill: #ffae04; opacity: 0.07"/>
   </g>
   <g id="patch_26">
    <path d="M 22.758113 130.08 
L 62.360581 130.08 
Q 77.918694 130.08 77.918694 114.521887 
L 77.918694 74.919419 
Q 77.918694 59.361306 62.360581 59.361306 
L 22.758113 59.361306 
Q 7.2 59.361306 7.2 74.919419 
L 7.2 114.521887 
Q 7.2 130.08 22.758113 130.08 
z
" clip-path="url(#p02be6287f7)" style="fill: #ffae04; opacity: 0.07"/>
   </g>
   <g id="patch_27">
    <path d="M 23.199478 130.08 
L 63.92542 130.08 
Q 79.924898 130.08 79.924898 114.080522 
L 79.924898 73.35458 
Q 79.924898 57.355102 63.92542 57.355102 
L 23.199478 57.355102 
Q 7.2 57.355102 7.2 73.35458 
L 7.2 114.080522 
Q 7.2 130.08 23.199478 130.08 
z
" clip-path="url(#p02be6287f7)" style="fill: #ffad04; opacity: 0.07"/>
   </g>
   <g id="patch_28">
    <path d="M 23.640842 130.08 
L 65.49026 130.08 
Q 81.931102 130.08 81.931102 113.639158 
L 81.931102 71.78974 
Q 81.931102 55.348898 65.49026 55.348898 
L 23.640842 55.348898 
Q 7.2 55.348898 7.2 71.78974 
L 7.2 113.639158 
Q 7.2 130.08 23.640842 130.08 
z
" clip-path="url(#p02be6287f7)" style="fill: #ffac03; opacity: 0.07"/>
   </g>
   <g id="patch_29">
    <path d="M 24.082207 130.08 
L 67.055099 130.08 
Q 83.937306 130.08 83.937306 113.197793 
L 83.937306 70.224901 
Q 83.937306 53.342694 67.055099 53.342694 
L 24.082207 53.342694 
Q 7.2 53.342694 7.2 70.224901 
L 7.2 113.197793 
Q 7.2 130.08 24.082207 130.08 
z
" clip-path="url(#p02be6287f7)" style="fill: #ffab03; opacity: 0.07"/>
   </g>
   <g id="patch_30">
    <path d="M 24.523572 130.08 
L 68.619938 130.08 
Q 85.94351 130.08 85.94351 112.756428 
L 85.94351 68.660062 
Q 85.94351 51.33649 68.619938 51.33649 
L 24.523572 51.33649 
Q 7.2 51.33649 7.2 68.660062 
L 7.2 112.756428 
Q 7.2 130.08 24.523572 130.08 
z
" clip-path="url(#p02be6287f7)" style="fill: #ffaa03; opacity: 0.07"/>
   </g>
   <g id="patch_31">
    <path d="M 24.964937 130.08 
L 70.184777 130.08 
Q 87.949714 130.08 87.949714 112.315063 
L 87.949714 67.095223 
Q 87.949714 49.330286 70.184777 49.330286 
L 24.964937 49.330286 
Q 7.2 49.330286 7.2 67.095223 
L 7.2 112.315063 
Q 7.2 130.08 24.964937 130.08 
z
" clip-path="url(#p02be6287f7)" style="fill: #ffa903; opacity: 0.07"/>
   </g>
   <g id="patch_32">
    <path d="M 25.406302 130.08 
L 71.749616 130.08 
Q 89.955918 130.08 89.955918 111.873698 
L 89.955918 65.530384 
Q 89.955918 47.324082 71.749616 47.324082 
L 25.406302 47.324082 
Q 7.2 47.324082 7.2 65.530384 
L 7.2 111.873698 
Q 7.2 130.08 25.406302 130.08 
z
" clip-path="url(#p02be6287f7)" style="fill: #ffa903; opacity: 0.07"/>
   </g>
   <g id="patch_33">
    <path d="M 25.847667 130.08 
L 73.314456 130.08 
Q 91.962122 130.08 91.962122 111.432333 
L 91.962122 63.965544 
Q 91.962122 45.317878 73.314456 45.317878 
L 25.847667 45.317878 
Q 7.2 45.317878 7.2 63.965544 
L 7.2 111.432333 
Q 7.2 130.08 25.847667 130.08 
z
" clip-path="url(#p02be6287f7)" style="fill: #ffa803; opacity: 0.07"/>
   </g>
   <g id="patch_34">
    <path d="M 26.289032 130.08 
L 74.879295 130.08 
Q 93.968327 130.08 93.968327 110.990968 
L 93.968327 62.400705 
Q 93.968327 43.311673 74.879295 43.311673 
L 26.289032 43.311673 
Q 7.2 43.311673 7.2 62.400705 
L 7.2 110.990968 
Q 7.2 130.08 26.289032 130.08 
z
" clip-path="url(#p02be6287f7)" style="fill: #ffa703; opacity: 0.07"/>
   </g>
   <g id="patch_35">
    <path d="M 26.730397 130.08 
L 76.444134 130.08 
Q 95.974531 130.08 95.974531 110.549603 
L 95.974531 60.835866 
Q 95.974531 41.305469 76.444134 41.305469 
L 26.730397 41.305469 
Q 7.2 41.305469 7.2 60.835866 
L 7.2 110.549603 
Q 7.2 130.08 26.730397 130.08 
z
" clip-path="url(#p02be6287f7)" style="fill: #ffa602; opacity: 0.07"/>
   </g>
   <g id="patch_36">
    <path d="M 27.171762 130.08 
L 78.008973 130.08 
Q 97.980735 130.08 97.980735 110.108238 
L 97.980735 59.271027 
Q 97.980735 39.299265 78.008973 39.299265 
L 27.171762 39.299265 
Q 7.2 39.299265 7.2 59.271027 
L 7.2 110.108238 
Q 7.2 130.08 27.171762 130.08 
z
" clip-path="url(#p02be6287f7)" style="fill: #ffa502; opacity: 0.07"/>
   </g>
   <g id="patch_37">
    <path d="M 27.613127 130.08 
L 79.573812 130.08 
Q 99.986939 130.08 99.986939 109.666873 
L 99.986939 57.706188 
Q 99.986939 37.293061 79.573812 37.293061 
L 27.613127 37.293061 
Q 7.2 37.293061 7.2 57.706188 
L 7.2 109.666873 
Q 7.2 130.08 27.613127 130.08 
z
" clip-path="url(#p02be6287f7)" style="fill: #ffa402; opacity: 0.07"/>
   </g>
   <g id="patch_38">
    <path d="M 28.054491 130.08 
L 81.138651 130.08 
Q 101.993143 130.08 101.993143 109.225509 
L 101.993143 56.141349 
Q 101.993143 35.286857 81.138651 35.286857 
L 28.054491 35.286857 
Q 7.2 35.286857 7.2 56.141349 
L 7.2 109.225509 
Q 7.2 130.08 28.054491 130.08 
z
" clip-path="url(#p02be6287f7)" style="fill: #ffa402; opacity: 0.07"/>
   </g>
   <g id="patch_39">
    <path d="M 28.495856 130.08 
L 82.703491 130.08 
Q 103.999347 130.08 103.999347 108.784144 
L 103.999347 54.576509 
Q 103.999347 33.280653 82.703491 33.280653 
L 28.495856 33.280653 
Q 7.2 33.280653 7.2 54.576509 
L 7.2 108.784144 
Q 7.2 130.08 28.495856 130.08 
z
" clip-path="url(#p02be6287f7)" style="fill: #ffa302; opacity: 0.07"/>
   </g>
   <g id="patch_40">
    <path d="M 28.937221 130.08 
L 84.26833 130.08 
Q 106.005551 130.08 106.005551 108.342779 
L 106.005551 53.01167 
Q 106.005551 31.274449 84.26833 31.274449 
L 28.937221 31.274449 
Q 7.2 31.274449 7.2 53.01167 
L 7.2 108.342779 
Q 7.2 130.08 28.937221 130.08 
z
" clip-path="url(#p02be6287f7)" style="fill: #ffa202; opacity: 0.07"/>
   </g>
   <g id="patch_41">
    <path d="M 29.378586 130.08 
L 85.833169 130.08 
Q 108.011755 130.08 108.011755 107.901414 
L 108.011755 51.446831 
Q 108.011755 29.268245 85.833169 29.268245 
L 29.378586 29.268245 
Q 7.2 29.268245 7.2 51.446831 
L 7.2 107.901414 
Q 7.2 130.08 29.378586 130.08 
z
" clip-path="url(#p02be6287f7)" style="fill: #ffa102; opacity: 0.07"/>
   </g>
   <g id="patch_42">
    <path d="M 29.819951 130.08 
L 87.398008 130.08 
Q 110.017959 130.08 110.017959 107.460049 
L 110.017959 49.881992 
Q 110.017959 27.262041 87.398008 27.262041 
L 29.819951 27.262041 
Q 7.2 27.262041 7.2 49.881992 
L 7.2 107.460049 
Q 7.2 130.08 29.819951 130.08 
z
" clip-path="url(#p02be6287f7)" style="fill: #ffa001; opacity: 0.07"/>
   </g>
   <g id="patch_43">
    <path d="M 30.261316 130.08 
L 88.962847 130.08 
Q 112.024163 130.08 112.024163 107.018684 
L 112.024163 48.317153 
Q 112.024163 25.255837 88.962847 25.255837 
L 30.261316 25.255837 
Q 7.2 25.255837 7.2 48.317153 
L 7.2 107.018684 
Q 7.2 130.08 30.261316 130.08 
z
" clip-path="url(#p02be6287f7)" style="fill: #ff9f01; opacity: 0.07"/>
   </g>
   <g id="patch_44">
    <path d="M 30.702681 130.08 
L 90.527687 130.08 
Q 114.030367 130.08 114.030367 106.577319 
L 114.030367 46.752313 
Q 114.030367 23.249633 90.527687 23.249633 
L 30.702681 23.249633 
Q 7.2 23.249633 7.2 46.752313 
L 7.2 106.577319 
Q 7.2 130.08 30.702681 130.08 
z
" clip-path="url(#p02be6287f7)" style="fill: #ff9f01; opacity: 0.07"/>
   </g>
   <g id="patch_45">
    <path d="M 31.144046 130.08 
L 92.092526 130.08 
Q 116.036571 130.08 116.036571 106.135954 
L 116.036571 45.187474 
Q 116.036571 21.243429 92.092526 21.243429 
L 31.144046 21.243429 
Q 7.2 21.243429 7.2 45.187474 
L 7.2 106.135954 
Q 7.2 130.08 31.144046 130.08 
z
" clip-path="url(#p02be6287f7)" style="fill: #ff9e01; opacity: 0.07"/>
   </g>
   <g id="patch_46">
    <path d="M 31.585411 130.08 
L 93.657365 130.08 
Q 118.042776 130.08 118.042776 105.694589 
L 118.042776 43.622635 
Q 118.042776 19.237224 93.657365 19.237224 
L 31.585411 19.237224 
Q 7.2 19.237224 7.2 43.622635 
L 7.2 105.694589 
Q 7.2 130.08 31.585411 130.08 
z
" clip-path="url(#p02be6287f7)" style="fill: #ff9d01; opacity: 0.07"/>
   </g>
   <g id="patch_47">
    <path d="M 32.026776 130.08 
L 95.222204 130.08 
Q 120.04898 130.08 120.04898 105.253224 
L 120.04898 42.057796 
Q 120.04898 17.23102 95.222204 17.23102 
L 32.026776 17.23102 
Q 7.2 17.23102 7.2 42.057796 
L 7.2 105.253224 
Q 7.2 130.08 32.026776 130.08 
z
" clip-path="url(#p02be6287f7)" style="fill: #ff9c01; opacity: 0.07"/>
   </g>
   <g id="patch_48">
    <path d="M 32.46814 130.08 
L 96.787043 130.08 
Q 122.055184 130.08 122.055184 104.81186 
L 122.055184 40.492957 
Q 122.055184 15.224816 96.787043 15.224816 
L 32.46814 15.224816 
Q 7.2 15.224816 7.2 40.492957 
L 7.2 104.81186 
Q 7.2 130.08 32.46814 130.08 
z
" clip-path="url(#p02be6287f7)" style="fill: #ff9b01; opacity: 0.07"/>
   </g>
   <g id="patch_49">
    <path d="M 32.909505 130.08 
L 98.351882 130.08 
Q 124.061388 130.08 124.061388 104.370495 
L 124.061388 38.928118 
Q 124.061388 13.218612 98.351882 13.218612 
L 32.909505 13.218612 
Q 7.2 13.218612 7.2 38.928118 
L 7.2 104.370495 
Q 7.2 130.08 32.909505 130.08 
z
" clip-path="url(#p02be6287f7)" style="fill: #ff9a00; opacity: 0.07"/>
   </g>
   <g id="patch_50">
    <path d="M 33.35087 130.08 
L 99.916722 130.08 
Q 126.067592 130.08 126.067592 103.92913 
L 126.067592 37.363278 
Q 126.067592 11.212408 99.916722 11.212408 
L 33.35087 11.212408 
Q 7.2 11.212408 7.2 37.363278 
L 7.2 103.92913 
Q 7.2 130.08 33.35087 130.08 
z
" clip-path="url(#p02be6287f7)" style="fill: #ff9a00; opacity: 0.07"/>
   </g>
   <g id="patch_51">
    <path d="M 33.792235 130.08 
L 101.481561 130.08 
Q 128.073796 130.08 128.073796 103.487765 
L 128.073796 35.798439 
Q 128.073796 9.206204 101.481561 9.206204 
L 33.792235 9.206204 
Q 7.2 9.206204 7.2 35.798439 
L 7.2 103.487765 
Q 7.2 130.08 33.792235 130.08 
z
" clip-path="url(#p02be6287f7)" style="fill: #ff9900; opacity: 0.07"/>
   </g>
   <g id="patch_52">
    <path d="M 34.2336 130.08 
L 103.0464 130.08 
Q 130.08 130.08 130.08 103.0464 
L 130.08 34.2336 
Q 130.08 7.2 103.0464 7.2 
L 34.2336 7.2 
Q 7.2 7.2 7.2 34.2336 
L 7.2 103.0464 
Q 7.2 130.08 34.2336 130.08 
z
" clip-path="url(#p02be6287f7)" style="fill: #ff9800; opacity: 0.07"/>
   </g>
   <g id="patch_53">
    <path d="M 94.297344 44.997888 
L 93.98146 49.011581 
L 93.041584 52.926443 
L 91.500861 56.646078 
L 89.397227 60.078896 
L 86.782482 63.14037 
L 83.721008 65.755115 
L 80.28819 67.858749 
L 76.568555 69.399472 
L 72.653693 70.339348 
L 68.64 70.655232 
L 64.626307 70.339348 
L 60.711445 69.399472 
L 56.99181 67.858749 
L 53.558992 65.755115 
L 50.497518 63.14037 
L 47.882773 60.078896 
L 45.779139 56.646078 
L 44.238416 52.926443 
L 43.29854 49.011581 
L 42.982656 44.997888 
L 94.297344 70.655232 
L 68.64 90.610944 
L 42.982656 70.655232 
L 42.982656 44.997888 
L 94.297344 44.997888 
" clip-path="url(#p02be6287f7)" style="fill: #ffffff"/>
   </g>
   <g id="patch_54">
    <path d="M 55.811328 64.9536 
C 58.079464 64.9536 60.255008 64.05246 61.858822 62.448646 
C 63.462636 60.844832 64.363776 58.669288 64.363776 56.401152 
C 64.363776 54.133016 63.462636 51.957472 61.858822 50.353658 
C 60.255008 48.749844 58.079464 47.848704 55.811328 47.848704 
C 53.543192 47.848704 51.367648 48.749844 49.763834 50.353658 
C 48.16002 51.957472 47.25888 54.133016 47.25888 56.401152 
C 47.25888 58.669288 48.16002 60.844832 49.763834 62.448646 
C 51.367648 64.05246 53.543192 64.9536 55.811328 64.9536 
z
" clip-path="url(#p02be6287f7)" style="fill: #ffffff"/>
   </g>
   <g id="patch_55">
    <path d="M 81.468672 64.9536 
C 83.736808 64.9536 85.912352 64.05246 87.516166 62.448646 
C 89.11998 60.844832 90.02112 58.669288 90.02112 56.401152 
C 90.02112 54.133016 89.11998 51.957472 87.516166 50.353658 
C 85.912352 48.749844 83.736808 47.848704 81.468672 47.848704 
C 79.200536 47.848704 77.024992 48.749844 75.421178 50.353658 
C 73.817364 51.957472 72.916224 54.133016 72.916224 56.401152 
C 72.916224 58.669288 73.817364 60.844832 75.421178 62.448646 
C 77.024992 64.05246 79.200536 64.9536 81.468672 64.9536 
z
" clip-path="url(#p02be6287f7)" style="fill: #ffffff"/>
   </g>
  </g>
 </g>
 <defs>
  <clipPath id="p02be6287f7">
   <rect x="7.2" y="7.2" width="122.88" height="122.88"/>
  </clipPath>
 </defs>
</svg>
