<?xml version="1.0" encoding="utf-8" standalone="no"?>
<!DOCTYPE svg PUBLIC "-//W3C//DTD SVG 1.1//EN"
  "http://www.w3.org/Graphics/SVG/1.1/DTD/svg11.dtd">
<svg xmlns:xlink="http://www.w3.org/1999/xlink" width="25.92pt" height="25.92pt" viewBox="0 0 25.92 25.92" xmlns="http://www.w3.org/2000/svg" version="1.1">
 <metadata>
  <rdf:RDF xmlns:dc="http://purl.org/dc/elements/1.1/" xmlns:cc="http://creativecommons.org/ns#" xmlns:rdf="http://www.w3.org/1999/02/22-rdf-syntax-ns#">
   <cc:Work>
    <dc:type rdf:resource="http://purl.org/dc/dcmitype/StillImage"/>
    <dc:date>2025-10-07T21:53:29.419725</dc:date>
    <dc:format>image/svg+xml</dc:format>
    <dc:creator>
     <cc:Agent>
      <dc:title>Matplotlib v3.6.3, https://matplotlib.org/</dc:title>
     </cc:Agent>
    </dc:creator>
   </cc:Work>
  </rdf:RDF>
 </metadata>
 <defs>
  <style type="text/css">*{stroke-linejoin: round; stroke-linecap: butt}</style>
 </defs>
 <g id="figure_1">
  <g id="patch_1">
   <path d="M 0 25.92 
L 25.92 25.92 
L 25.92 0 
L 0 0 
z
" style="fill: #ffffff"/>
  </g>
  <g id="axes_1">
   <g id="patch_2">
    <path d="M 9.7344 18.72 
L 16.1856 18.72 
Q 18.72 18.72 18.72 16.1856 
L 18.72 9.7344 
Q 18.72 7.2 16.1856 7.2 
L 9.7344 7.2 
Q 7.2 7.2 7.2 9.7344 
L 7.2 16.1856 
Q 7.2 18.72 9.7344 18.72 
z
" clip-path="url(#p28392d787b)" style="fill: #ffc107"/>
   </g>
   <g id="patch_3">
    <path d="M 7.70688 18.72 
L 8.99712 18.72 
Q 9.504 18.72 9.504 18.21312 
L 9.504 16.92288 
Q 9.504 16.416 8.99712 16.416 
L 7.70688 16.416 
Q 7.2 16.416 7.2 16.92288 
L 7.2 18.21312 
Q 7.2 18.72 7.70688 18.72 
z
" clip-path="url(#p28392d787b)" style="fill: #ffc107; opacity: 0.07"/>
   </g>
   <g id="patch_4">
    <path d="M 7.748258 18.72 
L 9.143824 18.72 
Q 9.692082 18.72 9.692082 18.171742 
L 9.692082 16.776176 
Q 9.692082 16.227918 9.143824 16.227918 
L 7.748258 16.227918 
Q 7.2 16.227918 7.2 16.776176 
L 7.2 18.171742 
Q 7.2 18.72 7.748258 18.72 
z
" clip-path="url(#p28392d787b)" style="fill: #ffc007; opacity: 0.07"/>
   </g>
   <g id="patch_5">
    <path d="M 7.789636 18.72 
L 9.290527 18.72 
Q 9.880163 18.72 9.880163 18.130364 
L 9.880163 16.629473 
Q 9.880163 16.039837 9.290527 16.039837 
L 7.789636 16.039837 
Q 7.2 16.039837 7.2 16.629473 
L 7.2 18.130364 
Q 7.2 18.72 7.789636 18.72 
z
" clip-path="url(#p28392d787b)" style="fill: #ffbf07; opacity: 0.07"/>
   </g>
   <g id="patch_6">
    <path d="M 7.831014 18.72 
L 9.437231 18.72 
Q 10.068245 18.72 10.068245 18.088986 
L 10.068245 16.482769 
Q 10.068245 15.851755 9.437231 15.851755 
L 7.831014 15.851755 
Q 7.2 15.851755 7.2 16.482769 
L 7.2 18.088986 
Q 7.2 18.72 7.831014 18.72 
z
" clip-path="url(#p28392d787b)" style="fill: #ffbe06; opacity: 0.07"/>
   </g>
   <g id="patch_7">
    <path d="M 7.872392 18.72 
L 9.583935 18.72 
Q 10.256327 18.72 10.256327 18.047608 
L 10.256327 16.336065 
Q 10.256327 15.663673 9.583935 15.663673 
L 7.872392 15.663673 
Q 7.2 15.663673 7.2 16.336065 
L 7.2 18.047608 
Q 7.2 18.72 7.872392 18.72 
z
" clip-path="url(#p28392d787b)" style="fill: #ffbd06; opacity: 0.07"/>
   </g>
   <g id="patch_8">
    <path d="M 7.91377 18.72 
L 9.730638 18.72 
Q 10.444408 18.72 10.444408 18.00623 
L 10.444408 16.189362 
Q 10.444408 15.475592 9.730638 15.475592 
L 7.91377 15.475592 
Q 7.2 15.475592 7.2 16.189362 
L 7.2 18.00623 
Q 7.2 18.72 7.91377 18.72 
z
" clip-path="url(#p28392d787b)" style="fill: #ffbd06; opacity: 0.07"/>
   </g>
   <g id="patch_9">
    <path d="M 7.955148 18.72 
L 9.877342 18.72 
Q 10.63249 18.72 10.63249 17.964852 
L 10.63249 16.042658 
Q 10.63249 15.28751 9.877342 15.28751 
L 7.955148 15.28751 
Q 7.2 15.28751 7.2 16.042658 
L 7.2 17.964852 
Q 7.2 18.72 7.955148 18.72 
z
" clip-path="url(#p28392d787b)" style="fill: #ffbc06; opacity: 0.07"/>
   </g>
   <g id="patch_10">
    <path d="M 7.996526 18.72 
L 10.024046 18.72 
Q 10.820571 18.72 10.820571 17.923474 
L 10.820571 15.895954 
Q 10.820571 15.099429 10.024046 15.099429 
L 7.996526 15.099429 
Q 7.2 15.099429 7.2 15.895954 
L 7.2 17.923474 
Q 7.2 18.72 7.996526 18.72 
z
" clip-path="url(#p28392d787b)" style="fill: #ffbb06; opacity: 0.07"/>
   </g>
   <g id="patch_11">
    <path d="M 8.037904 18.72 
L 10.170749 18.72 
Q 11.008653 18.72 11.008653 17.882096 
L 11.008653 15.749251 
Q 11.008653 14.911347 10.170749 14.911347 
L 8.037904 14.911347 
Q 7.2 14.911347 7.2 15.749251 
L 7.2 17.882096 
Q 7.2 18.72 8.037904 18.72 
z
" clip-path="url(#p28392d787b)" style="fill: #ffba06; opacity: 0.07"/>
   </g>
   <g id="patch_12">
    <path d="M 8.079282 18.72 
L 10.317453 18.72 
Q 11.196735 18.72 11.196735 17.840718 
L 11.196735 15.602547 
Q 11.196735 14.723265 10.317453 14.723265 
L 8.079282 14.723265 
Q 7.2 14.723265 7.2 15.602547 
L 7.2 17.840718 
Q 7.2 18.72 8.079282 18.72 
z
" clip-path="url(#p28392d787b)" style="fill: #ffb906; opacity: 0.07"/>
   </g>
   <g id="patch_13">
    <path d="M 8.12066 18.72 
L 10.464157 18.72 
Q 11.384816 18.72 11.384816 17.79934 
L 11.384816 15.455843 
Q 11.384816 14.535184 10.464157 14.535184 
L 8.12066 14.535184 
Q 7.2 14.535184 7.2 15.455843 
L 7.2 17.79934 
Q 7.2 18.72 8.12066 18.72 
z
" clip-path="url(#p28392d787b)" style="fill: #ffb805; opacity: 0.07"/>
   </g>
   <g id="patch_14">
    <path d="M 8.162038 18.72 
L 10.61086 18.72 
Q 11.572898 18.72 11.572898 17.757962 
L 11.572898 15.30914 
Q 11.572898 14.347102 10.61086 14.347102 
L 8.162038 14.347102 
Q 7.2 14.347102 7.2 15.30914 
L 7.2 17.757962 
Q 7.2 18.72 8.162038 18.72 
z
" clip-path="url(#p28392d787b)" style="fill: #ffb805; opacity: 0.07"/>
   </g>
   <g id="patch_15">
    <path d="M 8.203416 18.72 
L 10.757564 18.72 
Q 11.76098 18.72 11.76098 17.716584 
L 11.76098 15.162436 
Q 11.76098 14.15902 10.757564 14.15902 
L 8.203416 14.15902 
Q 7.2 14.15902 7.2 15.162436 
L 7.2 17.716584 
Q 7.2 18.72 8.203416 18.72 
z
" clip-path="url(#p28392d787b)" style="fill: #ffb705; opacity: 0.07"/>
   </g>
   <g id="patch_16">
    <path d="M 8.244793 18.72 
L 10.904268 18.72 
Q 11.949061 18.72 11.949061 17.675207 
L 11.949061 15.015732 
Q 11.949061 13.970939 10.904268 13.970939 
L 8.244793 13.970939 
Q 7.2 13.970939 7.2 15.015732 
L 7.2 17.675207 
Q 7.2 18.72 8.244793 18.72 
z
" clip-path="url(#p28392d787b)" style="fill: #ffb605; opacity: 0.07"/>
   </g>
   <g id="patch_17">
    <path d="M 8.286171 18.72 
L 11.050971 18.72 
Q 12.137143 18.72 12.137143 17.633829 
L 12.137143 14.869029 
Q 12.137143 13.782857 11.050971 13.782857 
L 8.286171 13.782857 
Q 7.2 13.782857 7.2 14.869029 
L 7.2 17.633829 
Q 7.2 18.72 8.286171 18.72 
z
" clip-path="url(#p28392d787b)" style="fill: #ffb505; opacity: 0.07"/>
   </g>
   <g id="patch_18">
    <path d="M 8.327549 18.72 
L 11.197675 18.72 
Q 12.325224 18.72 12.325224 17.592451 
L 12.325224 14.722325 
Q 12.325224 13.594776 11.197675 13.594776 
L 8.327549 13.594776 
Q 7.2 13.594776 7.2 14.722325 
L 7.2 17.592451 
Q 7.2 18.72 8.327549 18.72 
z
" clip-path="url(#p28392d787b)" style="fill: #ffb405; opacity: 0.07"/>
   </g>
   <g id="patch_19">
    <path d="M 8.368927 18.72 
L 11.344379 18.72 
Q 12.513306 18.72 12.513306 17.551073 
L 12.513306 14.575621 
Q 12.513306 13.406694 11.344379 13.406694 
L 8.368927 13.406694 
Q 7.2 13.406694 7.2 14.575621 
L 7.2 17.551073 
Q 7.2 18.72 8.368927 18.72 
z
" clip-path="url(#p28392d787b)" style="fill: #ffb305; opacity: 0.07"/>
   </g>
   <g id="patch_20">
    <path d="M 8.410305 18.72 
L 11.491082 18.72 
Q 12.701388 18.72 12.701388 17.509695 
L 12.701388 14.428918 
Q 12.701388 13.218612 11.491082 13.218612 
L 8.410305 13.218612 
Q 7.2 13.218612 7.2 14.428918 
L 7.2 17.509695 
Q 7.2 18.72 8.410305 18.72 
z
" clip-path="url(#p28392d787b)" style="fill: #ffb304; opacity: 0.07"/>
   </g>
   <g id="patch_21">
    <path d="M 8.451683 18.72 
L 11.637786 18.72 
Q 12.889469 18.72 12.889469 17.468317 
L 12.889469 14.282214 
Q 12.889469 13.030531 11.637786 13.030531 
L 8.451683 13.030531 
Q 7.2 13.030531 7.2 14.282214 
L 7.2 17.468317 
Q 7.2 18.72 8.451683 18.72 
z
" clip-path="url(#p28392d787b)" style="fill: #ffb204; opacity: 0.07"/>
   </g>
   <g id="patch_22">
    <path d="M 8.493061 18.72 
L 11.78449 18.72 
Q 13.077551 18.72 13.077551 17.426939 
L 13.077551 14.13551 
Q 13.077551 12.842449 11.78449 12.842449 
L 8.493061 12.842449 
Q 7.2 12.842449 7.2 14.13551 
L 7.2 17.426939 
Q 7.2 18.72 8.493061 18.72 
z
" clip-path="url(#p28392d787b)" style="fill: #ffb104; opacity: 0.07"/>
   </g>
   <g id="patch_23">
    <path d="M 8.534439 18.72 
L 11.931193 18.72 
Q 13.265633 18.72 13.265633 17.385561 
L 13.265633 13.988807 
Q 13.265633 12.654367 11.931193 12.654367 
L 8.534439 12.654367 
Q 7.2 12.654367 7.2 13.988807 
L 7.2 17.385561 
Q 7.2 18.72 8.534439 18.72 
z
" clip-path="url(#p28392d787b)" style="fill: #ffb004; opacity: 0.07"/>
   </g>
   <g id="patch_24">
    <path d="M 8.575817 18.72 
L 12.077897 18.72 
Q 13.453714 18.72 13.453714 17.344183 
L 13.453714 13.842103 
Q 13.453714 12.466286 12.077897 12.466286 
L 8.575817 12.466286 
Q 7.2 12.466286 7.2 13.842103 
L 7.2 17.344183 
Q 7.2 18.72 8.575817 18.72 
z
" clip-path="url(#p28392d787b)" style="fill: #ffaf04; opacity: 0.07"/>
   </g>
   <g id="patch_25">
    <path d="M 8.617195 18.72 
L 12.224601 18.72 
Q 13.641796 18.72 13.641796 17.302805 
L 13.641796 13.695399 
Q 13.641796 12.278204 12.224601 12.278204 
L 8.617195 12.278204 
Q 7.2 12.278204 7.2 13.695399 
L 7.2 17.302805 
Q 7.2 18.72 8.617195 18.72 
z
" clip-path="url(#p28392d787b)" style="fill: #ffae04; opacity: 0.07"/>
   </g>
   <g id="patch_26">
    <path d="M 8.658573 18.72 
L 12.371304 18.72 
Q 13.829878 18.72 13.829878 17.261427 
L 13.829878 13.548696 
Q 13.829878 12.090122 12.371304 12.090122 
L 8.658573 12.090122 
Q 7.2 12.090122 7.2 13.548696 
L 7.2 17.261427 
Q 7.2 18.72 8.658573 18.72 
z
" clip-path="url(#p28392d787b)" style="fill: #ffae04; opacity: 0.07"/>
   </g>
   <g id="patch_27">
    <path d="M 8.699951 18.72 
L 12.518008 18.72 
Q 14.017959 18.72 14.017959 17.220049 
L 14.017959 13.401992 
Q 14.017959 11.902041 12.518008 11.902041 
L 8.699951 11.902041 
Q 7.2 11.902041 7.2 13.401992 
L 7.2 17.220049 
Q 7.2 18.72 8.699951 18.72 
z
" clip-path="url(#p28392d787b)" style="fill: #ffad04; opacity: 0.07"/>
   </g>
   <g id="patch_28">
    <path d="M 8.741329 18.72 
L 12.664712 18.72 
Q 14.206041 18.72 14.206041 17.178671 
L 14.206041 13.255288 
Q 14.206041 11.713959 12.664712 11.713959 
L 8.741329 11.713959 
Q 7.2 11.713959 7.2 13.255288 
L 7.2 17.178671 
Q 7.2 18.72 8.741329 18.72 
z
" clip-path="url(#p28392d787b)" style="fill: #ffac03; opacity: 0.07"/>
   </g>
   <g id="patch_29">
    <path d="M 8.782707 18.72 
L 12.811416 18.72 
Q 14.394122 18.72 14.394122 17.137293 
L 14.394122 13.108584 
Q 14.394122 11.525878 12.811416 11.525878 
L 8.782707 11.525878 
Q 7.2 11.525878 7.2 13.108584 
L 7.2 17.137293 
Q 7.2 18.72 8.782707 18.72 
z
" clip-path="url(#p28392d787b)" style="fill: #ffab03; opacity: 0.07"/>
   </g>
   <g id="patch_30">
    <path d="M 8.824085 18.72 
L 12.958119 18.72 
Q 14.582204 18.72 14.582204 17.095915 
L 14.582204 12.961881 
Q 14.582204 11.337796 12.958119 11.337796 
L 8.824085 11.337796 
Q 7.2 11.337796 7.2 12.961881 
L 7.2 17.095915 
Q 7.2 18.72 8.824085 18.72 
z
" clip-path="url(#p28392d787b)" style="fill: #ffaa03; opacity: 0.07"/>
   </g>
   <g id="patch_31">
    <path d="M 8.865463 18.72 
L 13.104823 18.72 
Q 14.770286 18.72 14.770286 17.054537 
L 14.770286 12.815177 
Q 14.770286 11.149714 13.104823 11.149714 
L 8.865463 11.149714 
Q 7.2 11.149714 7.2 12.815177 
L 7.2 17.054537 
Q 7.2 18.72 8.865463 18.72 
z
" clip-path="url(#p28392d787b)" style="fill: #ffa903; opacity: 0.07"/>
   </g>
   <g id="patch_32">
    <path d="M 8.906841 18.72 
L 13.251527 18.72 
Q 14.958367 18.72 14.958367 17.013159 
L 14.958367 12.668473 
Q 14.958367 10.961633 13.251527 10.961633 
L 8.906841 10.961633 
Q 7.2 10.961633 7.2 12.668473 
L 7.2 17.013159 
Q 7.2 18.72 8.906841 18.72 
z
" clip-path="url(#p28392d787b)" style="fill: #ffa903; opacity: 0.07"/>
   </g>
   <g id="patch_33">
    <path d="M 8.948219 18.72 
L 13.39823 18.72 
Q 15.146449 18.72 15.146449 16.971781 
L 15.146449 12.52177 
Q 15.146449 10.773551 13.39823 10.773551 
L 8.948219 10.773551 
Q 7.2 10.773551 7.2 12.52177 
L 7.2 16.971781 
Q 7.2 18.72 8.948219 18.72 
z
" clip-path="url(#p28392d787b)" style="fill: #ffa803; opacity: 0.07"/>
   </g>
   <g id="patch_34">
    <path d="M 8.989597 18.72 
L 13.544934 18.72 
Q 15.334531 18.72 15.334531 16.930403 
L 15.334531 12.375066 
Q 15.334531 10.585469 13.544934 10.585469 
L 8.989597 10.585469 
Q 7.2 10.585469 7.2 12.375066 
L 7.2 16.930403 
Q 7.2 18.72 8.989597 18.72 
z
" clip-path="url(#p28392d787b)" style="fill: #ffa703; opacity: 0.07"/>
   </g>
   <g id="patch_35">
    <path d="M 9.030975 18.72 
L 13.691638 18.72 
Q 15.522612 18.72 15.522612 16.889025 
L 15.522612 12.228362 
Q 15.522612 10.397388 13.691638 10.397388 
L 9.030975 10.397388 
Q 7.2 10.397388 7.2 12.228362 
L 7.2 16.889025 
Q 7.2 18.72 9.030975 18.72 
z
" clip-path="url(#p28392d787b)" style="fill: #ffa602; opacity: 0.07"/>
   </g>
   <g id="patch_36">
    <path d="M 9.072353 18.72 
L 13.838341 18.72 
Q 15.710694 18.72 15.710694 16.847647 
L 15.710694 12.081659 
Q 15.710694 10.209306 13.838341 10.209306 
L 9.072353 10.209306 
Q 7.2 10.209306 7.2 12.081659 
L 7.2 16.847647 
Q 7.2 18.72 9.072353 18.72 
z
" clip-path="url(#p28392d787b)" style="fill: #ffa502; opacity: 0.07"/>
   </g>
   <g id="patch_37">
    <path d="M 9.113731 18.72 
L 13.985045 18.72 
Q 15.898776 18.72 15.898776 16.806269 
L 15.898776 11.934955 
Q 15.898776 10.021224 13.985045 10.021224 
L 9.113731 10.021224 
Q 7.2 10.021224 7.2 11.934955 
L 7.2 16.806269 
Q 7.2 18.72 9.113731 18.72 
z
" clip-path="url(#p28392d787b)" style="fill: #ffa402; opacity: 0.07"/>
   </g>
   <g id="patch_38">
    <path d="M 9.155109 18.72 
L 14.131749 18.72 
Q 16.086857 18.72 16.086857 16.764891 
L 16.086857 11.788251 
Q 16.086857 9.833143 14.131749 9.833143 
L 9.155109 9.833143 
Q 7.2 9.833143 7.2 11.788251 
L 7.2 16.764891 
Q 7.2 18.72 9.155109 18.72 
z
" clip-path="url(#p28392d787b)" style="fill: #ffa402; opacity: 0.07"/>
   </g>
   <g id="patch_39">
    <path d="M 9.196487 18.72 
L 14.278452 18.72 
Q 16.274939 18.72 16.274939 16.723513 
L 16.274939 11.641548 
Q 16.274939 9.645061 14.278452 9.645061 
L 9.196487 9.645061 
Q 7.2 9.645061 7.2 11.641548 
L 7.2 16.723513 
Q 7.2 18.72 9.196487 18.72 
z
" clip-path="url(#p28392d787b)" style="fill: #ffa302; opacity: 0.07"/>
   </g>
   <g id="patch_40">
    <path d="M 9.237864 18.72 
L 14.425156 18.72 
Q 16.46302 18.72 16.46302 16.682136 
L 16.46302 11.494844 
Q 16.46302 9.45698 14.425156 9.45698 
L 9.237864 9.45698 
Q 7.2 9.45698 7.2 11.494844 
L 7.2 16.682136 
Q 7.2 18.72 9.237864 18.72 
z
" clip-path="url(#p28392d787b)" style="fill: #ffa202; opacity: 0.07"/>
   </g>
   <g id="patch_41">
    <path d="M 9.279242 18.72 
L 14.57186 18.72 
Q 16.651102 18.72 16.651102 16.640758 
L 16.651102 11.34814 
Q 16.651102 9.268898 14.57186 9.268898 
L 9.279242 9.268898 
Q 7.2 9.268898 7.2 11.34814 
L 7.2 16.640758 
Q 7.2 18.72 9.279242 18.72 
z
" clip-path="url(#p28392d787b)" style="fill: #ffa102; opacity: 0.07"/>
   </g>
   <g id="patch_42">
    <path d="M 9.32062 18.72 
L 14.718563 18.72 
Q 16.839184 18.72 16.839184 16.59938 
L 16.839184 11.201437 
Q 16.839184 9.080816 14.718563 9.080816 
L 9.32062 9.080816 
Q 7.2 9.080816 7.2 11.201437 
L 7.2 16.59938 
Q 7.2 18.72 9.32062 18.72 
z
" clip-path="url(#p28392d787b)" style="fill: #ffa001; opacity: 0.07"/>
   </g>
   <g id="patch_43">
    <path d="M 9.361998 18.72 
L 14.865267 18.72 
Q 17.027265 18.72 17.027265 16.558002 
L 17.027265 11.054733 
Q 17.027265 8.892735 14.865267 8.892735 
L 9.361998 8.892735 
Q 7.2 8.892735 7.2 11.054733 
L 7.2 16.558002 
Q 7.2 18.72 9.361998 18.72 
z
" clip-path="url(#p28392d787b)" style="fill: #ff9f01; opacity: 0.07"/>
   </g>
   <g id="patch_44">
    <path d="M 9.403376 18.72 
L 15.011971 18.72 
Q 17.215347 18.72 17.215347 16.516624 
L 17.215347 10.908029 
Q 17.215347 8.704653 15.011971 8.704653 
L 9.403376 8.704653 
Q 7.2 8.704653 7.2 10.908029 
L 7.2 16.516624 
Q 7.2 18.72 9.403376 18.72 
z
" clip-path="url(#p28392d787b)" style="fill: #ff9f01; opacity: 0.07"/>
   </g>
   <g id="patch_45">
    <path d="M 9.444754 18.72 
L 15.158674 18.72 
Q 17.403429 18.72 17.403429 16.475246 
L 17.403429 10.761326 
Q 17.403429 8.516571 15.158674 8.516571 
L 9.444754 8.516571 
Q 7.2 8.516571 7.2 10.761326 
L 7.2 16.475246 
Q 7.2 18.72 9.444754 18.72 
z
" clip-path="url(#p28392d787b)" style="fill: #ff9e01; opacity: 0.07"/>
   </g>
   <g id="patch_46">
    <path d="M 9.486132 18.72 
L 15.305378 18.72 
Q 17.59151 18.72 17.59151 16.433868 
L 17.59151 10.614622 
Q 17.59151 8.32849 15.305378 8.32849 
L 9.486132 8.32849 
Q 7.2 8.32849 7.2 10.614622 
L 7.2 16.433868 
Q 7.2 18.72 9.486132 18.72 
z
" clip-path="url(#p28392d787b)" style="fill: #ff9d01; opacity: 0.07"/>
   </g>
   <g id="patch_47">
    <path d="M 9.52751 18.72 
L 15.452082 18.72 
Q 17.779592 18.72 17.779592 16.39249 
L 17.779592 10.467918 
Q 17.779592 8.140408 15.452082 8.140408 
L 9.52751 8.140408 
Q 7.2 8.140408 7.2 10.467918 
L 7.2 16.39249 
Q 7.2 18.72 9.52751 18.72 
z
" clip-path="url(#p28392d787b)" style="fill: #ff9c01; opacity: 0.07"/>
   </g>
   <g id="patch_48">
    <path d="M 9.568888 18.72 
L 15.598785 18.72 
Q 17.967673 18.72 17.967673 16.351112 
L 17.967673 10.321215 
Q 17.967673 7.952327 15.598785 7.952327 
L 9.568888 7.952327 
Q 7.2 7.952327 7.2 10.321215 
L 7.2 16.351112 
Q 7.2 18.72 9.568888 18.72 
z
" clip-path="url(#p28392d787b)" style="fill: #ff9b01; opacity: 0.07"/>
   </g>
   <g id="patch_49">
    <path d="M 9.610266 18.72 
L 15.745489 18.72 
Q 18.155755 18.72 18.155755 16.309734 
L 18.155755 10.174511 
Q 18.155755 7.764245 15.745489 7.764245 
L 9.610266 7.764245 
Q 7.2 7.764245 7.2 10.174511 
L 7.2 16.309734 
Q 7.2 18.72 9.610266 18.72 
z
" clip-path="url(#p28392d787b)" style="fill: #ff9a00; opacity: 0.07"/>
   </g>
   <g id="patch_50">
    <path d="M 9.651644 18.72 
L 15.892193 18.72 
Q 18.343837 18.72 18.343837 16.268356 
L 18.343837 10.027807 
Q 18.343837 7.576163 15.892193 7.576163 
L 9.651644 7.576163 
Q 7.2 7.576163 7.2 10.027807 
L 7.2 16.268356 
Q 7.2 18.72 9.651644 18.72 
z
" clip-path="url(#p28392d787b)" style="fill: #ff9a00; opacity: 0.07"/>
   </g>
   <g id="patch_51">
    <path d="M 9.693022 18.72 
L 16.038896 18.72 
Q 18.531918 18.72 18.531918 16.226978 
L 18.531918 9.881104 
Q 18.531918 7.388082 16.038896 7.388082 
L 9.693022 7.388082 
Q 7.2 7.388082 7.2 9.881104 
L 7.2 16.226978 
Q 7.2 18.72 9.693022 18.72 
z
" clip-path="url(#p28392d787b)" style="fill: #ff9900; opacity: 0.07"/>
   </g>
   <g id="patch_52">
    <path d="M 9.7344 18.72 
L 16.1856 18.72 
Q 18.72 18.72 18.72 16.1856 
L 18.72 9.7344 
Q 18.72 7.2 16.1856 7.2 
L 9.7344 7.2 
Q 7.2 7.2 7.2 9.7344 
L 7.2 16.1856 
Q 7.2 18.72 9.7344 18.72 
z
" clip-path="url(#p28392d787b)" style="fill: #ff9800; opacity: 0.07"/>
   </g>
  </g>
 </g>
 <defs>
  <clipPath id="p28392d787b">
   <rect x="7.2" y="7.2" width="11.52" height="11.52"/>
  </clipPath>
 </defs>
</svg>
