<?xml version="1.0" encoding="utf-8" standalone="no"?>
<!DOCTYPE svg PUBLIC "-//W3C//DTD SVG 1.1//EN"
  "http://www.w3.org/Graphics/SVG/1.1/DTD/svg11.dtd">
<svg xmlns:xlink="http://www.w3.org/1999/xlink" width="48.96pt" height="48.96pt" viewBox="0 0 48.96 48.96" xmlns="http://www.w3.org/2000/svg" version="1.1">
 <metadata>
  <rdf:RDF xmlns:dc="http://purl.org/dc/elements/1.1/" xmlns:cc="http://creativecommons.org/ns#" xmlns:rdf="http://www.w3.org/1999/02/22-rdf-syntax-ns#">
   <cc:Work>
    <dc:type rdf:resource="http://purl.org/dc/dcmitype/StillImage"/>
    <dc:date>2025-10-07T21:53:30.809508</dc:date>
    <dc:format>image/svg+xml</dc:format>
    <dc:creator>
     <cc:Agent>
      <dc:title>Matplotlib v3.6.3, https://matplotlib.org/</dc:title>
     </cc:Agent>
    </dc:creator>
   </cc:Work>
  </rdf:RDF>
 </metadata>
 <defs>
  <style type="text/css">*{stroke-linejoin: round; stroke-linecap: butt}</style>
 </defs>
 <g id="figure_1">
  <g id="patch_1">
   <path d="M 0 48.96 
L 48.96 48.96 
L 48.96 0 
L 0 0 
z
" style="fill: #ffffff"/>
  </g>
  <g id="axes_1">
   <g id="patch_2">
    <path d="M 14.8032 41.76 
L 34.1568 41.76 
Q 41.76 41.76 41.76 34.1568 
L 41.76 14.8032 
Q 41.76 7.2 34.1568 7.2 
L 14.8032 7.2 
Q 7.2 7.2 7.2 14.8032 
L 7.2 34.1568 
Q 7.2 41.76 14.8032 41.76 
z
" clip-path="url(#p1b6e06a8ed)" style="fill: #ffc107"/>
   </g>
   <g id="patch_3">
    <path d="M 8.72064 41.76 
L 12.59136 41.76 
Q 14.112 41.76 14.112 40.23936 
L 14.112 36.36864 
Q 14.112 34.848 12.59136 34.848 
L 8.72064 34.848 
Q 7.2 34.848 7.2 36.36864 
L 7.2 40.23936 
Q 7.2 41.76 8.72064 41.76 
z
" clip-path="url(#p1b6e06a8ed)" style="fill: #ffc107; opacity: 0.07"/>
   </g>
   <g id="patch_4">
    <path d="M 8.844774 41.76 
L 13.031471 41.76 
Q 14.676245 41.76 14.676245 40.115226 
L 14.676245 35.928529 
Q 14.676245 34.283755 13.031471 34.283755 
L 8.844774 34.283755 
Q 7.2 34.283755 7.2 35.928529 
L 7.2 40.115226 
Q 7.2 41.76 8.844774 41.76 
z
" clip-path="url(#p1b6e06a8ed)" style="fill: #ffc007; opacity: 0.07"/>
   </g>
   <g id="patch_5">
    <path d="M 8.968908 41.76 
L 13.471582 41.76 
Q 15.24049 41.76 15.24049 39.991092 
L 15.24049 35.488418 
Q 15.24049 33.71951 13.471582 33.71951 
L 8.968908 33.71951 
Q 7.2 33.71951 7.2 35.488418 
L 7.2 39.991092 
Q 7.2 41.76 8.968908 41.76 
z
" clip-path="url(#p1b6e06a8ed)" style="fill: #ffbf07; opacity: 0.07"/>
   </g>
   <g id="patch_6">
    <path d="M 9.093042 41.76 
L 13.911693 41.76 
Q 15.804735 41.76 15.804735 39.866958 
L 15.804735 35.048307 
Q 15.804735 33.155265 13.911693 33.155265 
L 9.093042 33.155265 
Q 7.2 33.155265 7.2 35.048307 
L 7.2 39.866958 
Q 7.2 41.76 9.093042 41.76 
z
" clip-path="url(#p1b6e06a8ed)" style="fill: #ffbe06; opacity: 0.07"/>
   </g>
   <g id="patch_7">
    <path d="M 9.217176 41.76 
L 14.351804 41.76 
Q 16.36898 41.76 16.36898 39.742824 
L 16.36898 34.608196 
Q 16.36898 32.59102 14.351804 32.59102 
L 9.217176 32.59102 
Q 7.2 32.59102 7.2 34.608196 
L 7.2 39.742824 
Q 7.2 41.76 9.217176 41.76 
z
" clip-path="url(#p1b6e06a8ed)" style="fill: #ffbd06; opacity: 0.07"/>
   </g>
   <g id="patch_8">
    <path d="M 9.341309 41.76 
L 14.791915 41.76 
Q 16.933224 41.76 16.933224 39.618691 
L 16.933224 34.168085 
Q 16.933224 32.026776 14.791915 32.026776 
L 9.341309 32.026776 
Q 7.2 32.026776 7.2 34.168085 
L 7.2 39.618691 
Q 7.2 41.76 9.341309 41.76 
z
" clip-path="url(#p1b6e06a8ed)" style="fill: #ffbd06; opacity: 0.07"/>
   </g>
   <g id="patch_9">
    <path d="M 9.465443 41.76 
L 15.232026 41.76 
Q 17.497469 41.76 17.497469 39.494557 
L 17.497469 33.727974 
Q 17.497469 31.462531 15.232026 31.462531 
L 9.465443 31.462531 
Q 7.2 31.462531 7.2 33.727974 
L 7.2 39.494557 
Q 7.2 41.76 9.465443 41.76 
z
" clip-path="url(#p1b6e06a8ed)" style="fill: #ffbc06; opacity: 0.07"/>
   </g>
   <g id="patch_10">
    <path d="M 9.589577 41.76 
L 15.672137 41.76 
Q 18.061714 41.76 18.061714 39.370423 
L 18.061714 33.287863 
Q 18.061714 30.898286 15.672137 30.898286 
L 9.589577 30.898286 
Q 7.2 30.898286 7.2 33.287863 
L 7.2 39.370423 
Q 7.2 41.76 9.589577 41.76 
z
" clip-path="url(#p1b6e06a8ed)" style="fill: #ffbb06; opacity: 0.07"/>
   </g>
   <g id="patch_11">
    <path d="M 9.713711 41.76 
L 16.112248 41.76 
Q 18.625959 41.76 18.625959 39.246289 
L 18.625959 32.847752 
Q 18.625959 30.334041 16.112248 30.334041 
L 9.713711 30.334041 
Q 7.2 30.334041 7.2 32.847752 
L 7.2 39.246289 
Q 7.2 41.76 9.713711 41.76 
z
" clip-path="url(#p1b6e06a8ed)" style="fill: #ffba06; opacity: 0.07"/>
   </g>
   <g id="patch_12">
    <path d="M 9.837845 41.76 
L 16.552359 41.76 
Q 19.190204 41.76 19.190204 39.122155 
L 19.190204 32.407641 
Q 19.190204 29.769796 16.552359 29.769796 
L 9.837845 29.769796 
Q 7.2 29.769796 7.2 32.407641 
L 7.2 39.122155 
Q 7.2 41.76 9.837845 41.76 
z
" clip-path="url(#p1b6e06a8ed)" style="fill: #ffb906; opacity: 0.07"/>
   </g>
   <g id="patch_13">
    <path d="M 9.961979 41.76 
L 16.99247 41.76 
Q 19.754449 41.76 19.754449 38.998021 
L 19.754449 31.96753 
Q 19.754449 29.205551 16.99247 29.205551 
L 9.961979 29.205551 
Q 7.2 29.205551 7.2 31.96753 
L 7.2 38.998021 
Q 7.2 41.76 9.961979 41.76 
z
" clip-path="url(#p1b6e06a8ed)" style="fill: #ffb805; opacity: 0.07"/>
   </g>
   <g id="patch_14">
    <path d="M 10.086113 41.76 
L 17.432581 41.76 
Q 20.318694 41.76 20.318694 38.873887 
L 20.318694 31.527419 
Q 20.318694 28.641306 17.432581 28.641306 
L 10.086113 28.641306 
Q 7.2 28.641306 7.2 31.527419 
L 7.2 38.873887 
Q 7.2 41.76 10.086113 41.76 
z
" clip-path="url(#p1b6e06a8ed)" style="fill: #ffb805; opacity: 0.07"/>
   </g>
   <g id="patch_15">
    <path d="M 10.210247 41.76 
L 17.872692 41.76 
Q 20.882939 41.76 20.882939 38.749753 
L 20.882939 31.087308 
Q 20.882939 28.077061 17.872692 28.077061 
L 10.210247 28.077061 
Q 7.2 28.077061 7.2 31.087308 
L 7.2 38.749753 
Q 7.2 41.76 10.210247 41.76 
z
" clip-path="url(#p1b6e06a8ed)" style="fill: #ffb705; opacity: 0.07"/>
   </g>
   <g id="patch_16">
    <path d="M 10.33438 41.76 
L 18.312803 41.76 
Q 21.447184 41.76 21.447184 38.62562 
L 21.447184 30.647197 
Q 21.447184 27.512816 18.312803 27.512816 
L 10.33438 27.512816 
Q 7.2 27.512816 7.2 30.647197 
L 7.2 38.62562 
Q 7.2 41.76 10.33438 41.76 
z
" clip-path="url(#p1b6e06a8ed)" style="fill: #ffb605; opacity: 0.07"/>
   </g>
   <g id="patch_17">
    <path d="M 10.458514 41.76 
L 18.752914 41.76 
Q 22.011429 41.76 22.011429 38.501486 
L 22.011429 30.207086 
Q 22.011429 26.948571 18.752914 26.948571 
L 10.458514 26.948571 
Q 7.2 26.948571 7.2 30.207086 
L 7.2 38.501486 
Q 7.2 41.76 10.458514 41.76 
z
" clip-path="url(#p1b6e06a8ed)" style="fill: #ffb505; opacity: 0.07"/>
   </g>
   <g id="patch_18">
    <path d="M 10.582648 41.76 
L 19.193025 41.76 
Q 22.575673 41.76 22.575673 38.377352 
L 22.575673 29.766975 
Q 22.575673 26.384327 19.193025 26.384327 
L 10.582648 26.384327 
Q 7.2 26.384327 7.2 29.766975 
L 7.2 38.377352 
Q 7.2 41.76 10.582648 41.76 
z
" clip-path="url(#p1b6e06a8ed)" style="fill: #ffb405; opacity: 0.07"/>
   </g>
   <g id="patch_19">
    <path d="M 10.706782 41.76 
L 19.633136 41.76 
Q 23.139918 41.76 23.139918 38.253218 
L 23.139918 29.326864 
Q 23.139918 25.820082 19.633136 25.820082 
L 10.706782 25.820082 
Q 7.2 25.820082 7.2 29.326864 
L 7.2 38.253218 
Q 7.2 41.76 10.706782 41.76 
z
" clip-path="url(#p1b6e06a8ed)" style="fill: #ffb305; opacity: 0.07"/>
   </g>
   <g id="patch_20">
    <path d="M 10.830916 41.76 
L 20.073247 41.76 
Q 23.704163 41.76 23.704163 38.129084 
L 23.704163 28.886753 
Q 23.704163 25.255837 20.073247 25.255837 
L 10.830916 25.255837 
Q 7.2 25.255837 7.2 28.886753 
L 7.2 38.129084 
Q 7.2 41.76 10.830916 41.76 
z
" clip-path="url(#p1b6e06a8ed)" style="fill: #ffb304; opacity: 0.07"/>
   </g>
   <g id="patch_21">
    <path d="M 10.95505 41.76 
L 20.513358 41.76 
Q 24.268408 41.76 24.268408 38.00495 
L 24.268408 28.446642 
Q 24.268408 24.691592 20.513358 24.691592 
L 10.95505 24.691592 
Q 7.2 24.691592 7.2 28.446642 
L 7.2 38.00495 
Q 7.2 41.76 10.95505 41.76 
z
" clip-path="url(#p1b6e06a8ed)" style="fill: #ffb204; opacity: 0.07"/>
   </g>
   <g id="patch_22">
    <path d="M 11.079184 41.76 
L 20.953469 41.76 
Q 24.832653 41.76 24.832653 37.880816 
L 24.832653 28.006531 
Q 24.832653 24.127347 20.953469 24.127347 
L 11.079184 24.127347 
Q 7.2 24.127347 7.2 28.006531 
L 7.2 37.880816 
Q 7.2 41.76 11.079184 41.76 
z
" clip-path="url(#p1b6e06a8ed)" style="fill: #ffb104; opacity: 0.07"/>
   </g>
   <g id="patch_23">
    <path d="M 11.203318 41.76 
L 21.39358 41.76 
Q 25.396898 41.76 25.396898 37.756682 
L 25.396898 27.56642 
Q 25.396898 23.563102 21.39358 23.563102 
L 11.203318 23.563102 
Q 7.2 23.563102 7.2 27.56642 
L 7.2 37.756682 
Q 7.2 41.76 11.203318 41.76 
z
" clip-path="url(#p1b6e06a8ed)" style="fill: #ffb004; opacity: 0.07"/>
   </g>
   <g id="patch_24">
    <path d="M 11.327451 41.76 
L 21.833691 41.76 
Q 25.961143 41.76 25.961143 37.632549 
L 25.961143 27.126309 
Q 25.961143 22.998857 21.833691 22.998857 
L 11.327451 22.998857 
Q 7.2 22.998857 7.2 27.126309 
L 7.2 37.632549 
Q 7.2 41.76 11.327451 41.76 
z
" clip-path="url(#p1b6e06a8ed)" style="fill: #ffaf04; opacity: 0.07"/>
   </g>
   <g id="patch_25">
    <path d="M 11.451585 41.76 
L 22.273802 41.76 
Q 26.525388 41.76 26.525388 37.508415 
L 26.525388 26.686198 
Q 26.525388 22.434612 22.273802 22.434612 
L 11.451585 22.434612 
Q 7.2 22.434612 7.2 26.686198 
L 7.2 37.508415 
Q 7.2 41.76 11.451585 41.76 
z
" clip-path="url(#p1b6e06a8ed)" style="fill: #ffae04; opacity: 0.07"/>
   </g>
   <g id="patch_26">
    <path d="M 11.575719 41.76 
L 22.713913 41.76 
Q 27.089633 41.76 27.089633 37.384281 
L 27.089633 26.246087 
Q 27.089633 21.870367 22.713913 21.870367 
L 11.575719 21.870367 
Q 7.2 21.870367 7.2 26.246087 
L 7.2 37.384281 
Q 7.2 41.76 11.575719 41.76 
z
" clip-path="url(#p1b6e06a8ed)" style="fill: #ffae04; opacity: 0.07"/>
   </g>
   <g id="patch_27">
    <path d="M 11.699853 41.76 
L 23.154024 41.76 
Q 27.653878 41.76 27.653878 37.260147 
L 27.653878 25.805976 
Q 27.653878 21.306122 23.154024 21.306122 
L 11.699853 21.306122 
Q 7.2 21.306122 7.2 25.805976 
L 7.2 37.260147 
Q 7.2 41.76 11.699853 41.76 
z
" clip-path="url(#p1b6e06a8ed)" style="fill: #ffad04; opacity: 0.07"/>
   </g>
   <g id="patch_28">
    <path d="M 11.823987 41.76 
L 23.594136 41.76 
Q 28.218122 41.76 28.218122 37.136013 
L 28.218122 25.365864 
Q 28.218122 20.741878 23.594136 20.741878 
L 11.823987 20.741878 
Q 7.2 20.741878 7.2 25.365864 
L 7.2 37.136013 
Q 7.2 41.76 11.823987 41.76 
z
" clip-path="url(#p1b6e06a8ed)" style="fill: #ffac03; opacity: 0.07"/>
   </g>
   <g id="patch_29">
    <path d="M 11.948121 41.76 
L 24.034247 41.76 
Q 28.782367 41.76 28.782367 37.011879 
L 28.782367 24.925753 
Q 28.782367 20.177633 24.034247 20.177633 
L 11.948121 20.177633 
Q 7.2 20.177633 7.2 24.925753 
L 7.2 37.011879 
Q 7.2 41.76 11.948121 41.76 
z
" clip-path="url(#p1b6e06a8ed)" style="fill: #ffab03; opacity: 0.07"/>
   </g>
   <g id="patch_30">
    <path d="M 12.072255 41.76 
L 24.474358 41.76 
Q 29.346612 41.76 29.346612 36.887745 
L 29.346612 24.485642 
Q 29.346612 19.613388 24.474358 19.613388 
L 12.072255 19.613388 
Q 7.2 19.613388 7.2 24.485642 
L 7.2 36.887745 
Q 7.2 41.76 12.072255 41.76 
z
" clip-path="url(#p1b6e06a8ed)" style="fill: #ffaa03; opacity: 0.07"/>
   </g>
   <g id="patch_31">
    <path d="M 12.196389 41.76 
L 24.914469 41.76 
Q 29.910857 41.76 29.910857 36.763611 
L 29.910857 24.045531 
Q 29.910857 19.049143 24.914469 19.049143 
L 12.196389 19.049143 
Q 7.2 19.049143 7.2 24.045531 
L 7.2 36.763611 
Q 7.2 41.76 12.196389 41.76 
z
" clip-path="url(#p1b6e06a8ed)" style="fill: #ffa903; opacity: 0.07"/>
   </g>
   <g id="patch_32">
    <path d="M 12.320522 41.76 
L 25.35458 41.76 
Q 30.475102 41.76 30.475102 36.639478 
L 30.475102 23.60542 
Q 30.475102 18.484898 25.35458 18.484898 
L 12.320522 18.484898 
Q 7.2 18.484898 7.2 23.60542 
L 7.2 36.639478 
Q 7.2 41.76 12.320522 41.76 
z
" clip-path="url(#p1b6e06a8ed)" style="fill: #ffa903; opacity: 0.07"/>
   </g>
   <g id="patch_33">
    <path d="M 12.444656 41.76 
L 25.794691 41.76 
Q 31.039347 41.76 31.039347 36.515344 
L 31.039347 23.165309 
Q 31.039347 17.920653 25.794691 17.920653 
L 12.444656 17.920653 
Q 7.2 17.920653 7.2 23.165309 
L 7.2 36.515344 
Q 7.2 41.76 12.444656 41.76 
z
" clip-path="url(#p1b6e06a8ed)" style="fill: #ffa803; opacity: 0.07"/>
   </g>
   <g id="patch_34">
    <path d="M 12.56879 41.76 
L 26.234802 41.76 
Q 31.603592 41.76 31.603592 36.39121 
L 31.603592 22.725198 
Q 31.603592 17.356408 26.234802 17.356408 
L 12.56879 17.356408 
Q 7.2 17.356408 7.2 22.725198 
L 7.2 36.39121 
Q 7.2 41.76 12.56879 41.76 
z
" clip-path="url(#p1b6e06a8ed)" style="fill: #ffa703; opacity: 0.07"/>
   </g>
   <g id="patch_35">
    <path d="M 12.692924 41.76 
L 26.674913 41.76 
Q 32.167837 41.76 32.167837 36.267076 
L 32.167837 22.285087 
Q 32.167837 16.792163 26.674913 16.792163 
L 12.692924 16.792163 
Q 7.2 16.792163 7.2 22.285087 
L 7.2 36.267076 
Q 7.2 41.76 12.692924 41.76 
z
" clip-path="url(#p1b6e06a8ed)" style="fill: #ffa602; opacity: 0.07"/>
   </g>
   <g id="patch_36">
    <path d="M 12.817058 41.76 
L 27.115024 41.76 
Q 32.732082 41.76 32.732082 36.142942 
L 32.732082 21.844976 
Q 32.732082 16.227918 27.115024 16.227918 
L 12.817058 16.227918 
Q 7.2 16.227918 7.2 21.844976 
L 7.2 36.142942 
Q 7.2 41.76 12.817058 41.76 
z
" clip-path="url(#p1b6e06a8ed)" style="fill: #ffa502; opacity: 0.07"/>
   </g>
   <g id="patch_37">
    <path d="M 12.941192 41.76 
L 27.555135 41.76 
Q 33.296327 41.76 33.296327 36.018808 
L 33.296327 21.404865 
Q 33.296327 15.663673 27.555135 15.663673 
L 12.941192 15.663673 
Q 7.2 15.663673 7.2 21.404865 
L 7.2 36.018808 
Q 7.2 41.76 12.941192 41.76 
z
" clip-path="url(#p1b6e06a8ed)" style="fill: #ffa402; opacity: 0.07"/>
   </g>
   <g id="patch_38">
    <path d="M 13.065326 41.76 
L 27.995246 41.76 
Q 33.860571 41.76 33.860571 35.894674 
L 33.860571 20.964754 
Q 33.860571 15.099429 27.995246 15.099429 
L 13.065326 15.099429 
Q 7.2 15.099429 7.2 20.964754 
L 7.2 35.894674 
Q 7.2 41.76 13.065326 41.76 
z
" clip-path="url(#p1b6e06a8ed)" style="fill: #ffa402; opacity: 0.07"/>
   </g>
   <g id="patch_39">
    <path d="M 13.18946 41.76 
L 28.435357 41.76 
Q 34.424816 41.76 34.424816 35.77054 
L 34.424816 20.524643 
Q 34.424816 14.535184 28.435357 14.535184 
L 13.18946 14.535184 
Q 7.2 14.535184 7.2 20.524643 
L 7.2 35.77054 
Q 7.2 41.76 13.18946 41.76 
z
" clip-path="url(#p1b6e06a8ed)" style="fill: #ffa302; opacity: 0.07"/>
   </g>
   <g id="patch_40">
    <path d="M 13.313593 41.76 
L 28.875468 41.76 
Q 34.989061 41.76 34.989061 35.646407 
L 34.989061 20.084532 
Q 34.989061 13.970939 28.875468 13.970939 
L 13.313593 13.970939 
Q 7.2 13.970939 7.2 20.084532 
L 7.2 35.646407 
Q 7.2 41.76 13.313593 41.76 
z
" clip-path="url(#p1b6e06a8ed)" style="fill: #ffa202; opacity: 0.07"/>
   </g>
   <g id="patch_41">
    <path d="M 13.437727 41.76 
L 29.315579 41.76 
Q 35.553306 41.76 35.553306 35.522273 
L 35.553306 19.644421 
Q 35.553306 13.406694 29.315579 13.406694 
L 13.437727 13.406694 
Q 7.2 13.406694 7.2 19.644421 
L 7.2 35.522273 
Q 7.2 41.76 13.437727 41.76 
z
" clip-path="url(#p1b6e06a8ed)" style="fill: #ffa102; opacity: 0.07"/>
   </g>
   <g id="patch_42">
    <path d="M 13.561861 41.76 
L 29.75569 41.76 
Q 36.117551 41.76 36.117551 35.398139 
L 36.117551 19.20431 
Q 36.117551 12.842449 29.75569 12.842449 
L 13.561861 12.842449 
Q 7.2 12.842449 7.2 19.20431 
L 7.2 35.398139 
Q 7.2 41.76 13.561861 41.76 
z
" clip-path="url(#p1b6e06a8ed)" style="fill: #ffa001; opacity: 0.07"/>
   </g>
   <g id="patch_43">
    <path d="M 13.685995 41.76 
L 30.195801 41.76 
Q 36.681796 41.76 36.681796 35.274005 
L 36.681796 18.764199 
Q 36.681796 12.278204 30.195801 12.278204 
L 13.685995 12.278204 
Q 7.2 12.278204 7.2 18.764199 
L 7.2 35.274005 
Q 7.2 41.76 13.685995 41.76 
z
" clip-path="url(#p1b6e06a8ed)" style="fill: #ff9f01; opacity: 0.07"/>
   </g>
   <g id="patch_44">
    <path d="M 13.810129 41.76 
L 30.635912 41.76 
Q 37.246041 41.76 37.246041 35.149871 
L 37.246041 18.324088 
Q 37.246041 11.713959 30.635912 11.713959 
L 13.810129 11.713959 
Q 7.2 11.713959 7.2 18.324088 
L 7.2 35.149871 
Q 7.2 41.76 13.810129 41.76 
z
" clip-path="url(#p1b6e06a8ed)" style="fill: #ff9f01; opacity: 0.07"/>
   </g>
   <g id="patch_45">
    <path d="M 13.934263 41.76 
L 31.076023 41.76 
Q 37.810286 41.76 37.810286 35.025737 
L 37.810286 17.883977 
Q 37.810286 11.149714 31.076023 11.149714 
L 13.934263 11.149714 
Q 7.2 11.149714 7.2 17.883977 
L 7.2 35.025737 
Q 7.2 41.76 13.934263 41.76 
z
" clip-path="url(#p1b6e06a8ed)" style="fill: #ff9e01; opacity: 0.07"/>
   </g>
   <g id="patch_46">
    <path d="M 14.058397 41.76 
L 31.516134 41.76 
Q 38.374531 41.76 38.374531 34.901603 
L 38.374531 17.443866 
Q 38.374531 10.585469 31.516134 10.585469 
L 14.058397 10.585469 
Q 7.2 10.585469 7.2 17.443866 
L 7.2 34.901603 
Q 7.2 41.76 14.058397 41.76 
z
" clip-path="url(#p1b6e06a8ed)" style="fill: #ff9d01; opacity: 0.07"/>
   </g>
   <g id="patch_47">
    <path d="M 14.182531 41.76 
L 31.956245 41.76 
Q 38.938776 41.76 38.938776 34.777469 
L 38.938776 17.003755 
Q 38.938776 10.021224 31.956245 10.021224 
L 14.182531 10.021224 
Q 7.2 10.021224 7.2 17.003755 
L 7.2 34.777469 
Q 7.2 41.76 14.182531 41.76 
z
" clip-path="url(#p1b6e06a8ed)" style="fill: #ff9c01; opacity: 0.07"/>
   </g>
   <g id="patch_48">
    <path d="M 14.306664 41.76 
L 32.396356 41.76 
Q 39.50302 41.76 39.50302 34.653336 
L 39.50302 16.563644 
Q 39.50302 9.45698 32.396356 9.45698 
L 14.306664 9.45698 
Q 7.2 9.45698 7.2 16.563644 
L 7.2 34.653336 
Q 7.2 41.76 14.306664 41.76 
z
" clip-path="url(#p1b6e06a8ed)" style="fill: #ff9b01; opacity: 0.07"/>
   </g>
   <g id="patch_49">
    <path d="M 14.430798 41.76 
L 32.836467 41.76 
Q 40.067265 41.76 40.067265 34.529202 
L 40.067265 16.123533 
Q 40.067265 8.892735 32.836467 8.892735 
L 14.430798 8.892735 
Q 7.2 8.892735 7.2 16.123533 
L 7.2 34.529202 
Q 7.2 41.76 14.430798 41.76 
z
" clip-path="url(#p1b6e06a8ed)" style="fill: #ff9a00; opacity: 0.07"/>
   </g>
   <g id="patch_50">
    <path d="M 14.554932 41.76 
L 33.276578 41.76 
Q 40.63151 41.76 40.63151 34.405068 
L 40.63151 15.683422 
Q 40.63151 8.32849 33.276578 8.32849 
L 14.554932 8.32849 
Q 7.2 8.32849 7.2 15.683422 
L 7.2 34.405068 
Q 7.2 41.76 14.554932 41.76 
z
" clip-path="url(#p1b6e06a8ed)" style="fill: #ff9a00; opacity: 0.07"/>
   </g>
   <g id="patch_51">
    <path d="M 14.679066 41.76 
L 33.716689 41.76 
Q 41.195755 41.76 41.195755 34.280934 
L 41.195755 15.243311 
Q 41.195755 7.764245 33.716689 7.764245 
L 14.679066 7.764245 
Q 7.2 7.764245 7.2 15.243311 
L 7.2 34.280934 
Q 7.2 41.76 14.679066 41.76 
z
" clip-path="url(#p1b6e06a8ed)" style="fill: #ff9900; opacity: 0.07"/>
   </g>
   <g id="patch_52">
    <path d="M 14.8032 41.76 
L 34.1568 41.76 
Q 41.76 41.76 41.76 34.1568 
L 41.76 14.8032 
Q 41.76 7.2 34.1568 7.2 
L 14.8032 7.2 
Q 7.2 7.2 7.2 14.8032 
L 7.2 34.1568 
Q 7.2 41.76 14.8032 41.76 
z
" clip-path="url(#p1b6e06a8ed)" style="fill: #ff9800; opacity: 0.07"/>
   </g>
  </g>
 </g>
 <defs>
  <clipPath id="p1b6e06a8ed">
   <rect x="7.2" y="7.2" width="34.56" height="34.56"/>
  </clipPath>
 </defs>
</svg>
