<?xml version="1.0" encoding="utf-8" standalone="no"?>
<!DOCTYPE svg PUBLIC "-//W3C//DTD SVG 1.1//EN"
  "http://www.w3.org/Graphics/SVG/1.1/DTD/svg11.dtd">
<svg xmlns:xlink="http://www.w3.org/1999/xlink" width="60.48pt" height="60.48pt" viewBox="0 0 60.48 60.48" xmlns="http://www.w3.org/2000/svg" version="1.1">
 <metadata>
  <rdf:RDF xmlns:dc="http://purl.org/dc/elements/1.1/" xmlns:cc="http://creativecommons.org/ns#" xmlns:rdf="http://www.w3.org/1999/02/22-rdf-syntax-ns#">
   <cc:Work>
    <dc:type rdf:resource="http://purl.org/dc/dcmitype/StillImage"/>
    <dc:date>2025-10-07T21:53:31.295907</dc:date>
    <dc:format>image/svg+xml</dc:format>
    <dc:creator>
     <cc:Agent>
      <dc:title>Matplotlib v3.6.3, https://matplotlib.org/</dc:title>
     </cc:Agent>
    </dc:creator>
   </cc:Work>
  </rdf:RDF>
 </metadata>
 <defs>
  <style type="text/css">*{stroke-linejoin: round; stroke-linecap: butt}</style>
 </defs>
 <g id="figure_1">
  <g id="patch_1">
   <path d="M 0 60.48 
L 60.48 60.48 
L 60.48 0 
L 0 0 
z
" style="fill: #ffffff"/>
  </g>
  <g id="axes_1">
   <g id="patch_2">
    <path d="M 17.3376 53.28 
L 43.1424 53.28 
Q 53.28 53.28 53.28 43.1424 
L 53.28 17.3376 
Q 53.28 7.2 43.1424 7.2 
L 17.3376 7.2 
Q 7.2 7.2 7.2 17.3376 
L 7.2 43.1424 
Q 7.2 53.28 17.3376 53.28 
z
" clip-path="url(#pac8dafd3cf)" style="fill: #ffc107"/>
   </g>
   <g id="patch_3">
    <path d="M 9.22752 53.28 
L 14.38848 53.28 
Q 16.416 53.28 16.416 51.25248 
L 16.416 46.09152 
Q 16.416 44.064 14.38848 44.064 
L 9.22752 44.064 
Q 7.2 44.064 7.2 46.09152 
L 7.2 51.25248 
Q 7.2 53.28 9.22752 53.28 
z
" clip-path="url(#pac8dafd3cf)" style="fill: #ffc107; opacity: 0.07"/>
   </g>
   <g id="patch_4">
    <path d="M 9.393032 53.28 
L 14.975295 53.28 
Q 17.168327 53.28 17.168327 51.086968 
L 17.168327 45.504705 
Q 17.168327 43.311673 14.975295 43.311673 
L 9.393032 43.311673 
Q 7.2 43.311673 7.2 45.504705 
L 7.2 51.086968 
Q 7.2 53.28 9.393032 53.28 
z
" clip-path="url(#pac8dafd3cf)" style="fill: #ffc007; opacity: 0.07"/>
   </g>
   <g id="patch_5">
    <path d="M 9.558544 53.28 
L 15.562109 53.28 
Q 17.920653 53.28 17.920653 50.921456 
L 17.920653 44.917891 
Q 17.920653 42.559347 15.562109 42.559347 
L 9.558544 42.559347 
Q 7.2 42.559347 7.2 44.917891 
L 7.2 50.921456 
Q 7.2 53.28 9.558544 53.28 
z
" clip-path="url(#pac8dafd3cf)" style="fill: #ffbf07; opacity: 0.07"/>
   </g>
   <g id="patch_6">
    <path d="M 9.724056 53.28 
L 16.148924 53.28 
Q 18.67298 53.28 18.67298 50.755944 
L 18.67298 44.331076 
Q 18.67298 41.80702 16.148924 41.80702 
L 9.724056 41.80702 
Q 7.2 41.80702 7.2 44.331076 
L 7.2 50.755944 
Q 7.2 53.28 9.724056 53.28 
z
" clip-path="url(#pac8dafd3cf)" style="fill: #ffbe06; opacity: 0.07"/>
   </g>
   <g id="patch_7">
    <path d="M 9.889567 53.28 
L 16.735739 53.28 
Q 19.425306 53.28 19.425306 50.590433 
L 19.425306 43.744261 
Q 19.425306 41.054694 16.735739 41.054694 
L 9.889567 41.054694 
Q 7.2 41.054694 7.2 43.744261 
L 7.2 50.590433 
Q 7.2 53.28 9.889567 53.28 
z
" clip-path="url(#pac8dafd3cf)" style="fill: #ffbd06; opacity: 0.07"/>
   </g>
   <g id="patch_8">
    <path d="M 10.055079 53.28 
L 17.322553 53.28 
Q 20.177633 53.28 20.177633 50.424921 
L 20.177633 43.157447 
Q 20.177633 40.302367 17.322553 40.302367 
L 10.055079 40.302367 
Q 7.2 40.302367 7.2 43.157447 
L 7.2 50.424921 
Q 7.2 53.28 10.055079 53.28 
z
" clip-path="url(#pac8dafd3cf)" style="fill: #ffbd06; opacity: 0.07"/>
   </g>
   <g id="patch_9">
    <path d="M 10.220591 53.28 
L 17.909368 53.28 
Q 20.929959 53.28 20.929959 50.259409 
L 20.929959 42.570632 
Q 20.929959 39.550041 17.909368 39.550041 
L 10.220591 39.550041 
Q 7.2 39.550041 7.2 42.570632 
L 7.2 50.259409 
Q 7.2 53.28 10.220591 53.28 
z
" clip-path="url(#pac8dafd3cf)" style="fill: #ffbc06; opacity: 0.07"/>
   </g>
   <g id="patch_10">
    <path d="M 10.386103 53.28 
L 18.496183 53.28 
Q 21.682286 53.28 21.682286 50.093897 
L 21.682286 41.983817 
Q 21.682286 38.797714 18.496183 38.797714 
L 10.386103 38.797714 
Q 7.2 38.797714 7.2 41.983817 
L 7.2 50.093897 
Q 7.2 53.28 10.386103 53.28 
z
" clip-path="url(#pac8dafd3cf)" style="fill: #ffbb06; opacity: 0.07"/>
   </g>
   <g id="patch_11">
    <path d="M 10.551615 53.28 
L 19.082998 53.28 
Q 22.434612 53.28 22.434612 49.928385 
L 22.434612 41.397002 
Q 22.434612 38.045388 19.082998 38.045388 
L 10.551615 38.045388 
Q 7.2 38.045388 7.2 41.397002 
L 7.2 49.928385 
Q 7.2 53.28 10.551615 53.28 
z
" clip-path="url(#pac8dafd3cf)" style="fill: #ffba06; opacity: 0.07"/>
   </g>
   <g id="patch_12">
    <path d="M 10.717127 53.28 
L 19.669812 53.28 
Q 23.186939 53.28 23.186939 49.762873 
L 23.186939 40.810188 
Q 23.186939 37.293061 19.669812 37.293061 
L 10.717127 37.293061 
Q 7.2 37.293061 7.2 40.810188 
L 7.2 49.762873 
Q 7.2 53.28 10.717127 53.28 
z
" clip-path="url(#pac8dafd3cf)" style="fill: #ffb906; opacity: 0.07"/>
   </g>
   <g id="patch_13">
    <path d="M 10.882638 53.28 
L 20.256627 53.28 
Q 23.939265 53.28 23.939265 49.597362 
L 23.939265 40.223373 
Q 23.939265 36.540735 20.256627 36.540735 
L 10.882638 36.540735 
Q 7.2 36.540735 7.2 40.223373 
L 7.2 49.597362 
Q 7.2 53.28 10.882638 53.28 
z
" clip-path="url(#pac8dafd3cf)" style="fill: #ffb805; opacity: 0.07"/>
   </g>
   <g id="patch_14">
    <path d="M 11.04815 53.28 
L 20.843442 53.28 
Q 24.691592 53.28 24.691592 49.43185 
L 24.691592 39.636558 
Q 24.691592 35.788408 20.843442 35.788408 
L 11.04815 35.788408 
Q 7.2 35.788408 7.2 39.636558 
L 7.2 49.43185 
Q 7.2 53.28 11.04815 53.28 
z
" clip-path="url(#pac8dafd3cf)" style="fill: #ffb805; opacity: 0.07"/>
   </g>
   <g id="patch_15">
    <path d="M 11.213662 53.28 
L 21.430256 53.28 
Q 25.443918 53.28 25.443918 49.266338 
L 25.443918 39.049744 
Q 25.443918 35.036082 21.430256 35.036082 
L 11.213662 35.036082 
Q 7.2 35.036082 7.2 39.049744 
L 7.2 49.266338 
Q 7.2 53.28 11.213662 53.28 
z
" clip-path="url(#pac8dafd3cf)" style="fill: #ffb705; opacity: 0.07"/>
   </g>
   <g id="patch_16">
    <path d="M 11.379174 53.28 
L 22.017071 53.28 
Q 26.196245 53.28 26.196245 49.100826 
L 26.196245 38.462929 
Q 26.196245 34.283755 22.017071 34.283755 
L 11.379174 34.283755 
Q 7.2 34.283755 7.2 38.462929 
L 7.2 49.100826 
Q 7.2 53.28 11.379174 53.28 
z
" clip-path="url(#pac8dafd3cf)" style="fill: #ffb605; opacity: 0.07"/>
   </g>
   <g id="patch_17">
    <path d="M 11.544686 53.28 
L 22.603886 53.28 
Q 26.948571 53.28 26.948571 48.935314 
L 26.948571 37.876114 
Q 26.948571 33.531429 22.603886 33.531429 
L 11.544686 33.531429 
Q 7.2 33.531429 7.2 37.876114 
L 7.2 48.935314 
Q 7.2 53.28 11.544686 53.28 
z
" clip-path="url(#pac8dafd3cf)" style="fill: #ffb505; opacity: 0.07"/>
   </g>
   <g id="patch_18">
    <path d="M 11.710198 53.28 
L 23.1907 53.28 
Q 27.700898 53.28 27.700898 48.769802 
L 27.700898 37.2893 
Q 27.700898 32.779102 23.1907 32.779102 
L 11.710198 32.779102 
Q 7.2 32.779102 7.2 37.2893 
L 7.2 48.769802 
Q 7.2 53.28 11.710198 53.28 
z
" clip-path="url(#pac8dafd3cf)" style="fill: #ffb405; opacity: 0.07"/>
   </g>
   <g id="patch_19">
    <path d="M 11.875709 53.28 
L 23.777515 53.28 
Q 28.453224 53.28 28.453224 48.604291 
L 28.453224 36.702485 
Q 28.453224 32.026776 23.777515 32.026776 
L 11.875709 32.026776 
Q 7.2 32.026776 7.2 36.702485 
L 7.2 48.604291 
Q 7.2 53.28 11.875709 53.28 
z
" clip-path="url(#pac8dafd3cf)" style="fill: #ffb305; opacity: 0.07"/>
   </g>
   <g id="patch_20">
    <path d="M 12.041221 53.28 
L 24.36433 53.28 
Q 29.205551 53.28 29.205551 48.438779 
L 29.205551 36.11567 
Q 29.205551 31.274449 24.36433 31.274449 
L 12.041221 31.274449 
Q 7.2 31.274449 7.2 36.11567 
L 7.2 48.438779 
Q 7.2 53.28 12.041221 53.28 
z
" clip-path="url(#pac8dafd3cf)" style="fill: #ffb304; opacity: 0.07"/>
   </g>
   <g id="patch_21">
    <path d="M 12.206733 53.28 
L 24.951144 53.28 
Q 29.957878 53.28 29.957878 48.273267 
L 29.957878 35.528856 
Q 29.957878 30.522122 24.951144 30.522122 
L 12.206733 30.522122 
Q 7.2 30.522122 7.2 35.528856 
L 7.2 48.273267 
Q 7.2 53.28 12.206733 53.28 
z
" clip-path="url(#pac8dafd3cf)" style="fill: #ffb204; opacity: 0.07"/>
   </g>
   <g id="patch_22">
    <path d="M 12.372245 53.28 
L 25.537959 53.28 
Q 30.710204 53.28 30.710204 48.107755 
L 30.710204 34.942041 
Q 30.710204 29.769796 25.537959 29.769796 
L 12.372245 29.769796 
Q 7.2 29.769796 7.2 34.942041 
L 7.2 48.107755 
Q 7.2 53.28 12.372245 53.28 
z
" clip-path="url(#pac8dafd3cf)" style="fill: #ffb104; opacity: 0.07"/>
   </g>
   <g id="patch_23">
    <path d="M 12.537757 53.28 
L 26.124774 53.28 
Q 31.462531 53.28 31.462531 47.942243 
L 31.462531 34.355226 
Q 31.462531 29.017469 26.124774 29.017469 
L 12.537757 29.017469 
Q 7.2 29.017469 7.2 34.355226 
L 7.2 47.942243 
Q 7.2 53.28 12.537757 53.28 
z
" clip-path="url(#pac8dafd3cf)" style="fill: #ffb004; opacity: 0.07"/>
   </g>
   <g id="patch_24">
    <path d="M 12.703269 53.28 
L 26.711589 53.28 
Q 32.214857 53.28 32.214857 47.776731 
L 32.214857 33.768411 
Q 32.214857 28.265143 26.711589 28.265143 
L 12.703269 28.265143 
Q 7.2 28.265143 7.2 33.768411 
L 7.2 47.776731 
Q 7.2 53.28 12.703269 53.28 
z
" clip-path="url(#pac8dafd3cf)" style="fill: #ffaf04; opacity: 0.07"/>
   </g>
   <g id="patch_25">
    <path d="M 12.86878 53.28 
L 27.298403 53.28 
Q 32.967184 53.28 32.967184 47.61122 
L 32.967184 33.181597 
Q 32.967184 27.512816 27.298403 27.512816 
L 12.86878 27.512816 
Q 7.2 27.512816 7.2 33.181597 
L 7.2 47.61122 
Q 7.2 53.28 12.86878 53.28 
z
" clip-path="url(#pac8dafd3cf)" style="fill: #ffae04; opacity: 0.07"/>
   </g>
   <g id="patch_26">
    <path d="M 13.034292 53.28 
L 27.885218 53.28 
Q 33.71951 53.28 33.71951 47.445708 
L 33.71951 32.594782 
Q 33.71951 26.76049 27.885218 26.76049 
L 13.034292 26.76049 
Q 7.2 26.76049 7.2 32.594782 
L 7.2 47.445708 
Q 7.2 53.28 13.034292 53.28 
z
" clip-path="url(#pac8dafd3cf)" style="fill: #ffae04; opacity: 0.07"/>
   </g>
   <g id="patch_27">
    <path d="M 13.199804 53.28 
L 28.472033 53.28 
Q 34.471837 53.28 34.471837 47.280196 
L 34.471837 32.007967 
Q 34.471837 26.008163 28.472033 26.008163 
L 13.199804 26.008163 
Q 7.2 26.008163 7.2 32.007967 
L 7.2 47.280196 
Q 7.2 53.28 13.199804 53.28 
z
" clip-path="url(#pac8dafd3cf)" style="fill: #ffad04; opacity: 0.07"/>
   </g>
   <g id="patch_28">
    <path d="M 13.365316 53.28 
L 29.058847 53.28 
Q 35.224163 53.28 35.224163 47.114684 
L 35.224163 31.421153 
Q 35.224163 25.255837 29.058847 25.255837 
L 13.365316 25.255837 
Q 7.2 25.255837 7.2 31.421153 
L 7.2 47.114684 
Q 7.2 53.28 13.365316 53.28 
z
" clip-path="url(#pac8dafd3cf)" style="fill: #ffac03; opacity: 0.07"/>
   </g>
   <g id="patch_29">
    <path d="M 13.530828 53.28 
L 29.645662 53.28 
Q 35.97649 53.28 35.97649 46.949172 
L 35.97649 30.834338 
Q 35.97649 24.50351 29.645662 24.50351 
L 13.530828 24.50351 
Q 7.2 24.50351 7.2 30.834338 
L 7.2 46.949172 
Q 7.2 53.28 13.530828 53.28 
z
" clip-path="url(#pac8dafd3cf)" style="fill: #ffab03; opacity: 0.07"/>
   </g>
   <g id="patch_30">
    <path d="M 13.69634 53.28 
L 30.232477 53.28 
Q 36.728816 53.28 36.728816 46.78366 
L 36.728816 30.247523 
Q 36.728816 23.751184 30.232477 23.751184 
L 13.69634 23.751184 
Q 7.2 23.751184 7.2 30.247523 
L 7.2 46.78366 
Q 7.2 53.28 13.69634 53.28 
z
" clip-path="url(#pac8dafd3cf)" style="fill: #ffaa03; opacity: 0.07"/>
   </g>
   <g id="patch_31">
    <path d="M 13.861851 53.28 
L 30.819291 53.28 
Q 37.481143 53.28 37.481143 46.618149 
L 37.481143 29.660709 
Q 37.481143 22.998857 30.819291 22.998857 
L 13.861851 22.998857 
Q 7.2 22.998857 7.2 29.660709 
L 7.2 46.618149 
Q 7.2 53.28 13.861851 53.28 
z
" clip-path="url(#pac8dafd3cf)" style="fill: #ffa903; opacity: 0.07"/>
   </g>
   <g id="patch_32">
    <path d="M 14.027363 53.28 
L 31.406106 53.28 
Q 38.233469 53.28 38.233469 46.452637 
L 38.233469 29.073894 
Q 38.233469 22.246531 31.406106 22.246531 
L 14.027363 22.246531 
Q 7.2 22.246531 7.2 29.073894 
L 7.2 46.452637 
Q 7.2 53.28 14.027363 53.28 
z
" clip-path="url(#pac8dafd3cf)" style="fill: #ffa903; opacity: 0.07"/>
   </g>
   <g id="patch_33">
    <path d="M 14.192875 53.28 
L 31.992921 53.28 
Q 38.985796 53.28 38.985796 46.287125 
L 38.985796 28.487079 
Q 38.985796 21.494204 31.992921 21.494204 
L 14.192875 21.494204 
Q 7.2 21.494204 7.2 28.487079 
L 7.2 46.287125 
Q 7.2 53.28 14.192875 53.28 
z
" clip-path="url(#pac8dafd3cf)" style="fill: #ffa803; opacity: 0.07"/>
   </g>
   <g id="patch_34">
    <path d="M 14.358387 53.28 
L 32.579736 53.28 
Q 39.738122 53.28 39.738122 46.121613 
L 39.738122 27.900264 
Q 39.738122 20.741878 32.579736 20.741878 
L 14.358387 20.741878 
Q 7.2 20.741878 7.2 27.900264 
L 7.2 46.121613 
Q 7.2 53.28 14.358387 53.28 
z
" clip-path="url(#pac8dafd3cf)" style="fill: #ffa703; opacity: 0.07"/>
   </g>
   <g id="patch_35">
    <path d="M 14.523899 53.28 
L 33.16655 53.28 
Q 40.490449 53.28 40.490449 45.956101 
L 40.490449 27.31345 
Q 40.490449 19.989551 33.16655 19.989551 
L 14.523899 19.989551 
Q 7.2 19.989551 7.2 27.31345 
L 7.2 45.956101 
Q 7.2 53.28 14.523899 53.28 
z
" clip-path="url(#pac8dafd3cf)" style="fill: #ffa602; opacity: 0.07"/>
   </g>
   <g id="patch_36">
    <path d="M 14.689411 53.28 
L 33.753365 53.28 
Q 41.242776 53.28 41.242776 45.790589 
L 41.242776 26.726635 
Q 41.242776 19.237224 33.753365 19.237224 
L 14.689411 19.237224 
Q 7.2 19.237224 7.2 26.726635 
L 7.2 45.790589 
Q 7.2 53.28 14.689411 53.28 
z
" clip-path="url(#pac8dafd3cf)" style="fill: #ffa502; opacity: 0.07"/>
   </g>
   <g id="patch_37">
    <path d="M 14.854922 53.28 
L 34.34018 53.28 
Q 41.995102 53.28 41.995102 45.625078 
L 41.995102 26.13982 
Q 41.995102 18.484898 34.34018 18.484898 
L 14.854922 18.484898 
Q 7.2 18.484898 7.2 26.13982 
L 7.2 45.625078 
Q 7.2 53.28 14.854922 53.28 
z
" clip-path="url(#pac8dafd3cf)" style="fill: #ffa402; opacity: 0.07"/>
   </g>
   <g id="patch_38">
    <path d="M 15.020434 53.28 
L 34.926994 53.28 
Q 42.747429 53.28 42.747429 45.459566 
L 42.747429 25.553006 
Q 42.747429 17.732571 34.926994 17.732571 
L 15.020434 17.732571 
Q 7.2 17.732571 7.2 25.553006 
L 7.2 45.459566 
Q 7.2 53.28 15.020434 53.28 
z
" clip-path="url(#pac8dafd3cf)" style="fill: #ffa402; opacity: 0.07"/>
   </g>
   <g id="patch_39">
    <path d="M 15.185946 53.28 
L 35.513809 53.28 
Q 43.499755 53.28 43.499755 45.294054 
L 43.499755 24.966191 
Q 43.499755 16.980245 35.513809 16.980245 
L 15.185946 16.980245 
Q 7.2 16.980245 7.2 24.966191 
L 7.2 45.294054 
Q 7.2 53.28 15.185946 53.28 
z
" clip-path="url(#pac8dafd3cf)" style="fill: #ffa302; opacity: 0.07"/>
   </g>
   <g id="patch_40">
    <path d="M 15.351458 53.28 
L 36.100624 53.28 
Q 44.252082 53.28 44.252082 45.128542 
L 44.252082 24.379376 
Q 44.252082 16.227918 36.100624 16.227918 
L 15.351458 16.227918 
Q 7.2 16.227918 7.2 24.379376 
L 7.2 45.128542 
Q 7.2 53.28 15.351458 53.28 
z
" clip-path="url(#pac8dafd3cf)" style="fill: #ffa202; opacity: 0.07"/>
   </g>
   <g id="patch_41">
    <path d="M 15.51697 53.28 
L 36.687438 53.28 
Q 45.004408 53.28 45.004408 44.96303 
L 45.004408 23.792562 
Q 45.004408 15.475592 36.687438 15.475592 
L 15.51697 15.475592 
Q 7.2 15.475592 7.2 23.792562 
L 7.2 44.96303 
Q 7.2 53.28 15.51697 53.28 
z
" clip-path="url(#pac8dafd3cf)" style="fill: #ffa102; opacity: 0.07"/>
   </g>
   <g id="patch_42">
    <path d="M 15.682482 53.28 
L 37.274253 53.28 
Q 45.756735 53.28 45.756735 44.797518 
L 45.756735 23.205747 
Q 45.756735 14.723265 37.274253 14.723265 
L 15.682482 14.723265 
Q 7.2 14.723265 7.2 23.205747 
L 7.2 44.797518 
Q 7.2 53.28 15.682482 53.28 
z
" clip-path="url(#pac8dafd3cf)" style="fill: #ffa001; opacity: 0.07"/>
   </g>
   <g id="patch_43">
    <path d="M 15.847993 53.28 
L 37.861068 53.28 
Q 46.509061 53.28 46.509061 44.632007 
L 46.509061 22.618932 
Q 46.509061 13.970939 37.861068 13.970939 
L 15.847993 13.970939 
Q 7.2 13.970939 7.2 22.618932 
L 7.2 44.632007 
Q 7.2 53.28 15.847993 53.28 
z
" clip-path="url(#pac8dafd3cf)" style="fill: #ff9f01; opacity: 0.07"/>
   </g>
   <g id="patch_44">
    <path d="M 16.013505 53.28 
L 38.447882 53.28 
Q 47.261388 53.28 47.261388 44.466495 
L 47.261388 22.032118 
Q 47.261388 13.218612 38.447882 13.218612 
L 16.013505 13.218612 
Q 7.2 13.218612 7.2 22.032118 
L 7.2 44.466495 
Q 7.2 53.28 16.013505 53.28 
z
" clip-path="url(#pac8dafd3cf)" style="fill: #ff9f01; opacity: 0.07"/>
   </g>
   <g id="patch_45">
    <path d="M 16.179017 53.28 
L 39.034697 53.28 
Q 48.013714 53.28 48.013714 44.300983 
L 48.013714 21.445303 
Q 48.013714 12.466286 39.034697 12.466286 
L 16.179017 12.466286 
Q 7.2 12.466286 7.2 21.445303 
L 7.2 44.300983 
Q 7.2 53.28 16.179017 53.28 
z
" clip-path="url(#pac8dafd3cf)" style="fill: #ff9e01; opacity: 0.07"/>
   </g>
   <g id="patch_46">
    <path d="M 16.344529 53.28 
L 39.621512 53.28 
Q 48.766041 53.28 48.766041 44.135471 
L 48.766041 20.858488 
Q 48.766041 11.713959 39.621512 11.713959 
L 16.344529 11.713959 
Q 7.2 11.713959 7.2 20.858488 
L 7.2 44.135471 
Q 7.2 53.28 16.344529 53.28 
z
" clip-path="url(#pac8dafd3cf)" style="fill: #ff9d01; opacity: 0.07"/>
   </g>
   <g id="patch_47">
    <path d="M 16.510041 53.28 
L 40.208327 53.28 
Q 49.518367 53.28 49.518367 43.969959 
L 49.518367 20.271673 
Q 49.518367 10.961633 40.208327 10.961633 
L 16.510041 10.961633 
Q 7.2 10.961633 7.2 20.271673 
L 7.2 43.969959 
Q 7.2 53.28 16.510041 53.28 
z
" clip-path="url(#pac8dafd3cf)" style="fill: #ff9c01; opacity: 0.07"/>
   </g>
   <g id="patch_48">
    <path d="M 16.675553 53.28 
L 40.795141 53.28 
Q 50.270694 53.28 50.270694 43.804447 
L 50.270694 19.684859 
Q 50.270694 10.209306 40.795141 10.209306 
L 16.675553 10.209306 
Q 7.2 10.209306 7.2 19.684859 
L 7.2 43.804447 
Q 7.2 53.28 16.675553 53.28 
z
" clip-path="url(#pac8dafd3cf)" style="fill: #ff9b01; opacity: 0.07"/>
   </g>
   <g id="patch_49">
    <path d="M 16.841064 53.28 
L 41.381956 53.28 
Q 51.02302 53.28 51.02302 43.638936 
L 51.02302 19.098044 
Q 51.02302 9.45698 41.381956 9.45698 
L 16.841064 9.45698 
Q 7.2 9.45698 7.2 19.098044 
L 7.2 43.638936 
Q 7.2 53.28 16.841064 53.28 
z
" clip-path="url(#pac8dafd3cf)" style="fill: #ff9a00; opacity: 0.07"/>
   </g>
   <g id="patch_50">
    <path d="M 17.006576 53.28 
L 41.968771 53.28 
Q 51.775347 53.28 51.775347 43.473424 
L 51.775347 18.511229 
Q 51.775347 8.704653 41.968771 8.704653 
L 17.006576 8.704653 
Q 7.2 8.704653 7.2 18.511229 
L 7.2 43.473424 
Q 7.2 53.28 17.006576 53.28 
z
" clip-path="url(#pac8dafd3cf)" style="fill: #ff9a00; opacity: 0.07"/>
   </g>
   <g id="patch_51">
    <path d="M 17.172088 53.28 
L 42.555585 53.28 
Q 52.527673 53.28 52.527673 43.307912 
L 52.527673 17.924415 
Q 52.527673 7.952327 42.555585 7.952327 
L 17.172088 7.952327 
Q 7.2 7.952327 7.2 17.924415 
L 7.2 43.307912 
Q 7.2 53.28 17.172088 53.28 
z
" clip-path="url(#pac8dafd3cf)" style="fill: #ff9900; opacity: 0.07"/>
   </g>
   <g id="patch_52">
    <path d="M 17.3376 53.28 
L 43.1424 53.28 
Q 53.28 53.28 53.28 43.1424 
L 53.28 17.3376 
Q 53.28 7.2 43.1424 7.2 
L 17.3376 7.2 
Q 7.2 7.2 7.2 17.3376 
L 7.2 43.1424 
Q 7.2 53.28 17.3376 53.28 
z
" clip-path="url(#pac8dafd3cf)" style="fill: #ff9800; opacity: 0.07"/>
   </g>
  </g>
 </g>
 <defs>
  <clipPath id="pac8dafd3cf">
   <rect x="7.2" y="7.2" width="46.08" height="46.08"/>
  </clipPath>
 </defs>
</svg>
