<?xml version="1.0" encoding="utf-8" standalone="no"?>
<!DOCTYPE svg PUBLIC "-//W3C//DTD SVG 1.1//EN"
  "http://www.w3.org/Graphics/SVG/1.1/DTD/svg11.dtd">
<svg xmlns:xlink="http://www.w3.org/1999/xlink" width="28.32pt" height="28.32pt" viewBox="0 0 28.32 28.32" xmlns="http://www.w3.org/2000/svg" version="1.1">
 <metadata>
  <rdf:RDF xmlns:dc="http://purl.org/dc/elements/1.1/" xmlns:cc="http://creativecommons.org/ns#" xmlns:rdf="http://www.w3.org/1999/02/22-rdf-syntax-ns#">
   <cc:Work>
    <dc:type rdf:resource="http://purl.org/dc/dcmitype/StillImage"/>
    <dc:date>2025-10-07T21:53:28.020108</dc:date>
    <dc:format>image/svg+xml</dc:format>
    <dc:creator>
     <cc:Agent>
      <dc:title>Matplotlib v3.6.3, https://matplotlib.org/</dc:title>
     </cc:Agent>
    </dc:creator>
   </cc:Work>
  </rdf:RDF>
 </metadata>
 <defs>
  <style type="text/css">*{stroke-linejoin: round; stroke-linecap: butt}</style>
 </defs>
 <g id="figure_1">
  <g id="patch_1">
   <path d="M -0 28.32 
L 28.32 28.32 
L 28.32 0 
L -0 0 
z
" style="fill: #ffffff"/>
  </g>
  <g id="axes_1">
   <g id="patch_2">
    <path d="M 10.2624 21.12 
L 18.0576 21.12 
Q 21.12 21.12 21.12 18.0576 
L 21.12 10.2624 
Q 21.12 7.2 18.0576 7.2 
L 10.2624 7.2 
Q 7.2 7.2 7.2 10.2624 
L 7.2 18.0576 
Q 7.2 21.12 10.2624 21.12 
z
" clip-path="url(#p8ac0043a60)" style="fill: #ffc107"/>
   </g>
   <g id="patch_3">
    <path d="M 7.81248 21.12 
L 9.37152 21.12 
Q 9.984 21.12 9.984 20.50752 
L 9.984 18.94848 
Q 9.984 18.336 9.37152 18.336 
L 7.81248 18.336 
Q 7.2 18.336 7.2 18.94848 
L 7.2 20.50752 
Q 7.2 21.12 7.81248 21.12 
z
" clip-path="url(#p8ac0043a60)" style="fill: #ffc107; opacity: 0.07"/>
   </g>
   <g id="patch_4">
    <path d="M 7.862478 21.12 
L 9.548787 21.12 
Q 10.211265 21.12 10.211265 20.457522 
L 10.211265 18.771213 
Q 10.211265 18.108735 9.548787 18.108735 
L 7.862478 18.108735 
Q 7.2 18.108735 7.2 18.771213 
L 7.2 20.457522 
Q 7.2 21.12 7.862478 21.12 
z
" clip-path="url(#p8ac0043a60)" style="fill: #ffc007; opacity: 0.07"/>
   </g>
   <g id="patch_5">
    <path d="M 7.912477 21.12 
L 9.726054 21.12 
Q 10.438531 21.12 10.438531 20.407523 
L 10.438531 18.593946 
Q 10.438531 17.881469 9.726054 17.881469 
L 7.912477 17.881469 
Q 7.2 17.881469 7.2 18.593946 
L 7.2 20.407523 
Q 7.2 21.12 7.912477 21.12 
z
" clip-path="url(#p8ac0043a60)" style="fill: #ffbf07; opacity: 0.07"/>
   </g>
   <g id="patch_6">
    <path d="M 7.962475 21.12 
L 9.903321 21.12 
Q 10.665796 21.12 10.665796 20.357525 
L 10.665796 18.416679 
Q 10.665796 17.654204 9.903321 17.654204 
L 7.962475 17.654204 
Q 7.2 17.654204 7.2 18.416679 
L 7.2 20.357525 
Q 7.2 21.12 7.962475 21.12 
z
" clip-path="url(#p8ac0043a60)" style="fill: #ffbe06; opacity: 0.07"/>
   </g>
   <g id="patch_7">
    <path d="M 8.012473 21.12 
L 10.080588 21.12 
Q 10.893061 21.12 10.893061 20.307527 
L 10.893061 18.239412 
Q 10.893061 17.426939 10.080588 17.426939 
L 8.012473 17.426939 
Q 7.2 17.426939 7.2 18.239412 
L 7.2 20.307527 
Q 7.2 21.12 8.012473 21.12 
z
" clip-path="url(#p8ac0043a60)" style="fill: #ffbd06; opacity: 0.07"/>
   </g>
   <g id="patch_8">
    <path d="M 8.062472 21.12 
L 10.257855 21.12 
Q 11.120327 21.12 11.120327 20.257528 
L 11.120327 18.062145 
Q 11.120327 17.199673 10.257855 17.199673 
L 8.062472 17.199673 
Q 7.2 17.199673 7.2 18.062145 
L 7.2 20.257528 
Q 7.2 21.12 8.062472 21.12 
z
" clip-path="url(#p8ac0043a60)" style="fill: #ffbd06; opacity: 0.07"/>
   </g>
   <g id="patch_9">
    <path d="M 8.11247 21.12 
L 10.435122 21.12 
Q 11.347592 21.12 11.347592 20.20753 
L 11.347592 17.884878 
Q 11.347592 16.972408 10.435122 16.972408 
L 8.11247 16.972408 
Q 7.2 16.972408 7.2 17.884878 
L 7.2 20.20753 
Q 7.2 21.12 8.11247 21.12 
z
" clip-path="url(#p8ac0043a60)" style="fill: #ffbc06; opacity: 0.07"/>
   </g>
   <g id="patch_10">
    <path d="M 8.162469 21.12 
L 10.612389 21.12 
Q 11.574857 21.12 11.574857 20.157531 
L 11.574857 17.707611 
Q 11.574857 16.745143 10.612389 16.745143 
L 8.162469 16.745143 
Q 7.2 16.745143 7.2 17.707611 
L 7.2 20.157531 
Q 7.2 21.12 8.162469 21.12 
z
" clip-path="url(#p8ac0043a60)" style="fill: #ffbb06; opacity: 0.07"/>
   </g>
   <g id="patch_11">
    <path d="M 8.212467 21.12 
L 10.789656 21.12 
Q 11.802122 21.12 11.802122 20.107533 
L 11.802122 17.530344 
Q 11.802122 16.517878 10.789656 16.517878 
L 8.212467 16.517878 
Q 7.2 16.517878 7.2 17.530344 
L 7.2 20.107533 
Q 7.2 21.12 8.212467 21.12 
z
" clip-path="url(#p8ac0043a60)" style="fill: #ffba06; opacity: 0.07"/>
   </g>
   <g id="patch_12">
    <path d="M 8.262465 21.12 
L 10.966922 21.12 
Q 12.029388 21.12 12.029388 20.057535 
L 12.029388 17.353078 
Q 12.029388 16.290612 10.966922 16.290612 
L 8.262465 16.290612 
Q 7.2 16.290612 7.2 17.353078 
L 7.2 20.057535 
Q 7.2 21.12 8.262465 21.12 
z
" clip-path="url(#p8ac0043a60)" style="fill: #ffb906; opacity: 0.07"/>
   </g>
   <g id="patch_13">
    <path d="M 8.312464 21.12 
L 11.144189 21.12 
Q 12.256653 21.12 12.256653 20.007536 
L 12.256653 17.175811 
Q 12.256653 16.063347 11.144189 16.063347 
L 8.312464 16.063347 
Q 7.2 16.063347 7.2 17.175811 
L 7.2 20.007536 
Q 7.2 21.12 8.312464 21.12 
z
" clip-path="url(#p8ac0043a60)" style="fill: #ffb805; opacity: 0.07"/>
   </g>
   <g id="patch_14">
    <path d="M 8.362462 21.12 
L 11.321456 21.12 
Q 12.483918 21.12 12.483918 19.957538 
L 12.483918 16.998544 
Q 12.483918 15.836082 11.321456 15.836082 
L 8.362462 15.836082 
Q 7.2 15.836082 7.2 16.998544 
L 7.2 19.957538 
Q 7.2 21.12 8.362462 21.12 
z
" clip-path="url(#p8ac0043a60)" style="fill: #ffb805; opacity: 0.07"/>
   </g>
   <g id="patch_15">
    <path d="M 8.41246 21.12 
L 11.498723 21.12 
Q 12.711184 21.12 12.711184 19.90754 
L 12.711184 16.821277 
Q 12.711184 15.608816 11.498723 15.608816 
L 8.41246 15.608816 
Q 7.2 15.608816 7.2 16.821277 
L 7.2 19.90754 
Q 7.2 21.12 8.41246 21.12 
z
" clip-path="url(#p8ac0043a60)" style="fill: #ffb705; opacity: 0.07"/>
   </g>
   <g id="patch_16">
    <path d="M 8.462459 21.12 
L 11.67599 21.12 
Q 12.938449 21.12 12.938449 19.857541 
L 12.938449 16.64401 
Q 12.938449 15.381551 11.67599 15.381551 
L 8.462459 15.381551 
Q 7.2 15.381551 7.2 16.64401 
L 7.2 19.857541 
Q 7.2 21.12 8.462459 21.12 
z
" clip-path="url(#p8ac0043a60)" style="fill: #ffb605; opacity: 0.07"/>
   </g>
   <g id="patch_17">
    <path d="M 8.512457 21.12 
L 11.853257 21.12 
Q 13.165714 21.12 13.165714 19.807543 
L 13.165714 16.466743 
Q 13.165714 15.154286 11.853257 15.154286 
L 8.512457 15.154286 
Q 7.2 15.154286 7.2 16.466743 
L 7.2 19.807543 
Q 7.2 21.12 8.512457 21.12 
z
" clip-path="url(#p8ac0043a60)" style="fill: #ffb505; opacity: 0.07"/>
   </g>
   <g id="patch_18">
    <path d="M 8.562456 21.12 
L 12.030524 21.12 
Q 13.39298 21.12 13.39298 19.757544 
L 13.39298 16.289476 
Q 13.39298 14.92702 12.030524 14.92702 
L 8.562456 14.92702 
Q 7.2 14.92702 7.2 16.289476 
L 7.2 19.757544 
Q 7.2 21.12 8.562456 21.12 
z
" clip-path="url(#p8ac0043a60)" style="fill: #ffb405; opacity: 0.07"/>
   </g>
   <g id="patch_19">
    <path d="M 8.612454 21.12 
L 12.207791 21.12 
Q 13.620245 21.12 13.620245 19.707546 
L 13.620245 16.112209 
Q 13.620245 14.699755 12.207791 14.699755 
L 8.612454 14.699755 
Q 7.2 14.699755 7.2 16.112209 
L 7.2 19.707546 
Q 7.2 21.12 8.612454 21.12 
z
" clip-path="url(#p8ac0043a60)" style="fill: #ffb305; opacity: 0.07"/>
   </g>
   <g id="patch_20">
    <path d="M 8.662452 21.12 
L 12.385058 21.12 
Q 13.84751 21.12 13.84751 19.657548 
L 13.84751 15.934942 
Q 13.84751 14.47249 12.385058 14.47249 
L 8.662452 14.47249 
Q 7.2 14.47249 7.2 15.934942 
L 7.2 19.657548 
Q 7.2 21.12 8.662452 21.12 
z
" clip-path="url(#p8ac0043a60)" style="fill: #ffb304; opacity: 0.07"/>
   </g>
   <g id="patch_21">
    <path d="M 8.712451 21.12 
L 12.562325 21.12 
Q 14.074776 21.12 14.074776 19.607549 
L 14.074776 15.757675 
Q 14.074776 14.245224 12.562325 14.245224 
L 8.712451 14.245224 
Q 7.2 14.245224 7.2 15.757675 
L 7.2 19.607549 
Q 7.2 21.12 8.712451 21.12 
z
" clip-path="url(#p8ac0043a60)" style="fill: #ffb204; opacity: 0.07"/>
   </g>
   <g id="patch_22">
    <path d="M 8.762449 21.12 
L 12.739592 21.12 
Q 14.302041 21.12 14.302041 19.557551 
L 14.302041 15.580408 
Q 14.302041 14.017959 12.739592 14.017959 
L 8.762449 14.017959 
Q 7.2 14.017959 7.2 15.580408 
L 7.2 19.557551 
Q 7.2 21.12 8.762449 21.12 
z
" clip-path="url(#p8ac0043a60)" style="fill: #ffb104; opacity: 0.07"/>
   </g>
   <g id="patch_23">
    <path d="M 8.812447 21.12 
L 12.916859 21.12 
Q 14.529306 21.12 14.529306 19.507553 
L 14.529306 15.403141 
Q 14.529306 13.790694 12.916859 13.790694 
L 8.812447 13.790694 
Q 7.2 13.790694 7.2 15.403141 
L 7.2 19.507553 
Q 7.2 21.12 8.812447 21.12 
z
" clip-path="url(#p8ac0043a60)" style="fill: #ffb004; opacity: 0.07"/>
   </g>
   <g id="patch_24">
    <path d="M 8.862446 21.12 
L 13.094126 21.12 
Q 14.756571 21.12 14.756571 19.457554 
L 14.756571 15.225874 
Q 14.756571 13.563429 13.094126 13.563429 
L 8.862446 13.563429 
Q 7.2 13.563429 7.2 15.225874 
L 7.2 19.457554 
Q 7.2 21.12 8.862446 21.12 
z
" clip-path="url(#p8ac0043a60)" style="fill: #ffaf04; opacity: 0.07"/>
   </g>
   <g id="patch_25">
    <path d="M 8.912444 21.12 
L 13.271393 21.12 
Q 14.983837 21.12 14.983837 19.407556 
L 14.983837 15.048607 
Q 14.983837 13.336163 13.271393 13.336163 
L 8.912444 13.336163 
Q 7.2 13.336163 7.2 15.048607 
L 7.2 19.407556 
Q 7.2 21.12 8.912444 21.12 
z
" clip-path="url(#p8ac0043a60)" style="fill: #ffae04; opacity: 0.07"/>
   </g>
   <g id="patch_26">
    <path d="M 8.962442 21.12 
L 13.44866 21.12 
Q 15.211102 21.12 15.211102 19.357558 
L 15.211102 14.87134 
Q 15.211102 13.108898 13.44866 13.108898 
L 8.962442 13.108898 
Q 7.2 13.108898 7.2 14.87134 
L 7.2 19.357558 
Q 7.2 21.12 8.962442 21.12 
z
" clip-path="url(#p8ac0043a60)" style="fill: #ffae04; opacity: 0.07"/>
   </g>
   <g id="patch_27">
    <path d="M 9.012441 21.12 
L 13.625927 21.12 
Q 15.438367 21.12 15.438367 19.307559 
L 15.438367 14.694073 
Q 15.438367 12.881633 13.625927 12.881633 
L 9.012441 12.881633 
Q 7.2 12.881633 7.2 14.694073 
L 7.2 19.307559 
Q 7.2 21.12 9.012441 21.12 
z
" clip-path="url(#p8ac0043a60)" style="fill: #ffad04; opacity: 0.07"/>
   </g>
   <g id="patch_28">
    <path d="M 9.062439 21.12 
L 13.803193 21.12 
Q 15.665633 21.12 15.665633 19.257561 
L 15.665633 14.516807 
Q 15.665633 12.654367 13.803193 12.654367 
L 9.062439 12.654367 
Q 7.2 12.654367 7.2 14.516807 
L 7.2 19.257561 
Q 7.2 21.12 9.062439 21.12 
z
" clip-path="url(#p8ac0043a60)" style="fill: #ffac03; opacity: 0.07"/>
   </g>
   <g id="patch_29">
    <path d="M 9.112438 21.12 
L 13.98046 21.12 
Q 15.892898 21.12 15.892898 19.207562 
L 15.892898 14.33954 
Q 15.892898 12.427102 13.98046 12.427102 
L 9.112438 12.427102 
Q 7.2 12.427102 7.2 14.33954 
L 7.2 19.207562 
Q 7.2 21.12 9.112438 21.12 
z
" clip-path="url(#p8ac0043a60)" style="fill: #ffab03; opacity: 0.07"/>
   </g>
   <g id="patch_30">
    <path d="M 9.162436 21.12 
L 14.157727 21.12 
Q 16.120163 21.12 16.120163 19.157564 
L 16.120163 14.162273 
Q 16.120163 12.199837 14.157727 12.199837 
L 9.162436 12.199837 
Q 7.2 12.199837 7.2 14.162273 
L 7.2 19.157564 
Q 7.2 21.12 9.162436 21.12 
z
" clip-path="url(#p8ac0043a60)" style="fill: #ffaa03; opacity: 0.07"/>
   </g>
   <g id="patch_31">
    <path d="M 9.212434 21.12 
L 14.334994 21.12 
Q 16.347429 21.12 16.347429 19.107566 
L 16.347429 13.985006 
Q 16.347429 11.972571 14.334994 11.972571 
L 9.212434 11.972571 
Q 7.2 11.972571 7.2 13.985006 
L 7.2 19.107566 
Q 7.2 21.12 9.212434 21.12 
z
" clip-path="url(#p8ac0043a60)" style="fill: #ffa903; opacity: 0.07"/>
   </g>
   <g id="patch_32">
    <path d="M 9.262433 21.12 
L 14.512261 21.12 
Q 16.574694 21.12 16.574694 19.057567 
L 16.574694 13.807739 
Q 16.574694 11.745306 14.512261 11.745306 
L 9.262433 11.745306 
Q 7.2 11.745306 7.2 13.807739 
L 7.2 19.057567 
Q 7.2 21.12 9.262433 21.12 
z
" clip-path="url(#p8ac0043a60)" style="fill: #ffa903; opacity: 0.07"/>
   </g>
   <g id="patch_33">
    <path d="M 9.312431 21.12 
L 14.689528 21.12 
Q 16.801959 21.12 16.801959 19.007569 
L 16.801959 13.630472 
Q 16.801959 11.518041 14.689528 11.518041 
L 9.312431 11.518041 
Q 7.2 11.518041 7.2 13.630472 
L 7.2 19.007569 
Q 7.2 21.12 9.312431 21.12 
z
" clip-path="url(#p8ac0043a60)" style="fill: #ffa803; opacity: 0.07"/>
   </g>
   <g id="patch_34">
    <path d="M 9.362429 21.12 
L 14.866795 21.12 
Q 17.029224 21.12 17.029224 18.957571 
L 17.029224 13.453205 
Q 17.029224 11.290776 14.866795 11.290776 
L 9.362429 11.290776 
Q 7.2 11.290776 7.2 13.453205 
L 7.2 18.957571 
Q 7.2 21.12 9.362429 21.12 
z
" clip-path="url(#p8ac0043a60)" style="fill: #ffa703; opacity: 0.07"/>
   </g>
   <g id="patch_35">
    <path d="M 9.412428 21.12 
L 15.044062 21.12 
Q 17.25649 21.12 17.25649 18.907572 
L 17.25649 13.275938 
Q 17.25649 11.06351 15.044062 11.06351 
L 9.412428 11.06351 
Q 7.2 11.06351 7.2 13.275938 
L 7.2 18.907572 
Q 7.2 21.12 9.412428 21.12 
z
" clip-path="url(#p8ac0043a60)" style="fill: #ffa602; opacity: 0.07"/>
   </g>
   <g id="patch_36">
    <path d="M 9.462426 21.12 
L 15.221329 21.12 
Q 17.483755 21.12 17.483755 18.857574 
L 17.483755 13.098671 
Q 17.483755 10.836245 15.221329 10.836245 
L 9.462426 10.836245 
Q 7.2 10.836245 7.2 13.098671 
L 7.2 18.857574 
Q 7.2 21.12 9.462426 21.12 
z
" clip-path="url(#p8ac0043a60)" style="fill: #ffa502; opacity: 0.07"/>
   </g>
   <g id="patch_37">
    <path d="M 9.512424 21.12 
L 15.398596 21.12 
Q 17.71102 21.12 17.71102 18.807576 
L 17.71102 12.921404 
Q 17.71102 10.60898 15.398596 10.60898 
L 9.512424 10.60898 
Q 7.2 10.60898 7.2 12.921404 
L 7.2 18.807576 
Q 7.2 21.12 9.512424 21.12 
z
" clip-path="url(#p8ac0043a60)" style="fill: #ffa402; opacity: 0.07"/>
   </g>
   <g id="patch_38">
    <path d="M 9.562423 21.12 
L 15.575863 21.12 
Q 17.938286 21.12 17.938286 18.757577 
L 17.938286 12.744137 
Q 17.938286 10.381714 15.575863 10.381714 
L 9.562423 10.381714 
Q 7.2 10.381714 7.2 12.744137 
L 7.2 18.757577 
Q 7.2 21.12 9.562423 21.12 
z
" clip-path="url(#p8ac0043a60)" style="fill: #ffa402; opacity: 0.07"/>
   </g>
   <g id="patch_39">
    <path d="M 9.612421 21.12 
L 15.75313 21.12 
Q 18.165551 21.12 18.165551 18.707579 
L 18.165551 12.56687 
Q 18.165551 10.154449 15.75313 10.154449 
L 9.612421 10.154449 
Q 7.2 10.154449 7.2 12.56687 
L 7.2 18.707579 
Q 7.2 21.12 9.612421 21.12 
z
" clip-path="url(#p8ac0043a60)" style="fill: #ffa302; opacity: 0.07"/>
   </g>
   <g id="patch_40">
    <path d="M 9.66242 21.12 
L 15.930397 21.12 
Q 18.392816 21.12 18.392816 18.65758 
L 18.392816 12.389603 
Q 18.392816 9.927184 15.930397 9.927184 
L 9.66242 9.927184 
Q 7.2 9.927184 7.2 12.389603 
L 7.2 18.65758 
Q 7.2 21.12 9.66242 21.12 
z
" clip-path="url(#p8ac0043a60)" style="fill: #ffa202; opacity: 0.07"/>
   </g>
   <g id="patch_41">
    <path d="M 9.712418 21.12 
L 16.107664 21.12 
Q 18.620082 21.12 18.620082 18.607582 
L 18.620082 12.212336 
Q 18.620082 9.699918 16.107664 9.699918 
L 9.712418 9.699918 
Q 7.2 9.699918 7.2 12.212336 
L 7.2 18.607582 
Q 7.2 21.12 9.712418 21.12 
z
" clip-path="url(#p8ac0043a60)" style="fill: #ffa102; opacity: 0.07"/>
   </g>
   <g id="patch_42">
    <path d="M 9.762416 21.12 
L 16.284931 21.12 
Q 18.847347 21.12 18.847347 18.557584 
L 18.847347 12.035069 
Q 18.847347 9.472653 16.284931 9.472653 
L 9.762416 9.472653 
Q 7.2 9.472653 7.2 12.035069 
L 7.2 18.557584 
Q 7.2 21.12 9.762416 21.12 
z
" clip-path="url(#p8ac0043a60)" style="fill: #ffa001; opacity: 0.07"/>
   </g>
   <g id="patch_43">
    <path d="M 9.812415 21.12 
L 16.462198 21.12 
Q 19.074612 21.12 19.074612 18.507585 
L 19.074612 11.857802 
Q 19.074612 9.245388 16.462198 9.245388 
L 9.812415 9.245388 
Q 7.2 9.245388 7.2 11.857802 
L 7.2 18.507585 
Q 7.2 21.12 9.812415 21.12 
z
" clip-path="url(#p8ac0043a60)" style="fill: #ff9f01; opacity: 0.07"/>
   </g>
   <g id="patch_44">
    <path d="M 9.862413 21.12 
L 16.639464 21.12 
Q 19.301878 21.12 19.301878 18.457587 
L 19.301878 11.680536 
Q 19.301878 9.018122 16.639464 9.018122 
L 9.862413 9.018122 
Q 7.2 9.018122 7.2 11.680536 
L 7.2 18.457587 
Q 7.2 21.12 9.862413 21.12 
z
" clip-path="url(#p8ac0043a60)" style="fill: #ff9f01; opacity: 0.07"/>
   </g>
   <g id="patch_45">
    <path d="M 9.912411 21.12 
L 16.816731 21.12 
Q 19.529143 21.12 19.529143 18.407589 
L 19.529143 11.503269 
Q 19.529143 8.790857 16.816731 8.790857 
L 9.912411 8.790857 
Q 7.2 8.790857 7.2 11.503269 
L 7.2 18.407589 
Q 7.2 21.12 9.912411 21.12 
z
" clip-path="url(#p8ac0043a60)" style="fill: #ff9e01; opacity: 0.07"/>
   </g>
   <g id="patch_46">
    <path d="M 9.96241 21.12 
L 16.993998 21.12 
Q 19.756408 21.12 19.756408 18.35759 
L 19.756408 11.326002 
Q 19.756408 8.563592 16.993998 8.563592 
L 9.96241 8.563592 
Q 7.2 8.563592 7.2 11.326002 
L 7.2 18.35759 
Q 7.2 21.12 9.96241 21.12 
z
" clip-path="url(#p8ac0043a60)" style="fill: #ff9d01; opacity: 0.07"/>
   </g>
   <g id="patch_47">
    <path d="M 10.012408 21.12 
L 17.171265 21.12 
Q 19.983673 21.12 19.983673 18.307592 
L 19.983673 11.148735 
Q 19.983673 8.336327 17.171265 8.336327 
L 10.012408 8.336327 
Q 7.2 8.336327 7.2 11.148735 
L 7.2 18.307592 
Q 7.2 21.12 10.012408 21.12 
z
" clip-path="url(#p8ac0043a60)" style="fill: #ff9c01; opacity: 0.07"/>
   </g>
   <g id="patch_48">
    <path d="M 10.062407 21.12 
L 17.348532 21.12 
Q 20.210939 21.12 20.210939 18.257593 
L 20.210939 10.971468 
Q 20.210939 8.109061 17.348532 8.109061 
L 10.062407 8.109061 
Q 7.2 8.109061 7.2 10.971468 
L 7.2 18.257593 
Q 7.2 21.12 10.062407 21.12 
z
" clip-path="url(#p8ac0043a60)" style="fill: #ff9b01; opacity: 0.07"/>
   </g>
   <g id="patch_49">
    <path d="M 10.112405 21.12 
L 17.525799 21.12 
Q 20.438204 21.12 20.438204 18.207595 
L 20.438204 10.794201 
Q 20.438204 7.881796 17.525799 7.881796 
L 10.112405 7.881796 
Q 7.2 7.881796 7.2 10.794201 
L 7.2 18.207595 
Q 7.2 21.12 10.112405 21.12 
z
" clip-path="url(#p8ac0043a60)" style="fill: #ff9a00; opacity: 0.07"/>
   </g>
   <g id="patch_50">
    <path d="M 10.162403 21.12 
L 17.703066 21.12 
Q 20.665469 21.12 20.665469 18.157597 
L 20.665469 10.616934 
Q 20.665469 7.654531 17.703066 7.654531 
L 10.162403 7.654531 
Q 7.2 7.654531 7.2 10.616934 
L 7.2 18.157597 
Q 7.2 21.12 10.162403 21.12 
z
" clip-path="url(#p8ac0043a60)" style="fill: #ff9a00; opacity: 0.07"/>
   </g>
   <g id="patch_51">
    <path d="M 10.212402 21.12 
L 17.880333 21.12 
Q 20.892735 21.12 20.892735 18.107598 
L 20.892735 10.439667 
Q 20.892735 7.427265 17.880333 7.427265 
L 10.212402 7.427265 
Q 7.2 7.427265 7.2 10.439667 
L 7.2 18.107598 
Q 7.2 21.12 10.212402 21.12 
z
" clip-path="url(#p8ac0043a60)" style="fill: #ff9900; opacity: 0.07"/>
   </g>
   <g id="patch_52">
    <path d="M 10.2624 21.12 
L 18.0576 21.12 
Q 21.12 21.12 21.12 18.0576 
L 21.12 10.2624 
Q 21.12 7.2 18.0576 7.2 
L 10.2624 7.2 
Q 7.2 7.2 7.2 10.2624 
L 7.2 18.0576 
Q 7.2 21.12 10.2624 21.12 
z
" clip-path="url(#p8ac0043a60)" style="fill: #ff9800; opacity: 0.07"/>
   </g>
   <g id="patch_53">
    <path d="M 17.066496 11.481792 
L 17.030712 11.936468 
L 16.924242 12.379949 
L 16.749707 12.801314 
L 16.511405 13.190187 
L 16.215203 13.536995 
L 15.868395 13.833197 
L 15.479522 14.071499 
L 15.058157 14.246034 
L 14.614676 14.352504 
L 14.16 14.388288 
L 13.705324 14.352504 
L 13.261843 14.246034 
L 12.840478 14.071499 
L 12.451605 13.833197 
L 12.104797 13.536995 
L 11.808595 13.190187 
L 11.570293 12.801314 
L 11.395758 12.379949 
L 11.289288 11.936468 
L 11.253504 11.481792 
L 17.066496 14.388288 
L 14.16 16.648896 
L 11.253504 14.388288 
L 11.253504 11.481792 
L 17.066496 11.481792 
" clip-path="url(#p8ac0043a60)" style="fill: #ffffff"/>
   </g>
   <g id="patch_54">
    <path d="M 12.706752 13.7424 
C 12.963689 13.7424 13.210138 13.640318 13.39182 13.458636 
C 13.573502 13.276954 13.675584 13.030505 13.675584 12.773568 
C 13.675584 12.516631 13.573502 12.270182 13.39182 12.0885 
C 13.210138 11.906818 12.963689 11.804736 12.706752 11.804736 
C 12.449815 11.804736 12.203366 11.906818 12.021684 12.0885 
C 11.840002 12.270182 11.73792 12.516631 11.73792 12.773568 
C 11.73792 13.030505 11.840002 13.276954 12.021684 13.458636 
C 12.203366 13.640318 12.449815 13.7424 12.706752 13.7424 
z
" clip-path="url(#p8ac0043a60)" style="fill: #ffffff"/>
   </g>
   <g id="patch_55">
    <path d="M 15.613248 13.7424 
C 15.870185 13.7424 16.116634 13.640318 16.298316 13.458636 
C 16.479998 13.276954 16.58208 13.030505 16.58208 12.773568 
C 16.58208 12.516631 16.479998 12.270182 16.298316 12.0885 
C 16.116634 11.906818 15.870185 11.804736 15.613248 11.804736 
C 15.356311 11.804736 15.109862 11.906818 14.92818 12.0885 
C 14.746498 12.270182 14.644416 12.516631 14.644416 12.773568 
C 14.644416 13.030505 14.746498 13.276954 14.92818 13.458636 
C 15.109862 13.640318 15.356311 13.7424 15.613248 13.7424 
z
" clip-path="url(#p8ac0043a60)" style="fill: #ffffff"/>
   </g>
  </g>
 </g>
 <defs>
  <clipPath id="p8ac0043a60">
   <rect x="7.2" y="7.2" width="13.92" height="13.92"/>
  </clipPath>
 </defs>
</svg>
