<?xml version="1.0" encoding="utf-8" standalone="no"?>
<!DOCTYPE svg PUBLIC "-//W3C//DTD SVG 1.1//EN"
  "http://www.w3.org/Graphics/SVG/1.1/DTD/svg11.dtd">
<svg xmlns:xlink="http://www.w3.org/1999/xlink" width="57.6pt" height="57.6pt" viewBox="0 0 57.6 57.6" xmlns="http://www.w3.org/2000/svg" version="1.1">
 <metadata>
  <rdf:RDF xmlns:dc="http://purl.org/dc/elements/1.1/" xmlns:cc="http://creativecommons.org/ns#" xmlns:rdf="http://www.w3.org/1999/02/22-rdf-syntax-ns#">
   <cc:Work>
    <dc:type rdf:resource="http://purl.org/dc/dcmitype/StillImage"/>
    <dc:date>2025-10-07T21:53:26.174126</dc:date>
    <dc:format>image/svg+xml</dc:format>
    <dc:creator>
     <cc:Agent>
      <dc:title>Matplotlib v3.6.3, https://matplotlib.org/</dc:title>
     </cc:Agent>
    </dc:creator>
   </cc:Work>
  </rdf:RDF>
 </metadata>
 <defs>
  <style type="text/css">*{stroke-linejoin: round; stroke-linecap: butt}</style>
 </defs>
 <g id="figure_1">
  <g id="patch_1">
   <path d="M 0 57.6 
L 57.6 57.6 
L 57.6 -0 
L 0 -0 
z
" style="fill: #ffffff"/>
  </g>
  <g id="axes_1">
   <g id="patch_2">
    <path d="M 16.704 50.4 
L 40.896 50.4 
Q 50.4 50.4 50.4 40.896 
L 50.4 16.704 
Q 50.4 7.2 40.896 7.2 
L 16.704 7.2 
Q 7.2 7.2 7.2 16.704 
L 7.2 40.896 
Q 7.2 50.4 16.704 50.4 
z
" clip-path="url(#p849c44e597)" style="fill: #ffc107"/>
   </g>
   <g id="patch_3">
    <path d="M 9.1008 50.4 
L 13.9392 50.4 
Q 15.84 50.4 15.84 48.4992 
L 15.84 43.6608 
Q 15.84 41.76 13.9392 41.76 
L 9.1008 41.76 
Q 7.2 41.76 7.2 43.6608 
L 7.2 48.4992 
Q 7.2 50.4 9.1008 50.4 
z
" clip-path="url(#p849c44e597)" style="fill: #ffc107; opacity: 0.07"/>
   </g>
   <g id="patch_4">
    <path d="M 9.255967 50.4 
L 14.489339 50.4 
Q 16.545306 50.4 16.545306 48.344033 
L 16.545306 43.110661 
Q 16.545306 41.054694 14.489339 41.054694 
L 9.255967 41.054694 
Q 7.2 41.054694 7.2 43.110661 
L 7.2 48.344033 
Q 7.2 50.4 9.255967 50.4 
z
" clip-path="url(#p849c44e597)" style="fill: #ffc007; opacity: 0.07"/>
   </g>
   <g id="patch_5">
    <path d="M 9.411135 50.4 
L 15.039478 50.4 
Q 17.250612 50.4 17.250612 48.188865 
L 17.250612 42.560522 
Q 17.250612 40.349388 15.039478 40.349388 
L 9.411135 40.349388 
Q 7.2 40.349388 7.2 42.560522 
L 7.2 48.188865 
Q 7.2 50.4 9.411135 50.4 
z
" clip-path="url(#p849c44e597)" style="fill: #ffbf07; opacity: 0.07"/>
   </g>
   <g id="patch_6">
    <path d="M 9.566302 50.4 
L 15.589616 50.4 
Q 17.955918 50.4 17.955918 48.033698 
L 17.955918 42.010384 
Q 17.955918 39.644082 15.589616 39.644082 
L 9.566302 39.644082 
Q 7.2 39.644082 7.2 42.010384 
L 7.2 48.033698 
Q 7.2 50.4 9.566302 50.4 
z
" clip-path="url(#p849c44e597)" style="fill: #ffbe06; opacity: 0.07"/>
   </g>
   <g id="patch_7">
    <path d="M 9.721469 50.4 
L 16.139755 50.4 
Q 18.661224 50.4 18.661224 47.878531 
L 18.661224 41.460245 
Q 18.661224 38.938776 16.139755 38.938776 
L 9.721469 38.938776 
Q 7.2 38.938776 7.2 41.460245 
L 7.2 47.878531 
Q 7.2 50.4 9.721469 50.4 
z
" clip-path="url(#p849c44e597)" style="fill: #ffbd06; opacity: 0.07"/>
   </g>
   <g id="patch_8">
    <path d="M 9.876637 50.4 
L 16.689894 50.4 
Q 19.366531 50.4 19.366531 47.723363 
L 19.366531 40.910106 
Q 19.366531 38.233469 16.689894 38.233469 
L 9.876637 38.233469 
Q 7.2 38.233469 7.2 40.910106 
L 7.2 47.723363 
Q 7.2 50.4 9.876637 50.4 
z
" clip-path="url(#p849c44e597)" style="fill: #ffbd06; opacity: 0.07"/>
   </g>
   <g id="patch_9">
    <path d="M 10.031804 50.4 
L 17.240033 50.4 
Q 20.071837 50.4 20.071837 47.568196 
L 20.071837 40.359967 
Q 20.071837 37.528163 17.240033 37.528163 
L 10.031804 37.528163 
Q 7.2 37.528163 7.2 40.359967 
L 7.2 47.568196 
Q 7.2 50.4 10.031804 50.4 
z
" clip-path="url(#p849c44e597)" style="fill: #ffbc06; opacity: 0.07"/>
   </g>
   <g id="patch_10">
    <path d="M 10.186971 50.4 
L 17.790171 50.4 
Q 20.777143 50.4 20.777143 47.413029 
L 20.777143 39.809829 
Q 20.777143 36.822857 17.790171 36.822857 
L 10.186971 36.822857 
Q 7.2 36.822857 7.2 39.809829 
L 7.2 47.413029 
Q 7.2 50.4 10.186971 50.4 
z
" clip-path="url(#p849c44e597)" style="fill: #ffbb06; opacity: 0.07"/>
   </g>
   <g id="patch_11">
    <path d="M 10.342139 50.4 
L 18.34031 50.4 
Q 21.482449 50.4 21.482449 47.257861 
L 21.482449 39.25969 
Q 21.482449 36.117551 18.34031 36.117551 
L 10.342139 36.117551 
Q 7.2 36.117551 7.2 39.25969 
L 7.2 47.257861 
Q 7.2 50.4 10.342139 50.4 
z
" clip-path="url(#p849c44e597)" style="fill: #ffba06; opacity: 0.07"/>
   </g>
   <g id="patch_12">
    <path d="M 10.497306 50.4 
L 18.890449 50.4 
Q 22.187755 50.4 22.187755 47.102694 
L 22.187755 38.709551 
Q 22.187755 35.412245 18.890449 35.412245 
L 10.497306 35.412245 
Q 7.2 35.412245 7.2 38.709551 
L 7.2 47.102694 
Q 7.2 50.4 10.497306 50.4 
z
" clip-path="url(#p849c44e597)" style="fill: #ffb906; opacity: 0.07"/>
   </g>
   <g id="patch_13">
    <path d="M 10.652473 50.4 
L 19.440588 50.4 
Q 22.893061 50.4 22.893061 46.947527 
L 22.893061 38.159412 
Q 22.893061 34.706939 19.440588 34.706939 
L 10.652473 34.706939 
Q 7.2 34.706939 7.2 38.159412 
L 7.2 46.947527 
Q 7.2 50.4 10.652473 50.4 
z
" clip-path="url(#p849c44e597)" style="fill: #ffb805; opacity: 0.07"/>
   </g>
   <g id="patch_14">
    <path d="M 10.807641 50.4 
L 19.990727 50.4 
Q 23.598367 50.4 23.598367 46.792359 
L 23.598367 37.609273 
Q 23.598367 34.001633 19.990727 34.001633 
L 10.807641 34.001633 
Q 7.2 34.001633 7.2 37.609273 
L 7.2 46.792359 
Q 7.2 50.4 10.807641 50.4 
z
" clip-path="url(#p849c44e597)" style="fill: #ffb805; opacity: 0.07"/>
   </g>
   <g id="patch_15">
    <path d="M 10.962808 50.4 
L 20.540865 50.4 
Q 24.303673 50.4 24.303673 46.637192 
L 24.303673 37.059135 
Q 24.303673 33.296327 20.540865 33.296327 
L 10.962808 33.296327 
Q 7.2 33.296327 7.2 37.059135 
L 7.2 46.637192 
Q 7.2 50.4 10.962808 50.4 
z
" clip-path="url(#p849c44e597)" style="fill: #ffb705; opacity: 0.07"/>
   </g>
   <g id="patch_16">
    <path d="M 11.117976 50.4 
L 21.091004 50.4 
Q 25.00898 50.4 25.00898 46.482024 
L 25.00898 36.508996 
Q 25.00898 32.59102 21.091004 32.59102 
L 11.117976 32.59102 
Q 7.2 32.59102 7.2 36.508996 
L 7.2 46.482024 
Q 7.2 50.4 11.117976 50.4 
z
" clip-path="url(#p849c44e597)" style="fill: #ffb605; opacity: 0.07"/>
   </g>
   <g id="patch_17">
    <path d="M 11.273143 50.4 
L 21.641143 50.4 
Q 25.714286 50.4 25.714286 46.326857 
L 25.714286 35.958857 
Q 25.714286 31.885714 21.641143 31.885714 
L 11.273143 31.885714 
Q 7.2 31.885714 7.2 35.958857 
L 7.2 46.326857 
Q 7.2 50.4 11.273143 50.4 
z
" clip-path="url(#p849c44e597)" style="fill: #ffb505; opacity: 0.07"/>
   </g>
   <g id="patch_18">
    <path d="M 11.42831 50.4 
L 22.191282 50.4 
Q 26.419592 50.4 26.419592 46.17169 
L 26.419592 35.408718 
Q 26.419592 31.180408 22.191282 31.180408 
L 11.42831 31.180408 
Q 7.2 31.180408 7.2 35.408718 
L 7.2 46.17169 
Q 7.2 50.4 11.42831 50.4 
z
" clip-path="url(#p849c44e597)" style="fill: #ffb405; opacity: 0.07"/>
   </g>
   <g id="patch_19">
    <path d="M 11.583478 50.4 
L 22.74142 50.4 
Q 27.124898 50.4 27.124898 46.016522 
L 27.124898 34.85858 
Q 27.124898 30.475102 22.74142 30.475102 
L 11.583478 30.475102 
Q 7.2 30.475102 7.2 34.85858 
L 7.2 46.016522 
Q 7.2 50.4 11.583478 50.4 
z
" clip-path="url(#p849c44e597)" style="fill: #ffb305; opacity: 0.07"/>
   </g>
   <g id="patch_20">
    <path d="M 11.738645 50.4 
L 23.291559 50.4 
Q 27.830204 50.4 27.830204 45.861355 
L 27.830204 34.308441 
Q 27.830204 29.769796 23.291559 29.769796 
L 11.738645 29.769796 
Q 7.2 29.769796 7.2 34.308441 
L 7.2 45.861355 
Q 7.2 50.4 11.738645 50.4 
z
" clip-path="url(#p849c44e597)" style="fill: #ffb304; opacity: 0.07"/>
   </g>
   <g id="patch_21">
    <path d="M 11.893812 50.4 
L 23.841698 50.4 
Q 28.53551 50.4 28.53551 45.706188 
L 28.53551 33.758302 
Q 28.53551 29.06449 23.841698 29.06449 
L 11.893812 29.06449 
Q 7.2 29.06449 7.2 33.758302 
L 7.2 45.706188 
Q 7.2 50.4 11.893812 50.4 
z
" clip-path="url(#p849c44e597)" style="fill: #ffb204; opacity: 0.07"/>
   </g>
   <g id="patch_22">
    <path d="M 12.04898 50.4 
L 24.391837 50.4 
Q 29.240816 50.4 29.240816 45.55102 
L 29.240816 33.208163 
Q 29.240816 28.359184 24.391837 28.359184 
L 12.04898 28.359184 
Q 7.2 28.359184 7.2 33.208163 
L 7.2 45.55102 
Q 7.2 50.4 12.04898 50.4 
z
" clip-path="url(#p849c44e597)" style="fill: #ffb104; opacity: 0.07"/>
   </g>
   <g id="patch_23">
    <path d="M 12.204147 50.4 
L 24.941976 50.4 
Q 29.946122 50.4 29.946122 45.395853 
L 29.946122 32.658024 
Q 29.946122 27.653878 24.941976 27.653878 
L 12.204147 27.653878 
Q 7.2 27.653878 7.2 32.658024 
L 7.2 45.395853 
Q 7.2 50.4 12.204147 50.4 
z
" clip-path="url(#p849c44e597)" style="fill: #ffb004; opacity: 0.07"/>
   </g>
   <g id="patch_24">
    <path d="M 12.359314 50.4 
L 25.492114 50.4 
Q 30.651429 50.4 30.651429 45.240686 
L 30.651429 32.107886 
Q 30.651429 26.948571 25.492114 26.948571 
L 12.359314 26.948571 
Q 7.2 26.948571 7.2 32.107886 
L 7.2 45.240686 
Q 7.2 50.4 12.359314 50.4 
z
" clip-path="url(#p849c44e597)" style="fill: #ffaf04; opacity: 0.07"/>
   </g>
   <g id="patch_25">
    <path d="M 12.514482 50.4 
L 26.042253 50.4 
Q 31.356735 50.4 31.356735 45.085518 
L 31.356735 31.557747 
Q 31.356735 26.243265 26.042253 26.243265 
L 12.514482 26.243265 
Q 7.2 26.243265 7.2 31.557747 
L 7.2 45.085518 
Q 7.2 50.4 12.514482 50.4 
z
" clip-path="url(#p849c44e597)" style="fill: #ffae04; opacity: 0.07"/>
   </g>
   <g id="patch_26">
    <path d="M 12.669649 50.4 
L 26.592392 50.4 
Q 32.062041 50.4 32.062041 44.930351 
L 32.062041 31.007608 
Q 32.062041 25.537959 26.592392 25.537959 
L 12.669649 25.537959 
Q 7.2 25.537959 7.2 31.007608 
L 7.2 44.930351 
Q 7.2 50.4 12.669649 50.4 
z
" clip-path="url(#p849c44e597)" style="fill: #ffae04; opacity: 0.07"/>
   </g>
   <g id="patch_27">
    <path d="M 12.824816 50.4 
L 27.142531 50.4 
Q 32.767347 50.4 32.767347 44.775184 
L 32.767347 30.457469 
Q 32.767347 24.832653 27.142531 24.832653 
L 12.824816 24.832653 
Q 7.2 24.832653 7.2 30.457469 
L 7.2 44.775184 
Q 7.2 50.4 12.824816 50.4 
z
" clip-path="url(#p849c44e597)" style="fill: #ffad04; opacity: 0.07"/>
   </g>
   <g id="patch_28">
    <path d="M 12.979984 50.4 
L 27.692669 50.4 
Q 33.472653 50.4 33.472653 44.620016 
L 33.472653 29.907331 
Q 33.472653 24.127347 27.692669 24.127347 
L 12.979984 24.127347 
Q 7.2 24.127347 7.2 29.907331 
L 7.2 44.620016 
Q 7.2 50.4 12.979984 50.4 
z
" clip-path="url(#p849c44e597)" style="fill: #ffac03; opacity: 0.07"/>
   </g>
   <g id="patch_29">
    <path d="M 13.135151 50.4 
L 28.242808 50.4 
Q 34.177959 50.4 34.177959 44.464849 
L 34.177959 29.357192 
Q 34.177959 23.422041 28.242808 23.422041 
L 13.135151 23.422041 
Q 7.2 23.422041 7.2 29.357192 
L 7.2 44.464849 
Q 7.2 50.4 13.135151 50.4 
z
" clip-path="url(#p849c44e597)" style="fill: #ffab03; opacity: 0.07"/>
   </g>
   <g id="patch_30">
    <path d="M 13.290318 50.4 
L 28.792947 50.4 
Q 34.883265 50.4 34.883265 44.309682 
L 34.883265 28.807053 
Q 34.883265 22.716735 28.792947 22.716735 
L 13.290318 22.716735 
Q 7.2 22.716735 7.2 28.807053 
L 7.2 44.309682 
Q 7.2 50.4 13.290318 50.4 
z
" clip-path="url(#p849c44e597)" style="fill: #ffaa03; opacity: 0.07"/>
   </g>
   <g id="patch_31">
    <path d="M 13.445486 50.4 
L 29.343086 50.4 
Q 35.588571 50.4 35.588571 44.154514 
L 35.588571 28.256914 
Q 35.588571 22.011429 29.343086 22.011429 
L 13.445486 22.011429 
Q 7.2 22.011429 7.2 28.256914 
L 7.2 44.154514 
Q 7.2 50.4 13.445486 50.4 
z
" clip-path="url(#p849c44e597)" style="fill: #ffa903; opacity: 0.07"/>
   </g>
   <g id="patch_32">
    <path d="M 13.600653 50.4 
L 29.893224 50.4 
Q 36.293878 50.4 36.293878 43.999347 
L 36.293878 27.706776 
Q 36.293878 21.306122 29.893224 21.306122 
L 13.600653 21.306122 
Q 7.2 21.306122 7.2 27.706776 
L 7.2 43.999347 
Q 7.2 50.4 13.600653 50.4 
z
" clip-path="url(#p849c44e597)" style="fill: #ffa903; opacity: 0.07"/>
   </g>
   <g id="patch_33">
    <path d="M 13.75582 50.4 
L 30.443363 50.4 
Q 36.999184 50.4 36.999184 43.84418 
L 36.999184 27.156637 
Q 36.999184 20.600816 30.443363 20.600816 
L 13.75582 20.600816 
Q 7.2 20.600816 7.2 27.156637 
L 7.2 43.84418 
Q 7.2 50.4 13.75582 50.4 
z
" clip-path="url(#p849c44e597)" style="fill: #ffa803; opacity: 0.07"/>
   </g>
   <g id="patch_34">
    <path d="M 13.910988 50.4 
L 30.993502 50.4 
Q 37.70449 50.4 37.70449 43.689012 
L 37.70449 26.606498 
Q 37.70449 19.89551 30.993502 19.89551 
L 13.910988 19.89551 
Q 7.2 19.89551 7.2 26.606498 
L 7.2 43.689012 
Q 7.2 50.4 13.910988 50.4 
z
" clip-path="url(#p849c44e597)" style="fill: #ffa703; opacity: 0.07"/>
   </g>
   <g id="patch_35">
    <path d="M 14.066155 50.4 
L 31.543641 50.4 
Q 38.409796 50.4 38.409796 43.533845 
L 38.409796 26.056359 
Q 38.409796 19.190204 31.543641 19.190204 
L 14.066155 19.190204 
Q 7.2 19.190204 7.2 26.056359 
L 7.2 43.533845 
Q 7.2 50.4 14.066155 50.4 
z
" clip-path="url(#p849c44e597)" style="fill: #ffa602; opacity: 0.07"/>
   </g>
   <g id="patch_36">
    <path d="M 14.221322 50.4 
L 32.09378 50.4 
Q 39.115102 50.4 39.115102 43.378678 
L 39.115102 25.50622 
Q 39.115102 18.484898 32.09378 18.484898 
L 14.221322 18.484898 
Q 7.2 18.484898 7.2 25.50622 
L 7.2 43.378678 
Q 7.2 50.4 14.221322 50.4 
z
" clip-path="url(#p849c44e597)" style="fill: #ffa502; opacity: 0.07"/>
   </g>
   <g id="patch_37">
    <path d="M 14.37649 50.4 
L 32.643918 50.4 
Q 39.820408 50.4 39.820408 43.22351 
L 39.820408 24.956082 
Q 39.820408 17.779592 32.643918 17.779592 
L 14.37649 17.779592 
Q 7.2 17.779592 7.2 24.956082 
L 7.2 43.22351 
Q 7.2 50.4 14.37649 50.4 
z
" clip-path="url(#p849c44e597)" style="fill: #ffa402; opacity: 0.07"/>
   </g>
   <g id="patch_38">
    <path d="M 14.531657 50.4 
L 33.194057 50.4 
Q 40.525714 50.4 40.525714 43.068343 
L 40.525714 24.405943 
Q 40.525714 17.074286 33.194057 17.074286 
L 14.531657 17.074286 
Q 7.2 17.074286 7.2 24.405943 
L 7.2 43.068343 
Q 7.2 50.4 14.531657 50.4 
z
" clip-path="url(#p849c44e597)" style="fill: #ffa402; opacity: 0.07"/>
   </g>
   <g id="patch_39">
    <path d="M 14.686824 50.4 
L 33.744196 50.4 
Q 41.23102 50.4 41.23102 42.913176 
L 41.23102 23.855804 
Q 41.23102 16.36898 33.744196 16.36898 
L 14.686824 16.36898 
Q 7.2 16.36898 7.2 23.855804 
L 7.2 42.913176 
Q 7.2 50.4 14.686824 50.4 
z
" clip-path="url(#p849c44e597)" style="fill: #ffa302; opacity: 0.07"/>
   </g>
   <g id="patch_40">
    <path d="M 14.841992 50.4 
L 34.294335 50.4 
Q 41.936327 50.4 41.936327 42.758008 
L 41.936327 23.305665 
Q 41.936327 15.663673 34.294335 15.663673 
L 14.841992 15.663673 
Q 7.2 15.663673 7.2 23.305665 
L 7.2 42.758008 
Q 7.2 50.4 14.841992 50.4 
z
" clip-path="url(#p849c44e597)" style="fill: #ffa202; opacity: 0.07"/>
   </g>
   <g id="patch_41">
    <path d="M 14.997159 50.4 
L 34.844473 50.4 
Q 42.641633 50.4 42.641633 42.602841 
L 42.641633 22.755527 
Q 42.641633 14.958367 34.844473 14.958367 
L 14.997159 14.958367 
Q 7.2 14.958367 7.2 22.755527 
L 7.2 42.602841 
Q 7.2 50.4 14.997159 50.4 
z
" clip-path="url(#p849c44e597)" style="fill: #ffa102; opacity: 0.07"/>
   </g>
   <g id="patch_42">
    <path d="M 15.152327 50.4 
L 35.394612 50.4 
Q 43.346939 50.4 43.346939 42.447673 
L 43.346939 22.205388 
Q 43.346939 14.253061 35.394612 14.253061 
L 15.152327 14.253061 
Q 7.2 14.253061 7.2 22.205388 
L 7.2 42.447673 
Q 7.2 50.4 15.152327 50.4 
z
" clip-path="url(#p849c44e597)" style="fill: #ffa001; opacity: 0.07"/>
   </g>
   <g id="patch_43">
    <path d="M 15.307494 50.4 
L 35.944751 50.4 
Q 44.052245 50.4 44.052245 42.292506 
L 44.052245 21.655249 
Q 44.052245 13.547755 35.944751 13.547755 
L 15.307494 13.547755 
Q 7.2 13.547755 7.2 21.655249 
L 7.2 42.292506 
Q 7.2 50.4 15.307494 50.4 
z
" clip-path="url(#p849c44e597)" style="fill: #ff9f01; opacity: 0.07"/>
   </g>
   <g id="patch_44">
    <path d="M 15.462661 50.4 
L 36.49489 50.4 
Q 44.757551 50.4 44.757551 42.137339 
L 44.757551 21.10511 
Q 44.757551 12.842449 36.49489 12.842449 
L 15.462661 12.842449 
Q 7.2 12.842449 7.2 21.10511 
L 7.2 42.137339 
Q 7.2 50.4 15.462661 50.4 
z
" clip-path="url(#p849c44e597)" style="fill: #ff9f01; opacity: 0.07"/>
   </g>
   <g id="patch_45">
    <path d="M 15.617829 50.4 
L 37.045029 50.4 
Q 45.462857 50.4 45.462857 41.982171 
L 45.462857 20.554971 
Q 45.462857 12.137143 37.045029 12.137143 
L 15.617829 12.137143 
Q 7.2 12.137143 7.2 20.554971 
L 7.2 41.982171 
Q 7.2 50.4 15.617829 50.4 
z
" clip-path="url(#p849c44e597)" style="fill: #ff9e01; opacity: 0.07"/>
   </g>
   <g id="patch_46">
    <path d="M 15.772996 50.4 
L 37.595167 50.4 
Q 46.168163 50.4 46.168163 41.827004 
L 46.168163 20.004833 
Q 46.168163 11.431837 37.595167 11.431837 
L 15.772996 11.431837 
Q 7.2 11.431837 7.2 20.004833 
L 7.2 41.827004 
Q 7.2 50.4 15.772996 50.4 
z
" clip-path="url(#p849c44e597)" style="fill: #ff9d01; opacity: 0.07"/>
   </g>
   <g id="patch_47">
    <path d="M 15.928163 50.4 
L 38.145306 50.4 
Q 46.873469 50.4 46.873469 41.671837 
L 46.873469 19.454694 
Q 46.873469 10.726531 38.145306 10.726531 
L 15.928163 10.726531 
Q 7.2 10.726531 7.2 19.454694 
L 7.2 41.671837 
Q 7.2 50.4 15.928163 50.4 
z
" clip-path="url(#p849c44e597)" style="fill: #ff9c01; opacity: 0.07"/>
   </g>
   <g id="patch_48">
    <path d="M 16.083331 50.4 
L 38.695445 50.4 
Q 47.578776 50.4 47.578776 41.516669 
L 47.578776 18.904555 
Q 47.578776 10.021224 38.695445 10.021224 
L 16.083331 10.021224 
Q 7.2 10.021224 7.2 18.904555 
L 7.2 41.516669 
Q 7.2 50.4 16.083331 50.4 
z
" clip-path="url(#p849c44e597)" style="fill: #ff9b01; opacity: 0.07"/>
   </g>
   <g id="patch_49">
    <path d="M 16.238498 50.4 
L 39.245584 50.4 
Q 48.284082 50.4 48.284082 41.361502 
L 48.284082 18.354416 
Q 48.284082 9.315918 39.245584 9.315918 
L 16.238498 9.315918 
Q 7.2 9.315918 7.2 18.354416 
L 7.2 41.361502 
Q 7.2 50.4 16.238498 50.4 
z
" clip-path="url(#p849c44e597)" style="fill: #ff9a00; opacity: 0.07"/>
   </g>
   <g id="patch_50">
    <path d="M 16.393665 50.4 
L 39.795722 50.4 
Q 48.989388 50.4 48.989388 41.206335 
L 48.989388 17.804278 
Q 48.989388 8.610612 39.795722 8.610612 
L 16.393665 8.610612 
Q 7.2 8.610612 7.2 17.804278 
L 7.2 41.206335 
Q 7.2 50.4 16.393665 50.4 
z
" clip-path="url(#p849c44e597)" style="fill: #ff9a00; opacity: 0.07"/>
   </g>
   <g id="patch_51">
    <path d="M 16.548833 50.4 
L 40.345861 50.4 
Q 49.694694 50.4 49.694694 41.051167 
L 49.694694 17.254139 
Q 49.694694 7.905306 40.345861 7.905306 
L 16.548833 7.905306 
Q 7.2 7.905306 7.2 17.254139 
L 7.2 41.051167 
Q 7.2 50.4 16.548833 50.4 
z
" clip-path="url(#p849c44e597)" style="fill: #ff9900; opacity: 0.07"/>
   </g>
   <g id="patch_52">
    <path d="M 16.704 50.4 
L 40.896 50.4 
Q 50.4 50.4 50.4 40.896 
L 50.4 16.704 
Q 50.4 7.2 40.896 7.2 
L 16.704 7.2 
Q 7.2 7.2 7.2 16.704 
L 7.2 40.896 
Q 7.2 50.4 16.704 50.4 
z
" clip-path="url(#p849c44e597)" style="fill: #ff9800; opacity: 0.07"/>
   </g>
   <g id="patch_53">
    <path d="M 37.82016 20.48832 
L 37.709107 21.899384 
L 37.378682 23.275703 
L 36.837021 24.583387 
L 36.097463 25.790237 
L 35.178216 26.866536 
L 34.101917 27.785783 
L 32.895067 28.525341 
L 31.587383 29.067002 
L 30.211064 29.397427 
L 28.8 29.50848 
L 27.388936 29.397427 
L 26.012617 29.067002 
L 24.704933 28.525341 
L 23.498083 27.785783 
L 22.421784 26.866536 
L 21.502537 25.790237 
L 20.762979 24.583387 
L 20.221318 23.275703 
L 19.890893 21.899384 
L 19.77984 20.48832 
L 37.82016 29.50848 
L 28.8 36.52416 
L 19.77984 29.50848 
L 19.77984 20.48832 
L 37.82016 20.48832 
" clip-path="url(#p849c44e597)" style="fill: #ffffff"/>
   </g>
   <g id="patch_54">
    <path d="M 24.28992 27.504 
C 25.087311 27.504 25.852151 27.187193 26.415992 26.623352 
C 26.979833 26.059511 27.29664 25.294671 27.29664 24.49728 
C 27.29664 23.699889 26.979833 22.935049 26.415992 22.371208 
C 25.852151 21.807367 25.087311 21.49056 24.28992 21.49056 
C 23.492529 21.49056 22.727689 21.807367 22.163848 22.371208 
C 21.600007 22.935049 21.2832 23.699889 21.2832 24.49728 
C 21.2832 25.294671 21.600007 26.059511 22.163848 26.623352 
C 22.727689 27.187193 23.492529 27.504 24.28992 27.504 
z
" clip-path="url(#p849c44e597)" style="fill: #ffffff"/>
   </g>
   <g id="patch_55">
    <path d="M 33.31008 27.504 
C 34.107471 27.504 34.872311 27.187193 35.436152 26.623352 
C 35.999993 26.059511 36.3168 25.294671 36.3168 24.49728 
C 36.3168 23.699889 35.999993 22.935049 35.436152 22.371208 
C 34.872311 21.807367 34.107471 21.49056 33.31008 21.49056 
C 32.512689 21.49056 31.747849 21.807367 31.184008 22.371208 
C 30.620167 22.935049 30.30336 23.699889 30.30336 24.49728 
C 30.30336 25.294671 30.620167 26.059511 31.184008 26.623352 
C 31.747849 27.187193 32.512689 27.504 33.31008 27.504 
z
" clip-path="url(#p849c44e597)" style="fill: #ffffff"/>
   </g>
  </g>
 </g>
 <defs>
  <clipPath id="p849c44e597">
   <rect x="7.2" y="7.2" width="43.2" height="43.2"/>
  </clipPath>
 </defs>
</svg>
