<?xml version="1.0" encoding="utf-8" standalone="no"?>
<!DOCTYPE svg PUBLIC "-//W3C//DTD SVG 1.1//EN"
  "http://www.w3.org/Graphics/SVG/1.1/DTD/svg11.dtd">
<svg xmlns:xlink="http://www.w3.org/1999/xlink" width="24pt" height="24pt" viewBox="0 0 24 24" xmlns="http://www.w3.org/2000/svg" version="1.1">
 <metadata>
  <rdf:RDF xmlns:dc="http://purl.org/dc/elements/1.1/" xmlns:cc="http://creativecommons.org/ns#" xmlns:rdf="http://www.w3.org/1999/02/22-rdf-syntax-ns#">
   <cc:Work>
    <dc:type rdf:resource="http://purl.org/dc/dcmitype/StillImage"/>
    <dc:date>2025-10-07T21:53:28.695952</dc:date>
    <dc:format>image/svg+xml</dc:format>
    <dc:creator>
     <cc:Agent>
      <dc:title>Matplotlib v3.6.3, https://matplotlib.org/</dc:title>
     </cc:Agent>
    </dc:creator>
   </cc:Work>
  </rdf:RDF>
 </metadata>
 <defs>
  <style type="text/css">*{stroke-linejoin: round; stroke-linecap: butt}</style>
 </defs>
 <g id="figure_1">
  <g id="patch_1">
   <path d="M -0 24 
L 24 24 
L 24 -0 
L -0 -0 
z
" style="fill: #ffffff"/>
  </g>
  <g id="axes_1">
   <g id="patch_2">
    <path d="M 9.312 16.8 
L 14.688 16.8 
Q 16.8 16.8 16.8 14.688 
L 16.8 9.312 
Q 16.8 7.2 14.688 7.2 
L 9.312 7.2 
Q 7.2 7.2 7.2 9.312 
L 7.2 14.688 
Q 7.2 16.8 9.312 16.8 
z
" clip-path="url(#p5ceffd0838)" style="fill: #ffc107"/>
   </g>
   <g id="patch_3">
    <path d="M 7.6224 16.8 
L 8.6976 16.8 
Q 9.12 16.8 9.12 16.3776 
L 9.12 15.3024 
Q 9.12 14.88 8.6976 14.88 
L 7.6224 14.88 
Q 7.2 14.88 7.2 15.3024 
L 7.2 16.3776 
Q 7.2 16.8 7.6224 16.8 
z
" clip-path="url(#p5ceffd0838)" style="fill: #ffc107; opacity: 0.07"/>
   </g>
   <g id="patch_4">
    <path d="M 7.656882 16.8 
L 8.819853 16.8 
Q 9.276735 16.8 9.276735 16.343118 
L 9.276735 15.180147 
Q 9.276735 14.723265 8.819853 14.723265 
L 7.656882 14.723265 
Q 7.2 14.723265 7.2 15.180147 
L 7.2 16.343118 
Q 7.2 16.8 7.656882 16.8 
z
" clip-path="url(#p5ceffd0838)" style="fill: #ffc007; opacity: 0.07"/>
   </g>
   <g id="patch_5">
    <path d="M 7.691363 16.8 
L 8.942106 16.8 
Q 9.433469 16.8 9.433469 16.308637 
L 9.433469 15.057894 
Q 9.433469 14.566531 8.942106 14.566531 
L 7.691363 14.566531 
Q 7.2 14.566531 7.2 15.057894 
L 7.2 16.308637 
Q 7.2 16.8 7.691363 16.8 
z
" clip-path="url(#p5ceffd0838)" style="fill: #ffbf07; opacity: 0.07"/>
   </g>
   <g id="patch_6">
    <path d="M 7.725845 16.8 
L 9.064359 16.8 
Q 9.590204 16.8 9.590204 16.274155 
L 9.590204 14.935641 
Q 9.590204 14.409796 9.064359 14.409796 
L 7.725845 14.409796 
Q 7.2 14.409796 7.2 14.935641 
L 7.2 16.274155 
Q 7.2 16.8 7.725845 16.8 
z
" clip-path="url(#p5ceffd0838)" style="fill: #ffbe06; opacity: 0.07"/>
   </g>
   <g id="patch_7">
    <path d="M 7.760327 16.8 
L 9.186612 16.8 
Q 9.746939 16.8 9.746939 16.239673 
L 9.746939 14.813388 
Q 9.746939 14.253061 9.186612 14.253061 
L 7.760327 14.253061 
Q 7.2 14.253061 7.2 14.813388 
L 7.2 16.239673 
Q 7.2 16.8 7.760327 16.8 
z
" clip-path="url(#p5ceffd0838)" style="fill: #ffbd06; opacity: 0.07"/>
   </g>
   <g id="patch_8">
    <path d="M 7.794808 16.8 
L 9.308865 16.8 
Q 9.903673 16.8 9.903673 16.205192 
L 9.903673 14.691135 
Q 9.903673 14.096327 9.308865 14.096327 
L 7.794808 14.096327 
Q 7.2 14.096327 7.2 14.691135 
L 7.2 16.205192 
Q 7.2 16.8 7.794808 16.8 
z
" clip-path="url(#p5ceffd0838)" style="fill: #ffbd06; opacity: 0.07"/>
   </g>
   <g id="patch_9">
    <path d="M 7.82929 16.8 
L 9.431118 16.8 
Q 10.060408 16.8 10.060408 16.17071 
L 10.060408 14.568882 
Q 10.060408 13.939592 9.431118 13.939592 
L 7.82929 13.939592 
Q 7.2 13.939592 7.2 14.568882 
L 7.2 16.17071 
Q 7.2 16.8 7.82929 16.8 
z
" clip-path="url(#p5ceffd0838)" style="fill: #ffbc06; opacity: 0.07"/>
   </g>
   <g id="patch_10">
    <path d="M 7.863771 16.8 
L 9.553371 16.8 
Q 10.217143 16.8 10.217143 16.136229 
L 10.217143 14.446629 
Q 10.217143 13.782857 9.553371 13.782857 
L 7.863771 13.782857 
Q 7.2 13.782857 7.2 14.446629 
L 7.2 16.136229 
Q 7.2 16.8 7.863771 16.8 
z
" clip-path="url(#p5ceffd0838)" style="fill: #ffbb06; opacity: 0.07"/>
   </g>
   <g id="patch_11">
    <path d="M 7.898253 16.8 
L 9.675624 16.8 
Q 10.373878 16.8 10.373878 16.101747 
L 10.373878 14.324376 
Q 10.373878 13.626122 9.675624 13.626122 
L 7.898253 13.626122 
Q 7.2 13.626122 7.2 14.324376 
L 7.2 16.101747 
Q 7.2 16.8 7.898253 16.8 
z
" clip-path="url(#p5ceffd0838)" style="fill: #ffba06; opacity: 0.07"/>
   </g>
   <g id="patch_12">
    <path d="M 7.932735 16.8 
L 9.797878 16.8 
Q 10.530612 16.8 10.530612 16.067265 
L 10.530612 14.202122 
Q 10.530612 13.469388 9.797878 13.469388 
L 7.932735 13.469388 
Q 7.2 13.469388 7.2 14.202122 
L 7.2 16.067265 
Q 7.2 16.8 7.932735 16.8 
z
" clip-path="url(#p5ceffd0838)" style="fill: #ffb906; opacity: 0.07"/>
   </g>
   <g id="patch_13">
    <path d="M 7.967216 16.8 
L 9.920131 16.8 
Q 10.687347 16.8 10.687347 16.032784 
L 10.687347 14.079869 
Q 10.687347 13.312653 9.920131 13.312653 
L 7.967216 13.312653 
Q 7.2 13.312653 7.2 14.079869 
L 7.2 16.032784 
Q 7.2 16.8 7.967216 16.8 
z
" clip-path="url(#p5ceffd0838)" style="fill: #ffb805; opacity: 0.07"/>
   </g>
   <g id="patch_14">
    <path d="M 8.001698 16.8 
L 10.042384 16.8 
Q 10.844082 16.8 10.844082 15.998302 
L 10.844082 13.957616 
Q 10.844082 13.155918 10.042384 13.155918 
L 8.001698 13.155918 
Q 7.2 13.155918 7.2 13.957616 
L 7.2 15.998302 
Q 7.2 16.8 8.001698 16.8 
z
" clip-path="url(#p5ceffd0838)" style="fill: #ffb805; opacity: 0.07"/>
   </g>
   <g id="patch_15">
    <path d="M 8.03618 16.8 
L 10.164637 16.8 
Q 11.000816 16.8 11.000816 15.96382 
L 11.000816 13.835363 
Q 11.000816 12.999184 10.164637 12.999184 
L 8.03618 12.999184 
Q 7.2 12.999184 7.2 13.835363 
L 7.2 15.96382 
Q 7.2 16.8 8.03618 16.8 
z
" clip-path="url(#p5ceffd0838)" style="fill: #ffb705; opacity: 0.07"/>
   </g>
   <g id="patch_16">
    <path d="M 8.070661 16.8 
L 10.28689 16.8 
Q 11.157551 16.8 11.157551 15.929339 
L 11.157551 13.71311 
Q 11.157551 12.842449 10.28689 12.842449 
L 8.070661 12.842449 
Q 7.2 12.842449 7.2 13.71311 
L 7.2 15.929339 
Q 7.2 16.8 8.070661 16.8 
z
" clip-path="url(#p5ceffd0838)" style="fill: #ffb605; opacity: 0.07"/>
   </g>
   <g id="patch_17">
    <path d="M 8.105143 16.8 
L 10.409143 16.8 
Q 11.314286 16.8 11.314286 15.894857 
L 11.314286 13.590857 
Q 11.314286 12.685714 10.409143 12.685714 
L 8.105143 12.685714 
Q 7.2 12.685714 7.2 13.590857 
L 7.2 15.894857 
Q 7.2 16.8 8.105143 16.8 
z
" clip-path="url(#p5ceffd0838)" style="fill: #ffb505; opacity: 0.07"/>
   </g>
   <g id="patch_18">
    <path d="M 8.139624 16.8 
L 10.531396 16.8 
Q 11.47102 16.8 11.47102 15.860376 
L 11.47102 13.468604 
Q 11.47102 12.52898 10.531396 12.52898 
L 8.139624 12.52898 
Q 7.2 12.52898 7.2 13.468604 
L 7.2 15.860376 
Q 7.2 16.8 8.139624 16.8 
z
" clip-path="url(#p5ceffd0838)" style="fill: #ffb405; opacity: 0.07"/>
   </g>
   <g id="patch_19">
    <path d="M 8.174106 16.8 
L 10.653649 16.8 
Q 11.627755 16.8 11.627755 15.825894 
L 11.627755 13.346351 
Q 11.627755 12.372245 10.653649 12.372245 
L 8.174106 12.372245 
Q 7.2 12.372245 7.2 13.346351 
L 7.2 15.825894 
Q 7.2 16.8 8.174106 16.8 
z
" clip-path="url(#p5ceffd0838)" style="fill: #ffb305; opacity: 0.07"/>
   </g>
   <g id="patch_20">
    <path d="M 8.208588 16.8 
L 10.775902 16.8 
Q 11.78449 16.8 11.78449 15.791412 
L 11.78449 13.224098 
Q 11.78449 12.21551 10.775902 12.21551 
L 8.208588 12.21551 
Q 7.2 12.21551 7.2 13.224098 
L 7.2 15.791412 
Q 7.2 16.8 8.208588 16.8 
z
" clip-path="url(#p5ceffd0838)" style="fill: #ffb304; opacity: 0.07"/>
   </g>
   <g id="patch_21">
    <path d="M 8.243069 16.8 
L 10.898155 16.8 
Q 11.941224 16.8 11.941224 15.756931 
L 11.941224 13.101845 
Q 11.941224 12.058776 10.898155 12.058776 
L 8.243069 12.058776 
Q 7.2 12.058776 7.2 13.101845 
L 7.2 15.756931 
Q 7.2 16.8 8.243069 16.8 
z
" clip-path="url(#p5ceffd0838)" style="fill: #ffb204; opacity: 0.07"/>
   </g>
   <g id="patch_22">
    <path d="M 8.277551 16.8 
L 11.020408 16.8 
Q 12.097959 16.8 12.097959 15.722449 
L 12.097959 12.979592 
Q 12.097959 11.902041 11.020408 11.902041 
L 8.277551 11.902041 
Q 7.2 11.902041 7.2 12.979592 
L 7.2 15.722449 
Q 7.2 16.8 8.277551 16.8 
z
" clip-path="url(#p5ceffd0838)" style="fill: #ffb104; opacity: 0.07"/>
   </g>
   <g id="patch_23">
    <path d="M 8.312033 16.8 
L 11.142661 16.8 
Q 12.254694 16.8 12.254694 15.687967 
L 12.254694 12.857339 
Q 12.254694 11.745306 11.142661 11.745306 
L 8.312033 11.745306 
Q 7.2 11.745306 7.2 12.857339 
L 7.2 15.687967 
Q 7.2 16.8 8.312033 16.8 
z
" clip-path="url(#p5ceffd0838)" style="fill: #ffb004; opacity: 0.07"/>
   </g>
   <g id="patch_24">
    <path d="M 8.346514 16.8 
L 11.264914 16.8 
Q 12.411429 16.8 12.411429 15.653486 
L 12.411429 12.735086 
Q 12.411429 11.588571 11.264914 11.588571 
L 8.346514 11.588571 
Q 7.2 11.588571 7.2 12.735086 
L 7.2 15.653486 
Q 7.2 16.8 8.346514 16.8 
z
" clip-path="url(#p5ceffd0838)" style="fill: #ffaf04; opacity: 0.07"/>
   </g>
   <g id="patch_25">
    <path d="M 8.380996 16.8 
L 11.387167 16.8 
Q 12.568163 16.8 12.568163 15.619004 
L 12.568163 12.612833 
Q 12.568163 11.431837 11.387167 11.431837 
L 8.380996 11.431837 
Q 7.2 11.431837 7.2 12.612833 
L 7.2 15.619004 
Q 7.2 16.8 8.380996 16.8 
z
" clip-path="url(#p5ceffd0838)" style="fill: #ffae04; opacity: 0.07"/>
   </g>
   <g id="patch_26">
    <path d="M 8.415478 16.8 
L 11.50942 16.8 
Q 12.724898 16.8 12.724898 15.584522 
L 12.724898 12.49058 
Q 12.724898 11.275102 11.50942 11.275102 
L 8.415478 11.275102 
Q 7.2 11.275102 7.2 12.49058 
L 7.2 15.584522 
Q 7.2 16.8 8.415478 16.8 
z
" clip-path="url(#p5ceffd0838)" style="fill: #ffae04; opacity: 0.07"/>
   </g>
   <g id="patch_27">
    <path d="M 8.449959 16.8 
L 11.631673 16.8 
Q 12.881633 16.8 12.881633 15.550041 
L 12.881633 12.368327 
Q 12.881633 11.118367 11.631673 11.118367 
L 8.449959 11.118367 
Q 7.2 11.118367 7.2 12.368327 
L 7.2 15.550041 
Q 7.2 16.8 8.449959 16.8 
z
" clip-path="url(#p5ceffd0838)" style="fill: #ffad04; opacity: 0.07"/>
   </g>
   <g id="patch_28">
    <path d="M 8.484441 16.8 
L 11.753927 16.8 
Q 13.038367 16.8 13.038367 15.515559 
L 13.038367 12.246073 
Q 13.038367 10.961633 11.753927 10.961633 
L 8.484441 10.961633 
Q 7.2 10.961633 7.2 12.246073 
L 7.2 15.515559 
Q 7.2 16.8 8.484441 16.8 
z
" clip-path="url(#p5ceffd0838)" style="fill: #ffac03; opacity: 0.07"/>
   </g>
   <g id="patch_29">
    <path d="M 8.518922 16.8 
L 11.87618 16.8 
Q 13.195102 16.8 13.195102 15.481078 
L 13.195102 12.12382 
Q 13.195102 10.804898 11.87618 10.804898 
L 8.518922 10.804898 
Q 7.2 10.804898 7.2 12.12382 
L 7.2 15.481078 
Q 7.2 16.8 8.518922 16.8 
z
" clip-path="url(#p5ceffd0838)" style="fill: #ffab03; opacity: 0.07"/>
   </g>
   <g id="patch_30">
    <path d="M 8.553404 16.8 
L 11.998433 16.8 
Q 13.351837 16.8 13.351837 15.446596 
L 13.351837 12.001567 
Q 13.351837 10.648163 11.998433 10.648163 
L 8.553404 10.648163 
Q 7.2 10.648163 7.2 12.001567 
L 7.2 15.446596 
Q 7.2 16.8 8.553404 16.8 
z
" clip-path="url(#p5ceffd0838)" style="fill: #ffaa03; opacity: 0.07"/>
   </g>
   <g id="patch_31">
    <path d="M 8.587886 16.8 
L 12.120686 16.8 
Q 13.508571 16.8 13.508571 15.412114 
L 13.508571 11.879314 
Q 13.508571 10.491429 12.120686 10.491429 
L 8.587886 10.491429 
Q 7.2 10.491429 7.2 11.879314 
L 7.2 15.412114 
Q 7.2 16.8 8.587886 16.8 
z
" clip-path="url(#p5ceffd0838)" style="fill: #ffa903; opacity: 0.07"/>
   </g>
   <g id="patch_32">
    <path d="M 8.622367 16.8 
L 12.242939 16.8 
Q 13.665306 16.8 13.665306 15.377633 
L 13.665306 11.757061 
Q 13.665306 10.334694 12.242939 10.334694 
L 8.622367 10.334694 
Q 7.2 10.334694 7.2 11.757061 
L 7.2 15.377633 
Q 7.2 16.8 8.622367 16.8 
z
" clip-path="url(#p5ceffd0838)" style="fill: #ffa903; opacity: 0.07"/>
   </g>
   <g id="patch_33">
    <path d="M 8.656849 16.8 
L 12.365192 16.8 
Q 13.822041 16.8 13.822041 15.343151 
L 13.822041 11.634808 
Q 13.822041 10.177959 12.365192 10.177959 
L 8.656849 10.177959 
Q 7.2 10.177959 7.2 11.634808 
L 7.2 15.343151 
Q 7.2 16.8 8.656849 16.8 
z
" clip-path="url(#p5ceffd0838)" style="fill: #ffa803; opacity: 0.07"/>
   </g>
   <g id="patch_34">
    <path d="M 8.691331 16.8 
L 12.487445 16.8 
Q 13.978776 16.8 13.978776 15.308669 
L 13.978776 11.512555 
Q 13.978776 10.021224 12.487445 10.021224 
L 8.691331 10.021224 
Q 7.2 10.021224 7.2 11.512555 
L 7.2 15.308669 
Q 7.2 16.8 8.691331 16.8 
z
" clip-path="url(#p5ceffd0838)" style="fill: #ffa703; opacity: 0.07"/>
   </g>
   <g id="patch_35">
    <path d="M 8.725812 16.8 
L 12.609698 16.8 
Q 14.13551 16.8 14.13551 15.274188 
L 14.13551 11.390302 
Q 14.13551 9.86449 12.609698 9.86449 
L 8.725812 9.86449 
Q 7.2 9.86449 7.2 11.390302 
L 7.2 15.274188 
Q 7.2 16.8 8.725812 16.8 
z
" clip-path="url(#p5ceffd0838)" style="fill: #ffa602; opacity: 0.07"/>
   </g>
   <g id="patch_36">
    <path d="M 8.760294 16.8 
L 12.731951 16.8 
Q 14.292245 16.8 14.292245 15.239706 
L 14.292245 11.268049 
Q 14.292245 9.707755 12.731951 9.707755 
L 8.760294 9.707755 
Q 7.2 9.707755 7.2 11.268049 
L 7.2 15.239706 
Q 7.2 16.8 8.760294 16.8 
z
" clip-path="url(#p5ceffd0838)" style="fill: #ffa502; opacity: 0.07"/>
   </g>
   <g id="patch_37">
    <path d="M 8.794776 16.8 
L 12.854204 16.8 
Q 14.44898 16.8 14.44898 15.205224 
L 14.44898 11.145796 
Q 14.44898 9.55102 12.854204 9.55102 
L 8.794776 9.55102 
Q 7.2 9.55102 7.2 11.145796 
L 7.2 15.205224 
Q 7.2 16.8 8.794776 16.8 
z
" clip-path="url(#p5ceffd0838)" style="fill: #ffa402; opacity: 0.07"/>
   </g>
   <g id="patch_38">
    <path d="M 8.829257 16.8 
L 12.976457 16.8 
Q 14.605714 16.8 14.605714 15.170743 
L 14.605714 11.023543 
Q 14.605714 9.394286 12.976457 9.394286 
L 8.829257 9.394286 
Q 7.2 9.394286 7.2 11.023543 
L 7.2 15.170743 
Q 7.2 16.8 8.829257 16.8 
z
" clip-path="url(#p5ceffd0838)" style="fill: #ffa402; opacity: 0.07"/>
   </g>
   <g id="patch_39">
    <path d="M 8.863739 16.8 
L 13.09871 16.8 
Q 14.762449 16.8 14.762449 15.136261 
L 14.762449 10.90129 
Q 14.762449 9.237551 13.09871 9.237551 
L 8.863739 9.237551 
Q 7.2 9.237551 7.2 10.90129 
L 7.2 15.136261 
Q 7.2 16.8 8.863739 16.8 
z
" clip-path="url(#p5ceffd0838)" style="fill: #ffa302; opacity: 0.07"/>
   </g>
   <g id="patch_40">
    <path d="M 8.89822 16.8 
L 13.220963 16.8 
Q 14.919184 16.8 14.919184 15.10178 
L 14.919184 10.779037 
Q 14.919184 9.080816 13.220963 9.080816 
L 8.89822 9.080816 
Q 7.2 9.080816 7.2 10.779037 
L 7.2 15.10178 
Q 7.2 16.8 8.89822 16.8 
z
" clip-path="url(#p5ceffd0838)" style="fill: #ffa202; opacity: 0.07"/>
   </g>
   <g id="patch_41">
    <path d="M 8.932702 16.8 
L 13.343216 16.8 
Q 15.075918 16.8 15.075918 15.067298 
L 15.075918 10.656784 
Q 15.075918 8.924082 13.343216 8.924082 
L 8.932702 8.924082 
Q 7.2 8.924082 7.2 10.656784 
L 7.2 15.067298 
Q 7.2 16.8 8.932702 16.8 
z
" clip-path="url(#p5ceffd0838)" style="fill: #ffa102; opacity: 0.07"/>
   </g>
   <g id="patch_42">
    <path d="M 8.967184 16.8 
L 13.465469 16.8 
Q 15.232653 16.8 15.232653 15.032816 
L 15.232653 10.534531 
Q 15.232653 8.767347 13.465469 8.767347 
L 8.967184 8.767347 
Q 7.2 8.767347 7.2 10.534531 
L 7.2 15.032816 
Q 7.2 16.8 8.967184 16.8 
z
" clip-path="url(#p5ceffd0838)" style="fill: #ffa001; opacity: 0.07"/>
   </g>
   <g id="patch_43">
    <path d="M 9.001665 16.8 
L 13.587722 16.8 
Q 15.389388 16.8 15.389388 14.998335 
L 15.389388 10.412278 
Q 15.389388 8.610612 13.587722 8.610612 
L 9.001665 8.610612 
Q 7.2 8.610612 7.2 10.412278 
L 7.2 14.998335 
Q 7.2 16.8 9.001665 16.8 
z
" clip-path="url(#p5ceffd0838)" style="fill: #ff9f01; opacity: 0.07"/>
   </g>
   <g id="patch_44">
    <path d="M 9.036147 16.8 
L 13.709976 16.8 
Q 15.546122 16.8 15.546122 14.963853 
L 15.546122 10.290024 
Q 15.546122 8.453878 13.709976 8.453878 
L 9.036147 8.453878 
Q 7.2 8.453878 7.2 10.290024 
L 7.2 14.963853 
Q 7.2 16.8 9.036147 16.8 
z
" clip-path="url(#p5ceffd0838)" style="fill: #ff9f01; opacity: 0.07"/>
   </g>
   <g id="patch_45">
    <path d="M 9.070629 16.8 
L 13.832229 16.8 
Q 15.702857 16.8 15.702857 14.929371 
L 15.702857 10.167771 
Q 15.702857 8.297143 13.832229 8.297143 
L 9.070629 8.297143 
Q 7.2 8.297143 7.2 10.167771 
L 7.2 14.929371 
Q 7.2 16.8 9.070629 16.8 
z
" clip-path="url(#p5ceffd0838)" style="fill: #ff9e01; opacity: 0.07"/>
   </g>
   <g id="patch_46">
    <path d="M 9.10511 16.8 
L 13.954482 16.8 
Q 15.859592 16.8 15.859592 14.89489 
L 15.859592 10.045518 
Q 15.859592 8.140408 13.954482 8.140408 
L 9.10511 8.140408 
Q 7.2 8.140408 7.2 10.045518 
L 7.2 14.89489 
Q 7.2 16.8 9.10511 16.8 
z
" clip-path="url(#p5ceffd0838)" style="fill: #ff9d01; opacity: 0.07"/>
   </g>
   <g id="patch_47">
    <path d="M 9.139592 16.8 
L 14.076735 16.8 
Q 16.016327 16.8 16.016327 14.860408 
L 16.016327 9.923265 
Q 16.016327 7.983673 14.076735 7.983673 
L 9.139592 7.983673 
Q 7.2 7.983673 7.2 9.923265 
L 7.2 14.860408 
Q 7.2 16.8 9.139592 16.8 
z
" clip-path="url(#p5ceffd0838)" style="fill: #ff9c01; opacity: 0.07"/>
   </g>
   <g id="patch_48">
    <path d="M 9.174073 16.8 
L 14.198988 16.8 
Q 16.173061 16.8 16.173061 14.825927 
L 16.173061 9.801012 
Q 16.173061 7.826939 14.198988 7.826939 
L 9.174073 7.826939 
Q 7.2 7.826939 7.2 9.801012 
L 7.2 14.825927 
Q 7.2 16.8 9.174073 16.8 
z
" clip-path="url(#p5ceffd0838)" style="fill: #ff9b01; opacity: 0.07"/>
   </g>
   <g id="patch_49">
    <path d="M 9.208555 16.8 
L 14.321241 16.8 
Q 16.329796 16.8 16.329796 14.791445 
L 16.329796 9.678759 
Q 16.329796 7.670204 14.321241 7.670204 
L 9.208555 7.670204 
Q 7.2 7.670204 7.2 9.678759 
L 7.2 14.791445 
Q 7.2 16.8 9.208555 16.8 
z
" clip-path="url(#p5ceffd0838)" style="fill: #ff9a00; opacity: 0.07"/>
   </g>
   <g id="patch_50">
    <path d="M 9.243037 16.8 
L 14.443494 16.8 
Q 16.486531 16.8 16.486531 14.756963 
L 16.486531 9.556506 
Q 16.486531 7.513469 14.443494 7.513469 
L 9.243037 7.513469 
Q 7.2 7.513469 7.2 9.556506 
L 7.2 14.756963 
Q 7.2 16.8 9.243037 16.8 
z
" clip-path="url(#p5ceffd0838)" style="fill: #ff9a00; opacity: 0.07"/>
   </g>
   <g id="patch_51">
    <path d="M 9.277518 16.8 
L 14.565747 16.8 
Q 16.643265 16.8 16.643265 14.722482 
L 16.643265 9.434253 
Q 16.643265 7.356735 14.565747 7.356735 
L 9.277518 7.356735 
Q 7.2 7.356735 7.2 9.434253 
L 7.2 14.722482 
Q 7.2 16.8 9.277518 16.8 
z
" clip-path="url(#p5ceffd0838)" style="fill: #ff9900; opacity: 0.07"/>
   </g>
   <g id="patch_52">
    <path d="M 9.312 16.8 
L 14.688 16.8 
Q 16.8 16.8 16.8 14.688 
L 16.8 9.312 
Q 16.8 7.2 14.688 7.2 
L 9.312 7.2 
Q 7.2 7.2 7.2 9.312 
L 7.2 14.688 
Q 7.2 16.8 9.312 16.8 
z
" clip-path="url(#p5ceffd0838)" style="fill: #ff9800; opacity: 0.07"/>
   </g>
   <g id="patch_53">
    <path d="M 14.00448 10.15296 
L 13.979802 10.46653 
L 13.906374 10.772378 
L 13.786005 11.062975 
L 13.621658 11.331164 
L 13.417381 11.570341 
L 13.178204 11.774618 
L 12.910015 11.938965 
L 12.619418 12.059334 
L 12.31357 12.132762 
L 12 12.15744 
L 11.68643 12.132762 
L 11.380582 12.059334 
L 11.089985 11.938965 
L 10.821796 11.774618 
L 10.582619 11.570341 
L 10.378342 11.331164 
L 10.213995 11.062975 
L 10.093626 10.772378 
L 10.020198 10.46653 
L 9.99552 10.15296 
L 14.00448 12.15744 
L 12 13.71648 
L 9.99552 12.15744 
L 9.99552 10.15296 
L 14.00448 10.15296 
" clip-path="url(#p5ceffd0838)" style="fill: #ffffff"/>
   </g>
   <g id="patch_54">
    <path d="M 10.99776 11.712 
C 11.174958 11.712 11.344922 11.641598 11.47022 11.5163 
C 11.595518 11.391002 11.66592 11.221038 11.66592 11.04384 
C 11.66592 10.866642 11.595518 10.696678 11.47022 10.57138 
C 11.344922 10.446082 11.174958 10.37568 10.99776 10.37568 
C 10.820562 10.37568 10.650598 10.446082 10.5253 10.57138 
C 10.400002 10.696678 10.3296 10.866642 10.3296 11.04384 
C 10.3296 11.221038 10.400002 11.391002 10.5253 11.5163 
C 10.650598 11.641598 10.820562 11.712 10.99776 11.712 
z
" clip-path="url(#p5ceffd0838)" style="fill: #ffffff"/>
   </g>
   <g id="patch_55">
    <path d="M 13.00224 11.712 
C 13.179438 11.712 13.349402 11.641598 13.4747 11.5163 
C 13.599998 11.391002 13.6704 11.221038 13.6704 11.04384 
C 13.6704 10.866642 13.599998 10.696678 13.4747 10.57138 
C 13.349402 10.446082 13.179438 10.37568 13.00224 10.37568 
C 12.825042 10.37568 12.655078 10.446082 12.52978 10.57138 
C 12.404482 10.696678 12.33408 10.866642 12.33408 11.04384 
C 12.33408 11.221038 12.404482 11.391002 12.52978 11.5163 
C 12.655078 11.641598 12.825042 11.712 13.00224 11.712 
z
" clip-path="url(#p5ceffd0838)" style="fill: #ffffff"/>
   </g>
  </g>
 </g>
 <defs>
  <clipPath id="p5ceffd0838">
   <rect x="7.2" y="7.2" width="9.6" height="9.6"/>
  </clipPath>
 </defs>
</svg>
