<?xml version="1.0" encoding="utf-8" standalone="no"?>
<!DOCTYPE svg PUBLIC "-//W3C//DTD SVG 1.1//EN"
  "http://www.w3.org/Graphics/SVG/1.1/DTD/svg11.dtd">
<svg xmlns:xlink="http://www.w3.org/1999/xlink" width="54.48pt" height="54.48pt" viewBox="0 0 54.48 54.48" xmlns="http://www.w3.org/2000/svg" version="1.1">
 <metadata>
  <rdf:RDF xmlns:dc="http://purl.org/dc/elements/1.1/" xmlns:cc="http://creativecommons.org/ns#" xmlns:rdf="http://www.w3.org/1999/02/22-rdf-syntax-ns#">
   <cc:Work>
    <dc:type rdf:resource="http://purl.org/dc/dcmitype/StillImage"/>
    <dc:date>2025-10-07T21:53:26.856804</dc:date>
    <dc:format>image/svg+xml</dc:format>
    <dc:creator>
     <cc:Agent>
      <dc:title>Matplotlib v3.6.3, https://matplotlib.org/</dc:title>
     </cc:Agent>
    </dc:creator>
   </cc:Work>
  </rdf:RDF>
 </metadata>
 <defs>
  <style type="text/css">*{stroke-linejoin: round; stroke-linecap: butt}</style>
 </defs>
 <g id="figure_1">
  <g id="patch_1">
   <path d="M 0 54.48 
L 54.48 54.48 
L 54.48 0 
L 0 0 
z
" style="fill: #ffffff"/>
  </g>
  <g id="axes_1">
   <g id="patch_2">
    <path d="M 16.0176 47.28 
L 38.4624 47.28 
Q 47.28 47.28 47.28 38.4624 
L 47.28 16.0176 
Q 47.28 7.2 38.4624 7.2 
L 16.0176 7.2 
Q 7.2 7.2 7.2 16.0176 
L 7.2 38.4624 
Q 7.2 47.28 16.0176 47.28 
z
" clip-path="url(#pa487fb9dc5)" style="fill: #ffc107"/>
   </g>
   <g id="patch_3">
    <path d="M 8.96352 47.28 
L 13.45248 47.28 
Q 15.216 47.28 15.216 45.51648 
L 15.216 41.02752 
Q 15.216 39.264 13.45248 39.264 
L 8.96352 39.264 
Q 7.2 39.264 7.2 41.02752 
L 7.2 45.51648 
Q 7.2 47.28 8.96352 47.28 
z
" clip-path="url(#pa487fb9dc5)" style="fill: #ffc107; opacity: 0.07"/>
   </g>
   <g id="patch_4">
    <path d="M 9.107481 47.28 
L 13.962887 47.28 
Q 15.870367 47.28 15.870367 45.372519 
L 15.870367 40.517113 
Q 15.870367 38.609633 13.962887 38.609633 
L 9.107481 38.609633 
Q 7.2 38.609633 7.2 40.517113 
L 7.2 45.372519 
Q 7.2 47.28 9.107481 47.28 
z
" clip-path="url(#pa487fb9dc5)" style="fill: #ffc007; opacity: 0.07"/>
   </g>
   <g id="patch_5">
    <path d="M 9.251442 47.28 
L 14.473293 47.28 
Q 16.524735 47.28 16.524735 45.228558 
L 16.524735 40.006707 
Q 16.524735 37.955265 14.473293 37.955265 
L 9.251442 37.955265 
Q 7.2 37.955265 7.2 40.006707 
L 7.2 45.228558 
Q 7.2 47.28 9.251442 47.28 
z
" clip-path="url(#pa487fb9dc5)" style="fill: #ffbf07; opacity: 0.07"/>
   </g>
   <g id="patch_6">
    <path d="M 9.395402 47.28 
L 14.9837 47.28 
Q 17.179102 47.28 17.179102 45.084598 
L 17.179102 39.4963 
Q 17.179102 37.300898 14.9837 37.300898 
L 9.395402 37.300898 
Q 7.2 37.300898 7.2 39.4963 
L 7.2 45.084598 
Q 7.2 47.28 9.395402 47.28 
z
" clip-path="url(#pa487fb9dc5)" style="fill: #ffbe06; opacity: 0.07"/>
   </g>
   <g id="patch_7">
    <path d="M 9.539363 47.28 
L 15.494106 47.28 
Q 17.833469 47.28 17.833469 44.940637 
L 17.833469 38.985894 
Q 17.833469 36.646531 15.494106 36.646531 
L 9.539363 36.646531 
Q 7.2 36.646531 7.2 38.985894 
L 7.2 44.940637 
Q 7.2 47.28 9.539363 47.28 
z
" clip-path="url(#pa487fb9dc5)" style="fill: #ffbd06; opacity: 0.07"/>
   </g>
   <g id="patch_8">
    <path d="M 9.683324 47.28 
L 16.004513 47.28 
Q 18.487837 47.28 18.487837 44.796676 
L 18.487837 38.475487 
Q 18.487837 35.992163 16.004513 35.992163 
L 9.683324 35.992163 
Q 7.2 35.992163 7.2 38.475487 
L 7.2 44.796676 
Q 7.2 47.28 9.683324 47.28 
z
" clip-path="url(#pa487fb9dc5)" style="fill: #ffbd06; opacity: 0.07"/>
   </g>
   <g id="patch_9">
    <path d="M 9.827285 47.28 
L 16.514919 47.28 
Q 19.142204 47.28 19.142204 44.652715 
L 19.142204 37.965081 
Q 19.142204 35.337796 16.514919 35.337796 
L 9.827285 35.337796 
Q 7.2 35.337796 7.2 37.965081 
L 7.2 44.652715 
Q 7.2 47.28 9.827285 47.28 
z
" clip-path="url(#pa487fb9dc5)" style="fill: #ffbc06; opacity: 0.07"/>
   </g>
   <g id="patch_10">
    <path d="M 9.971246 47.28 
L 17.025326 47.28 
Q 19.796571 47.28 19.796571 44.508754 
L 19.796571 37.454674 
Q 19.796571 34.683429 17.025326 34.683429 
L 9.971246 34.683429 
Q 7.2 34.683429 7.2 37.454674 
L 7.2 44.508754 
Q 7.2 47.28 9.971246 47.28 
z
" clip-path="url(#pa487fb9dc5)" style="fill: #ffbb06; opacity: 0.07"/>
   </g>
   <g id="patch_11">
    <path d="M 10.115207 47.28 
L 17.535732 47.28 
Q 20.450939 47.28 20.450939 44.364793 
L 20.450939 36.944268 
Q 20.450939 34.029061 17.535732 34.029061 
L 10.115207 34.029061 
Q 7.2 34.029061 7.2 36.944268 
L 7.2 44.364793 
Q 7.2 47.28 10.115207 47.28 
z
" clip-path="url(#pa487fb9dc5)" style="fill: #ffba06; opacity: 0.07"/>
   </g>
   <g id="patch_12">
    <path d="M 10.259167 47.28 
L 18.046139 47.28 
Q 21.105306 47.28 21.105306 44.220833 
L 21.105306 36.433861 
Q 21.105306 33.374694 18.046139 33.374694 
L 10.259167 33.374694 
Q 7.2 33.374694 7.2 36.433861 
L 7.2 44.220833 
Q 7.2 47.28 10.259167 47.28 
z
" clip-path="url(#pa487fb9dc5)" style="fill: #ffb906; opacity: 0.07"/>
   </g>
   <g id="patch_13">
    <path d="M 10.403128 47.28 
L 18.556545 47.28 
Q 21.759673 47.28 21.759673 44.076872 
L 21.759673 35.923455 
Q 21.759673 32.720327 18.556545 32.720327 
L 10.403128 32.720327 
Q 7.2 32.720327 7.2 35.923455 
L 7.2 44.076872 
Q 7.2 47.28 10.403128 47.28 
z
" clip-path="url(#pa487fb9dc5)" style="fill: #ffb805; opacity: 0.07"/>
   </g>
   <g id="patch_14">
    <path d="M 10.547089 47.28 
L 19.066952 47.28 
Q 22.414041 47.28 22.414041 43.932911 
L 22.414041 35.413048 
Q 22.414041 32.065959 19.066952 32.065959 
L 10.547089 32.065959 
Q 7.2 32.065959 7.2 35.413048 
L 7.2 43.932911 
Q 7.2 47.28 10.547089 47.28 
z
" clip-path="url(#pa487fb9dc5)" style="fill: #ffb805; opacity: 0.07"/>
   </g>
   <g id="patch_15">
    <path d="M 10.69105 47.28 
L 19.577358 47.28 
Q 23.068408 47.28 23.068408 43.78895 
L 23.068408 34.902642 
Q 23.068408 31.411592 19.577358 31.411592 
L 10.69105 31.411592 
Q 7.2 31.411592 7.2 34.902642 
L 7.2 43.78895 
Q 7.2 47.28 10.69105 47.28 
z
" clip-path="url(#pa487fb9dc5)" style="fill: #ffb705; opacity: 0.07"/>
   </g>
   <g id="patch_16">
    <path d="M 10.835011 47.28 
L 20.087765 47.28 
Q 23.722776 47.28 23.722776 43.644989 
L 23.722776 34.392235 
Q 23.722776 30.757224 20.087765 30.757224 
L 10.835011 30.757224 
Q 7.2 30.757224 7.2 34.392235 
L 7.2 43.644989 
Q 7.2 47.28 10.835011 47.28 
z
" clip-path="url(#pa487fb9dc5)" style="fill: #ffb605; opacity: 0.07"/>
   </g>
   <g id="patch_17">
    <path d="M 10.978971 47.28 
L 20.598171 47.28 
Q 24.377143 47.28 24.377143 43.501029 
L 24.377143 33.881829 
Q 24.377143 30.102857 20.598171 30.102857 
L 10.978971 30.102857 
Q 7.2 30.102857 7.2 33.881829 
L 7.2 43.501029 
Q 7.2 47.28 10.978971 47.28 
z
" clip-path="url(#pa487fb9dc5)" style="fill: #ffb505; opacity: 0.07"/>
   </g>
   <g id="patch_18">
    <path d="M 11.122932 47.28 
L 21.108578 47.28 
Q 25.03151 47.28 25.03151 43.357068 
L 25.03151 33.371422 
Q 25.03151 29.44849 21.108578 29.44849 
L 11.122932 29.44849 
Q 7.2 29.44849 7.2 33.371422 
L 7.2 43.357068 
Q 7.2 47.28 11.122932 47.28 
z
" clip-path="url(#pa487fb9dc5)" style="fill: #ffb405; opacity: 0.07"/>
   </g>
   <g id="patch_19">
    <path d="M 11.266893 47.28 
L 21.618984 47.28 
Q 25.685878 47.28 25.685878 43.213107 
L 25.685878 32.861016 
Q 25.685878 28.794122 21.618984 28.794122 
L 11.266893 28.794122 
Q 7.2 28.794122 7.2 32.861016 
L 7.2 43.213107 
Q 7.2 47.28 11.266893 47.28 
z
" clip-path="url(#pa487fb9dc5)" style="fill: #ffb305; opacity: 0.07"/>
   </g>
   <g id="patch_20">
    <path d="M 11.410854 47.28 
L 22.129391 47.28 
Q 26.340245 47.28 26.340245 43.069146 
L 26.340245 32.350609 
Q 26.340245 28.139755 22.129391 28.139755 
L 11.410854 28.139755 
Q 7.2 28.139755 7.2 32.350609 
L 7.2 43.069146 
Q 7.2 47.28 11.410854 47.28 
z
" clip-path="url(#pa487fb9dc5)" style="fill: #ffb304; opacity: 0.07"/>
   </g>
   <g id="patch_21">
    <path d="M 11.554815 47.28 
L 22.639798 47.28 
Q 26.994612 47.28 26.994612 42.925185 
L 26.994612 31.840202 
Q 26.994612 27.485388 22.639798 27.485388 
L 11.554815 27.485388 
Q 7.2 27.485388 7.2 31.840202 
L 7.2 42.925185 
Q 7.2 47.28 11.554815 47.28 
z
" clip-path="url(#pa487fb9dc5)" style="fill: #ffb204; opacity: 0.07"/>
   </g>
   <g id="patch_22">
    <path d="M 11.698776 47.28 
L 23.150204 47.28 
Q 27.64898 47.28 27.64898 42.781224 
L 27.64898 31.329796 
Q 27.64898 26.83102 23.150204 26.83102 
L 11.698776 26.83102 
Q 7.2 26.83102 7.2 31.329796 
L 7.2 42.781224 
Q 7.2 47.28 11.698776 47.28 
z
" clip-path="url(#pa487fb9dc5)" style="fill: #ffb104; opacity: 0.07"/>
   </g>
   <g id="patch_23">
    <path d="M 11.842736 47.28 
L 23.660611 47.28 
Q 28.303347 47.28 28.303347 42.637264 
L 28.303347 30.819389 
Q 28.303347 26.176653 23.660611 26.176653 
L 11.842736 26.176653 
Q 7.2 26.176653 7.2 30.819389 
L 7.2 42.637264 
Q 7.2 47.28 11.842736 47.28 
z
" clip-path="url(#pa487fb9dc5)" style="fill: #ffb004; opacity: 0.07"/>
   </g>
   <g id="patch_24">
    <path d="M 11.986697 47.28 
L 24.171017 47.28 
Q 28.957714 47.28 28.957714 42.493303 
L 28.957714 30.308983 
Q 28.957714 25.522286 24.171017 25.522286 
L 11.986697 25.522286 
Q 7.2 25.522286 7.2 30.308983 
L 7.2 42.493303 
Q 7.2 47.28 11.986697 47.28 
z
" clip-path="url(#pa487fb9dc5)" style="fill: #ffaf04; opacity: 0.07"/>
   </g>
   <g id="patch_25">
    <path d="M 12.130658 47.28 
L 24.681424 47.28 
Q 29.612082 47.28 29.612082 42.349342 
L 29.612082 29.798576 
Q 29.612082 24.867918 24.681424 24.867918 
L 12.130658 24.867918 
Q 7.2 24.867918 7.2 29.798576 
L 7.2 42.349342 
Q 7.2 47.28 12.130658 47.28 
z
" clip-path="url(#pa487fb9dc5)" style="fill: #ffae04; opacity: 0.07"/>
   </g>
   <g id="patch_26">
    <path d="M 12.274619 47.28 
L 25.19183 47.28 
Q 30.266449 47.28 30.266449 42.205381 
L 30.266449 29.28817 
Q 30.266449 24.213551 25.19183 24.213551 
L 12.274619 24.213551 
Q 7.2 24.213551 7.2 29.28817 
L 7.2 42.205381 
Q 7.2 47.28 12.274619 47.28 
z
" clip-path="url(#pa487fb9dc5)" style="fill: #ffae04; opacity: 0.07"/>
   </g>
   <g id="patch_27">
    <path d="M 12.41858 47.28 
L 25.702237 47.28 
Q 30.920816 47.28 30.920816 42.06142 
L 30.920816 28.777763 
Q 30.920816 23.559184 25.702237 23.559184 
L 12.41858 23.559184 
Q 7.2 23.559184 7.2 28.777763 
L 7.2 42.06142 
Q 7.2 47.28 12.41858 47.28 
z
" clip-path="url(#pa487fb9dc5)" style="fill: #ffad04; opacity: 0.07"/>
   </g>
   <g id="patch_28">
    <path d="M 12.56254 47.28 
L 26.212643 47.28 
Q 31.575184 47.28 31.575184 41.91746 
L 31.575184 28.267357 
Q 31.575184 22.904816 26.212643 22.904816 
L 12.56254 22.904816 
Q 7.2 22.904816 7.2 28.267357 
L 7.2 41.91746 
Q 7.2 47.28 12.56254 47.28 
z
" clip-path="url(#pa487fb9dc5)" style="fill: #ffac03; opacity: 0.07"/>
   </g>
   <g id="patch_29">
    <path d="M 12.706501 47.28 
L 26.72305 47.28 
Q 32.229551 47.28 32.229551 41.773499 
L 32.229551 27.75695 
Q 32.229551 22.250449 26.72305 22.250449 
L 12.706501 22.250449 
Q 7.2 22.250449 7.2 27.75695 
L 7.2 41.773499 
Q 7.2 47.28 12.706501 47.28 
z
" clip-path="url(#pa487fb9dc5)" style="fill: #ffab03; opacity: 0.07"/>
   </g>
   <g id="patch_30">
    <path d="M 12.850462 47.28 
L 27.233456 47.28 
Q 32.883918 47.28 32.883918 41.629538 
L 32.883918 27.246544 
Q 32.883918 21.596082 27.233456 21.596082 
L 12.850462 21.596082 
Q 7.2 21.596082 7.2 27.246544 
L 7.2 41.629538 
Q 7.2 47.28 12.850462 47.28 
z
" clip-path="url(#pa487fb9dc5)" style="fill: #ffaa03; opacity: 0.07"/>
   </g>
   <g id="patch_31">
    <path d="M 12.994423 47.28 
L 27.743863 47.28 
Q 33.538286 47.28 33.538286 41.485577 
L 33.538286 26.736137 
Q 33.538286 20.941714 27.743863 20.941714 
L 12.994423 20.941714 
Q 7.2 20.941714 7.2 26.736137 
L 7.2 41.485577 
Q 7.2 47.28 12.994423 47.28 
z
" clip-path="url(#pa487fb9dc5)" style="fill: #ffa903; opacity: 0.07"/>
   </g>
   <g id="patch_32">
    <path d="M 13.138384 47.28 
L 28.254269 47.28 
Q 34.192653 47.28 34.192653 41.341616 
L 34.192653 26.225731 
Q 34.192653 20.287347 28.254269 20.287347 
L 13.138384 20.287347 
Q 7.2 20.287347 7.2 26.225731 
L 7.2 41.341616 
Q 7.2 47.28 13.138384 47.28 
z
" clip-path="url(#pa487fb9dc5)" style="fill: #ffa903; opacity: 0.07"/>
   </g>
   <g id="patch_33">
    <path d="M 13.282344 47.28 
L 28.764676 47.28 
Q 34.84702 47.28 34.84702 41.197656 
L 34.84702 25.715324 
Q 34.84702 19.63298 28.764676 19.63298 
L 13.282344 19.63298 
Q 7.2 19.63298 7.2 25.715324 
L 7.2 41.197656 
Q 7.2 47.28 13.282344 47.28 
z
" clip-path="url(#pa487fb9dc5)" style="fill: #ffa803; opacity: 0.07"/>
   </g>
   <g id="patch_34">
    <path d="M 13.426305 47.28 
L 29.275082 47.28 
Q 35.501388 47.28 35.501388 41.053695 
L 35.501388 25.204918 
Q 35.501388 18.978612 29.275082 18.978612 
L 13.426305 18.978612 
Q 7.2 18.978612 7.2 25.204918 
L 7.2 41.053695 
Q 7.2 47.28 13.426305 47.28 
z
" clip-path="url(#pa487fb9dc5)" style="fill: #ffa703; opacity: 0.07"/>
   </g>
   <g id="patch_35">
    <path d="M 13.570266 47.28 
L 29.785489 47.28 
Q 36.155755 47.28 36.155755 40.909734 
L 36.155755 24.694511 
Q 36.155755 18.324245 29.785489 18.324245 
L 13.570266 18.324245 
Q 7.2 18.324245 7.2 24.694511 
L 7.2 40.909734 
Q 7.2 47.28 13.570266 47.28 
z
" clip-path="url(#pa487fb9dc5)" style="fill: #ffa602; opacity: 0.07"/>
   </g>
   <g id="patch_36">
    <path d="M 13.714227 47.28 
L 30.295896 47.28 
Q 36.810122 47.28 36.810122 40.765773 
L 36.810122 24.184104 
Q 36.810122 17.669878 30.295896 17.669878 
L 13.714227 17.669878 
Q 7.2 17.669878 7.2 24.184104 
L 7.2 40.765773 
Q 7.2 47.28 13.714227 47.28 
z
" clip-path="url(#pa487fb9dc5)" style="fill: #ffa502; opacity: 0.07"/>
   </g>
   <g id="patch_37">
    <path d="M 13.858188 47.28 
L 30.806302 47.28 
Q 37.46449 47.28 37.46449 40.621812 
L 37.46449 23.673698 
Q 37.46449 17.01551 30.806302 17.01551 
L 13.858188 17.01551 
Q 7.2 17.01551 7.2 23.673698 
L 7.2 40.621812 
Q 7.2 47.28 13.858188 47.28 
z
" clip-path="url(#pa487fb9dc5)" style="fill: #ffa402; opacity: 0.07"/>
   </g>
   <g id="patch_38">
    <path d="M 14.002149 47.28 
L 31.316709 47.28 
Q 38.118857 47.28 38.118857 40.477851 
L 38.118857 23.163291 
Q 38.118857 16.361143 31.316709 16.361143 
L 14.002149 16.361143 
Q 7.2 16.361143 7.2 23.163291 
L 7.2 40.477851 
Q 7.2 47.28 14.002149 47.28 
z
" clip-path="url(#pa487fb9dc5)" style="fill: #ffa402; opacity: 0.07"/>
   </g>
   <g id="patch_39">
    <path d="M 14.146109 47.28 
L 31.827115 47.28 
Q 38.773224 47.28 38.773224 40.333891 
L 38.773224 22.652885 
Q 38.773224 15.706776 31.827115 15.706776 
L 14.146109 15.706776 
Q 7.2 15.706776 7.2 22.652885 
L 7.2 40.333891 
Q 7.2 47.28 14.146109 47.28 
z
" clip-path="url(#pa487fb9dc5)" style="fill: #ffa302; opacity: 0.07"/>
   </g>
   <g id="patch_40">
    <path d="M 14.29007 47.28 
L 32.337522 47.28 
Q 39.427592 47.28 39.427592 40.18993 
L 39.427592 22.142478 
Q 39.427592 15.052408 32.337522 15.052408 
L 14.29007 15.052408 
Q 7.2 15.052408 7.2 22.142478 
L 7.2 40.18993 
Q 7.2 47.28 14.29007 47.28 
z
" clip-path="url(#pa487fb9dc5)" style="fill: #ffa202; opacity: 0.07"/>
   </g>
   <g id="patch_41">
    <path d="M 14.434031 47.28 
L 32.847928 47.28 
Q 40.081959 47.28 40.081959 40.045969 
L 40.081959 21.632072 
Q 40.081959 14.398041 32.847928 14.398041 
L 14.434031 14.398041 
Q 7.2 14.398041 7.2 21.632072 
L 7.2 40.045969 
Q 7.2 47.28 14.434031 47.28 
z
" clip-path="url(#pa487fb9dc5)" style="fill: #ffa102; opacity: 0.07"/>
   </g>
   <g id="patch_42">
    <path d="M 14.577992 47.28 
L 33.358335 47.28 
Q 40.736327 47.28 40.736327 39.902008 
L 40.736327 21.121665 
Q 40.736327 13.743673 33.358335 13.743673 
L 14.577992 13.743673 
Q 7.2 13.743673 7.2 21.121665 
L 7.2 39.902008 
Q 7.2 47.28 14.577992 47.28 
z
" clip-path="url(#pa487fb9dc5)" style="fill: #ffa001; opacity: 0.07"/>
   </g>
   <g id="patch_43">
    <path d="M 14.721953 47.28 
L 33.868741 47.28 
Q 41.390694 47.28 41.390694 39.758047 
L 41.390694 20.611259 
Q 41.390694 13.089306 33.868741 13.089306 
L 14.721953 13.089306 
Q 7.2 13.089306 7.2 20.611259 
L 7.2 39.758047 
Q 7.2 47.28 14.721953 47.28 
z
" clip-path="url(#pa487fb9dc5)" style="fill: #ff9f01; opacity: 0.07"/>
   </g>
   <g id="patch_44">
    <path d="M 14.865913 47.28 
L 34.379148 47.28 
Q 42.045061 47.28 42.045061 39.614087 
L 42.045061 20.100852 
Q 42.045061 12.434939 34.379148 12.434939 
L 14.865913 12.434939 
Q 7.2 12.434939 7.2 20.100852 
L 7.2 39.614087 
Q 7.2 47.28 14.865913 47.28 
z
" clip-path="url(#pa487fb9dc5)" style="fill: #ff9f01; opacity: 0.07"/>
   </g>
   <g id="patch_45">
    <path d="M 15.009874 47.28 
L 34.889554 47.28 
Q 42.699429 47.28 42.699429 39.470126 
L 42.699429 19.590446 
Q 42.699429 11.780571 34.889554 11.780571 
L 15.009874 11.780571 
Q 7.2 11.780571 7.2 19.590446 
L 7.2 39.470126 
Q 7.2 47.28 15.009874 47.28 
z
" clip-path="url(#pa487fb9dc5)" style="fill: #ff9e01; opacity: 0.07"/>
   </g>
   <g id="patch_46">
    <path d="M 15.153835 47.28 
L 35.399961 47.28 
Q 43.353796 47.28 43.353796 39.326165 
L 43.353796 19.080039 
Q 43.353796 11.126204 35.399961 11.126204 
L 15.153835 11.126204 
Q 7.2 11.126204 7.2 19.080039 
L 7.2 39.326165 
Q 7.2 47.28 15.153835 47.28 
z
" clip-path="url(#pa487fb9dc5)" style="fill: #ff9d01; opacity: 0.07"/>
   </g>
   <g id="patch_47">
    <path d="M 15.297796 47.28 
L 35.910367 47.28 
Q 44.008163 47.28 44.008163 39.182204 
L 44.008163 18.569633 
Q 44.008163 10.471837 35.910367 10.471837 
L 15.297796 10.471837 
Q 7.2 10.471837 7.2 18.569633 
L 7.2 39.182204 
Q 7.2 47.28 15.297796 47.28 
z
" clip-path="url(#pa487fb9dc5)" style="fill: #ff9c01; opacity: 0.07"/>
   </g>
   <g id="patch_48">
    <path d="M 15.441757 47.28 
L 36.420774 47.28 
Q 44.662531 47.28 44.662531 39.038243 
L 44.662531 18.059226 
Q 44.662531 9.817469 36.420774 9.817469 
L 15.441757 9.817469 
Q 7.2 9.817469 7.2 18.059226 
L 7.2 39.038243 
Q 7.2 47.28 15.441757 47.28 
z
" clip-path="url(#pa487fb9dc5)" style="fill: #ff9b01; opacity: 0.07"/>
   </g>
   <g id="patch_49">
    <path d="M 15.585718 47.28 
L 36.93118 47.28 
Q 45.316898 47.28 45.316898 38.894282 
L 45.316898 17.54882 
Q 45.316898 9.163102 36.93118 9.163102 
L 15.585718 9.163102 
Q 7.2 9.163102 7.2 17.54882 
L 7.2 38.894282 
Q 7.2 47.28 15.585718 47.28 
z
" clip-path="url(#pa487fb9dc5)" style="fill: #ff9a00; opacity: 0.07"/>
   </g>
   <g id="patch_50">
    <path d="M 15.729678 47.28 
L 37.441587 47.28 
Q 45.971265 47.28 45.971265 38.750322 
L 45.971265 17.038413 
Q 45.971265 8.508735 37.441587 8.508735 
L 15.729678 8.508735 
Q 7.2 8.508735 7.2 17.038413 
L 7.2 38.750322 
Q 7.2 47.28 15.729678 47.28 
z
" clip-path="url(#pa487fb9dc5)" style="fill: #ff9a00; opacity: 0.07"/>
   </g>
   <g id="patch_51">
    <path d="M 15.873639 47.28 
L 37.951993 47.28 
Q 46.625633 47.28 46.625633 38.606361 
L 46.625633 16.528007 
Q 46.625633 7.854367 37.951993 7.854367 
L 15.873639 7.854367 
Q 7.2 7.854367 7.2 16.528007 
L 7.2 38.606361 
Q 7.2 47.28 15.873639 47.28 
z
" clip-path="url(#pa487fb9dc5)" style="fill: #ff9900; opacity: 0.07"/>
   </g>
   <g id="patch_52">
    <path d="M 16.0176 47.28 
L 38.4624 47.28 
Q 47.28 47.28 47.28 38.4624 
L 47.28 16.0176 
Q 47.28 7.2 38.4624 7.2 
L 16.0176 7.2 
Q 7.2 7.2 7.2 16.0176 
L 7.2 38.4624 
Q 7.2 47.28 16.0176 47.28 
z
" clip-path="url(#pa487fb9dc5)" style="fill: #ff9800; opacity: 0.07"/>
   </g>
   <g id="patch_53">
    <path d="M 35.608704 19.528608 
L 35.505671 20.837762 
L 35.19911 22.11468 
L 34.69657 23.32792 
L 34.010424 24.447609 
L 33.157567 25.446175 
L 32.159001 26.299032 
L 31.039312 26.985178 
L 29.826072 27.487718 
L 28.549154 27.794279 
L 27.24 27.897312 
L 25.930846 27.794279 
L 24.653928 27.487718 
L 23.440688 26.985178 
L 22.320999 26.299032 
L 21.322433 25.446175 
L 20.469576 24.447609 
L 19.78343 23.32792 
L 19.28089 22.11468 
L 18.974329 20.837762 
L 18.871296 19.528608 
L 35.608704 27.897312 
L 27.24 34.406304 
L 18.871296 27.897312 
L 18.871296 19.528608 
L 35.608704 19.528608 
" clip-path="url(#pa487fb9dc5)" style="fill: #ffffff"/>
   </g>
   <g id="patch_54">
    <path d="M 23.055648 26.0376 
C 23.79545 26.0376 24.505051 25.743674 25.02817 25.220554 
C 25.55129 24.697435 25.845216 23.987834 25.845216 23.248032 
C 25.845216 22.50823 25.55129 21.798629 25.02817 21.27551 
C 24.505051 20.75239 23.79545 20.458464 23.055648 20.458464 
C 22.315846 20.458464 21.606245 20.75239 21.083126 21.27551 
C 20.560006 21.798629 20.26608 22.50823 20.26608 23.248032 
C 20.26608 23.987834 20.560006 24.697435 21.083126 25.220554 
C 21.606245 25.743674 22.315846 26.0376 23.055648 26.0376 
z
" clip-path="url(#pa487fb9dc5)" style="fill: #ffffff"/>
   </g>
   <g id="patch_55">
    <path d="M 31.424352 26.0376 
C 32.164154 26.0376 32.873755 25.743674 33.396874 25.220554 
C 33.919994 24.697435 34.21392 23.987834 34.21392 23.248032 
C 34.21392 22.50823 33.919994 21.798629 33.396874 21.27551 
C 32.873755 20.75239 32.164154 20.458464 31.424352 20.458464 
C 30.68455 20.458464 29.974949 20.75239 29.45183 21.27551 
C 28.92871 21.798629 28.634784 22.50823 28.634784 23.248032 
C 28.634784 23.987834 28.92871 24.697435 29.45183 25.220554 
C 29.974949 25.743674 30.68455 26.0376 31.424352 26.0376 
z
" clip-path="url(#pa487fb9dc5)" style="fill: #ffffff"/>
   </g>
  </g>
 </g>
 <defs>
  <clipPath id="pa487fb9dc5">
   <rect x="7.2" y="7.2" width="40.08" height="40.08"/>
  </clipPath>
 </defs>
</svg>
