<?xml version="1.0" encoding="utf-8" standalone="no"?>
<!DOCTYPE svg PUBLIC "-//W3C//DTD SVG 1.1//EN"
  "http://www.w3.org/Graphics/SVG/1.1/DTD/svg11.dtd">
<svg xmlns:xlink="http://www.w3.org/1999/xlink" width="33.6pt" height="33.6pt" viewBox="0 0 33.6 33.6" xmlns="http://www.w3.org/2000/svg" version="1.1">
 <metadata>
  <rdf:RDF xmlns:dc="http://purl.org/dc/elements/1.1/" xmlns:cc="http://creativecommons.org/ns#" xmlns:rdf="http://www.w3.org/1999/02/22-rdf-syntax-ns#">
   <cc:Work>
    <dc:type rdf:resource="http://purl.org/dc/dcmitype/StillImage"/>
    <dc:date>2025-10-07T21:53:27.599207</dc:date>
    <dc:format>image/svg+xml</dc:format>
    <dc:creator>
     <cc:Agent>
      <dc:title>Matplotlib v3.6.3, https://matplotlib.org/</dc:title>
     </cc:Agent>
    </dc:creator>
   </cc:Work>
  </rdf:RDF>
 </metadata>
 <defs>
  <style type="text/css">*{stroke-linejoin: round; stroke-linecap: butt}</style>
 </defs>
 <g id="figure_1">
  <g id="patch_1">
   <path d="M 0 33.6 
L 33.6 33.6 
L 33.6 0 
L 0 0 
z
" style="fill: #ffffff"/>
  </g>
  <g id="axes_1">
   <g id="patch_2">
    <path d="M 11.424 26.4 
L 22.176 26.4 
Q 26.4 26.4 26.4 22.176 
L 26.4 11.424 
Q 26.4 7.2 22.176 7.2 
L 11.424 7.2 
Q 7.2 7.2 7.2 11.424 
L 7.2 22.176 
Q 7.2 26.4 11.424 26.4 
z
" clip-path="url(#pe4891fd976)" style="fill: #ffc107"/>
   </g>
   <g id="patch_3">
    <path d="M 8.0448 26.4 
L 10.1952 26.4 
Q 11.04 26.4 11.04 25.5552 
L 11.04 23.4048 
Q 11.04 22.56 10.1952 22.56 
L 8.0448 22.56 
Q 7.2 22.56 7.2 23.4048 
L 7.2 25.5552 
Q 7.2 26.4 8.0448 26.4 
z
" clip-path="url(#pe4891fd976)" style="fill: #ffc107; opacity: 0.07"/>
   </g>
   <g id="patch_4">
    <path d="M 8.113763 26.4 
L 10.439706 26.4 
Q 11.353469 26.4 11.353469 25.486237 
L 11.353469 23.160294 
Q 11.353469 22.246531 10.439706 22.246531 
L 8.113763 22.246531 
Q 7.2 22.246531 7.2 23.160294 
L 7.2 25.486237 
Q 7.2 26.4 8.113763 26.4 
z
" clip-path="url(#pe4891fd976)" style="fill: #ffc007; opacity: 0.07"/>
   </g>
   <g id="patch_5">
    <path d="M 8.182727 26.4 
L 10.684212 26.4 
Q 11.666939 26.4 11.666939 25.417273 
L 11.666939 22.915788 
Q 11.666939 21.933061 10.684212 21.933061 
L 8.182727 21.933061 
Q 7.2 21.933061 7.2 22.915788 
L 7.2 25.417273 
Q 7.2 26.4 8.182727 26.4 
z
" clip-path="url(#pe4891fd976)" style="fill: #ffbf07; opacity: 0.07"/>
   </g>
   <g id="patch_6">
    <path d="M 8.25169 26.4 
L 10.928718 26.4 
Q 11.980408 26.4 11.980408 25.34831 
L 11.980408 22.671282 
Q 11.980408 21.619592 10.928718 21.619592 
L 8.25169 21.619592 
Q 7.2 21.619592 7.2 22.671282 
L 7.2 25.34831 
Q 7.2 26.4 8.25169 26.4 
z
" clip-path="url(#pe4891fd976)" style="fill: #ffbe06; opacity: 0.07"/>
   </g>
   <g id="patch_7">
    <path d="M 8.320653 26.4 
L 11.173224 26.4 
Q 12.293878 26.4 12.293878 25.279347 
L 12.293878 22.426776 
Q 12.293878 21.306122 11.173224 21.306122 
L 8.320653 21.306122 
Q 7.2 21.306122 7.2 22.426776 
L 7.2 25.279347 
Q 7.2 26.4 8.320653 26.4 
z
" clip-path="url(#pe4891fd976)" style="fill: #ffbd06; opacity: 0.07"/>
   </g>
   <g id="patch_8">
    <path d="M 8.389616 26.4 
L 11.417731 26.4 
Q 12.607347 26.4 12.607347 25.210384 
L 12.607347 22.182269 
Q 12.607347 20.992653 11.417731 20.992653 
L 8.389616 20.992653 
Q 7.2 20.992653 7.2 22.182269 
L 7.2 25.210384 
Q 7.2 26.4 8.389616 26.4 
z
" clip-path="url(#pe4891fd976)" style="fill: #ffbd06; opacity: 0.07"/>
   </g>
   <g id="patch_9">
    <path d="M 8.45858 26.4 
L 11.662237 26.4 
Q 12.920816 26.4 12.920816 25.14142 
L 12.920816 21.937763 
Q 12.920816 20.679184 11.662237 20.679184 
L 8.45858 20.679184 
Q 7.2 20.679184 7.2 21.937763 
L 7.2 25.14142 
Q 7.2 26.4 8.45858 26.4 
z
" clip-path="url(#pe4891fd976)" style="fill: #ffbc06; opacity: 0.07"/>
   </g>
   <g id="patch_10">
    <path d="M 8.527543 26.4 
L 11.906743 26.4 
Q 13.234286 26.4 13.234286 25.072457 
L 13.234286 21.693257 
Q 13.234286 20.365714 11.906743 20.365714 
L 8.527543 20.365714 
Q 7.2 20.365714 7.2 21.693257 
L 7.2 25.072457 
Q 7.2 26.4 8.527543 26.4 
z
" clip-path="url(#pe4891fd976)" style="fill: #ffbb06; opacity: 0.07"/>
   </g>
   <g id="patch_11">
    <path d="M 8.596506 26.4 
L 12.151249 26.4 
Q 13.547755 26.4 13.547755 25.003494 
L 13.547755 21.448751 
Q 13.547755 20.052245 12.151249 20.052245 
L 8.596506 20.052245 
Q 7.2 20.052245 7.2 21.448751 
L 7.2 25.003494 
Q 7.2 26.4 8.596506 26.4 
z
" clip-path="url(#pe4891fd976)" style="fill: #ffba06; opacity: 0.07"/>
   </g>
   <g id="patch_12">
    <path d="M 8.665469 26.4 
L 12.395755 26.4 
Q 13.861224 26.4 13.861224 24.934531 
L 13.861224 21.204245 
Q 13.861224 19.738776 12.395755 19.738776 
L 8.665469 19.738776 
Q 7.2 19.738776 7.2 21.204245 
L 7.2 24.934531 
Q 7.2 26.4 8.665469 26.4 
z
" clip-path="url(#pe4891fd976)" style="fill: #ffb906; opacity: 0.07"/>
   </g>
   <g id="patch_13">
    <path d="M 8.734433 26.4 
L 12.640261 26.4 
Q 14.174694 26.4 14.174694 24.865567 
L 14.174694 20.959739 
Q 14.174694 19.425306 12.640261 19.425306 
L 8.734433 19.425306 
Q 7.2 19.425306 7.2 20.959739 
L 7.2 24.865567 
Q 7.2 26.4 8.734433 26.4 
z
" clip-path="url(#pe4891fd976)" style="fill: #ffb805; opacity: 0.07"/>
   </g>
   <g id="patch_14">
    <path d="M 8.803396 26.4 
L 12.884767 26.4 
Q 14.488163 26.4 14.488163 24.796604 
L 14.488163 20.715233 
Q 14.488163 19.111837 12.884767 19.111837 
L 8.803396 19.111837 
Q 7.2 19.111837 7.2 20.715233 
L 7.2 24.796604 
Q 7.2 26.4 8.803396 26.4 
z
" clip-path="url(#pe4891fd976)" style="fill: #ffb805; opacity: 0.07"/>
   </g>
   <g id="patch_15">
    <path d="M 8.872359 26.4 
L 13.129273 26.4 
Q 14.801633 26.4 14.801633 24.727641 
L 14.801633 20.470727 
Q 14.801633 18.798367 13.129273 18.798367 
L 8.872359 18.798367 
Q 7.2 18.798367 7.2 20.470727 
L 7.2 24.727641 
Q 7.2 26.4 8.872359 26.4 
z
" clip-path="url(#pe4891fd976)" style="fill: #ffb705; opacity: 0.07"/>
   </g>
   <g id="patch_16">
    <path d="M 8.941322 26.4 
L 13.37378 26.4 
Q 15.115102 26.4 15.115102 24.658678 
L 15.115102 20.22622 
Q 15.115102 18.484898 13.37378 18.484898 
L 8.941322 18.484898 
Q 7.2 18.484898 7.2 20.22622 
L 7.2 24.658678 
Q 7.2 26.4 8.941322 26.4 
z
" clip-path="url(#pe4891fd976)" style="fill: #ffb605; opacity: 0.07"/>
   </g>
   <g id="patch_17">
    <path d="M 9.010286 26.4 
L 13.618286 26.4 
Q 15.428571 26.4 15.428571 24.589714 
L 15.428571 19.981714 
Q 15.428571 18.171429 13.618286 18.171429 
L 9.010286 18.171429 
Q 7.2 18.171429 7.2 19.981714 
L 7.2 24.589714 
Q 7.2 26.4 9.010286 26.4 
z
" clip-path="url(#pe4891fd976)" style="fill: #ffb505; opacity: 0.07"/>
   </g>
   <g id="patch_18">
    <path d="M 9.079249 26.4 
L 13.862792 26.4 
Q 15.742041 26.4 15.742041 24.520751 
L 15.742041 19.737208 
Q 15.742041 17.857959 13.862792 17.857959 
L 9.079249 17.857959 
Q 7.2 17.857959 7.2 19.737208 
L 7.2 24.520751 
Q 7.2 26.4 9.079249 26.4 
z
" clip-path="url(#pe4891fd976)" style="fill: #ffb405; opacity: 0.07"/>
   </g>
   <g id="patch_19">
    <path d="M 9.148212 26.4 
L 14.107298 26.4 
Q 16.05551 26.4 16.05551 24.451788 
L 16.05551 19.492702 
Q 16.05551 17.54449 14.107298 17.54449 
L 9.148212 17.54449 
Q 7.2 17.54449 7.2 19.492702 
L 7.2 24.451788 
Q 7.2 26.4 9.148212 26.4 
z
" clip-path="url(#pe4891fd976)" style="fill: #ffb305; opacity: 0.07"/>
   </g>
   <g id="patch_20">
    <path d="M 9.217176 26.4 
L 14.351804 26.4 
Q 16.36898 26.4 16.36898 24.382824 
L 16.36898 19.248196 
Q 16.36898 17.23102 14.351804 17.23102 
L 9.217176 17.23102 
Q 7.2 17.23102 7.2 19.248196 
L 7.2 24.382824 
Q 7.2 26.4 9.217176 26.4 
z
" clip-path="url(#pe4891fd976)" style="fill: #ffb304; opacity: 0.07"/>
   </g>
   <g id="patch_21">
    <path d="M 9.286139 26.4 
L 14.59631 26.4 
Q 16.682449 26.4 16.682449 24.313861 
L 16.682449 19.00369 
Q 16.682449 16.917551 14.59631 16.917551 
L 9.286139 16.917551 
Q 7.2 16.917551 7.2 19.00369 
L 7.2 24.313861 
Q 7.2 26.4 9.286139 26.4 
z
" clip-path="url(#pe4891fd976)" style="fill: #ffb204; opacity: 0.07"/>
   </g>
   <g id="patch_22">
    <path d="M 9.355102 26.4 
L 14.840816 26.4 
Q 16.995918 26.4 16.995918 24.244898 
L 16.995918 18.759184 
Q 16.995918 16.604082 14.840816 16.604082 
L 9.355102 16.604082 
Q 7.2 16.604082 7.2 18.759184 
L 7.2 24.244898 
Q 7.2 26.4 9.355102 26.4 
z
" clip-path="url(#pe4891fd976)" style="fill: #ffb104; opacity: 0.07"/>
   </g>
   <g id="patch_23">
    <path d="M 9.424065 26.4 
L 15.085322 26.4 
Q 17.309388 26.4 17.309388 24.175935 
L 17.309388 18.514678 
Q 17.309388 16.290612 15.085322 16.290612 
L 9.424065 16.290612 
Q 7.2 16.290612 7.2 18.514678 
L 7.2 24.175935 
Q 7.2 26.4 9.424065 26.4 
z
" clip-path="url(#pe4891fd976)" style="fill: #ffb004; opacity: 0.07"/>
   </g>
   <g id="patch_24">
    <path d="M 9.493029 26.4 
L 15.329829 26.4 
Q 17.622857 26.4 17.622857 24.106971 
L 17.622857 18.270171 
Q 17.622857 15.977143 15.329829 15.977143 
L 9.493029 15.977143 
Q 7.2 15.977143 7.2 18.270171 
L 7.2 24.106971 
Q 7.2 26.4 9.493029 26.4 
z
" clip-path="url(#pe4891fd976)" style="fill: #ffaf04; opacity: 0.07"/>
   </g>
   <g id="patch_25">
    <path d="M 9.561992 26.4 
L 15.574335 26.4 
Q 17.936327 26.4 17.936327 24.038008 
L 17.936327 18.025665 
Q 17.936327 15.663673 15.574335 15.663673 
L 9.561992 15.663673 
Q 7.2 15.663673 7.2 18.025665 
L 7.2 24.038008 
Q 7.2 26.4 9.561992 26.4 
z
" clip-path="url(#pe4891fd976)" style="fill: #ffae04; opacity: 0.07"/>
   </g>
   <g id="patch_26">
    <path d="M 9.630955 26.4 
L 15.818841 26.4 
Q 18.249796 26.4 18.249796 23.969045 
L 18.249796 17.781159 
Q 18.249796 15.350204 15.818841 15.350204 
L 9.630955 15.350204 
Q 7.2 15.350204 7.2 17.781159 
L 7.2 23.969045 
Q 7.2 26.4 9.630955 26.4 
z
" clip-path="url(#pe4891fd976)" style="fill: #ffae04; opacity: 0.07"/>
   </g>
   <g id="patch_27">
    <path d="M 9.699918 26.4 
L 16.063347 26.4 
Q 18.563265 26.4 18.563265 23.900082 
L 18.563265 17.536653 
Q 18.563265 15.036735 16.063347 15.036735 
L 9.699918 15.036735 
Q 7.2 15.036735 7.2 17.536653 
L 7.2 23.900082 
Q 7.2 26.4 9.699918 26.4 
z
" clip-path="url(#pe4891fd976)" style="fill: #ffad04; opacity: 0.07"/>
   </g>
   <g id="patch_28">
    <path d="M 9.768882 26.4 
L 16.307853 26.4 
Q 18.876735 26.4 18.876735 23.831118 
L 18.876735 17.292147 
Q 18.876735 14.723265 16.307853 14.723265 
L 9.768882 14.723265 
Q 7.2 14.723265 7.2 17.292147 
L 7.2 23.831118 
Q 7.2 26.4 9.768882 26.4 
z
" clip-path="url(#pe4891fd976)" style="fill: #ffac03; opacity: 0.07"/>
   </g>
   <g id="patch_29">
    <path d="M 9.837845 26.4 
L 16.552359 26.4 
Q 19.190204 26.4 19.190204 23.762155 
L 19.190204 17.047641 
Q 19.190204 14.409796 16.552359 14.409796 
L 9.837845 14.409796 
Q 7.2 14.409796 7.2 17.047641 
L 7.2 23.762155 
Q 7.2 26.4 9.837845 26.4 
z
" clip-path="url(#pe4891fd976)" style="fill: #ffab03; opacity: 0.07"/>
   </g>
   <g id="patch_30">
    <path d="M 9.906808 26.4 
L 16.796865 26.4 
Q 19.503673 26.4 19.503673 23.693192 
L 19.503673 16.803135 
Q 19.503673 14.096327 16.796865 14.096327 
L 9.906808 14.096327 
Q 7.2 14.096327 7.2 16.803135 
L 7.2 23.693192 
Q 7.2 26.4 9.906808 26.4 
z
" clip-path="url(#pe4891fd976)" style="fill: #ffaa03; opacity: 0.07"/>
   </g>
   <g id="patch_31">
    <path d="M 9.975771 26.4 
L 17.041371 26.4 
Q 19.817143 26.4 19.817143 23.624229 
L 19.817143 16.558629 
Q 19.817143 13.782857 17.041371 13.782857 
L 9.975771 13.782857 
Q 7.2 13.782857 7.2 16.558629 
L 7.2 23.624229 
Q 7.2 26.4 9.975771 26.4 
z
" clip-path="url(#pe4891fd976)" style="fill: #ffa903; opacity: 0.07"/>
   </g>
   <g id="patch_32">
    <path d="M 10.044735 26.4 
L 17.285878 26.4 
Q 20.130612 26.4 20.130612 23.555265 
L 20.130612 16.314122 
Q 20.130612 13.469388 17.285878 13.469388 
L 10.044735 13.469388 
Q 7.2 13.469388 7.2 16.314122 
L 7.2 23.555265 
Q 7.2 26.4 10.044735 26.4 
z
" clip-path="url(#pe4891fd976)" style="fill: #ffa903; opacity: 0.07"/>
   </g>
   <g id="patch_33">
    <path d="M 10.113698 26.4 
L 17.530384 26.4 
Q 20.444082 26.4 20.444082 23.486302 
L 20.444082 16.069616 
Q 20.444082 13.155918 17.530384 13.155918 
L 10.113698 13.155918 
Q 7.2 13.155918 7.2 16.069616 
L 7.2 23.486302 
Q 7.2 26.4 10.113698 26.4 
z
" clip-path="url(#pe4891fd976)" style="fill: #ffa803; opacity: 0.07"/>
   </g>
   <g id="patch_34">
    <path d="M 10.182661 26.4 
L 17.77489 26.4 
Q 20.757551 26.4 20.757551 23.417339 
L 20.757551 15.82511 
Q 20.757551 12.842449 17.77489 12.842449 
L 10.182661 12.842449 
Q 7.2 12.842449 7.2 15.82511 
L 7.2 23.417339 
Q 7.2 26.4 10.182661 26.4 
z
" clip-path="url(#pe4891fd976)" style="fill: #ffa703; opacity: 0.07"/>
   </g>
   <g id="patch_35">
    <path d="M 10.251624 26.4 
L 18.019396 26.4 
Q 21.07102 26.4 21.07102 23.348376 
L 21.07102 15.580604 
Q 21.07102 12.52898 18.019396 12.52898 
L 10.251624 12.52898 
Q 7.2 12.52898 7.2 15.580604 
L 7.2 23.348376 
Q 7.2 26.4 10.251624 26.4 
z
" clip-path="url(#pe4891fd976)" style="fill: #ffa602; opacity: 0.07"/>
   </g>
   <g id="patch_36">
    <path d="M 10.320588 26.4 
L 18.263902 26.4 
Q 21.38449 26.4 21.38449 23.279412 
L 21.38449 15.336098 
Q 21.38449 12.21551 18.263902 12.21551 
L 10.320588 12.21551 
Q 7.2 12.21551 7.2 15.336098 
L 7.2 23.279412 
Q 7.2 26.4 10.320588 26.4 
z
" clip-path="url(#pe4891fd976)" style="fill: #ffa502; opacity: 0.07"/>
   </g>
   <g id="patch_37">
    <path d="M 10.389551 26.4 
L 18.508408 26.4 
Q 21.697959 26.4 21.697959 23.210449 
L 21.697959 15.091592 
Q 21.697959 11.902041 18.508408 11.902041 
L 10.389551 11.902041 
Q 7.2 11.902041 7.2 15.091592 
L 7.2 23.210449 
Q 7.2 26.4 10.389551 26.4 
z
" clip-path="url(#pe4891fd976)" style="fill: #ffa402; opacity: 0.07"/>
   </g>
   <g id="patch_38">
    <path d="M 10.458514 26.4 
L 18.752914 26.4 
Q 22.011429 26.4 22.011429 23.141486 
L 22.011429 14.847086 
Q 22.011429 11.588571 18.752914 11.588571 
L 10.458514 11.588571 
Q 7.2 11.588571 7.2 14.847086 
L 7.2 23.141486 
Q 7.2 26.4 10.458514 26.4 
z
" clip-path="url(#pe4891fd976)" style="fill: #ffa402; opacity: 0.07"/>
   </g>
   <g id="patch_39">
    <path d="M 10.527478 26.4 
L 18.99742 26.4 
Q 22.324898 26.4 22.324898 23.072522 
L 22.324898 14.60258 
Q 22.324898 11.275102 18.99742 11.275102 
L 10.527478 11.275102 
Q 7.2 11.275102 7.2 14.60258 
L 7.2 23.072522 
Q 7.2 26.4 10.527478 26.4 
z
" clip-path="url(#pe4891fd976)" style="fill: #ffa302; opacity: 0.07"/>
   </g>
   <g id="patch_40">
    <path d="M 10.596441 26.4 
L 19.241927 26.4 
Q 22.638367 26.4 22.638367 23.003559 
L 22.638367 14.358073 
Q 22.638367 10.961633 19.241927 10.961633 
L 10.596441 10.961633 
Q 7.2 10.961633 7.2 14.358073 
L 7.2 23.003559 
Q 7.2 26.4 10.596441 26.4 
z
" clip-path="url(#pe4891fd976)" style="fill: #ffa202; opacity: 0.07"/>
   </g>
   <g id="patch_41">
    <path d="M 10.665404 26.4 
L 19.486433 26.4 
Q 22.951837 26.4 22.951837 22.934596 
L 22.951837 14.113567 
Q 22.951837 10.648163 19.486433 10.648163 
L 10.665404 10.648163 
Q 7.2 10.648163 7.2 14.113567 
L 7.2 22.934596 
Q 7.2 26.4 10.665404 26.4 
z
" clip-path="url(#pe4891fd976)" style="fill: #ffa102; opacity: 0.07"/>
   </g>
   <g id="patch_42">
    <path d="M 10.734367 26.4 
L 19.730939 26.4 
Q 23.265306 26.4 23.265306 22.865633 
L 23.265306 13.869061 
Q 23.265306 10.334694 19.730939 10.334694 
L 10.734367 10.334694 
Q 7.2 10.334694 7.2 13.869061 
L 7.2 22.865633 
Q 7.2 26.4 10.734367 26.4 
z
" clip-path="url(#pe4891fd976)" style="fill: #ffa001; opacity: 0.07"/>
   </g>
   <g id="patch_43">
    <path d="M 10.803331 26.4 
L 19.975445 26.4 
Q 23.578776 26.4 23.578776 22.796669 
L 23.578776 13.624555 
Q 23.578776 10.021224 19.975445 10.021224 
L 10.803331 10.021224 
Q 7.2 10.021224 7.2 13.624555 
L 7.2 22.796669 
Q 7.2 26.4 10.803331 26.4 
z
" clip-path="url(#pe4891fd976)" style="fill: #ff9f01; opacity: 0.07"/>
   </g>
   <g id="patch_44">
    <path d="M 10.872294 26.4 
L 20.219951 26.4 
Q 23.892245 26.4 23.892245 22.727706 
L 23.892245 13.380049 
Q 23.892245 9.707755 20.219951 9.707755 
L 10.872294 9.707755 
Q 7.2 9.707755 7.2 13.380049 
L 7.2 22.727706 
Q 7.2 26.4 10.872294 26.4 
z
" clip-path="url(#pe4891fd976)" style="fill: #ff9f01; opacity: 0.07"/>
   </g>
   <g id="patch_45">
    <path d="M 10.941257 26.4 
L 20.464457 26.4 
Q 24.205714 26.4 24.205714 22.658743 
L 24.205714 13.135543 
Q 24.205714 9.394286 20.464457 9.394286 
L 10.941257 9.394286 
Q 7.2 9.394286 7.2 13.135543 
L 7.2 22.658743 
Q 7.2 26.4 10.941257 26.4 
z
" clip-path="url(#pe4891fd976)" style="fill: #ff9e01; opacity: 0.07"/>
   </g>
   <g id="patch_46">
    <path d="M 11.01022 26.4 
L 20.708963 26.4 
Q 24.519184 26.4 24.519184 22.58978 
L 24.519184 12.891037 
Q 24.519184 9.080816 20.708963 9.080816 
L 11.01022 9.080816 
Q 7.2 9.080816 7.2 12.891037 
L 7.2 22.58978 
Q 7.2 26.4 11.01022 26.4 
z
" clip-path="url(#pe4891fd976)" style="fill: #ff9d01; opacity: 0.07"/>
   </g>
   <g id="patch_47">
    <path d="M 11.079184 26.4 
L 20.953469 26.4 
Q 24.832653 26.4 24.832653 22.520816 
L 24.832653 12.646531 
Q 24.832653 8.767347 20.953469 8.767347 
L 11.079184 8.767347 
Q 7.2 8.767347 7.2 12.646531 
L 7.2 22.520816 
Q 7.2 26.4 11.079184 26.4 
z
" clip-path="url(#pe4891fd976)" style="fill: #ff9c01; opacity: 0.07"/>
   </g>
   <g id="patch_48">
    <path d="M 11.148147 26.4 
L 21.197976 26.4 
Q 25.146122 26.4 25.146122 22.451853 
L 25.146122 12.402024 
Q 25.146122 8.453878 21.197976 8.453878 
L 11.148147 8.453878 
Q 7.2 8.453878 7.2 12.402024 
L 7.2 22.451853 
Q 7.2 26.4 11.148147 26.4 
z
" clip-path="url(#pe4891fd976)" style="fill: #ff9b01; opacity: 0.07"/>
   </g>
   <g id="patch_49">
    <path d="M 11.21711 26.4 
L 21.442482 26.4 
Q 25.459592 26.4 25.459592 22.38289 
L 25.459592 12.157518 
Q 25.459592 8.140408 21.442482 8.140408 
L 11.21711 8.140408 
Q 7.2 8.140408 7.2 12.157518 
L 7.2 22.38289 
Q 7.2 26.4 11.21711 26.4 
z
" clip-path="url(#pe4891fd976)" style="fill: #ff9a00; opacity: 0.07"/>
   </g>
   <g id="patch_50">
    <path d="M 11.286073 26.4 
L 21.686988 26.4 
Q 25.773061 26.4 25.773061 22.313927 
L 25.773061 11.913012 
Q 25.773061 7.826939 21.686988 7.826939 
L 11.286073 7.826939 
Q 7.2 7.826939 7.2 11.913012 
L 7.2 22.313927 
Q 7.2 26.4 11.286073 26.4 
z
" clip-path="url(#pe4891fd976)" style="fill: #ff9a00; opacity: 0.07"/>
   </g>
   <g id="patch_51">
    <path d="M 11.355037 26.4 
L 21.931494 26.4 
Q 26.086531 26.4 26.086531 22.244963 
L 26.086531 11.668506 
Q 26.086531 7.513469 21.931494 7.513469 
L 11.355037 7.513469 
Q 7.2 7.513469 7.2 11.668506 
L 7.2 22.244963 
Q 7.2 26.4 11.355037 26.4 
z
" clip-path="url(#pe4891fd976)" style="fill: #ff9900; opacity: 0.07"/>
   </g>
   <g id="patch_52">
    <path d="M 11.424 26.4 
L 22.176 26.4 
Q 26.4 26.4 26.4 22.176 
L 26.4 11.424 
Q 26.4 7.2 22.176 7.2 
L 11.424 7.2 
Q 7.2 7.2 7.2 11.424 
L 7.2 22.176 
Q 7.2 26.4 11.424 26.4 
z
" clip-path="url(#pe4891fd976)" style="fill: #ff9800; opacity: 0.07"/>
   </g>
   <g id="patch_53">
    <path d="M 20.80896 13.10592 
L 20.759603 13.73306 
L 20.612748 14.344757 
L 20.37201 14.92595 
L 20.043317 15.462328 
L 19.634763 15.940683 
L 19.156408 16.349237 
L 18.62003 16.67793 
L 18.038837 16.918668 
L 17.42714 17.065523 
L 16.8 17.11488 
L 16.17286 17.065523 
L 15.561163 16.918668 
L 14.97997 16.67793 
L 14.443592 16.349237 
L 13.965237 15.940683 
L 13.556683 15.462328 
L 13.22799 14.92595 
L 12.987252 14.344757 
L 12.840397 13.73306 
L 12.79104 13.10592 
L 20.80896 17.11488 
L 16.8 20.23296 
L 12.79104 17.11488 
L 12.79104 13.10592 
L 20.80896 13.10592 
" clip-path="url(#pe4891fd976)" style="fill: #ffffff"/>
   </g>
   <g id="patch_54">
    <path d="M 14.79552 16.224 
C 15.149916 16.224 15.489845 16.083197 15.740441 15.832601 
C 15.991037 15.582005 16.13184 15.242076 16.13184 14.88768 
C 16.13184 14.533284 15.991037 14.193355 15.740441 13.942759 
C 15.489845 13.692163 15.149916 13.55136 14.79552 13.55136 
C 14.441124 13.55136 14.101195 13.692163 13.850599 13.942759 
C 13.600003 14.193355 13.4592 14.533284 13.4592 14.88768 
C 13.4592 15.242076 13.600003 15.582005 13.850599 15.832601 
C 14.101195 16.083197 14.441124 16.224 14.79552 16.224 
z
" clip-path="url(#pe4891fd976)" style="fill: #ffffff"/>
   </g>
   <g id="patch_55">
    <path d="M 18.80448 16.224 
C 19.158876 16.224 19.498805 16.083197 19.749401 15.832601 
C 19.999997 15.582005 20.1408 15.242076 20.1408 14.88768 
C 20.1408 14.533284 19.999997 14.193355 19.749401 13.942759 
C 19.498805 13.692163 19.158876 13.55136 18.80448 13.55136 
C 18.450084 13.55136 18.110155 13.692163 17.859559 13.942759 
C 17.608963 14.193355 17.46816 14.533284 17.46816 14.88768 
C 17.46816 15.242076 17.608963 15.582005 17.859559 15.832601 
C 18.110155 16.083197 18.450084 16.224 18.80448 16.224 
z
" clip-path="url(#pe4891fd976)" style="fill: #ffffff"/>
   </g>
  </g>
 </g>
 <defs>
  <clipPath id="pe4891fd976">
   <rect x="7.2" y="7.2" width="19.2" height="19.2"/>
  </clipPath>
 </defs>
</svg>
