<?xml version="1.0" encoding="utf-8" standalone="no"?>
<!DOCTYPE svg PUBLIC "-//W3C//DTD SVG 1.1//EN"
  "http://www.w3.org/Graphics/SVG/1.1/DTD/svg11.dtd">
<svg xmlns:xlink="http://www.w3.org/1999/xlink" width="260.16pt" height="260.16pt" viewBox="0 0 260.16 260.16" xmlns="http://www.w3.org/2000/svg" version="1.1">
 <metadata>
  <rdf:RDF xmlns:dc="http://purl.org/dc/elements/1.1/" xmlns:cc="http://creativecommons.org/ns#" xmlns:rdf="http://www.w3.org/1999/02/22-rdf-syntax-ns#">
   <cc:Work>
    <dc:type rdf:resource="http://purl.org/dc/dcmitype/StillImage"/>
    <dc:date>2025-10-07T21:53:25.586115</dc:date>
    <dc:format>image/svg+xml</dc:format>
    <dc:creator>
     <cc:Agent>
      <dc:title>Matplotlib v3.6.3, https://matplotlib.org/</dc:title>
     </cc:Agent>
    </dc:creator>
   </cc:Work>
  </rdf:RDF>
 </metadata>
 <defs>
  <style type="text/css">*{stroke-linejoin: round; stroke-linecap: butt}</style>
 </defs>
 <g id="figure_1">
  <g id="patch_1">
   <path d="M 0 260.16 
L 260.16 260.16 
L 260.16 0 
L 0 0 
z
" style="fill: #ffffff"/>
  </g>
  <g id="axes_1">
   <g id="patch_2">
    <path d="M 61.2672 252.96 
L 198.8928 252.96 
Q 252.96 252.96 252.96 198.8928 
L 252.96 61.2672 
Q 252.96 7.2 198.8928 7.2 
L 61.2672 7.2 
Q 7.2 7.2 7.2 61.2672 
L 7.2 198.8928 
Q 7.2 252.96 61.2672 252.96 
z
" clip-path="url(#pf3cd34ae67)" style="fill: #ffc107"/>
   </g>
   <g id="patch_3">
    <path d="M 18.01344 252.96 
L 45.53856 252.96 
Q 56.352 252.96 56.352 242.14656 
L 56.352 214.62144 
Q 56.352 203.808 45.53856 203.808 
L 18.01344 203.808 
Q 7.2 203.808 7.2 214.62144 
L 7.2 242.14656 
Q 7.2 252.96 18.01344 252.96 
z
" clip-path="url(#pf3cd34ae67)" style="fill: #ffc107; opacity: 0.07"/>
   </g>
   <g id="patch_4">
    <path d="M 18.89617 252.96 
L 48.668238 252.96 
Q 60.364408 252.96 60.364408 241.26383 
L 60.364408 211.491762 
Q 60.364408 199.795592 48.668238 199.795592 
L 18.89617 199.795592 
Q 7.2 199.795592 7.2 211.491762 
L 7.2 241.26383 
Q 7.2 252.96 18.89617 252.96 
z
" clip-path="url(#pf3cd34ae67)" style="fill: #ffc007; opacity: 0.07"/>
   </g>
   <g id="patch_5">
    <path d="M 19.7789 252.96 
L 51.797917 252.96 
Q 64.376816 252.96 64.376816 240.3811 
L 64.376816 208.362083 
Q 64.376816 195.783184 51.797917 195.783184 
L 19.7789 195.783184 
Q 7.2 195.783184 7.2 208.362083 
L 7.2 240.3811 
Q 7.2 252.96 19.7789 252.96 
z
" clip-path="url(#pf3cd34ae67)" style="fill: #ffbf07; opacity: 0.07"/>
   </g>
   <g id="patch_6">
    <path d="M 20.661629 252.96 
L 54.927595 252.96 
Q 68.389224 252.96 68.389224 239.498371 
L 68.389224 205.232405 
Q 68.389224 191.770776 54.927595 191.770776 
L 20.661629 191.770776 
Q 7.2 191.770776 7.2 205.232405 
L 7.2 239.498371 
Q 7.2 252.96 20.661629 252.96 
z
" clip-path="url(#pf3cd34ae67)" style="fill: #ffbe06; opacity: 0.07"/>
   </g>
   <g id="patch_7">
    <path d="M 21.544359 252.96 
L 58.057273 252.96 
Q 72.401633 252.96 72.401633 238.615641 
L 72.401633 202.102727 
Q 72.401633 187.758367 58.057273 187.758367 
L 21.544359 187.758367 
Q 7.2 187.758367 7.2 202.102727 
L 7.2 238.615641 
Q 7.2 252.96 21.544359 252.96 
z
" clip-path="url(#pf3cd34ae67)" style="fill: #ffbd06; opacity: 0.07"/>
   </g>
   <g id="patch_8">
    <path d="M 22.427089 252.96 
L 61.186952 252.96 
Q 76.414041 252.96 76.414041 237.732911 
L 76.414041 198.973048 
Q 76.414041 183.745959 61.186952 183.745959 
L 22.427089 183.745959 
Q 7.2 183.745959 7.2 198.973048 
L 7.2 237.732911 
Q 7.2 252.96 22.427089 252.96 
z
" clip-path="url(#pf3cd34ae67)" style="fill: #ffbd06; opacity: 0.07"/>
   </g>
   <g id="patch_9">
    <path d="M 23.309819 252.96 
L 64.31663 252.96 
Q 80.426449 252.96 80.426449 236.850181 
L 80.426449 195.84337 
Q 80.426449 179.733551 64.31663 179.733551 
L 23.309819 179.733551 
Q 7.2 179.733551 7.2 195.84337 
L 7.2 236.850181 
Q 7.2 252.96 23.309819 252.96 
z
" clip-path="url(#pf3cd34ae67)" style="fill: #ffbc06; opacity: 0.07"/>
   </g>
   <g id="patch_10">
    <path d="M 24.192549 252.96 
L 67.446309 252.96 
Q 84.438857 252.96 84.438857 235.967451 
L 84.438857 192.713691 
Q 84.438857 175.721143 67.446309 175.721143 
L 24.192549 175.721143 
Q 7.2 175.721143 7.2 192.713691 
L 7.2 235.967451 
Q 7.2 252.96 24.192549 252.96 
z
" clip-path="url(#pf3cd34ae67)" style="fill: #ffbb06; opacity: 0.07"/>
   </g>
   <g id="patch_11">
    <path d="M 25.075278 252.96 
L 70.575987 252.96 
Q 88.451265 252.96 88.451265 235.084722 
L 88.451265 189.584013 
Q 88.451265 171.708735 70.575987 171.708735 
L 25.075278 171.708735 
Q 7.2 171.708735 7.2 189.584013 
L 7.2 235.084722 
Q 7.2 252.96 25.075278 252.96 
z
" clip-path="url(#pf3cd34ae67)" style="fill: #ffba06; opacity: 0.07"/>
   </g>
   <g id="patch_12">
    <path d="M 25.958008 252.96 
L 73.705665 252.96 
Q 92.463673 252.96 92.463673 234.201992 
L 92.463673 186.454335 
Q 92.463673 167.696327 73.705665 167.696327 
L 25.958008 167.696327 
Q 7.2 167.696327 7.2 186.454335 
L 7.2 234.201992 
Q 7.2 252.96 25.958008 252.96 
z
" clip-path="url(#pf3cd34ae67)" style="fill: #ffb906; opacity: 0.07"/>
   </g>
   <g id="patch_13">
    <path d="M 26.840738 252.96 
L 76.835344 252.96 
Q 96.476082 252.96 96.476082 233.319262 
L 96.476082 183.324656 
Q 96.476082 163.683918 76.835344 163.683918 
L 26.840738 163.683918 
Q 7.2 163.683918 7.2 183.324656 
L 7.2 233.319262 
Q 7.2 252.96 26.840738 252.96 
z
" clip-path="url(#pf3cd34ae67)" style="fill: #ffb805; opacity: 0.07"/>
   </g>
   <g id="patch_14">
    <path d="M 27.723468 252.96 
L 79.965022 252.96 
Q 100.48849 252.96 100.48849 232.436532 
L 100.48849 180.194978 
Q 100.48849 159.67151 79.965022 159.67151 
L 27.723468 159.67151 
Q 7.2 159.67151 7.2 180.194978 
L 7.2 232.436532 
Q 7.2 252.96 27.723468 252.96 
z
" clip-path="url(#pf3cd34ae67)" style="fill: #ffb805; opacity: 0.07"/>
   </g>
   <g id="patch_15">
    <path d="M 28.606198 252.96 
L 83.0947 252.96 
Q 104.500898 252.96 104.500898 231.553802 
L 104.500898 177.0653 
Q 104.500898 155.659102 83.0947 155.659102 
L 28.606198 155.659102 
Q 7.2 155.659102 7.2 177.0653 
L 7.2 231.553802 
Q 7.2 252.96 28.606198 252.96 
z
" clip-path="url(#pf3cd34ae67)" style="fill: #ffb705; opacity: 0.07"/>
   </g>
   <g id="patch_16">
    <path d="M 29.488927 252.96 
L 86.224379 252.96 
Q 108.513306 252.96 108.513306 230.671073 
L 108.513306 173.935621 
Q 108.513306 151.646694 86.224379 151.646694 
L 29.488927 151.646694 
Q 7.2 151.646694 7.2 173.935621 
L 7.2 230.671073 
Q 7.2 252.96 29.488927 252.96 
z
" clip-path="url(#pf3cd34ae67)" style="fill: #ffb605; opacity: 0.07"/>
   </g>
   <g id="patch_17">
    <path d="M 30.371657 252.96 
L 89.354057 252.96 
Q 112.525714 252.96 112.525714 229.788343 
L 112.525714 170.805943 
Q 112.525714 147.634286 89.354057 147.634286 
L 30.371657 147.634286 
Q 7.2 147.634286 7.2 170.805943 
L 7.2 229.788343 
Q 7.2 252.96 30.371657 252.96 
z
" clip-path="url(#pf3cd34ae67)" style="fill: #ffb505; opacity: 0.07"/>
   </g>
   <g id="patch_18">
    <path d="M 31.254387 252.96 
L 92.483736 252.96 
Q 116.538122 252.96 116.538122 228.905613 
L 116.538122 167.676264 
Q 116.538122 143.621878 92.483736 143.621878 
L 31.254387 143.621878 
Q 7.2 143.621878 7.2 167.676264 
L 7.2 228.905613 
Q 7.2 252.96 31.254387 252.96 
z
" clip-path="url(#pf3cd34ae67)" style="fill: #ffb405; opacity: 0.07"/>
   </g>
   <g id="patch_19">
    <path d="M 32.137117 252.96 
L 95.613414 252.96 
Q 120.550531 252.96 120.550531 228.022883 
L 120.550531 164.546586 
Q 120.550531 139.609469 95.613414 139.609469 
L 32.137117 139.609469 
Q 7.2 139.609469 7.2 164.546586 
L 7.2 228.022883 
Q 7.2 252.96 32.137117 252.96 
z
" clip-path="url(#pf3cd34ae67)" style="fill: #ffb305; opacity: 0.07"/>
   </g>
   <g id="patch_20">
    <path d="M 33.019847 252.96 
L 98.743092 252.96 
Q 124.562939 252.96 124.562939 227.140153 
L 124.562939 161.416908 
Q 124.562939 135.597061 98.743092 135.597061 
L 33.019847 135.597061 
Q 7.2 135.597061 7.2 161.416908 
L 7.2 227.140153 
Q 7.2 252.96 33.019847 252.96 
z
" clip-path="url(#pf3cd34ae67)" style="fill: #ffb304; opacity: 0.07"/>
   </g>
   <g id="patch_21">
    <path d="M 33.902576 252.96 
L 101.872771 252.96 
Q 128.575347 252.96 128.575347 226.257424 
L 128.575347 158.287229 
Q 128.575347 131.584653 101.872771 131.584653 
L 33.902576 131.584653 
Q 7.2 131.584653 7.2 158.287229 
L 7.2 226.257424 
Q 7.2 252.96 33.902576 252.96 
z
" clip-path="url(#pf3cd34ae67)" style="fill: #ffb204; opacity: 0.07"/>
   </g>
   <g id="patch_22">
    <path d="M 34.785306 252.96 
L 105.002449 252.96 
Q 132.587755 252.96 132.587755 225.374694 
L 132.587755 155.157551 
Q 132.587755 127.572245 105.002449 127.572245 
L 34.785306 127.572245 
Q 7.2 127.572245 7.2 155.157551 
L 7.2 225.374694 
Q 7.2 252.96 34.785306 252.96 
z
" clip-path="url(#pf3cd34ae67)" style="fill: #ffb104; opacity: 0.07"/>
   </g>
   <g id="patch_23">
    <path d="M 35.668036 252.96 
L 108.132127 252.96 
Q 136.600163 252.96 136.600163 224.491964 
L 136.600163 152.027873 
Q 136.600163 123.559837 108.132127 123.559837 
L 35.668036 123.559837 
Q 7.2 123.559837 7.2 152.027873 
L 7.2 224.491964 
Q 7.2 252.96 35.668036 252.96 
z
" clip-path="url(#pf3cd34ae67)" style="fill: #ffb004; opacity: 0.07"/>
   </g>
   <g id="patch_24">
    <path d="M 36.550766 252.96 
L 111.261806 252.96 
Q 140.612571 252.96 140.612571 223.609234 
L 140.612571 148.898194 
Q 140.612571 119.547429 111.261806 119.547429 
L 36.550766 119.547429 
Q 7.2 119.547429 7.2 148.898194 
L 7.2 223.609234 
Q 7.2 252.96 36.550766 252.96 
z
" clip-path="url(#pf3cd34ae67)" style="fill: #ffaf04; opacity: 0.07"/>
   </g>
   <g id="patch_25">
    <path d="M 37.433496 252.96 
L 114.391484 252.96 
Q 144.62498 252.96 144.62498 222.726504 
L 144.62498 145.768516 
Q 144.62498 115.53502 114.391484 115.53502 
L 37.433496 115.53502 
Q 7.2 115.53502 7.2 145.768516 
L 7.2 222.726504 
Q 7.2 252.96 37.433496 252.96 
z
" clip-path="url(#pf3cd34ae67)" style="fill: #ffae04; opacity: 0.07"/>
   </g>
   <g id="patch_26">
    <path d="M 38.316225 252.96 
L 117.521162 252.96 
Q 148.637388 252.96 148.637388 221.843775 
L 148.637388 142.638838 
Q 148.637388 111.522612 117.521162 111.522612 
L 38.316225 111.522612 
Q 7.2 111.522612 7.2 142.638838 
L 7.2 221.843775 
Q 7.2 252.96 38.316225 252.96 
z
" clip-path="url(#pf3cd34ae67)" style="fill: #ffae04; opacity: 0.07"/>
   </g>
   <g id="patch_27">
    <path d="M 39.198955 252.96 
L 120.650841 252.96 
Q 152.649796 252.96 152.649796 220.961045 
L 152.649796 139.509159 
Q 152.649796 107.510204 120.650841 107.510204 
L 39.198955 107.510204 
Q 7.2 107.510204 7.2 139.509159 
L 7.2 220.961045 
Q 7.2 252.96 39.198955 252.96 
z
" clip-path="url(#pf3cd34ae67)" style="fill: #ffad04; opacity: 0.07"/>
   </g>
   <g id="patch_28">
    <path d="M 40.081685 252.96 
L 123.780519 252.96 
Q 156.662204 252.96 156.662204 220.078315 
L 156.662204 136.379481 
Q 156.662204 103.497796 123.780519 103.497796 
L 40.081685 103.497796 
Q 7.2 103.497796 7.2 136.379481 
L 7.2 220.078315 
Q 7.2 252.96 40.081685 252.96 
z
" clip-path="url(#pf3cd34ae67)" style="fill: #ffac03; opacity: 0.07"/>
   </g>
   <g id="patch_29">
    <path d="M 40.964415 252.96 
L 126.910198 252.96 
Q 160.674612 252.96 160.674612 219.195585 
L 160.674612 133.249802 
Q 160.674612 99.485388 126.910198 99.485388 
L 40.964415 99.485388 
Q 7.2 99.485388 7.2 133.249802 
L 7.2 219.195585 
Q 7.2 252.96 40.964415 252.96 
z
" clip-path="url(#pf3cd34ae67)" style="fill: #ffab03; opacity: 0.07"/>
   </g>
   <g id="patch_30">
    <path d="M 41.847144 252.96 
L 130.039876 252.96 
Q 164.68702 252.96 164.68702 218.312856 
L 164.68702 130.120124 
Q 164.68702 95.47298 130.039876 95.47298 
L 41.847144 95.47298 
Q 7.2 95.47298 7.2 130.120124 
L 7.2 218.312856 
Q 7.2 252.96 41.847144 252.96 
z
" clip-path="url(#pf3cd34ae67)" style="fill: #ffaa03; opacity: 0.07"/>
   </g>
   <g id="patch_31">
    <path d="M 42.729874 252.96 
L 133.169554 252.96 
Q 168.699429 252.96 168.699429 217.430126 
L 168.699429 126.990446 
Q 168.699429 91.460571 133.169554 91.460571 
L 42.729874 91.460571 
Q 7.2 91.460571 7.2 126.990446 
L 7.2 217.430126 
Q 7.2 252.96 42.729874 252.96 
z
" clip-path="url(#pf3cd34ae67)" style="fill: #ffa903; opacity: 0.07"/>
   </g>
   <g id="patch_32">
    <path d="M 43.612604 252.96 
L 136.299233 252.96 
Q 172.711837 252.96 172.711837 216.547396 
L 172.711837 123.860767 
Q 172.711837 87.448163 136.299233 87.448163 
L 43.612604 87.448163 
Q 7.2 87.448163 7.2 123.860767 
L 7.2 216.547396 
Q 7.2 252.96 43.612604 252.96 
z
" clip-path="url(#pf3cd34ae67)" style="fill: #ffa903; opacity: 0.07"/>
   </g>
   <g id="patch_33">
    <path d="M 44.495334 252.96 
L 139.428911 252.96 
Q 176.724245 252.96 176.724245 215.664666 
L 176.724245 120.731089 
Q 176.724245 83.435755 139.428911 83.435755 
L 44.495334 83.435755 
Q 7.2 83.435755 7.2 120.731089 
L 7.2 215.664666 
Q 7.2 252.96 44.495334 252.96 
z
" clip-path="url(#pf3cd34ae67)" style="fill: #ffa803; opacity: 0.07"/>
   </g>
   <g id="patch_34">
    <path d="M 45.378064 252.96 
L 142.558589 252.96 
Q 180.736653 252.96 180.736653 214.781936 
L 180.736653 117.601411 
Q 180.736653 79.423347 142.558589 79.423347 
L 45.378064 79.423347 
Q 7.2 79.423347 7.2 117.601411 
L 7.2 214.781936 
Q 7.2 252.96 45.378064 252.96 
z
" clip-path="url(#pf3cd34ae67)" style="fill: #ffa703; opacity: 0.07"/>
   </g>
   <g id="patch_35">
    <path d="M 46.260793 252.96 
L 145.688268 252.96 
Q 184.749061 252.96 184.749061 213.899207 
L 184.749061 114.471732 
Q 184.749061 75.410939 145.688268 75.410939 
L 46.260793 75.410939 
Q 7.2 75.410939 7.2 114.471732 
L 7.2 213.899207 
Q 7.2 252.96 46.260793 252.96 
z
" clip-path="url(#pf3cd34ae67)" style="fill: #ffa602; opacity: 0.07"/>
   </g>
   <g id="patch_36">
    <path d="M 47.143523 252.96 
L 148.817946 252.96 
Q 188.761469 252.96 188.761469 213.016477 
L 188.761469 111.342054 
Q 188.761469 71.398531 148.817946 71.398531 
L 47.143523 71.398531 
Q 7.2 71.398531 7.2 111.342054 
L 7.2 213.016477 
Q 7.2 252.96 47.143523 252.96 
z
" clip-path="url(#pf3cd34ae67)" style="fill: #ffa502; opacity: 0.07"/>
   </g>
   <g id="patch_37">
    <path d="M 48.026253 252.96 
L 151.947624 252.96 
Q 192.773878 252.96 192.773878 212.133747 
L 192.773878 108.212376 
Q 192.773878 67.386122 151.947624 67.386122 
L 48.026253 67.386122 
Q 7.2 67.386122 7.2 108.212376 
L 7.2 212.133747 
Q 7.2 252.96 48.026253 252.96 
z
" clip-path="url(#pf3cd34ae67)" style="fill: #ffa402; opacity: 0.07"/>
   </g>
   <g id="patch_38">
    <path d="M 48.908983 252.96 
L 155.077303 252.96 
Q 196.786286 252.96 196.786286 211.251017 
L 196.786286 105.082697 
Q 196.786286 63.373714 155.077303 63.373714 
L 48.908983 63.373714 
Q 7.2 63.373714 7.2 105.082697 
L 7.2 211.251017 
Q 7.2 252.96 48.908983 252.96 
z
" clip-path="url(#pf3cd34ae67)" style="fill: #ffa402; opacity: 0.07"/>
   </g>
   <g id="patch_39">
    <path d="M 49.791713 252.96 
L 158.206981 252.96 
Q 200.798694 252.96 200.798694 210.368287 
L 200.798694 101.953019 
Q 200.798694 59.361306 158.206981 59.361306 
L 49.791713 59.361306 
Q 7.2 59.361306 7.2 101.953019 
L 7.2 210.368287 
Q 7.2 252.96 49.791713 252.96 
z
" clip-path="url(#pf3cd34ae67)" style="fill: #ffa302; opacity: 0.07"/>
   </g>
   <g id="patch_40">
    <path d="M 50.674442 252.96 
L 161.33666 252.96 
Q 204.811102 252.96 204.811102 209.485558 
L 204.811102 98.82334 
Q 204.811102 55.348898 161.33666 55.348898 
L 50.674442 55.348898 
Q 7.2 55.348898 7.2 98.82334 
L 7.2 209.485558 
Q 7.2 252.96 50.674442 252.96 
z
" clip-path="url(#pf3cd34ae67)" style="fill: #ffa202; opacity: 0.07"/>
   </g>
   <g id="patch_41">
    <path d="M 51.557172 252.96 
L 164.466338 252.96 
Q 208.82351 252.96 208.82351 208.602828 
L 208.82351 95.693662 
Q 208.82351 51.33649 164.466338 51.33649 
L 51.557172 51.33649 
Q 7.2 51.33649 7.2 95.693662 
L 7.2 208.602828 
Q 7.2 252.96 51.557172 252.96 
z
" clip-path="url(#pf3cd34ae67)" style="fill: #ffa102; opacity: 0.07"/>
   </g>
   <g id="patch_42">
    <path d="M 52.439902 252.96 
L 167.596016 252.96 
Q 212.835918 252.96 212.835918 207.720098 
L 212.835918 92.563984 
Q 212.835918 47.324082 167.596016 47.324082 
L 52.439902 47.324082 
Q 7.2 47.324082 7.2 92.563984 
L 7.2 207.720098 
Q 7.2 252.96 52.439902 252.96 
z
" clip-path="url(#pf3cd34ae67)" style="fill: #ffa001; opacity: 0.07"/>
   </g>
   <g id="patch_43">
    <path d="M 53.322632 252.96 
L 170.725695 252.96 
Q 216.848327 252.96 216.848327 206.837368 
L 216.848327 89.434305 
Q 216.848327 43.311673 170.725695 43.311673 
L 53.322632 43.311673 
Q 7.2 43.311673 7.2 89.434305 
L 7.2 206.837368 
Q 7.2 252.96 53.322632 252.96 
z
" clip-path="url(#pf3cd34ae67)" style="fill: #ff9f01; opacity: 0.07"/>
   </g>
   <g id="patch_44">
    <path d="M 54.205362 252.96 
L 173.855373 252.96 
Q 220.860735 252.96 220.860735 205.954638 
L 220.860735 86.304627 
Q 220.860735 39.299265 173.855373 39.299265 
L 54.205362 39.299265 
Q 7.2 39.299265 7.2 86.304627 
L 7.2 205.954638 
Q 7.2 252.96 54.205362 252.96 
z
" clip-path="url(#pf3cd34ae67)" style="fill: #ff9f01; opacity: 0.07"/>
   </g>
   <g id="patch_45">
    <path d="M 55.088091 252.96 
L 176.985051 252.96 
Q 224.873143 252.96 224.873143 205.071909 
L 224.873143 83.174949 
Q 224.873143 35.286857 176.985051 35.286857 
L 55.088091 35.286857 
Q 7.2 35.286857 7.2 83.174949 
L 7.2 205.071909 
Q 7.2 252.96 55.088091 252.96 
z
" clip-path="url(#pf3cd34ae67)" style="fill: #ff9e01; opacity: 0.07"/>
   </g>
   <g id="patch_46">
    <path d="M 55.970821 252.96 
L 180.11473 252.96 
Q 228.885551 252.96 228.885551 204.189179 
L 228.885551 80.04527 
Q 228.885551 31.274449 180.11473 31.274449 
L 55.970821 31.274449 
Q 7.2 31.274449 7.2 80.04527 
L 7.2 204.189179 
Q 7.2 252.96 55.970821 252.96 
z
" clip-path="url(#pf3cd34ae67)" style="fill: #ff9d01; opacity: 0.07"/>
   </g>
   <g id="patch_47">
    <path d="M 56.853551 252.96 
L 183.244408 252.96 
Q 232.897959 252.96 232.897959 203.306449 
L 232.897959 76.915592 
Q 232.897959 27.262041 183.244408 27.262041 
L 56.853551 27.262041 
Q 7.2 27.262041 7.2 76.915592 
L 7.2 203.306449 
Q 7.2 252.96 56.853551 252.96 
z
" clip-path="url(#pf3cd34ae67)" style="fill: #ff9c01; opacity: 0.07"/>
   </g>
   <g id="patch_48">
    <path d="M 57.736281 252.96 
L 186.374087 252.96 
Q 236.910367 252.96 236.910367 202.423719 
L 236.910367 73.785913 
Q 236.910367 23.249633 186.374087 23.249633 
L 57.736281 23.249633 
Q 7.2 23.249633 7.2 73.785913 
L 7.2 202.423719 
Q 7.2 252.96 57.736281 252.96 
z
" clip-path="url(#pf3cd34ae67)" style="fill: #ff9b01; opacity: 0.07"/>
   </g>
   <g id="patch_49">
    <path d="M 58.619011 252.96 
L 189.503765 252.96 
Q 240.922776 252.96 240.922776 201.540989 
L 240.922776 70.656235 
Q 240.922776 19.237224 189.503765 19.237224 
L 58.619011 19.237224 
Q 7.2 19.237224 7.2 70.656235 
L 7.2 201.540989 
Q 7.2 252.96 58.619011 252.96 
z
" clip-path="url(#pf3cd34ae67)" style="fill: #ff9a00; opacity: 0.07"/>
   </g>
   <g id="patch_50">
    <path d="M 59.50174 252.96 
L 192.633443 252.96 
Q 244.935184 252.96 244.935184 200.65826 
L 244.935184 67.526557 
Q 244.935184 15.224816 192.633443 15.224816 
L 59.50174 15.224816 
Q 7.2 15.224816 7.2 67.526557 
L 7.2 200.65826 
Q 7.2 252.96 59.50174 252.96 
z
" clip-path="url(#pf3cd34ae67)" style="fill: #ff9a00; opacity: 0.07"/>
   </g>
   <g id="patch_51">
    <path d="M 60.38447 252.96 
L 195.763122 252.96 
Q 248.947592 252.96 248.947592 199.77553 
L 248.947592 64.396878 
Q 248.947592 11.212408 195.763122 11.212408 
L 60.38447 11.212408 
Q 7.2 11.212408 7.2 64.396878 
L 7.2 199.77553 
Q 7.2 252.96 60.38447 252.96 
z
" clip-path="url(#pf3cd34ae67)" style="fill: #ff9900; opacity: 0.07"/>
   </g>
   <g id="patch_52">
    <path d="M 61.2672 252.96 
L 198.8928 252.96 
Q 252.96 252.96 252.96 198.8928 
L 252.96 61.2672 
Q 252.96 7.2 198.8928 7.2 
L 61.2672 7.2 
Q 7.2 7.2 7.2 61.2672 
L 7.2 198.8928 
Q 7.2 252.96 61.2672 252.96 
z
" clip-path="url(#pf3cd34ae67)" style="fill: #ff9800; opacity: 0.07"/>
   </g>
   <g id="patch_53">
    <path d="M 181.394688 82.795776 
L 180.762919 90.823162 
L 178.883168 98.652887 
L 175.801722 106.092157 
L 171.594455 112.957793 
L 166.364964 119.08074 
L 160.242017 124.310231 
L 153.376381 128.517498 
L 145.937111 131.598944 
L 138.107386 133.478695 
L 130.08 134.110464 
L 122.052614 133.478695 
L 114.222889 131.598944 
L 106.783619 128.517498 
L 99.917983 124.310231 
L 93.795036 119.08074 
L 88.565545 112.957793 
L 84.358278 106.092157 
L 81.276832 98.652887 
L 79.397081 90.823162 
L 78.765312 82.795776 
L 181.394688 134.110464 
L 130.08 174.021888 
L 78.765312 134.110464 
L 78.765312 82.795776 
L 181.394688 82.795776 
" clip-path="url(#pf3cd34ae67)" style="fill: #ffffff"/>
   </g>
   <g id="patch_54">
    <path d="M 104.422656 122.7072 
C 108.958927 122.7072 113.310016 120.90492 116.517644 117.697292 
C 119.725272 114.489664 121.527552 110.138575 121.527552 105.602304 
C 121.527552 101.066033 119.725272 96.714944 116.517644 93.507316 
C 113.310016 90.299688 108.958927 88.497408 104.422656 88.497408 
C 99.886385 88.497408 95.535296 90.299688 92.327668 93.507316 
C 89.12004 96.714944 87.31776 101.066033 87.31776 105.602304 
C 87.31776 110.138575 89.12004 114.489664 92.327668 117.697292 
C 95.535296 120.90492 99.886385 122.7072 104.422656 122.7072 
z
" clip-path="url(#pf3cd34ae67)" style="fill: #ffffff"/>
   </g>
   <g id="patch_55">
    <path d="M 155.737344 122.7072 
C 160.273615 122.7072 164.624704 120.90492 167.832332 117.697292 
C 171.03996 114.489664 172.84224 110.138575 172.84224 105.602304 
C 172.84224 101.066033 171.03996 96.714944 167.832332 93.507316 
C 164.624704 90.299688 160.273615 88.497408 155.737344 88.497408 
C 151.201073 88.497408 146.849984 90.299688 143.642356 93.507316 
C 140.434728 96.714944 138.632448 101.066033 138.632448 105.602304 
C 138.632448 110.138575 140.434728 114.489664 143.642356 117.697292 
C 146.849984 120.90492 151.201073 122.7072 155.737344 122.7072 
z
" clip-path="url(#pf3cd34ae67)" style="fill: #ffffff"/>
   </g>
  </g>
 </g>
 <defs>
  <clipPath id="pf3cd34ae67">
   <rect x="7.2" y="7.2" width="245.76" height="245.76"/>
  </clipPath>
 </defs>
</svg>
