<?xml version="1.0" encoding="utf-8" standalone="no"?>
<!DOCTYPE svg PUBLIC "-//W3C//DTD SVG 1.1//EN"
  "http://www.w3.org/Graphics/SVG/1.1/DTD/svg11.dtd">
<svg xmlns:xlink="http://www.w3.org/1999/xlink" width="43.2pt" height="43.2pt" viewBox="0 0 43.2 43.2" xmlns="http://www.w3.org/2000/svg" version="1.1">
 <metadata>
  <rdf:RDF xmlns:dc="http://purl.org/dc/elements/1.1/" xmlns:cc="http://creativecommons.org/ns#" xmlns:rdf="http://www.w3.org/1999/02/22-rdf-syntax-ns#">
   <cc:Work>
    <dc:type rdf:resource="http://purl.org/dc/dcmitype/StillImage"/>
    <dc:date>2025-10-07T21:53:26.507696</dc:date>
    <dc:format>image/svg+xml</dc:format>
    <dc:creator>
     <cc:Agent>
      <dc:title>Matplotlib v3.6.3, https://matplotlib.org/</dc:title>
     </cc:Agent>
    </dc:creator>
   </cc:Work>
  </rdf:RDF>
 </metadata>
 <defs>
  <style type="text/css">*{stroke-linejoin: round; stroke-linecap: butt}</style>
 </defs>
 <g id="figure_1">
  <g id="patch_1">
   <path d="M 0 43.2 
L 43.2 43.2 
L 43.2 0 
L 0 0 
z
" style="fill: #ffffff"/>
  </g>
  <g id="axes_1">
   <g id="patch_2">
    <path d="M 13.536 36 
L 29.664 36 
Q 36 36 36 29.664 
L 36 13.536 
Q 36 7.2 29.664 7.2 
L 13.536 7.2 
Q 7.2 7.2 7.2 13.536 
L 7.2 29.664 
Q 7.2 36 13.536 36 
z
" clip-path="url(#pbbe3ee220b)" style="fill: #ffc107"/>
   </g>
   <g id="patch_3">
    <path d="M 8.4672 36 
L 11.6928 36 
Q 12.96 36 12.96 34.7328 
L 12.96 31.5072 
Q 12.96 30.24 11.6928 30.24 
L 8.4672 30.24 
Q 7.2 30.24 7.2 31.5072 
L 7.2 34.7328 
Q 7.2 36 8.4672 36 
z
" clip-path="url(#pbbe3ee220b)" style="fill: #ffc107; opacity: 0.07"/>
   </g>
   <g id="patch_4">
    <path d="M 8.570645 36 
L 12.059559 36 
Q 13.430204 36 13.430204 34.629355 
L 13.430204 31.140441 
Q 13.430204 29.769796 12.059559 29.769796 
L 8.570645 29.769796 
Q 7.2 29.769796 7.2 31.140441 
L 7.2 34.629355 
Q 7.2 36 8.570645 36 
z
" clip-path="url(#pbbe3ee220b)" style="fill: #ffc007; opacity: 0.07"/>
   </g>
   <g id="patch_5">
    <path d="M 8.67409 36 
L 12.426318 36 
Q 13.900408 36 13.900408 34.52591 
L 13.900408 30.773682 
Q 13.900408 29.299592 12.426318 29.299592 
L 8.67409 29.299592 
Q 7.2 29.299592 7.2 30.773682 
L 7.2 34.52591 
Q 7.2 36 8.67409 36 
z
" clip-path="url(#pbbe3ee220b)" style="fill: #ffbf07; opacity: 0.07"/>
   </g>
   <g id="patch_6">
    <path d="M 8.777535 36 
L 12.793078 36 
Q 14.370612 36 14.370612 34.422465 
L 14.370612 30.406922 
Q 14.370612 28.829388 12.793078 28.829388 
L 8.777535 28.829388 
Q 7.2 28.829388 7.2 30.406922 
L 7.2 34.422465 
Q 7.2 36 8.777535 36 
z
" clip-path="url(#pbbe3ee220b)" style="fill: #ffbe06; opacity: 0.07"/>
   </g>
   <g id="patch_7">
    <path d="M 8.88098 36 
L 13.159837 36 
Q 14.840816 36 14.840816 34.31902 
L 14.840816 30.040163 
Q 14.840816 28.359184 13.159837 28.359184 
L 8.88098 28.359184 
Q 7.2 28.359184 7.2 30.040163 
L 7.2 34.31902 
Q 7.2 36 8.88098 36 
z
" clip-path="url(#pbbe3ee220b)" style="fill: #ffbd06; opacity: 0.07"/>
   </g>
   <g id="patch_8">
    <path d="M 8.984424 36 
L 13.526596 36 
Q 15.31102 36 15.31102 34.215576 
L 15.31102 29.673404 
Q 15.31102 27.88898 13.526596 27.88898 
L 8.984424 27.88898 
Q 7.2 27.88898 7.2 29.673404 
L 7.2 34.215576 
Q 7.2 36 8.984424 36 
z
" clip-path="url(#pbbe3ee220b)" style="fill: #ffbd06; opacity: 0.07"/>
   </g>
   <g id="patch_9">
    <path d="M 9.087869 36 
L 13.893355 36 
Q 15.781224 36 15.781224 34.112131 
L 15.781224 29.306645 
Q 15.781224 27.418776 13.893355 27.418776 
L 9.087869 27.418776 
Q 7.2 27.418776 7.2 29.306645 
L 7.2 34.112131 
Q 7.2 36 9.087869 36 
z
" clip-path="url(#pbbe3ee220b)" style="fill: #ffbc06; opacity: 0.07"/>
   </g>
   <g id="patch_10">
    <path d="M 9.191314 36 
L 14.260114 36 
Q 16.251429 36 16.251429 34.008686 
L 16.251429 28.939886 
Q 16.251429 26.948571 14.260114 26.948571 
L 9.191314 26.948571 
Q 7.2 26.948571 7.2 28.939886 
L 7.2 34.008686 
Q 7.2 36 9.191314 36 
z
" clip-path="url(#pbbe3ee220b)" style="fill: #ffbb06; opacity: 0.07"/>
   </g>
   <g id="patch_11">
    <path d="M 9.294759 36 
L 14.626873 36 
Q 16.721633 36 16.721633 33.905241 
L 16.721633 28.573127 
Q 16.721633 26.478367 14.626873 26.478367 
L 9.294759 26.478367 
Q 7.2 26.478367 7.2 28.573127 
L 7.2 33.905241 
Q 7.2 36 9.294759 36 
z
" clip-path="url(#pbbe3ee220b)" style="fill: #ffba06; opacity: 0.07"/>
   </g>
   <g id="patch_12">
    <path d="M 9.398204 36 
L 14.993633 36 
Q 17.191837 36 17.191837 33.801796 
L 17.191837 28.206367 
Q 17.191837 26.008163 14.993633 26.008163 
L 9.398204 26.008163 
Q 7.2 26.008163 7.2 28.206367 
L 7.2 33.801796 
Q 7.2 36 9.398204 36 
z
" clip-path="url(#pbbe3ee220b)" style="fill: #ffb906; opacity: 0.07"/>
   </g>
   <g id="patch_13">
    <path d="M 9.501649 36 
L 15.360392 36 
Q 17.662041 36 17.662041 33.698351 
L 17.662041 27.839608 
Q 17.662041 25.537959 15.360392 25.537959 
L 9.501649 25.537959 
Q 7.2 25.537959 7.2 27.839608 
L 7.2 33.698351 
Q 7.2 36 9.501649 36 
z
" clip-path="url(#pbbe3ee220b)" style="fill: #ffb805; opacity: 0.07"/>
   </g>
   <g id="patch_14">
    <path d="M 9.605094 36 
L 15.727151 36 
Q 18.132245 36 18.132245 33.594906 
L 18.132245 27.472849 
Q 18.132245 25.067755 15.727151 25.067755 
L 9.605094 25.067755 
Q 7.2 25.067755 7.2 27.472849 
L 7.2 33.594906 
Q 7.2 36 9.605094 36 
z
" clip-path="url(#pbbe3ee220b)" style="fill: #ffb805; opacity: 0.07"/>
   </g>
   <g id="patch_15">
    <path d="M 9.708539 36 
L 16.09391 36 
Q 18.602449 36 18.602449 33.491461 
L 18.602449 27.10609 
Q 18.602449 24.597551 16.09391 24.597551 
L 9.708539 24.597551 
Q 7.2 24.597551 7.2 27.10609 
L 7.2 33.491461 
Q 7.2 36 9.708539 36 
z
" clip-path="url(#pbbe3ee220b)" style="fill: #ffb705; opacity: 0.07"/>
   </g>
   <g id="patch_16">
    <path d="M 9.811984 36 
L 16.460669 36 
Q 19.072653 36 19.072653 33.388016 
L 19.072653 26.739331 
Q 19.072653 24.127347 16.460669 24.127347 
L 9.811984 24.127347 
Q 7.2 24.127347 7.2 26.739331 
L 7.2 33.388016 
Q 7.2 36 9.811984 36 
z
" clip-path="url(#pbbe3ee220b)" style="fill: #ffb605; opacity: 0.07"/>
   </g>
   <g id="patch_17">
    <path d="M 9.915429 36 
L 16.827429 36 
Q 19.542857 36 19.542857 33.284571 
L 19.542857 26.372571 
Q 19.542857 23.657143 16.827429 23.657143 
L 9.915429 23.657143 
Q 7.2 23.657143 7.2 26.372571 
L 7.2 33.284571 
Q 7.2 36 9.915429 36 
z
" clip-path="url(#pbbe3ee220b)" style="fill: #ffb505; opacity: 0.07"/>
   </g>
   <g id="patch_18">
    <path d="M 10.018873 36 
L 17.194188 36 
Q 20.013061 36 20.013061 33.181127 
L 20.013061 26.005812 
Q 20.013061 23.186939 17.194188 23.186939 
L 10.018873 23.186939 
Q 7.2 23.186939 7.2 26.005812 
L 7.2 33.181127 
Q 7.2 36 10.018873 36 
z
" clip-path="url(#pbbe3ee220b)" style="fill: #ffb405; opacity: 0.07"/>
   </g>
   <g id="patch_19">
    <path d="M 10.122318 36 
L 17.560947 36 
Q 20.483265 36 20.483265 33.077682 
L 20.483265 25.639053 
Q 20.483265 22.716735 17.560947 22.716735 
L 10.122318 22.716735 
Q 7.2 22.716735 7.2 25.639053 
L 7.2 33.077682 
Q 7.2 36 10.122318 36 
z
" clip-path="url(#pbbe3ee220b)" style="fill: #ffb305; opacity: 0.07"/>
   </g>
   <g id="patch_20">
    <path d="M 10.225763 36 
L 17.927706 36 
Q 20.953469 36 20.953469 32.974237 
L 20.953469 25.272294 
Q 20.953469 22.246531 17.927706 22.246531 
L 10.225763 22.246531 
Q 7.2 22.246531 7.2 25.272294 
L 7.2 32.974237 
Q 7.2 36 10.225763 36 
z
" clip-path="url(#pbbe3ee220b)" style="fill: #ffb304; opacity: 0.07"/>
   </g>
   <g id="patch_21">
    <path d="M 10.329208 36 
L 18.294465 36 
Q 21.423673 36 21.423673 32.870792 
L 21.423673 24.905535 
Q 21.423673 21.776327 18.294465 21.776327 
L 10.329208 21.776327 
Q 7.2 21.776327 7.2 24.905535 
L 7.2 32.870792 
Q 7.2 36 10.329208 36 
z
" clip-path="url(#pbbe3ee220b)" style="fill: #ffb204; opacity: 0.07"/>
   </g>
   <g id="patch_22">
    <path d="M 10.432653 36 
L 18.661224 36 
Q 21.893878 36 21.893878 32.767347 
L 21.893878 24.538776 
Q 21.893878 21.306122 18.661224 21.306122 
L 10.432653 21.306122 
Q 7.2 21.306122 7.2 24.538776 
L 7.2 32.767347 
Q 7.2 36 10.432653 36 
z
" clip-path="url(#pbbe3ee220b)" style="fill: #ffb104; opacity: 0.07"/>
   </g>
   <g id="patch_23">
    <path d="M 10.536098 36 
L 19.027984 36 
Q 22.364082 36 22.364082 32.663902 
L 22.364082 24.172016 
Q 22.364082 20.835918 19.027984 20.835918 
L 10.536098 20.835918 
Q 7.2 20.835918 7.2 24.172016 
L 7.2 32.663902 
Q 7.2 36 10.536098 36 
z
" clip-path="url(#pbbe3ee220b)" style="fill: #ffb004; opacity: 0.07"/>
   </g>
   <g id="patch_24">
    <path d="M 10.639543 36 
L 19.394743 36 
Q 22.834286 36 22.834286 32.560457 
L 22.834286 23.805257 
Q 22.834286 20.365714 19.394743 20.365714 
L 10.639543 20.365714 
Q 7.2 20.365714 7.2 23.805257 
L 7.2 32.560457 
Q 7.2 36 10.639543 36 
z
" clip-path="url(#pbbe3ee220b)" style="fill: #ffaf04; opacity: 0.07"/>
   </g>
   <g id="patch_25">
    <path d="M 10.742988 36 
L 19.761502 36 
Q 23.30449 36 23.30449 32.457012 
L 23.30449 23.438498 
Q 23.30449 19.89551 19.761502 19.89551 
L 10.742988 19.89551 
Q 7.2 19.89551 7.2 23.438498 
L 7.2 32.457012 
Q 7.2 36 10.742988 36 
z
" clip-path="url(#pbbe3ee220b)" style="fill: #ffae04; opacity: 0.07"/>
   </g>
   <g id="patch_26">
    <path d="M 10.846433 36 
L 20.128261 36 
Q 23.774694 36 23.774694 32.353567 
L 23.774694 23.071739 
Q 23.774694 19.425306 20.128261 19.425306 
L 10.846433 19.425306 
Q 7.2 19.425306 7.2 23.071739 
L 7.2 32.353567 
Q 7.2 36 10.846433 36 
z
" clip-path="url(#pbbe3ee220b)" style="fill: #ffae04; opacity: 0.07"/>
   </g>
   <g id="patch_27">
    <path d="M 10.949878 36 
L 20.49502 36 
Q 24.244898 36 24.244898 32.250122 
L 24.244898 22.70498 
Q 24.244898 18.955102 20.49502 18.955102 
L 10.949878 18.955102 
Q 7.2 18.955102 7.2 22.70498 
L 7.2 32.250122 
Q 7.2 36 10.949878 36 
z
" clip-path="url(#pbbe3ee220b)" style="fill: #ffad04; opacity: 0.07"/>
   </g>
   <g id="patch_28">
    <path d="M 11.053322 36 
L 20.86178 36 
Q 24.715102 36 24.715102 32.146678 
L 24.715102 22.33822 
Q 24.715102 18.484898 20.86178 18.484898 
L 11.053322 18.484898 
Q 7.2 18.484898 7.2 22.33822 
L 7.2 32.146678 
Q 7.2 36 11.053322 36 
z
" clip-path="url(#pbbe3ee220b)" style="fill: #ffac03; opacity: 0.07"/>
   </g>
   <g id="patch_29">
    <path d="M 11.156767 36 
L 21.228539 36 
Q 25.185306 36 25.185306 32.043233 
L 25.185306 21.971461 
Q 25.185306 18.014694 21.228539 18.014694 
L 11.156767 18.014694 
Q 7.2 18.014694 7.2 21.971461 
L 7.2 32.043233 
Q 7.2 36 11.156767 36 
z
" clip-path="url(#pbbe3ee220b)" style="fill: #ffab03; opacity: 0.07"/>
   </g>
   <g id="patch_30">
    <path d="M 11.260212 36 
L 21.595298 36 
Q 25.65551 36 25.65551 31.939788 
L 25.65551 21.604702 
Q 25.65551 17.54449 21.595298 17.54449 
L 11.260212 17.54449 
Q 7.2 17.54449 7.2 21.604702 
L 7.2 31.939788 
Q 7.2 36 11.260212 36 
z
" clip-path="url(#pbbe3ee220b)" style="fill: #ffaa03; opacity: 0.07"/>
   </g>
   <g id="patch_31">
    <path d="M 11.363657 36 
L 21.962057 36 
Q 26.125714 36 26.125714 31.836343 
L 26.125714 21.237943 
Q 26.125714 17.074286 21.962057 17.074286 
L 11.363657 17.074286 
Q 7.2 17.074286 7.2 21.237943 
L 7.2 31.836343 
Q 7.2 36 11.363657 36 
z
" clip-path="url(#pbbe3ee220b)" style="fill: #ffa903; opacity: 0.07"/>
   </g>
   <g id="patch_32">
    <path d="M 11.467102 36 
L 22.328816 36 
Q 26.595918 36 26.595918 31.732898 
L 26.595918 20.871184 
Q 26.595918 16.604082 22.328816 16.604082 
L 11.467102 16.604082 
Q 7.2 16.604082 7.2 20.871184 
L 7.2 31.732898 
Q 7.2 36 11.467102 36 
z
" clip-path="url(#pbbe3ee220b)" style="fill: #ffa903; opacity: 0.07"/>
   </g>
   <g id="patch_33">
    <path d="M 11.570547 36 
L 22.695576 36 
Q 27.066122 36 27.066122 31.629453 
L 27.066122 20.504424 
Q 27.066122 16.133878 22.695576 16.133878 
L 11.570547 16.133878 
Q 7.2 16.133878 7.2 20.504424 
L 7.2 31.629453 
Q 7.2 36 11.570547 36 
z
" clip-path="url(#pbbe3ee220b)" style="fill: #ffa803; opacity: 0.07"/>
   </g>
   <g id="patch_34">
    <path d="M 11.673992 36 
L 23.062335 36 
Q 27.536327 36 27.536327 31.526008 
L 27.536327 20.137665 
Q 27.536327 15.663673 23.062335 15.663673 
L 11.673992 15.663673 
Q 7.2 15.663673 7.2 20.137665 
L 7.2 31.526008 
Q 7.2 36 11.673992 36 
z
" clip-path="url(#pbbe3ee220b)" style="fill: #ffa703; opacity: 0.07"/>
   </g>
   <g id="patch_35">
    <path d="M 11.777437 36 
L 23.429094 36 
Q 28.006531 36 28.006531 31.422563 
L 28.006531 19.770906 
Q 28.006531 15.193469 23.429094 15.193469 
L 11.777437 15.193469 
Q 7.2 15.193469 7.2 19.770906 
L 7.2 31.422563 
Q 7.2 36 11.777437 36 
z
" clip-path="url(#pbbe3ee220b)" style="fill: #ffa602; opacity: 0.07"/>
   </g>
   <g id="patch_36">
    <path d="M 11.880882 36 
L 23.795853 36 
Q 28.476735 36 28.476735 31.319118 
L 28.476735 19.404147 
Q 28.476735 14.723265 23.795853 14.723265 
L 11.880882 14.723265 
Q 7.2 14.723265 7.2 19.404147 
L 7.2 31.319118 
Q 7.2 36 11.880882 36 
z
" clip-path="url(#pbbe3ee220b)" style="fill: #ffa502; opacity: 0.07"/>
   </g>
   <g id="patch_37">
    <path d="M 11.984327 36 
L 24.162612 36 
Q 28.946939 36 28.946939 31.215673 
L 28.946939 19.037388 
Q 28.946939 14.253061 24.162612 14.253061 
L 11.984327 14.253061 
Q 7.2 14.253061 7.2 19.037388 
L 7.2 31.215673 
Q 7.2 36 11.984327 36 
z
" clip-path="url(#pbbe3ee220b)" style="fill: #ffa402; opacity: 0.07"/>
   </g>
   <g id="patch_38">
    <path d="M 12.087771 36 
L 24.529371 36 
Q 29.417143 36 29.417143 31.112229 
L 29.417143 18.670629 
Q 29.417143 13.782857 24.529371 13.782857 
L 12.087771 13.782857 
Q 7.2 13.782857 7.2 18.670629 
L 7.2 31.112229 
Q 7.2 36 12.087771 36 
z
" clip-path="url(#pbbe3ee220b)" style="fill: #ffa402; opacity: 0.07"/>
   </g>
   <g id="patch_39">
    <path d="M 12.191216 36 
L 24.896131 36 
Q 29.887347 36 29.887347 31.008784 
L 29.887347 18.303869 
Q 29.887347 13.312653 24.896131 13.312653 
L 12.191216 13.312653 
Q 7.2 13.312653 7.2 18.303869 
L 7.2 31.008784 
Q 7.2 36 12.191216 36 
z
" clip-path="url(#pbbe3ee220b)" style="fill: #ffa302; opacity: 0.07"/>
   </g>
   <g id="patch_40">
    <path d="M 12.294661 36 
L 25.26289 36 
Q 30.357551 36 30.357551 30.905339 
L 30.357551 17.93711 
Q 30.357551 12.842449 25.26289 12.842449 
L 12.294661 12.842449 
Q 7.2 12.842449 7.2 17.93711 
L 7.2 30.905339 
Q 7.2 36 12.294661 36 
z
" clip-path="url(#pbbe3ee220b)" style="fill: #ffa202; opacity: 0.07"/>
   </g>
   <g id="patch_41">
    <path d="M 12.398106 36 
L 25.629649 36 
Q 30.827755 36 30.827755 30.801894 
L 30.827755 17.570351 
Q 30.827755 12.372245 25.629649 12.372245 
L 12.398106 12.372245 
Q 7.2 12.372245 7.2 17.570351 
L 7.2 30.801894 
Q 7.2 36 12.398106 36 
z
" clip-path="url(#pbbe3ee220b)" style="fill: #ffa102; opacity: 0.07"/>
   </g>
   <g id="patch_42">
    <path d="M 12.501551 36 
L 25.996408 36 
Q 31.297959 36 31.297959 30.698449 
L 31.297959 17.203592 
Q 31.297959 11.902041 25.996408 11.902041 
L 12.501551 11.902041 
Q 7.2 11.902041 7.2 17.203592 
L 7.2 30.698449 
Q 7.2 36 12.501551 36 
z
" clip-path="url(#pbbe3ee220b)" style="fill: #ffa001; opacity: 0.07"/>
   </g>
   <g id="patch_43">
    <path d="M 12.604996 36 
L 26.363167 36 
Q 31.768163 36 31.768163 30.595004 
L 31.768163 16.836833 
Q 31.768163 11.431837 26.363167 11.431837 
L 12.604996 11.431837 
Q 7.2 11.431837 7.2 16.836833 
L 7.2 30.595004 
Q 7.2 36 12.604996 36 
z
" clip-path="url(#pbbe3ee220b)" style="fill: #ff9f01; opacity: 0.07"/>
   </g>
   <g id="patch_44">
    <path d="M 12.708441 36 
L 26.729927 36 
Q 32.238367 36 32.238367 30.491559 
L 32.238367 16.470073 
Q 32.238367 10.961633 26.729927 10.961633 
L 12.708441 10.961633 
Q 7.2 10.961633 7.2 16.470073 
L 7.2 30.491559 
Q 7.2 36 12.708441 36 
z
" clip-path="url(#pbbe3ee220b)" style="fill: #ff9f01; opacity: 0.07"/>
   </g>
   <g id="patch_45">
    <path d="M 12.811886 36 
L 27.096686 36 
Q 32.708571 36 32.708571 30.388114 
L 32.708571 16.103314 
Q 32.708571 10.491429 27.096686 10.491429 
L 12.811886 10.491429 
Q 7.2 10.491429 7.2 16.103314 
L 7.2 30.388114 
Q 7.2 36 12.811886 36 
z
" clip-path="url(#pbbe3ee220b)" style="fill: #ff9e01; opacity: 0.07"/>
   </g>
   <g id="patch_46">
    <path d="M 12.915331 36 
L 27.463445 36 
Q 33.178776 36 33.178776 30.284669 
L 33.178776 15.736555 
Q 33.178776 10.021224 27.463445 10.021224 
L 12.915331 10.021224 
Q 7.2 10.021224 7.2 15.736555 
L 7.2 30.284669 
Q 7.2 36 12.915331 36 
z
" clip-path="url(#pbbe3ee220b)" style="fill: #ff9d01; opacity: 0.07"/>
   </g>
   <g id="patch_47">
    <path d="M 13.018776 36 
L 27.830204 36 
Q 33.64898 36 33.64898 30.181224 
L 33.64898 15.369796 
Q 33.64898 9.55102 27.830204 9.55102 
L 13.018776 9.55102 
Q 7.2 9.55102 7.2 15.369796 
L 7.2 30.181224 
Q 7.2 36 13.018776 36 
z
" clip-path="url(#pbbe3ee220b)" style="fill: #ff9c01; opacity: 0.07"/>
   </g>
   <g id="patch_48">
    <path d="M 13.12222 36 
L 28.196963 36 
Q 34.119184 36 34.119184 30.07778 
L 34.119184 15.003037 
Q 34.119184 9.080816 28.196963 9.080816 
L 13.12222 9.080816 
Q 7.2 9.080816 7.2 15.003037 
L 7.2 30.07778 
Q 7.2 36 13.12222 36 
z
" clip-path="url(#pbbe3ee220b)" style="fill: #ff9b01; opacity: 0.07"/>
   </g>
   <g id="patch_49">
    <path d="M 13.225665 36 
L 28.563722 36 
Q 34.589388 36 34.589388 29.974335 
L 34.589388 14.636278 
Q 34.589388 8.610612 28.563722 8.610612 
L 13.225665 8.610612 
Q 7.2 8.610612 7.2 14.636278 
L 7.2 29.974335 
Q 7.2 36 13.225665 36 
z
" clip-path="url(#pbbe3ee220b)" style="fill: #ff9a00; opacity: 0.07"/>
   </g>
   <g id="patch_50">
    <path d="M 13.32911 36 
L 28.930482 36 
Q 35.059592 36 35.059592 29.87089 
L 35.059592 14.269518 
Q 35.059592 8.140408 28.930482 8.140408 
L 13.32911 8.140408 
Q 7.2 8.140408 7.2 14.269518 
L 7.2 29.87089 
Q 7.2 36 13.32911 36 
z
" clip-path="url(#pbbe3ee220b)" style="fill: #ff9a00; opacity: 0.07"/>
   </g>
   <g id="patch_51">
    <path d="M 13.432555 36 
L 29.297241 36 
Q 35.529796 36 35.529796 29.767445 
L 35.529796 13.902759 
Q 35.529796 7.670204 29.297241 7.670204 
L 13.432555 7.670204 
Q 7.2 7.670204 7.2 13.902759 
L 7.2 29.767445 
Q 7.2 36 13.432555 36 
z
" clip-path="url(#pbbe3ee220b)" style="fill: #ff9900; opacity: 0.07"/>
   </g>
   <g id="patch_52">
    <path d="M 13.536 36 
L 29.664 36 
Q 36 36 36 29.664 
L 36 13.536 
Q 36 7.2 29.664 7.2 
L 13.536 7.2 
Q 7.2 7.2 7.2 13.536 
L 7.2 29.664 
Q 7.2 36 13.536 36 
z
" clip-path="url(#pbbe3ee220b)" style="fill: #ff9800; opacity: 0.07"/>
   </g>
   <g id="patch_53">
    <path d="M 27.61344 16.05888 
L 27.539405 16.999589 
L 27.319121 17.917135 
L 26.958014 18.788925 
L 26.464975 19.593491 
L 25.852144 20.311024 
L 25.134611 20.923855 
L 24.330045 21.416894 
L 23.458255 21.778001 
L 22.540709 21.998285 
L 21.6 22.07232 
L 20.659291 21.998285 
L 19.741745 21.778001 
L 18.869955 21.416894 
L 18.065389 20.923855 
L 17.347856 20.311024 
L 16.735025 19.593491 
L 16.241986 18.788925 
L 15.880879 17.917135 
L 15.660595 16.999589 
L 15.58656 16.05888 
L 27.61344 22.07232 
L 21.6 26.74944 
L 15.58656 22.07232 
L 15.58656 16.05888 
L 27.61344 16.05888 
" clip-path="url(#pbbe3ee220b)" style="fill: #ffffff"/>
   </g>
   <g id="patch_54">
    <path d="M 18.59328 20.736 
C 19.124874 20.736 19.634767 20.524795 20.010661 20.148901 
C 20.386555 19.773007 20.59776 19.263114 20.59776 18.73152 
C 20.59776 18.199926 20.386555 17.690033 20.010661 17.314139 
C 19.634767 16.938245 19.124874 16.72704 18.59328 16.72704 
C 18.061686 16.72704 17.551793 16.938245 17.175899 17.314139 
C 16.800005 17.690033 16.5888 18.199926 16.5888 18.73152 
C 16.5888 19.263114 16.800005 19.773007 17.175899 20.148901 
C 17.551793 20.524795 18.061686 20.736 18.59328 20.736 
z
" clip-path="url(#pbbe3ee220b)" style="fill: #ffffff"/>
   </g>
   <g id="patch_55">
    <path d="M 24.60672 20.736 
C 25.138314 20.736 25.648207 20.524795 26.024101 20.148901 
C 26.399995 19.773007 26.6112 19.263114 26.6112 18.73152 
C 26.6112 18.199926 26.399995 17.690033 26.024101 17.314139 
C 25.648207 16.938245 25.138314 16.72704 24.60672 16.72704 
C 24.075126 16.72704 23.565233 16.938245 23.189339 17.314139 
C 22.813445 17.690033 22.60224 18.199926 22.60224 18.73152 
C 22.60224 19.263114 22.813445 19.773007 23.189339 20.148901 
C 23.565233 20.524795 24.075126 20.736 24.60672 20.736 
z
" clip-path="url(#pbbe3ee220b)" style="fill: #ffffff"/>
   </g>
  </g>
 </g>
 <defs>
  <clipPath id="pbbe3ee220b">
   <rect x="7.2" y="7.2" width="28.8" height="28.8"/>
  </clipPath>
 </defs>
</svg>
