<?xml version="1.0" encoding="utf-8" standalone="no"?>
<!DOCTYPE svg PUBLIC "-//W3C//DTD SVG 1.1//EN"
  "http://www.w3.org/Graphics/SVG/1.1/DTD/svg11.dtd">
<svg xmlns:xlink="http://www.w3.org/1999/xlink" width="28.8pt" height="28.8pt" viewBox="0 0 28.8 28.8" xmlns="http://www.w3.org/2000/svg" version="1.1">
 <metadata>
  <rdf:RDF xmlns:dc="http://purl.org/dc/elements/1.1/" xmlns:cc="http://creativecommons.org/ns#" xmlns:rdf="http://www.w3.org/1999/02/22-rdf-syntax-ns#">
   <cc:Work>
    <dc:type rdf:resource="http://purl.org/dc/dcmitype/StillImage"/>
    <dc:date>2025-10-07T21:53:28.370393</dc:date>
    <dc:format>image/svg+xml</dc:format>
    <dc:creator>
     <cc:Agent>
      <dc:title>Matplotlib v3.6.3, https://matplotlib.org/</dc:title>
     </cc:Agent>
    </dc:creator>
   </cc:Work>
  </rdf:RDF>
 </metadata>
 <defs>
  <style type="text/css">*{stroke-linejoin: round; stroke-linecap: butt}</style>
 </defs>
 <g id="figure_1">
  <g id="patch_1">
   <path d="M -0 28.8 
L 28.8 28.8 
L 28.8 -0 
L -0 -0 
z
" style="fill: #ffffff"/>
  </g>
  <g id="axes_1">
   <g id="patch_2">
    <path d="M 10.368 21.6 
L 18.432 21.6 
Q 21.6 21.6 21.6 18.432 
L 21.6 10.368 
Q 21.6 7.2 18.432 7.2 
L 10.368 7.2 
Q 7.2 7.2 7.2 10.368 
L 7.2 18.432 
Q 7.2 21.6 10.368 21.6 
z
" clip-path="url(#p51d55efb83)" style="fill: #ffc107"/>
   </g>
   <g id="patch_3">
    <path d="M 7.8336 21.6 
L 9.4464 21.6 
Q 10.08 21.6 10.08 20.9664 
L 10.08 19.3536 
Q 10.08 18.72 9.4464 18.72 
L 7.8336 18.72 
Q 7.2 18.72 7.2 19.3536 
L 7.2 20.9664 
Q 7.2 21.6 7.8336 21.6 
z
" clip-path="url(#p51d55efb83)" style="fill: #ffc107; opacity: 0.07"/>
   </g>
   <g id="patch_4">
    <path d="M 7.885322 21.6 
L 9.62978 21.6 
Q 10.315102 21.6 10.315102 20.914678 
L 10.315102 19.17022 
Q 10.315102 18.484898 9.62978 18.484898 
L 7.885322 18.484898 
Q 7.2 18.484898 7.2 19.17022 
L 7.2 20.914678 
Q 7.2 21.6 7.885322 21.6 
z
" clip-path="url(#p51d55efb83)" style="fill: #ffc007; opacity: 0.07"/>
   </g>
   <g id="patch_5">
    <path d="M 7.937045 21.6 
L 9.813159 21.6 
Q 10.550204 21.6 10.550204 20.862955 
L 10.550204 18.986841 
Q 10.550204 18.249796 9.813159 18.249796 
L 7.937045 18.249796 
Q 7.2 18.249796 7.2 18.986841 
L 7.2 20.862955 
Q 7.2 21.6 7.937045 21.6 
z
" clip-path="url(#p51d55efb83)" style="fill: #ffbf07; opacity: 0.07"/>
   </g>
   <g id="patch_6">
    <path d="M 7.988767 21.6 
L 9.996539 21.6 
Q 10.785306 21.6 10.785306 20.811233 
L 10.785306 18.803461 
Q 10.785306 18.014694 9.996539 18.014694 
L 7.988767 18.014694 
Q 7.2 18.014694 7.2 18.803461 
L 7.2 20.811233 
Q 7.2 21.6 7.988767 21.6 
z
" clip-path="url(#p51d55efb83)" style="fill: #ffbe06; opacity: 0.07"/>
   </g>
   <g id="patch_7">
    <path d="M 8.04049 21.6 
L 10.179918 21.6 
Q 11.020408 21.6 11.020408 20.75951 
L 11.020408 18.620082 
Q 11.020408 17.779592 10.179918 17.779592 
L 8.04049 17.779592 
Q 7.2 17.779592 7.2 18.620082 
L 7.2 20.75951 
Q 7.2 21.6 8.04049 21.6 
z
" clip-path="url(#p51d55efb83)" style="fill: #ffbd06; opacity: 0.07"/>
   </g>
   <g id="patch_8">
    <path d="M 8.092212 21.6 
L 10.363298 21.6 
Q 11.25551 21.6 11.25551 20.707788 
L 11.25551 18.436702 
Q 11.25551 17.54449 10.363298 17.54449 
L 8.092212 17.54449 
Q 7.2 17.54449 7.2 18.436702 
L 7.2 20.707788 
Q 7.2 21.6 8.092212 21.6 
z
" clip-path="url(#p51d55efb83)" style="fill: #ffbd06; opacity: 0.07"/>
   </g>
   <g id="patch_9">
    <path d="M 8.143935 21.6 
L 10.546678 21.6 
Q 11.490612 21.6 11.490612 20.656065 
L 11.490612 18.253322 
Q 11.490612 17.309388 10.546678 17.309388 
L 8.143935 17.309388 
Q 7.2 17.309388 7.2 18.253322 
L 7.2 20.656065 
Q 7.2 21.6 8.143935 21.6 
z
" clip-path="url(#p51d55efb83)" style="fill: #ffbc06; opacity: 0.07"/>
   </g>
   <g id="patch_10">
    <path d="M 8.195657 21.6 
L 10.730057 21.6 
Q 11.725714 21.6 11.725714 20.604343 
L 11.725714 18.069943 
Q 11.725714 17.074286 10.730057 17.074286 
L 8.195657 17.074286 
Q 7.2 17.074286 7.2 18.069943 
L 7.2 20.604343 
Q 7.2 21.6 8.195657 21.6 
z
" clip-path="url(#p51d55efb83)" style="fill: #ffbb06; opacity: 0.07"/>
   </g>
   <g id="patch_11">
    <path d="M 8.24738 21.6 
L 10.913437 21.6 
Q 11.960816 21.6 11.960816 20.55262 
L 11.960816 17.886563 
Q 11.960816 16.839184 10.913437 16.839184 
L 8.24738 16.839184 
Q 7.2 16.839184 7.2 17.886563 
L 7.2 20.55262 
Q 7.2 21.6 8.24738 21.6 
z
" clip-path="url(#p51d55efb83)" style="fill: #ffba06; opacity: 0.07"/>
   </g>
   <g id="patch_12">
    <path d="M 8.299102 21.6 
L 11.096816 21.6 
Q 12.195918 21.6 12.195918 20.500898 
L 12.195918 17.703184 
Q 12.195918 16.604082 11.096816 16.604082 
L 8.299102 16.604082 
Q 7.2 16.604082 7.2 17.703184 
L 7.2 20.500898 
Q 7.2 21.6 8.299102 21.6 
z
" clip-path="url(#p51d55efb83)" style="fill: #ffb906; opacity: 0.07"/>
   </g>
   <g id="patch_13">
    <path d="M 8.350824 21.6 
L 11.280196 21.6 
Q 12.43102 21.6 12.43102 20.449176 
L 12.43102 17.519804 
Q 12.43102 16.36898 11.280196 16.36898 
L 8.350824 16.36898 
Q 7.2 16.36898 7.2 17.519804 
L 7.2 20.449176 
Q 7.2 21.6 8.350824 21.6 
z
" clip-path="url(#p51d55efb83)" style="fill: #ffb805; opacity: 0.07"/>
   </g>
   <g id="patch_14">
    <path d="M 8.402547 21.6 
L 11.463576 21.6 
Q 12.666122 21.6 12.666122 20.397453 
L 12.666122 17.336424 
Q 12.666122 16.133878 11.463576 16.133878 
L 8.402547 16.133878 
Q 7.2 16.133878 7.2 17.336424 
L 7.2 20.397453 
Q 7.2 21.6 8.402547 21.6 
z
" clip-path="url(#p51d55efb83)" style="fill: #ffb805; opacity: 0.07"/>
   </g>
   <g id="patch_15">
    <path d="M 8.454269 21.6 
L 11.646955 21.6 
Q 12.901224 21.6 12.901224 20.345731 
L 12.901224 17.153045 
Q 12.901224 15.898776 11.646955 15.898776 
L 8.454269 15.898776 
Q 7.2 15.898776 7.2 17.153045 
L 7.2 20.345731 
Q 7.2 21.6 8.454269 21.6 
z
" clip-path="url(#p51d55efb83)" style="fill: #ffb705; opacity: 0.07"/>
   </g>
   <g id="patch_16">
    <path d="M 8.505992 21.6 
L 11.830335 21.6 
Q 13.136327 21.6 13.136327 20.294008 
L 13.136327 16.969665 
Q 13.136327 15.663673 11.830335 15.663673 
L 8.505992 15.663673 
Q 7.2 15.663673 7.2 16.969665 
L 7.2 20.294008 
Q 7.2 21.6 8.505992 21.6 
z
" clip-path="url(#p51d55efb83)" style="fill: #ffb605; opacity: 0.07"/>
   </g>
   <g id="patch_17">
    <path d="M 8.557714 21.6 
L 12.013714 21.6 
Q 13.371429 21.6 13.371429 20.242286 
L 13.371429 16.786286 
Q 13.371429 15.428571 12.013714 15.428571 
L 8.557714 15.428571 
Q 7.2 15.428571 7.2 16.786286 
L 7.2 20.242286 
Q 7.2 21.6 8.557714 21.6 
z
" clip-path="url(#p51d55efb83)" style="fill: #ffb505; opacity: 0.07"/>
   </g>
   <g id="patch_18">
    <path d="M 8.609437 21.6 
L 12.197094 21.6 
Q 13.606531 21.6 13.606531 20.190563 
L 13.606531 16.602906 
Q 13.606531 15.193469 12.197094 15.193469 
L 8.609437 15.193469 
Q 7.2 15.193469 7.2 16.602906 
L 7.2 20.190563 
Q 7.2 21.6 8.609437 21.6 
z
" clip-path="url(#p51d55efb83)" style="fill: #ffb405; opacity: 0.07"/>
   </g>
   <g id="patch_19">
    <path d="M 8.661159 21.6 
L 12.380473 21.6 
Q 13.841633 21.6 13.841633 20.138841 
L 13.841633 16.419527 
Q 13.841633 14.958367 12.380473 14.958367 
L 8.661159 14.958367 
Q 7.2 14.958367 7.2 16.419527 
L 7.2 20.138841 
Q 7.2 21.6 8.661159 21.6 
z
" clip-path="url(#p51d55efb83)" style="fill: #ffb305; opacity: 0.07"/>
   </g>
   <g id="patch_20">
    <path d="M 8.712882 21.6 
L 12.563853 21.6 
Q 14.076735 21.6 14.076735 20.087118 
L 14.076735 16.236147 
Q 14.076735 14.723265 12.563853 14.723265 
L 8.712882 14.723265 
Q 7.2 14.723265 7.2 16.236147 
L 7.2 20.087118 
Q 7.2 21.6 8.712882 21.6 
z
" clip-path="url(#p51d55efb83)" style="fill: #ffb304; opacity: 0.07"/>
   </g>
   <g id="patch_21">
    <path d="M 8.764604 21.6 
L 12.747233 21.6 
Q 14.311837 21.6 14.311837 20.035396 
L 14.311837 16.052767 
Q 14.311837 14.488163 12.747233 14.488163 
L 8.764604 14.488163 
Q 7.2 14.488163 7.2 16.052767 
L 7.2 20.035396 
Q 7.2 21.6 8.764604 21.6 
z
" clip-path="url(#p51d55efb83)" style="fill: #ffb204; opacity: 0.07"/>
   </g>
   <g id="patch_22">
    <path d="M 8.816327 21.6 
L 12.930612 21.6 
Q 14.546939 21.6 14.546939 19.983673 
L 14.546939 15.869388 
Q 14.546939 14.253061 12.930612 14.253061 
L 8.816327 14.253061 
Q 7.2 14.253061 7.2 15.869388 
L 7.2 19.983673 
Q 7.2 21.6 8.816327 21.6 
z
" clip-path="url(#p51d55efb83)" style="fill: #ffb104; opacity: 0.07"/>
   </g>
   <g id="patch_23">
    <path d="M 8.868049 21.6 
L 13.113992 21.6 
Q 14.782041 21.6 14.782041 19.931951 
L 14.782041 15.686008 
Q 14.782041 14.017959 13.113992 14.017959 
L 8.868049 14.017959 
Q 7.2 14.017959 7.2 15.686008 
L 7.2 19.931951 
Q 7.2 21.6 8.868049 21.6 
z
" clip-path="url(#p51d55efb83)" style="fill: #ffb004; opacity: 0.07"/>
   </g>
   <g id="patch_24">
    <path d="M 8.919771 21.6 
L 13.297371 21.6 
Q 15.017143 21.6 15.017143 19.880229 
L 15.017143 15.502629 
Q 15.017143 13.782857 13.297371 13.782857 
L 8.919771 13.782857 
Q 7.2 13.782857 7.2 15.502629 
L 7.2 19.880229 
Q 7.2 21.6 8.919771 21.6 
z
" clip-path="url(#p51d55efb83)" style="fill: #ffaf04; opacity: 0.07"/>
   </g>
   <g id="patch_25">
    <path d="M 8.971494 21.6 
L 13.480751 21.6 
Q 15.252245 21.6 15.252245 19.828506 
L 15.252245 15.319249 
Q 15.252245 13.547755 13.480751 13.547755 
L 8.971494 13.547755 
Q 7.2 13.547755 7.2 15.319249 
L 7.2 19.828506 
Q 7.2 21.6 8.971494 21.6 
z
" clip-path="url(#p51d55efb83)" style="fill: #ffae04; opacity: 0.07"/>
   </g>
   <g id="patch_26">
    <path d="M 9.023216 21.6 
L 13.664131 21.6 
Q 15.487347 21.6 15.487347 19.776784 
L 15.487347 15.135869 
Q 15.487347 13.312653 13.664131 13.312653 
L 9.023216 13.312653 
Q 7.2 13.312653 7.2 15.135869 
L 7.2 19.776784 
Q 7.2 21.6 9.023216 21.6 
z
" clip-path="url(#p51d55efb83)" style="fill: #ffae04; opacity: 0.07"/>
   </g>
   <g id="patch_27">
    <path d="M 9.074939 21.6 
L 13.84751 21.6 
Q 15.722449 21.6 15.722449 19.725061 
L 15.722449 14.95249 
Q 15.722449 13.077551 13.84751 13.077551 
L 9.074939 13.077551 
Q 7.2 13.077551 7.2 14.95249 
L 7.2 19.725061 
Q 7.2 21.6 9.074939 21.6 
z
" clip-path="url(#p51d55efb83)" style="fill: #ffad04; opacity: 0.07"/>
   </g>
   <g id="patch_28">
    <path d="M 9.126661 21.6 
L 14.03089 21.6 
Q 15.957551 21.6 15.957551 19.673339 
L 15.957551 14.76911 
Q 15.957551 12.842449 14.03089 12.842449 
L 9.126661 12.842449 
Q 7.2 12.842449 7.2 14.76911 
L 7.2 19.673339 
Q 7.2 21.6 9.126661 21.6 
z
" clip-path="url(#p51d55efb83)" style="fill: #ffac03; opacity: 0.07"/>
   </g>
   <g id="patch_29">
    <path d="M 9.178384 21.6 
L 14.214269 21.6 
Q 16.192653 21.6 16.192653 19.621616 
L 16.192653 14.585731 
Q 16.192653 12.607347 14.214269 12.607347 
L 9.178384 12.607347 
Q 7.2 12.607347 7.2 14.585731 
L 7.2 19.621616 
Q 7.2 21.6 9.178384 21.6 
z
" clip-path="url(#p51d55efb83)" style="fill: #ffab03; opacity: 0.07"/>
   </g>
   <g id="patch_30">
    <path d="M 9.230106 21.6 
L 14.397649 21.6 
Q 16.427755 21.6 16.427755 19.569894 
L 16.427755 14.402351 
Q 16.427755 12.372245 14.397649 12.372245 
L 9.230106 12.372245 
Q 7.2 12.372245 7.2 14.402351 
L 7.2 19.569894 
Q 7.2 21.6 9.230106 21.6 
z
" clip-path="url(#p51d55efb83)" style="fill: #ffaa03; opacity: 0.07"/>
   </g>
   <g id="patch_31">
    <path d="M 9.281829 21.6 
L 14.581029 21.6 
Q 16.662857 21.6 16.662857 19.518171 
L 16.662857 14.218971 
Q 16.662857 12.137143 14.581029 12.137143 
L 9.281829 12.137143 
Q 7.2 12.137143 7.2 14.218971 
L 7.2 19.518171 
Q 7.2 21.6 9.281829 21.6 
z
" clip-path="url(#p51d55efb83)" style="fill: #ffa903; opacity: 0.07"/>
   </g>
   <g id="patch_32">
    <path d="M 9.333551 21.6 
L 14.764408 21.6 
Q 16.897959 21.6 16.897959 19.466449 
L 16.897959 14.035592 
Q 16.897959 11.902041 14.764408 11.902041 
L 9.333551 11.902041 
Q 7.2 11.902041 7.2 14.035592 
L 7.2 19.466449 
Q 7.2 21.6 9.333551 21.6 
z
" clip-path="url(#p51d55efb83)" style="fill: #ffa903; opacity: 0.07"/>
   </g>
   <g id="patch_33">
    <path d="M 9.385273 21.6 
L 14.947788 21.6 
Q 17.133061 21.6 17.133061 19.414727 
L 17.133061 13.852212 
Q 17.133061 11.666939 14.947788 11.666939 
L 9.385273 11.666939 
Q 7.2 11.666939 7.2 13.852212 
L 7.2 19.414727 
Q 7.2 21.6 9.385273 21.6 
z
" clip-path="url(#p51d55efb83)" style="fill: #ffa803; opacity: 0.07"/>
   </g>
   <g id="patch_34">
    <path d="M 9.436996 21.6 
L 15.131167 21.6 
Q 17.368163 21.6 17.368163 19.363004 
L 17.368163 13.668833 
Q 17.368163 11.431837 15.131167 11.431837 
L 9.436996 11.431837 
Q 7.2 11.431837 7.2 13.668833 
L 7.2 19.363004 
Q 7.2 21.6 9.436996 21.6 
z
" clip-path="url(#p51d55efb83)" style="fill: #ffa703; opacity: 0.07"/>
   </g>
   <g id="patch_35">
    <path d="M 9.488718 21.6 
L 15.314547 21.6 
Q 17.603265 21.6 17.603265 19.311282 
L 17.603265 13.485453 
Q 17.603265 11.196735 15.314547 11.196735 
L 9.488718 11.196735 
Q 7.2 11.196735 7.2 13.485453 
L 7.2 19.311282 
Q 7.2 21.6 9.488718 21.6 
z
" clip-path="url(#p51d55efb83)" style="fill: #ffa602; opacity: 0.07"/>
   </g>
   <g id="patch_36">
    <path d="M 9.540441 21.6 
L 15.497927 21.6 
Q 17.838367 21.6 17.838367 19.259559 
L 17.838367 13.302073 
Q 17.838367 10.961633 15.497927 10.961633 
L 9.540441 10.961633 
Q 7.2 10.961633 7.2 13.302073 
L 7.2 19.259559 
Q 7.2 21.6 9.540441 21.6 
z
" clip-path="url(#p51d55efb83)" style="fill: #ffa502; opacity: 0.07"/>
   </g>
   <g id="patch_37">
    <path d="M 9.592163 21.6 
L 15.681306 21.6 
Q 18.073469 21.6 18.073469 19.207837 
L 18.073469 13.118694 
Q 18.073469 10.726531 15.681306 10.726531 
L 9.592163 10.726531 
Q 7.2 10.726531 7.2 13.118694 
L 7.2 19.207837 
Q 7.2 21.6 9.592163 21.6 
z
" clip-path="url(#p51d55efb83)" style="fill: #ffa402; opacity: 0.07"/>
   </g>
   <g id="patch_38">
    <path d="M 9.643886 21.6 
L 15.864686 21.6 
Q 18.308571 21.6 18.308571 19.156114 
L 18.308571 12.935314 
Q 18.308571 10.491429 15.864686 10.491429 
L 9.643886 10.491429 
Q 7.2 10.491429 7.2 12.935314 
L 7.2 19.156114 
Q 7.2 21.6 9.643886 21.6 
z
" clip-path="url(#p51d55efb83)" style="fill: #ffa402; opacity: 0.07"/>
   </g>
   <g id="patch_39">
    <path d="M 9.695608 21.6 
L 16.048065 21.6 
Q 18.543673 21.6 18.543673 19.104392 
L 18.543673 12.751935 
Q 18.543673 10.256327 16.048065 10.256327 
L 9.695608 10.256327 
Q 7.2 10.256327 7.2 12.751935 
L 7.2 19.104392 
Q 7.2 21.6 9.695608 21.6 
z
" clip-path="url(#p51d55efb83)" style="fill: #ffa302; opacity: 0.07"/>
   </g>
   <g id="patch_40">
    <path d="M 9.747331 21.6 
L 16.231445 21.6 
Q 18.778776 21.6 18.778776 19.052669 
L 18.778776 12.568555 
Q 18.778776 10.021224 16.231445 10.021224 
L 9.747331 10.021224 
Q 7.2 10.021224 7.2 12.568555 
L 7.2 19.052669 
Q 7.2 21.6 9.747331 21.6 
z
" clip-path="url(#p51d55efb83)" style="fill: #ffa202; opacity: 0.07"/>
   </g>
   <g id="patch_41">
    <path d="M 9.799053 21.6 
L 16.414824 21.6 
Q 19.013878 21.6 19.013878 19.000947 
L 19.013878 12.385176 
Q 19.013878 9.786122 16.414824 9.786122 
L 9.799053 9.786122 
Q 7.2 9.786122 7.2 12.385176 
L 7.2 19.000947 
Q 7.2 21.6 9.799053 21.6 
z
" clip-path="url(#p51d55efb83)" style="fill: #ffa102; opacity: 0.07"/>
   </g>
   <g id="patch_42">
    <path d="M 9.850776 21.6 
L 16.598204 21.6 
Q 19.24898 21.6 19.24898 18.949224 
L 19.24898 12.201796 
Q 19.24898 9.55102 16.598204 9.55102 
L 9.850776 9.55102 
Q 7.2 9.55102 7.2 12.201796 
L 7.2 18.949224 
Q 7.2 21.6 9.850776 21.6 
z
" clip-path="url(#p51d55efb83)" style="fill: #ffa001; opacity: 0.07"/>
   </g>
   <g id="patch_43">
    <path d="M 9.902498 21.6 
L 16.781584 21.6 
Q 19.484082 21.6 19.484082 18.897502 
L 19.484082 12.018416 
Q 19.484082 9.315918 16.781584 9.315918 
L 9.902498 9.315918 
Q 7.2 9.315918 7.2 12.018416 
L 7.2 18.897502 
Q 7.2 21.6 9.902498 21.6 
z
" clip-path="url(#p51d55efb83)" style="fill: #ff9f01; opacity: 0.07"/>
   </g>
   <g id="patch_44">
    <path d="M 9.95422 21.6 
L 16.964963 21.6 
Q 19.719184 21.6 19.719184 18.84578 
L 19.719184 11.835037 
Q 19.719184 9.080816 16.964963 9.080816 
L 9.95422 9.080816 
Q 7.2 9.080816 7.2 11.835037 
L 7.2 18.84578 
Q 7.2 21.6 9.95422 21.6 
z
" clip-path="url(#p51d55efb83)" style="fill: #ff9f01; opacity: 0.07"/>
   </g>
   <g id="patch_45">
    <path d="M 10.005943 21.6 
L 17.148343 21.6 
Q 19.954286 21.6 19.954286 18.794057 
L 19.954286 11.651657 
Q 19.954286 8.845714 17.148343 8.845714 
L 10.005943 8.845714 
Q 7.2 8.845714 7.2 11.651657 
L 7.2 18.794057 
Q 7.2 21.6 10.005943 21.6 
z
" clip-path="url(#p51d55efb83)" style="fill: #ff9e01; opacity: 0.07"/>
   </g>
   <g id="patch_46">
    <path d="M 10.057665 21.6 
L 17.331722 21.6 
Q 20.189388 21.6 20.189388 18.742335 
L 20.189388 11.468278 
Q 20.189388 8.610612 17.331722 8.610612 
L 10.057665 8.610612 
Q 7.2 8.610612 7.2 11.468278 
L 7.2 18.742335 
Q 7.2 21.6 10.057665 21.6 
z
" clip-path="url(#p51d55efb83)" style="fill: #ff9d01; opacity: 0.07"/>
   </g>
   <g id="patch_47">
    <path d="M 10.109388 21.6 
L 17.515102 21.6 
Q 20.42449 21.6 20.42449 18.690612 
L 20.42449 11.284898 
Q 20.42449 8.37551 17.515102 8.37551 
L 10.109388 8.37551 
Q 7.2 8.37551 7.2 11.284898 
L 7.2 18.690612 
Q 7.2 21.6 10.109388 21.6 
z
" clip-path="url(#p51d55efb83)" style="fill: #ff9c01; opacity: 0.07"/>
   </g>
   <g id="patch_48">
    <path d="M 10.16111 21.6 
L 17.698482 21.6 
Q 20.659592 21.6 20.659592 18.63889 
L 20.659592 11.101518 
Q 20.659592 8.140408 17.698482 8.140408 
L 10.16111 8.140408 
Q 7.2 8.140408 7.2 11.101518 
L 7.2 18.63889 
Q 7.2 21.6 10.16111 21.6 
z
" clip-path="url(#p51d55efb83)" style="fill: #ff9b01; opacity: 0.07"/>
   </g>
   <g id="patch_49">
    <path d="M 10.212833 21.6 
L 17.881861 21.6 
Q 20.894694 21.6 20.894694 18.587167 
L 20.894694 10.918139 
Q 20.894694 7.905306 17.881861 7.905306 
L 10.212833 7.905306 
Q 7.2 7.905306 7.2 10.918139 
L 7.2 18.587167 
Q 7.2 21.6 10.212833 21.6 
z
" clip-path="url(#p51d55efb83)" style="fill: #ff9a00; opacity: 0.07"/>
   </g>
   <g id="patch_50">
    <path d="M 10.264555 21.6 
L 18.065241 21.6 
Q 21.129796 21.6 21.129796 18.535445 
L 21.129796 10.734759 
Q 21.129796 7.670204 18.065241 7.670204 
L 10.264555 7.670204 
Q 7.2 7.670204 7.2 10.734759 
L 7.2 18.535445 
Q 7.2 21.6 10.264555 21.6 
z
" clip-path="url(#p51d55efb83)" style="fill: #ff9a00; opacity: 0.07"/>
   </g>
   <g id="patch_51">
    <path d="M 10.316278 21.6 
L 18.24862 21.6 
Q 21.364898 21.6 21.364898 18.483722 
L 21.364898 10.55138 
Q 21.364898 7.435102 18.24862 7.435102 
L 10.316278 7.435102 
Q 7.2 7.435102 7.2 10.55138 
L 7.2 18.483722 
Q 7.2 21.6 10.316278 21.6 
z
" clip-path="url(#p51d55efb83)" style="fill: #ff9900; opacity: 0.07"/>
   </g>
   <g id="patch_52">
    <path d="M 10.368 21.6 
L 18.432 21.6 
Q 21.6 21.6 21.6 18.432 
L 21.6 10.368 
Q 21.6 7.2 18.432 7.2 
L 10.368 7.2 
Q 7.2 7.2 7.2 10.368 
L 7.2 18.432 
Q 7.2 21.6 10.368 21.6 
z
" clip-path="url(#p51d55efb83)" style="fill: #ff9800; opacity: 0.07"/>
   </g>
   <g id="patch_53">
    <path d="M 17.40672 11.62944 
L 17.369702 12.099795 
L 17.259561 12.558568 
L 17.079007 12.994462 
L 16.832488 13.396746 
L 16.526072 13.755512 
L 16.167306 14.061928 
L 15.765022 14.308447 
L 15.329128 14.489001 
L 14.870355 14.599142 
L 14.4 14.63616 
L 13.929645 14.599142 
L 13.470872 14.489001 
L 13.034978 14.308447 
L 12.632694 14.061928 
L 12.273928 13.755512 
L 11.967512 13.396746 
L 11.720993 12.994462 
L 11.540439 12.558568 
L 11.430298 12.099795 
L 11.39328 11.62944 
L 17.40672 14.63616 
L 14.4 16.97472 
L 11.39328 14.63616 
L 11.39328 11.62944 
L 17.40672 11.62944 
" clip-path="url(#p51d55efb83)" style="fill: #ffffff"/>
   </g>
   <g id="patch_54">
    <path d="M 12.89664 13.968 
C 13.162437 13.968 13.417384 13.862398 13.605331 13.674451 
C 13.793278 13.486504 13.89888 13.231557 13.89888 12.96576 
C 13.89888 12.699963 13.793278 12.445016 13.605331 12.257069 
C 13.417384 12.069122 13.162437 11.96352 12.89664 11.96352 
C 12.630843 11.96352 12.375896 12.069122 12.187949 12.257069 
C 12.000002 12.445016 11.8944 12.699963 11.8944 12.96576 
C 11.8944 13.231557 12.000002 13.486504 12.187949 13.674451 
C 12.375896 13.862398 12.630843 13.968 12.89664 13.968 
z
" clip-path="url(#p51d55efb83)" style="fill: #ffffff"/>
   </g>
   <g id="patch_55">
    <path d="M 15.90336 13.968 
C 16.169157 13.968 16.424104 13.862398 16.612051 13.674451 
C 16.799998 13.486504 16.9056 13.231557 16.9056 12.96576 
C 16.9056 12.699963 16.799998 12.445016 16.612051 12.257069 
C 16.424104 12.069122 16.169157 11.96352 15.90336 11.96352 
C 15.637563 11.96352 15.382616 12.069122 15.194669 12.257069 
C 15.006722 12.445016 14.90112 12.699963 14.90112 12.96576 
C 14.90112 13.231557 15.006722 13.486504 15.194669 13.674451 
C 15.382616 13.862398 15.637563 13.968 15.90336 13.968 
z
" clip-path="url(#p51d55efb83)" style="fill: #ffffff"/>
   </g>
  </g>
 </g>
 <defs>
  <clipPath id="p51d55efb83">
   <rect x="7.2" y="7.2" width="14.4" height="14.4"/>
  </clipPath>
 </defs>
</svg>
