<?xml version="1.0" encoding="utf-8" standalone="no"?>
<!DOCTYPE svg PUBLIC "-//W3C//DTD SVG 1.1//EN"
  "http://www.w3.org/Graphics/SVG/1.1/DTD/svg11.dtd">
<svg xmlns:xlink="http://www.w3.org/1999/xlink" width="50.88pt" height="50.88pt" viewBox="0 0 50.88 50.88" xmlns="http://www.w3.org/2000/svg" version="1.1">
 <metadata>
  <rdf:RDF xmlns:dc="http://purl.org/dc/elements/1.1/" xmlns:cc="http://creativecommons.org/ns#" xmlns:rdf="http://www.w3.org/1999/02/22-rdf-syntax-ns#">
   <cc:Work>
    <dc:type rdf:resource="http://purl.org/dc/dcmitype/StillImage"/>
    <dc:date>2025-10-07T21:53:27.273524</dc:date>
    <dc:format>image/svg+xml</dc:format>
    <dc:creator>
     <cc:Agent>
      <dc:title>Matplotlib v3.6.3, https://matplotlib.org/</dc:title>
     </cc:Agent>
    </dc:creator>
   </cc:Work>
  </rdf:RDF>
 </metadata>
 <defs>
  <style type="text/css">*{stroke-linejoin: round; stroke-linecap: butt}</style>
 </defs>
 <g id="figure_1">
  <g id="patch_1">
   <path d="M 0 50.88 
L 50.88 50.88 
L 50.88 0 
L 0 0 
z
" style="fill: #ffffff"/>
  </g>
  <g id="axes_1">
   <g id="patch_2">
    <path d="M 15.2256 43.68 
L 35.6544 43.68 
Q 43.68 43.68 43.68 35.6544 
L 43.68 15.2256 
Q 43.68 7.2 35.6544 7.2 
L 15.2256 7.2 
Q 7.2 7.2 7.2 15.2256 
L 7.2 35.6544 
Q 7.2 43.68 15.2256 43.68 
z
" clip-path="url(#p9e22ebf4a2)" style="fill: #ffc107"/>
   </g>
   <g id="patch_3">
    <path d="M 8.80512 43.68 
L 12.89088 43.68 
Q 14.496 43.68 14.496 42.07488 
L 14.496 37.98912 
Q 14.496 36.384 12.89088 36.384 
L 8.80512 36.384 
Q 7.2 36.384 7.2 37.98912 
L 7.2 42.07488 
Q 7.2 43.68 8.80512 43.68 
z
" clip-path="url(#p9e22ebf4a2)" style="fill: #ffc107; opacity: 0.07"/>
   </g>
   <g id="patch_4">
    <path d="M 8.93615 43.68 
L 13.355442 43.68 
Q 15.091592 43.68 15.091592 41.94385 
L 15.091592 37.524558 
Q 15.091592 35.788408 13.355442 35.788408 
L 8.93615 35.788408 
Q 7.2 35.788408 7.2 37.524558 
L 7.2 41.94385 
Q 7.2 43.68 8.93615 43.68 
z
" clip-path="url(#p9e22ebf4a2)" style="fill: #ffc007; opacity: 0.07"/>
   </g>
   <g id="patch_5">
    <path d="M 9.06718 43.68 
L 13.820003 43.68 
Q 15.687184 43.68 15.687184 41.81282 
L 15.687184 37.059997 
Q 15.687184 35.192816 13.820003 35.192816 
L 9.06718 35.192816 
Q 7.2 35.192816 7.2 37.059997 
L 7.2 41.81282 
Q 7.2 43.68 9.06718 43.68 
z
" clip-path="url(#p9e22ebf4a2)" style="fill: #ffbf07; opacity: 0.07"/>
   </g>
   <g id="patch_6">
    <path d="M 9.198211 43.68 
L 14.284565 43.68 
Q 16.282776 43.68 16.282776 41.681789 
L 16.282776 36.595435 
Q 16.282776 34.597224 14.284565 34.597224 
L 9.198211 34.597224 
Q 7.2 34.597224 7.2 36.595435 
L 7.2 41.681789 
Q 7.2 43.68 9.198211 43.68 
z
" clip-path="url(#p9e22ebf4a2)" style="fill: #ffbe06; opacity: 0.07"/>
   </g>
   <g id="patch_7">
    <path d="M 9.329241 43.68 
L 14.749127 43.68 
Q 16.878367 43.68 16.878367 41.550759 
L 16.878367 36.130873 
Q 16.878367 34.001633 14.749127 34.001633 
L 9.329241 34.001633 
Q 7.2 34.001633 7.2 36.130873 
L 7.2 41.550759 
Q 7.2 43.68 9.329241 43.68 
z
" clip-path="url(#p9e22ebf4a2)" style="fill: #ffbd06; opacity: 0.07"/>
   </g>
   <g id="patch_8">
    <path d="M 9.460271 43.68 
L 15.213688 43.68 
Q 17.473959 43.68 17.473959 41.419729 
L 17.473959 35.666312 
Q 17.473959 33.406041 15.213688 33.406041 
L 9.460271 33.406041 
Q 7.2 33.406041 7.2 35.666312 
L 7.2 41.419729 
Q 7.2 43.68 9.460271 43.68 
z
" clip-path="url(#p9e22ebf4a2)" style="fill: #ffbd06; opacity: 0.07"/>
   </g>
   <g id="patch_9">
    <path d="M 9.591301 43.68 
L 15.67825 43.68 
Q 18.069551 43.68 18.069551 41.288699 
L 18.069551 35.20175 
Q 18.069551 32.810449 15.67825 32.810449 
L 9.591301 32.810449 
Q 7.2 32.810449 7.2 35.20175 
L 7.2 41.288699 
Q 7.2 43.68 9.591301 43.68 
z
" clip-path="url(#p9e22ebf4a2)" style="fill: #ffbc06; opacity: 0.07"/>
   </g>
   <g id="patch_10">
    <path d="M 9.722331 43.68 
L 16.142811 43.68 
Q 18.665143 43.68 18.665143 41.157669 
L 18.665143 34.737189 
Q 18.665143 32.214857 16.142811 32.214857 
L 9.722331 32.214857 
Q 7.2 32.214857 7.2 34.737189 
L 7.2 41.157669 
Q 7.2 43.68 9.722331 43.68 
z
" clip-path="url(#p9e22ebf4a2)" style="fill: #ffbb06; opacity: 0.07"/>
   </g>
   <g id="patch_11">
    <path d="M 9.853362 43.68 
L 16.607373 43.68 
Q 19.260735 43.68 19.260735 41.026638 
L 19.260735 34.272627 
Q 19.260735 31.619265 16.607373 31.619265 
L 9.853362 31.619265 
Q 7.2 31.619265 7.2 34.272627 
L 7.2 41.026638 
Q 7.2 43.68 9.853362 43.68 
z
" clip-path="url(#p9e22ebf4a2)" style="fill: #ffba06; opacity: 0.07"/>
   </g>
   <g id="patch_12">
    <path d="M 9.984392 43.68 
L 17.071935 43.68 
Q 19.856327 43.68 19.856327 40.895608 
L 19.856327 33.808065 
Q 19.856327 31.023673 17.071935 31.023673 
L 9.984392 31.023673 
Q 7.2 31.023673 7.2 33.808065 
L 7.2 40.895608 
Q 7.2 43.68 9.984392 43.68 
z
" clip-path="url(#p9e22ebf4a2)" style="fill: #ffb906; opacity: 0.07"/>
   </g>
   <g id="patch_13">
    <path d="M 10.115422 43.68 
L 17.536496 43.68 
Q 20.451918 43.68 20.451918 40.764578 
L 20.451918 33.343504 
Q 20.451918 30.428082 17.536496 30.428082 
L 10.115422 30.428082 
Q 7.2 30.428082 7.2 33.343504 
L 7.2 40.764578 
Q 7.2 43.68 10.115422 43.68 
z
" clip-path="url(#p9e22ebf4a2)" style="fill: #ffb805; opacity: 0.07"/>
   </g>
   <g id="patch_14">
    <path d="M 10.246452 43.68 
L 18.001058 43.68 
Q 21.04751 43.68 21.04751 40.633548 
L 21.04751 32.878942 
Q 21.04751 29.83249 18.001058 29.83249 
L 10.246452 29.83249 
Q 7.2 29.83249 7.2 32.878942 
L 7.2 40.633548 
Q 7.2 43.68 10.246452 43.68 
z
" clip-path="url(#p9e22ebf4a2)" style="fill: #ffb805; opacity: 0.07"/>
   </g>
   <g id="patch_15">
    <path d="M 10.377482 43.68 
L 18.46562 43.68 
Q 21.643102 43.68 21.643102 40.502518 
L 21.643102 32.41438 
Q 21.643102 29.236898 18.46562 29.236898 
L 10.377482 29.236898 
Q 7.2 29.236898 7.2 32.41438 
L 7.2 40.502518 
Q 7.2 43.68 10.377482 43.68 
z
" clip-path="url(#p9e22ebf4a2)" style="fill: #ffb705; opacity: 0.07"/>
   </g>
   <g id="patch_16">
    <path d="M 10.508513 43.68 
L 18.930181 43.68 
Q 22.238694 43.68 22.238694 40.371487 
L 22.238694 31.949819 
Q 22.238694 28.641306 18.930181 28.641306 
L 10.508513 28.641306 
Q 7.2 28.641306 7.2 31.949819 
L 7.2 40.371487 
Q 7.2 43.68 10.508513 43.68 
z
" clip-path="url(#p9e22ebf4a2)" style="fill: #ffb605; opacity: 0.07"/>
   </g>
   <g id="patch_17">
    <path d="M 10.639543 43.68 
L 19.394743 43.68 
Q 22.834286 43.68 22.834286 40.240457 
L 22.834286 31.485257 
Q 22.834286 28.045714 19.394743 28.045714 
L 10.639543 28.045714 
Q 7.2 28.045714 7.2 31.485257 
L 7.2 40.240457 
Q 7.2 43.68 10.639543 43.68 
z
" clip-path="url(#p9e22ebf4a2)" style="fill: #ffb505; opacity: 0.07"/>
   </g>
   <g id="patch_18">
    <path d="M 10.770573 43.68 
L 19.859304 43.68 
Q 23.429878 43.68 23.429878 40.109427 
L 23.429878 31.020696 
Q 23.429878 27.450122 19.859304 27.450122 
L 10.770573 27.450122 
Q 7.2 27.450122 7.2 31.020696 
L 7.2 40.109427 
Q 7.2 43.68 10.770573 43.68 
z
" clip-path="url(#p9e22ebf4a2)" style="fill: #ffb405; opacity: 0.07"/>
   </g>
   <g id="patch_19">
    <path d="M 10.901603 43.68 
L 20.323866 43.68 
Q 24.025469 43.68 24.025469 39.978397 
L 24.025469 30.556134 
Q 24.025469 26.854531 20.323866 26.854531 
L 10.901603 26.854531 
Q 7.2 26.854531 7.2 30.556134 
L 7.2 39.978397 
Q 7.2 43.68 10.901603 43.68 
z
" clip-path="url(#p9e22ebf4a2)" style="fill: #ffb305; opacity: 0.07"/>
   </g>
   <g id="patch_20">
    <path d="M 11.032633 43.68 
L 20.788428 43.68 
Q 24.621061 43.68 24.621061 39.847367 
L 24.621061 30.091572 
Q 24.621061 26.258939 20.788428 26.258939 
L 11.032633 26.258939 
Q 7.2 26.258939 7.2 30.091572 
L 7.2 39.847367 
Q 7.2 43.68 11.032633 43.68 
z
" clip-path="url(#p9e22ebf4a2)" style="fill: #ffb304; opacity: 0.07"/>
   </g>
   <g id="patch_21">
    <path d="M 11.163664 43.68 
L 21.252989 43.68 
Q 25.216653 43.68 25.216653 39.716336 
L 25.216653 29.627011 
Q 25.216653 25.663347 21.252989 25.663347 
L 11.163664 25.663347 
Q 7.2 25.663347 7.2 29.627011 
L 7.2 39.716336 
Q 7.2 43.68 11.163664 43.68 
z
" clip-path="url(#p9e22ebf4a2)" style="fill: #ffb204; opacity: 0.07"/>
   </g>
   <g id="patch_22">
    <path d="M 11.294694 43.68 
L 21.717551 43.68 
Q 25.812245 43.68 25.812245 39.585306 
L 25.812245 29.162449 
Q 25.812245 25.067755 21.717551 25.067755 
L 11.294694 25.067755 
Q 7.2 25.067755 7.2 29.162449 
L 7.2 39.585306 
Q 7.2 43.68 11.294694 43.68 
z
" clip-path="url(#p9e22ebf4a2)" style="fill: #ffb104; opacity: 0.07"/>
   </g>
   <g id="patch_23">
    <path d="M 11.425724 43.68 
L 22.182113 43.68 
Q 26.407837 43.68 26.407837 39.454276 
L 26.407837 28.697887 
Q 26.407837 24.472163 22.182113 24.472163 
L 11.425724 24.472163 
Q 7.2 24.472163 7.2 28.697887 
L 7.2 39.454276 
Q 7.2 43.68 11.425724 43.68 
z
" clip-path="url(#p9e22ebf4a2)" style="fill: #ffb004; opacity: 0.07"/>
   </g>
   <g id="patch_24">
    <path d="M 11.556754 43.68 
L 22.646674 43.68 
Q 27.003429 43.68 27.003429 39.323246 
L 27.003429 28.233326 
Q 27.003429 23.876571 22.646674 23.876571 
L 11.556754 23.876571 
Q 7.2 23.876571 7.2 28.233326 
L 7.2 39.323246 
Q 7.2 43.68 11.556754 43.68 
z
" clip-path="url(#p9e22ebf4a2)" style="fill: #ffaf04; opacity: 0.07"/>
   </g>
   <g id="patch_25">
    <path d="M 11.687784 43.68 
L 23.111236 43.68 
Q 27.59902 43.68 27.59902 39.192216 
L 27.59902 27.768764 
Q 27.59902 23.28098 23.111236 23.28098 
L 11.687784 23.28098 
Q 7.2 23.28098 7.2 27.768764 
L 7.2 39.192216 
Q 7.2 43.68 11.687784 43.68 
z
" clip-path="url(#p9e22ebf4a2)" style="fill: #ffae04; opacity: 0.07"/>
   </g>
   <g id="patch_26">
    <path d="M 11.818815 43.68 
L 23.575798 43.68 
Q 28.194612 43.68 28.194612 39.061185 
L 28.194612 27.304202 
Q 28.194612 22.685388 23.575798 22.685388 
L 11.818815 22.685388 
Q 7.2 22.685388 7.2 27.304202 
L 7.2 39.061185 
Q 7.2 43.68 11.818815 43.68 
z
" clip-path="url(#p9e22ebf4a2)" style="fill: #ffae04; opacity: 0.07"/>
   </g>
   <g id="patch_27">
    <path d="M 11.949845 43.68 
L 24.040359 43.68 
Q 28.790204 43.68 28.790204 38.930155 
L 28.790204 26.839641 
Q 28.790204 22.089796 24.040359 22.089796 
L 11.949845 22.089796 
Q 7.2 22.089796 7.2 26.839641 
L 7.2 38.930155 
Q 7.2 43.68 11.949845 43.68 
z
" clip-path="url(#p9e22ebf4a2)" style="fill: #ffad04; opacity: 0.07"/>
   </g>
   <g id="patch_28">
    <path d="M 12.080875 43.68 
L 24.504921 43.68 
Q 29.385796 43.68 29.385796 38.799125 
L 29.385796 26.375079 
Q 29.385796 21.494204 24.504921 21.494204 
L 12.080875 21.494204 
Q 7.2 21.494204 7.2 26.375079 
L 7.2 38.799125 
Q 7.2 43.68 12.080875 43.68 
z
" clip-path="url(#p9e22ebf4a2)" style="fill: #ffac03; opacity: 0.07"/>
   </g>
   <g id="patch_29">
    <path d="M 12.211905 43.68 
L 24.969482 43.68 
Q 29.981388 43.68 29.981388 38.668095 
L 29.981388 25.910518 
Q 29.981388 20.898612 24.969482 20.898612 
L 12.211905 20.898612 
Q 7.2 20.898612 7.2 25.910518 
L 7.2 38.668095 
Q 7.2 43.68 12.211905 43.68 
z
" clip-path="url(#p9e22ebf4a2)" style="fill: #ffab03; opacity: 0.07"/>
   </g>
   <g id="patch_30">
    <path d="M 12.342936 43.68 
L 25.434044 43.68 
Q 30.57698 43.68 30.57698 38.537064 
L 30.57698 25.445956 
Q 30.57698 20.30302 25.434044 20.30302 
L 12.342936 20.30302 
Q 7.2 20.30302 7.2 25.445956 
L 7.2 38.537064 
Q 7.2 43.68 12.342936 43.68 
z
" clip-path="url(#p9e22ebf4a2)" style="fill: #ffaa03; opacity: 0.07"/>
   </g>
   <g id="patch_31">
    <path d="M 12.473966 43.68 
L 25.898606 43.68 
Q 31.172571 43.68 31.172571 38.406034 
L 31.172571 24.981394 
Q 31.172571 19.707429 25.898606 19.707429 
L 12.473966 19.707429 
Q 7.2 19.707429 7.2 24.981394 
L 7.2 38.406034 
Q 7.2 43.68 12.473966 43.68 
z
" clip-path="url(#p9e22ebf4a2)" style="fill: #ffa903; opacity: 0.07"/>
   </g>
   <g id="patch_32">
    <path d="M 12.604996 43.68 
L 26.363167 43.68 
Q 31.768163 43.68 31.768163 38.275004 
L 31.768163 24.516833 
Q 31.768163 19.111837 26.363167 19.111837 
L 12.604996 19.111837 
Q 7.2 19.111837 7.2 24.516833 
L 7.2 38.275004 
Q 7.2 43.68 12.604996 43.68 
z
" clip-path="url(#p9e22ebf4a2)" style="fill: #ffa903; opacity: 0.07"/>
   </g>
   <g id="patch_33">
    <path d="M 12.736026 43.68 
L 26.827729 43.68 
Q 32.363755 43.68 32.363755 38.143974 
L 32.363755 24.052271 
Q 32.363755 18.516245 26.827729 18.516245 
L 12.736026 18.516245 
Q 7.2 18.516245 7.2 24.052271 
L 7.2 38.143974 
Q 7.2 43.68 12.736026 43.68 
z
" clip-path="url(#p9e22ebf4a2)" style="fill: #ffa803; opacity: 0.07"/>
   </g>
   <g id="patch_34">
    <path d="M 12.867056 43.68 
L 27.292291 43.68 
Q 32.959347 43.68 32.959347 38.012944 
L 32.959347 23.587709 
Q 32.959347 17.920653 27.292291 17.920653 
L 12.867056 17.920653 
Q 7.2 17.920653 7.2 23.587709 
L 7.2 38.012944 
Q 7.2 43.68 12.867056 43.68 
z
" clip-path="url(#p9e22ebf4a2)" style="fill: #ffa703; opacity: 0.07"/>
   </g>
   <g id="patch_35">
    <path d="M 12.998087 43.68 
L 27.756852 43.68 
Q 33.554939 43.68 33.554939 37.881913 
L 33.554939 23.123148 
Q 33.554939 17.325061 27.756852 17.325061 
L 12.998087 17.325061 
Q 7.2 17.325061 7.2 23.123148 
L 7.2 37.881913 
Q 7.2 43.68 12.998087 43.68 
z
" clip-path="url(#p9e22ebf4a2)" style="fill: #ffa602; opacity: 0.07"/>
   </g>
   <g id="patch_36">
    <path d="M 13.129117 43.68 
L 28.221414 43.68 
Q 34.150531 43.68 34.150531 37.750883 
L 34.150531 22.658586 
Q 34.150531 16.729469 28.221414 16.729469 
L 13.129117 16.729469 
Q 7.2 16.729469 7.2 22.658586 
L 7.2 37.750883 
Q 7.2 43.68 13.129117 43.68 
z
" clip-path="url(#p9e22ebf4a2)" style="fill: #ffa502; opacity: 0.07"/>
   </g>
   <g id="patch_37">
    <path d="M 13.260147 43.68 
L 28.685976 43.68 
Q 34.746122 43.68 34.746122 37.619853 
L 34.746122 22.194024 
Q 34.746122 16.133878 28.685976 16.133878 
L 13.260147 16.133878 
Q 7.2 16.133878 7.2 22.194024 
L 7.2 37.619853 
Q 7.2 43.68 13.260147 43.68 
z
" clip-path="url(#p9e22ebf4a2)" style="fill: #ffa402; opacity: 0.07"/>
   </g>
   <g id="patch_38">
    <path d="M 13.391177 43.68 
L 29.150537 43.68 
Q 35.341714 43.68 35.341714 37.488823 
L 35.341714 21.729463 
Q 35.341714 15.538286 29.150537 15.538286 
L 13.391177 15.538286 
Q 7.2 15.538286 7.2 21.729463 
L 7.2 37.488823 
Q 7.2 43.68 13.391177 43.68 
z
" clip-path="url(#p9e22ebf4a2)" style="fill: #ffa402; opacity: 0.07"/>
   </g>
   <g id="patch_39">
    <path d="M 13.522207 43.68 
L 29.615099 43.68 
Q 35.937306 43.68 35.937306 37.357793 
L 35.937306 21.264901 
Q 35.937306 14.942694 29.615099 14.942694 
L 13.522207 14.942694 
Q 7.2 14.942694 7.2 21.264901 
L 7.2 37.357793 
Q 7.2 43.68 13.522207 43.68 
z
" clip-path="url(#p9e22ebf4a2)" style="fill: #ffa302; opacity: 0.07"/>
   </g>
   <g id="patch_40">
    <path d="M 13.653238 43.68 
L 30.07966 43.68 
Q 36.532898 43.68 36.532898 37.226762 
L 36.532898 20.80034 
Q 36.532898 14.347102 30.07966 14.347102 
L 13.653238 14.347102 
Q 7.2 14.347102 7.2 20.80034 
L 7.2 37.226762 
Q 7.2 43.68 13.653238 43.68 
z
" clip-path="url(#p9e22ebf4a2)" style="fill: #ffa202; opacity: 0.07"/>
   </g>
   <g id="patch_41">
    <path d="M 13.784268 43.68 
L 30.544222 43.68 
Q 37.12849 43.68 37.12849 37.095732 
L 37.12849 20.335778 
Q 37.12849 13.75151 30.544222 13.75151 
L 13.784268 13.75151 
Q 7.2 13.75151 7.2 20.335778 
L 7.2 37.095732 
Q 7.2 43.68 13.784268 43.68 
z
" clip-path="url(#p9e22ebf4a2)" style="fill: #ffa102; opacity: 0.07"/>
   </g>
   <g id="patch_42">
    <path d="M 13.915298 43.68 
L 31.008784 43.68 
Q 37.724082 43.68 37.724082 36.964702 
L 37.724082 19.871216 
Q 37.724082 13.155918 31.008784 13.155918 
L 13.915298 13.155918 
Q 7.2 13.155918 7.2 19.871216 
L 7.2 36.964702 
Q 7.2 43.68 13.915298 43.68 
z
" clip-path="url(#p9e22ebf4a2)" style="fill: #ffa001; opacity: 0.07"/>
   </g>
   <g id="patch_43">
    <path d="M 14.046328 43.68 
L 31.473345 43.68 
Q 38.319673 43.68 38.319673 36.833672 
L 38.319673 19.406655 
Q 38.319673 12.560327 31.473345 12.560327 
L 14.046328 12.560327 
Q 7.2 12.560327 7.2 19.406655 
L 7.2 36.833672 
Q 7.2 43.68 14.046328 43.68 
z
" clip-path="url(#p9e22ebf4a2)" style="fill: #ff9f01; opacity: 0.07"/>
   </g>
   <g id="patch_44">
    <path d="M 14.177358 43.68 
L 31.937907 43.68 
Q 38.915265 43.68 38.915265 36.702642 
L 38.915265 18.942093 
Q 38.915265 11.964735 31.937907 11.964735 
L 14.177358 11.964735 
Q 7.2 11.964735 7.2 18.942093 
L 7.2 36.702642 
Q 7.2 43.68 14.177358 43.68 
z
" clip-path="url(#p9e22ebf4a2)" style="fill: #ff9f01; opacity: 0.07"/>
   </g>
   <g id="patch_45">
    <path d="M 14.308389 43.68 
L 32.402469 43.68 
Q 39.510857 43.68 39.510857 36.571611 
L 39.510857 18.477531 
Q 39.510857 11.369143 32.402469 11.369143 
L 14.308389 11.369143 
Q 7.2 11.369143 7.2 18.477531 
L 7.2 36.571611 
Q 7.2 43.68 14.308389 43.68 
z
" clip-path="url(#p9e22ebf4a2)" style="fill: #ff9e01; opacity: 0.07"/>
   </g>
   <g id="patch_46">
    <path d="M 14.439419 43.68 
L 32.86703 43.68 
Q 40.106449 43.68 40.106449 36.440581 
L 40.106449 18.01297 
Q 40.106449 10.773551 32.86703 10.773551 
L 14.439419 10.773551 
Q 7.2 10.773551 7.2 18.01297 
L 7.2 36.440581 
Q 7.2 43.68 14.439419 43.68 
z
" clip-path="url(#p9e22ebf4a2)" style="fill: #ff9d01; opacity: 0.07"/>
   </g>
   <g id="patch_47">
    <path d="M 14.570449 43.68 
L 33.331592 43.68 
Q 40.702041 43.68 40.702041 36.309551 
L 40.702041 17.548408 
Q 40.702041 10.177959 33.331592 10.177959 
L 14.570449 10.177959 
Q 7.2 10.177959 7.2 17.548408 
L 7.2 36.309551 
Q 7.2 43.68 14.570449 43.68 
z
" clip-path="url(#p9e22ebf4a2)" style="fill: #ff9c01; opacity: 0.07"/>
   </g>
   <g id="patch_48">
    <path d="M 14.701479 43.68 
L 33.796153 43.68 
Q 41.297633 43.68 41.297633 36.178521 
L 41.297633 17.083847 
Q 41.297633 9.582367 33.796153 9.582367 
L 14.701479 9.582367 
Q 7.2 9.582367 7.2 17.083847 
L 7.2 36.178521 
Q 7.2 43.68 14.701479 43.68 
z
" clip-path="url(#p9e22ebf4a2)" style="fill: #ff9b01; opacity: 0.07"/>
   </g>
   <g id="patch_49">
    <path d="M 14.832509 43.68 
L 34.260715 43.68 
Q 41.893224 43.68 41.893224 36.047491 
L 41.893224 16.619285 
Q 41.893224 8.986776 34.260715 8.986776 
L 14.832509 8.986776 
Q 7.2 8.986776 7.2 16.619285 
L 7.2 36.047491 
Q 7.2 43.68 14.832509 43.68 
z
" clip-path="url(#p9e22ebf4a2)" style="fill: #ff9a00; opacity: 0.07"/>
   </g>
   <g id="patch_50">
    <path d="M 14.96354 43.68 
L 34.725277 43.68 
Q 42.488816 43.68 42.488816 35.91646 
L 42.488816 16.154723 
Q 42.488816 8.391184 34.725277 8.391184 
L 14.96354 8.391184 
Q 7.2 8.391184 7.2 16.154723 
L 7.2 35.91646 
Q 7.2 43.68 14.96354 43.68 
z
" clip-path="url(#p9e22ebf4a2)" style="fill: #ff9a00; opacity: 0.07"/>
   </g>
   <g id="patch_51">
    <path d="M 15.09457 43.68 
L 35.189838 43.68 
Q 43.084408 43.68 43.084408 35.78543 
L 43.084408 15.690162 
Q 43.084408 7.795592 35.189838 7.795592 
L 15.09457 7.795592 
Q 7.2 7.795592 7.2 15.690162 
L 7.2 35.78543 
Q 7.2 43.68 15.09457 43.68 
z
" clip-path="url(#p9e22ebf4a2)" style="fill: #ff9900; opacity: 0.07"/>
   </g>
   <g id="patch_52">
    <path d="M 15.2256 43.68 
L 35.6544 43.68 
Q 43.68 43.68 43.68 35.6544 
L 43.68 15.2256 
Q 43.68 7.2 35.6544 7.2 
L 15.2256 7.2 
Q 7.2 7.2 7.2 15.2256 
L 7.2 35.6544 
Q 7.2 43.68 15.2256 43.68 
z
" clip-path="url(#p9e22ebf4a2)" style="fill: #ff9800; opacity: 0.07"/>
   </g>
   <g id="patch_53">
    <path d="M 33.057024 18.421248 
L 32.963246 19.612813 
L 32.68422 20.775038 
L 32.226818 21.879305 
L 31.602302 22.898422 
L 30.826049 23.807297 
L 29.917174 24.58355 
L 28.898057 25.208066 
L 27.79379 25.665468 
L 26.631565 25.944494 
L 25.44 26.038272 
L 24.248435 25.944494 
L 23.08621 25.665468 
L 21.981943 25.208066 
L 20.962826 24.58355 
L 20.053951 23.807297 
L 19.277698 22.898422 
L 18.653182 21.879305 
L 18.19578 20.775038 
L 17.916754 19.612813 
L 17.822976 18.421248 
L 33.057024 26.038272 
L 25.44 31.962624 
L 17.822976 26.038272 
L 17.822976 18.421248 
L 33.057024 18.421248 
" clip-path="url(#p9e22ebf4a2)" style="fill: #ffffff"/>
   </g>
   <g id="patch_54">
    <path d="M 21.631488 24.3456 
C 22.304841 24.3456 22.950705 24.078074 23.426838 23.601942 
C 23.90297 23.125809 24.170496 22.479945 24.170496 21.806592 
C 24.170496 21.133239 23.90297 20.487375 23.426838 20.011242 
C 22.950705 19.53511 22.304841 19.267584 21.631488 19.267584 
C 20.958135 19.267584 20.312271 19.53511 19.836138 20.011242 
C 19.360006 20.487375 19.09248 21.133239 19.09248 21.806592 
C 19.09248 22.479945 19.360006 23.125809 19.836138 23.601942 
C 20.312271 24.078074 20.958135 24.3456 21.631488 24.3456 
z
" clip-path="url(#p9e22ebf4a2)" style="fill: #ffffff"/>
   </g>
   <g id="patch_55">
    <path d="M 29.248512 24.3456 
C 29.921865 24.3456 30.567729 24.078074 31.043862 23.601942 
C 31.519994 23.125809 31.78752 22.479945 31.78752 21.806592 
C 31.78752 21.133239 31.519994 20.487375 31.043862 20.011242 
C 30.567729 19.53511 29.921865 19.267584 29.248512 19.267584 
C 28.575159 19.267584 27.929295 19.53511 27.453162 20.011242 
C 26.97703 20.487375 26.709504 21.133239 26.709504 21.806592 
C 26.709504 22.479945 26.97703 23.125809 27.453162 23.601942 
C 27.929295 24.078074 28.575159 24.3456 29.248512 24.3456 
z
" clip-path="url(#p9e22ebf4a2)" style="fill: #ffffff"/>
   </g>
  </g>
 </g>
 <defs>
  <clipPath id="p9e22ebf4a2">
   <rect x="7.2" y="7.2" width="36.48" height="36.48"/>
  </clipPath>
 </defs>
</svg>
